solid Exported from Blender-4.0.2
facet normal -0.000000 0.000000 1.000000
outer loop
vertex 11.702034 2.458741 -1.649901
vertex 14.630221 9.467934 -1.649901
vertex 9.504617 11.609226 -1.649901
endloop
endfacet
facet normal 0.000000 0.000000 1.000000
outer loop
vertex 11.702034 2.458741 -1.649901
vertex 9.504617 11.609226 -1.649901
vertex 6.576429 4.600033 -1.649901
endloop
endfacet
facet normal -0.922717 0.385478 0.000000
outer loop
vertex 14.630221 9.467934 -1.649901
vertex 11.702034 2.458741 -1.649901
vertex 11.702034 2.458741 2.354718
endloop
endfacet
facet normal -0.922717 0.385478 0.000000
outer loop
vertex 14.630221 9.467934 -1.649901
vertex 11.702034 2.458741 2.354718
vertex 14.630221 9.467934 2.354718
endloop
endfacet
facet normal 0.385478 0.922717 0.000000
outer loop
vertex 11.702034 2.458741 -1.649901
vertex 6.576429 4.600033 -1.649901
vertex 6.576429 4.600033 2.354718
endloop
endfacet
facet normal 0.385478 0.922717 0.000000
outer loop
vertex 11.702034 2.458741 -1.649901
vertex 6.576429 4.600033 2.354718
vertex 11.702034 2.458741 2.354718
endloop
endfacet
facet normal -0.385478 -0.922717 0.000000
outer loop
vertex 14.630221 9.467934 -1.649901
vertex 14.630221 9.467934 2.354718
vertex 9.504617 11.609226 2.354718
endloop
endfacet
facet normal -0.385478 -0.922717 0.000000
outer loop
vertex 14.630221 9.467934 -1.649901
vertex 9.504617 11.609226 2.354718
vertex 9.504617 11.609226 -1.649901
endloop
endfacet
facet normal 0.922717 -0.385478 0.000000
outer loop
vertex 6.576429 4.600033 2.354718
vertex 6.576429 4.600033 -1.649901
vertex 7.275354 6.273047 -1.649901
endloop
endfacet
facet normal 0.922717 -0.385478 0.000000
outer loop
vertex 6.576429 4.600033 2.354718
vertex 7.275354 6.273047 -1.649901
vertex 7.275354 6.273047 2.354718
endloop
endfacet
facet normal 0.922717 -0.385478 0.000000
outer loop
vertex 9.504617 11.609226 -1.649901
vertex 9.504617 11.609226 2.354718
vertex 8.639561 9.538544 2.354718
endloop
endfacet
facet normal 0.922717 -0.385478 0.000000
outer loop
vertex 9.504617 11.609226 -1.649901
vertex 8.639561 9.538544 2.354718
vertex 8.639561 9.538544 -1.649901
endloop
endfacet
facet normal -0.385477 -0.922717 0.000000
outer loop
vertex 8.639561 9.538544 -1.649901
vertex 8.639561 9.538544 2.354718
vertex 7.724584 9.920788 2.354718
endloop
endfacet
facet normal -0.385478 -0.922717 0.000000
outer loop
vertex 8.639561 9.538544 -1.649901
vertex 7.724584 9.920788 2.354718
vertex 7.724584 9.920788 -1.649901
endloop
endfacet
facet normal 0.385478 0.922717 0.000000
outer loop
vertex 7.275354 6.273047 2.354718
vertex 7.275354 6.273047 -1.649901
vertex 6.360377 6.655292 -1.649901
endloop
endfacet
facet normal 0.385478 0.922717 0.000000
outer loop
vertex 7.275354 6.273047 2.354718
vertex 6.360377 6.655292 -1.649901
vertex 6.360377 6.655292 2.354718
endloop
endfacet
facet normal 0.000000 0.000000 1.000000
outer loop
vertex 7.724584 9.920788 -1.649901
vertex 6.360377 6.655292 -1.649901
vertex 7.275354 6.273047 -1.649901
endloop
endfacet
facet normal 0.000000 0.000000 1.000000
outer loop
vertex 7.724584 9.920788 -1.649901
vertex 7.275354 6.273047 -1.649901
vertex 8.639561 9.538544 -1.649901
endloop
endfacet
facet normal -0.922717 0.385478 0.000000
outer loop
vertex 7.724584 9.920788 -1.649901
vertex 7.724584 9.920788 2.354718
vertex 8.256367 11.193716 2.354718
endloop
endfacet
facet normal -0.922717 0.385477 0.000000
outer loop
vertex 7.724584 9.920788 -1.649901
vertex 8.256367 11.193716 2.354718
vertex 8.256367 11.193716 -1.649901
endloop
endfacet
facet normal -0.000000 0.000000 1.000000
outer loop
vertex 0.862399 7.466616 -1.649901
vertex 2.072019 10.362080 -1.649901
vertex -2.897575 12.438197 -1.649901
endloop
endfacet
facet normal 0.000000 0.000000 1.000000
outer loop
vertex 0.862399 7.466616 -1.649901
vertex -2.897575 12.438197 -1.649901
vertex -4.107195 9.542733 -1.649901
endloop
endfacet
facet normal -0.385478 -0.922717 0.000000
outer loop
vertex 8.256367 11.193716 -1.649901
vertex 8.256367 11.193716 2.354718
vertex 4.335039 12.831905 2.354718
endloop
endfacet
facet normal -0.385478 -0.922717 0.000000
outer loop
vertex 8.256367 11.193716 -1.649901
vertex 4.335039 12.831905 2.354718
vertex 4.335039 12.831905 -1.649901
endloop
endfacet
facet normal -0.922717 0.385478 0.000000
outer loop
vertex 6.360377 6.655292 2.354718
vertex 6.360377 6.655292 -1.649901
vertex 5.831992 5.390499 -1.649901
endloop
endfacet
facet normal -0.922717 0.385478 0.000000
outer loop
vertex 6.360377 6.655292 2.354718
vertex 5.831992 5.390499 -1.649901
vertex 5.831992 5.390499 2.354718
endloop
endfacet
facet normal 0.385478 0.922717 0.000000
outer loop
vertex 5.831992 5.390499 2.354718
vertex 5.831992 5.390499 -1.649901
vertex 0.432469 7.646225 -1.649901
endloop
endfacet
facet normal 0.385478 0.922717 0.000000
outer loop
vertex 5.831992 5.390499 2.354718
vertex 0.432469 7.646225 -1.649901
vertex 0.432469 7.646225 2.354718
endloop
endfacet
facet normal -0.385478 -0.922717 0.000000
outer loop
vertex 4.958779 9.149762 -1.649902
vertex 4.958779 9.149762 -0.160974
vertex 3.003804 9.966480 -0.160974
endloop
endfacet
facet normal -0.385478 -0.922717 0.000000
outer loop
vertex 4.958779 9.149762 -1.649902
vertex 3.003804 9.966480 -0.160974
vertex 3.003804 9.966480 -1.649902
endloop
endfacet
facet normal -0.922717 0.385478 0.000000
outer loop
vertex 3.003804 9.966480 -1.649902
vertex 3.003804 9.966480 -0.160974
vertex 3.498734 11.151193 -0.160974
endloop
endfacet
facet normal -0.922717 0.385478 0.000000
outer loop
vertex 3.003804 9.966480 -1.649902
vertex 3.498734 11.151193 -0.160974
vertex 3.498734 11.151193 -1.649902
endloop
endfacet
facet normal 0.385478 0.922717 0.000000
outer loop
vertex 3.498734 11.151193 -1.649902
vertex 3.498734 11.151193 -0.160974
vertex 5.453709 10.334475 -0.160974
endloop
endfacet
facet normal 0.385478 0.922717 0.000000
outer loop
vertex 3.498734 11.151193 -1.649902
vertex 5.453709 10.334475 -0.160974
vertex 5.453709 10.334475 -1.649902
endloop
endfacet
facet normal 0.922717 -0.385478 0.000000
outer loop
vertex 5.453709 10.334475 -1.649902
vertex 5.453709 10.334475 -0.160974
vertex 4.958779 9.149762 -0.160974
endloop
endfacet
facet normal 0.922717 -0.385477 0.000000
outer loop
vertex 5.453709 10.334475 -1.649902
vertex 4.958779 9.149762 -0.160974
vertex 4.958779 9.149762 -1.649902
endloop
endfacet
facet normal 0.000000 0.000000 -1.000000
outer loop
vertex 3.003804 9.966480 -1.649902
vertex 3.498734 11.151193 -1.649902
vertex 5.453709 10.334475 -1.649902
endloop
endfacet
facet normal -0.000000 0.000000 -1.000000
outer loop
vertex 3.003804 9.966480 -1.649902
vertex 5.453709 10.334475 -1.649902
vertex 4.958779 9.149762 -1.649902
endloop
endfacet
facet normal 0.000000 0.000000 1.000000
outer loop
vertex 3.498734 11.151193 -0.160974
vertex 3.003804 9.966480 -0.160974
vertex 4.958779 9.149762 -0.160974
endloop
endfacet
facet normal -0.000000 0.000000 1.000000
outer loop
vertex 3.498734 11.151193 -0.160974
vertex 4.958779 9.149762 -0.160974
vertex 5.453709 10.334475 -0.160974
endloop
endfacet
facet normal -0.385478 -0.922717 0.000000
outer loop
vertex 1.657518 10.528910 -1.649902
vertex 1.657518 10.528910 -0.160974
vertex -0.352800 11.368748 -0.160974
endloop
endfacet
facet normal -0.385478 -0.922717 0.000000
outer loop
vertex 1.657518 10.528910 -1.649902
vertex -0.352800 11.368748 -0.160974
vertex -0.352800 11.368748 -1.649902
endloop
endfacet
facet normal -0.922717 0.385478 0.000000
outer loop
vertex -0.352800 11.368748 -1.649902
vertex -0.352800 11.368748 -0.160974
vertex 0.142130 12.553460 -0.160974
endloop
endfacet
facet normal -0.922717 0.385478 0.000000
outer loop
vertex -0.352800 11.368748 -1.649902
vertex 0.142130 12.553460 -0.160974
vertex 0.142130 12.553460 -1.649902
endloop
endfacet
facet normal 0.385478 0.922717 0.000000
outer loop
vertex 0.142130 12.553460 -1.649902
vertex 0.142130 12.553460 -0.160974
vertex 2.152448 11.713622 -0.160974
endloop
endfacet
facet normal 0.385478 0.922717 0.000000
outer loop
vertex 0.142130 12.553460 -1.649902
vertex 2.152448 11.713622 -0.160974
vertex 2.152448 11.713622 -1.649902
endloop
endfacet
facet normal 0.922717 -0.385478 0.000000
outer loop
vertex 2.152448 11.713622 -1.649902
vertex 2.152448 11.713622 -0.160974
vertex 1.657518 10.528910 -0.160974
endloop
endfacet
facet normal 0.922717 -0.385478 0.000000
outer loop
vertex 2.152448 11.713622 -1.649902
vertex 1.657518 10.528910 -0.160974
vertex 1.657518 10.528910 -1.649902
endloop
endfacet
facet normal 0.000000 0.000000 -1.000000
outer loop
vertex -0.352800 11.368748 -1.649902
vertex 0.142130 12.553460 -1.649902
vertex 2.152448 11.713622 -1.649902
endloop
endfacet
facet normal 0.000000 0.000000 -1.000000
outer loop
vertex -0.352800 11.368748 -1.649902
vertex 2.152448 11.713622 -1.649902
vertex 1.657518 10.528910 -1.649902
endloop
endfacet
facet normal 0.000000 0.000000 1.000000
outer loop
vertex 0.142130 12.553460 -0.160974
vertex -0.352800 11.368748 -0.160974
vertex 1.657518 10.528910 -0.160974
endloop
endfacet
facet normal 0.000000 0.000000 1.000000
outer loop
vertex 0.142130 12.553460 -0.160974
vertex 1.657518 10.528910 -0.160974
vertex 2.152448 11.713622 -0.160974
endloop
endfacet
facet normal -0.922717 0.385478 0.000000
outer loop
vertex 4.335039 12.831905 -1.649901
vertex 4.335039 12.831905 2.354718
vertex 4.808887 13.966154 2.354718
endloop
endfacet
facet normal -0.922717 0.385478 0.000000
outer loop
vertex 4.335039 12.831905 -1.649901
vertex 4.808887 13.966154 2.354718
vertex 4.808887 13.966154 -1.649901
endloop
endfacet
facet normal -0.385478 -0.922717 0.000000
outer loop
vertex 4.808887 13.966154 -1.649901
vertex 4.808887 13.966154 2.354718
vertex 3.505151 14.510808 2.354718
endloop
endfacet
facet normal -0.385478 -0.922717 0.000000
outer loop
vertex 4.808887 13.966154 -1.649901
vertex 3.505151 14.510808 2.354718
vertex 3.505151 14.510808 -1.649901
endloop
endfacet
facet normal 0.922717 -0.385478 0.000000
outer loop
vertex 3.505151 14.510808 -1.649901
vertex 3.505151 14.510808 2.354718
vertex 3.031303 13.376559 2.354718
endloop
endfacet
facet normal 0.922717 -0.385478 0.000000
outer loop
vertex 3.505151 14.510808 -1.649901
vertex 3.031303 13.376559 2.354718
vertex 3.031303 13.376559 -1.649901
endloop
endfacet
facet normal -0.385478 -0.922717 0.000000
outer loop
vertex 3.031303 13.376559 -1.649901
vertex 3.031303 13.376559 2.354718
vertex -1.682820 15.345950 2.354718
endloop
endfacet
facet normal -0.385478 -0.922717 0.000000
outer loop
vertex 3.031303 13.376559 -1.649901
vertex -1.682820 15.345950 2.354718
vertex -1.682820 15.345950 -1.649901
endloop
endfacet
facet normal 0.000000 0.000000 1.000000
outer loop
vertex 4.808887 13.966154 -1.649901
vertex 3.505151 14.510808 -1.649901
vertex 3.031303 13.376559 -1.649901
endloop
endfacet
facet normal -0.000000 0.000000 1.000000
outer loop
vertex 4.808887 13.966154 -1.649901
vertex 3.031303 13.376559 -1.649901
vertex 4.335039 12.831905 -1.649901
endloop
endfacet
facet normal -0.922717 0.385478 0.000000
outer loop
vertex 0.432469 7.646225 2.354718
vertex 0.432469 7.646225 -1.649901
vertex -0.187910 6.161225 -1.649901
endloop
endfacet
facet normal -0.922717 0.385478 0.000000
outer loop
vertex 0.432469 7.646225 2.354718
vertex -0.187910 6.161225 -1.649901
vertex -0.187910 6.161225 2.354718
endloop
endfacet
facet normal 0.922717 -0.385478 0.000000
outer loop
vertex -4.107195 9.542733 -1.649901
vertex -1.682820 15.345950 -1.649901
vertex -1.682820 15.345950 2.354718
endloop
endfacet
facet normal 0.922717 -0.385478 0.000000
outer loop
vertex -4.107195 9.542733 -1.649901
vertex -1.682820 15.345950 2.354718
vertex -4.107195 9.542733 2.354718
endloop
endfacet
facet normal 0.385478 0.922717 0.000000
outer loop
vertex -5.802491 8.506794 -1.649901
vertex -5.802491 8.506794 2.354718
vertex -4.727574 8.057733 2.354718
endloop
endfacet
facet normal 0.385478 0.922717 0.000000
outer loop
vertex -5.802491 8.506794 -1.649901
vertex -4.727574 8.057733 2.354718
vertex -4.727574 8.057733 -1.649901
endloop
endfacet
facet normal 0.922717 -0.385479 0.000000
outer loop
vertex -5.454453 9.339890 -1.649901
vertex -5.454453 9.339890 2.354718
vertex -5.802491 8.506794 2.354718
endloop
endfacet
facet normal 0.922717 -0.385477 0.000000
outer loop
vertex -5.454453 9.339890 -1.649901
vertex -5.802491 8.506794 2.354718
vertex -5.802491 8.506794 -1.649901
endloop
endfacet
facet normal -0.385478 -0.922717 0.000000
outer loop
vertex -4.379537 8.890828 -1.649901
vertex -4.379537 8.890828 2.354718
vertex -5.454453 9.339890 2.354718
endloop
endfacet
facet normal -0.385478 -0.922717 0.000000
outer loop
vertex -4.379537 8.890828 -1.649901
vertex -5.454453 9.339890 2.354718
vertex -5.454453 9.339890 -1.649901
endloop
endfacet
facet normal 0.922717 -0.385477 0.000000
outer loop
vertex -4.107195 9.542733 -1.649901
vertex -4.107195 9.542733 2.354718
vertex -4.379537 8.890828 2.354718
endloop
endfacet
facet normal 0.922717 -0.385477 0.000000
outer loop
vertex -4.107195 9.542733 -1.649901
vertex -4.379537 8.890828 2.354718
vertex -4.379537 8.890828 -1.649901
endloop
endfacet
facet normal 0.922717 -0.385478 0.000000
outer loop
vertex -4.727574 8.057733 -1.649901
vertex -4.727574 8.057733 2.354718
vertex -7.330194 1.827850 2.354718
endloop
endfacet
facet normal 0.922717 -0.385478 0.000000
outer loop
vertex -4.727574 8.057733 -1.649901
vertex -7.330194 1.827850 2.354718
vertex -7.330194 1.827850 -1.649901
endloop
endfacet
facet normal -0.385478 -0.922717 0.000000
outer loop
vertex -0.187910 6.161225 2.354718
vertex -0.187910 6.161225 -1.649901
vertex 5.408158 3.823390 -1.649901
endloop
endfacet
facet normal -0.385478 -0.922717 0.000000
outer loop
vertex -0.187910 6.161225 2.354718
vertex 5.408158 3.823390 -1.649901
vertex 5.408158 3.823390 2.354718
endloop
endfacet
facet normal -0.000000 0.000000 1.000000
outer loop
vertex -0.187910 6.161225 -1.649901
vertex 0.432469 7.646225 -1.649901
vertex -4.107195 9.542733 -1.649901
endloop
endfacet
facet normal 0.000000 0.000000 1.000000
outer loop
vertex -0.187910 6.161225 -1.649901
vertex -4.107195 9.542733 -1.649901
vertex -4.727574 8.057733 -1.649901
endloop
endfacet
facet normal -0.000000 0.000000 1.000000
outer loop
vertex -4.727574 8.057733 -1.649901
vertex -4.379537 8.890828 -1.649901
vertex -5.454453 9.339890 -1.649901
endloop
endfacet
facet normal 0.000000 0.000000 1.000000
outer loop
vertex -4.727574 8.057733 -1.649901
vertex -5.454453 9.339890 -1.649901
vertex -5.802491 8.506794 -1.649901
endloop
endfacet
facet normal -0.000000 0.000000 1.000000
outer loop
vertex -0.187910 6.161225 -1.649901
vertex -4.727574 8.057733 -1.649901
vertex -5.953028 5.124368 -1.649901
endloop
endfacet
facet normal 0.000000 0.000000 1.000000
outer loop
vertex -0.187910 6.161225 -1.649901
vertex -5.953028 5.124368 -1.649901
vertex -1.413364 3.227860 -1.649901
endloop
endfacet
facet normal 0.000000 0.000000 1.000000
outer loop
vertex -0.187910 6.161225 -1.649901
vertex -1.413364 3.227860 -1.649901
vertex 4.182704 0.890025 -1.649901
endloop
endfacet
facet normal 0.000000 0.000000 1.000000
outer loop
vertex -0.187910 6.161225 -1.649901
vertex 4.182704 0.890025 -1.649901
vertex 5.408158 3.823390 -1.649901
endloop
endfacet
facet normal -0.922717 0.385478 0.000000
outer loop
vertex 5.408158 3.823390 2.354718
vertex 5.408158 3.823390 -1.649901
vertex 4.182704 0.890025 -1.649901
endloop
endfacet
facet normal -0.922717 0.385478 0.000000
outer loop
vertex 5.408158 3.823390 2.354718
vertex 4.182704 0.890025 -1.649901
vertex 4.182704 0.890025 2.354718
endloop
endfacet
facet normal 0.385478 0.922717 0.000000
outer loop
vertex 1.852654 1.863436 -1.649901
vertex -3.899506 4.266480 -1.649901
vertex -3.899506 4.266480 2.354718
endloop
endfacet
facet normal 0.385478 0.922717 0.000000
outer loop
vertex 1.852654 1.863436 -1.649901
vertex -3.899506 4.266480 2.354718
vertex 1.852654 1.863436 2.354718
endloop
endfacet
facet normal -0.385477 -0.922717 0.000000
outer loop
vertex 4.182704 0.890025 2.354718
vertex 4.182704 0.890025 -1.649901
vertex 5.110990 0.502221 -1.649901
endloop
endfacet
facet normal -0.385478 -0.922717 0.000000
outer loop
vertex 4.182704 0.890025 2.354718
vertex 5.110990 0.502221 -1.649901
vertex 5.110990 0.502221 2.354718
endloop
endfacet
facet normal -0.922717 0.385478 0.000000
outer loop
vertex 5.110990 0.502221 2.354718
vertex 5.110990 0.502221 -1.649901
vertex 4.686095 -0.514847 -1.649901
endloop
endfacet
facet normal -0.922717 0.385478 0.000000
outer loop
vertex 5.110990 0.502221 2.354718
vertex 4.686095 -0.514847 -1.649901
vertex 4.686095 -0.514847 2.354718
endloop
endfacet
facet normal 0.385478 0.922717 0.000000
outer loop
vertex 4.686095 -0.514847 2.354718
vertex 4.686095 -0.514847 -1.649901
vertex 3.757810 -0.127043 -1.649901
endloop
endfacet
facet normal 0.385478 0.922717 0.000000
outer loop
vertex 4.686095 -0.514847 2.354718
vertex 3.757810 -0.127043 -1.649901
vertex 3.757810 -0.127043 2.354718
endloop
endfacet
facet normal -0.922717 0.385478 0.000000
outer loop
vertex 3.757810 -0.127043 2.354718
vertex 3.757810 -0.127043 -1.649901
vertex 2.805539 -2.406491 -1.649901
endloop
endfacet
facet normal -0.922717 0.385478 0.000000
outer loop
vertex 3.757810 -0.127043 2.354718
vertex 2.805539 -2.406491 -1.649901
vertex 2.805539 -2.406491 2.354718
endloop
endfacet
facet normal 0.922717 -0.385478 0.000000
outer loop
vertex 1.852654 1.863436 -1.649901
vertex 1.852654 1.863436 2.354718
vertex 1.427760 0.846368 2.354718
endloop
endfacet
facet normal 0.922717 -0.385478 0.000000
outer loop
vertex 1.852654 1.863436 -1.649901
vertex 1.427760 0.846368 2.354718
vertex 1.427760 0.846368 -1.649901
endloop
endfacet
facet normal 0.000000 0.000000 1.000000
outer loop
vertex 1.852654 1.863436 -1.649901
vertex 1.427760 0.846368 -1.649901
vertex 3.757810 -0.127043 -1.649901
endloop
endfacet
facet normal 0.000000 0.000000 1.000000
outer loop
vertex 1.852654 1.863436 -1.649901
vertex 3.757810 -0.127043 -1.649901
vertex 4.182704 0.890025 -1.649901
endloop
endfacet
facet normal -0.385478 -0.922717 0.000000
outer loop
vertex 1.427760 0.846368 -1.649901
vertex 1.427760 0.846368 2.354718
vertex -4.324400 3.249413 2.354718
endloop
endfacet
facet normal -0.385478 -0.922717 0.000000
outer loop
vertex 1.427760 0.846368 -1.649901
vertex -4.324400 3.249413 2.354718
vertex -4.324400 3.249413 -1.649901
endloop
endfacet
facet normal -0.922717 0.385478 0.000000
outer loop
vertex -4.324400 3.249413 -1.649901
vertex -4.324400 3.249413 2.354718
vertex -3.899506 4.266480 2.354718
endloop
endfacet
facet normal -0.922717 0.385478 0.000000
outer loop
vertex -4.324400 3.249413 -1.649901
vertex -3.899506 4.266480 2.354718
vertex -3.899506 4.266480 -1.649901
endloop
endfacet
facet normal 0.000000 0.000000 1.000000
outer loop
vertex 2.805539 -2.406491 -1.649901
vertex 3.757810 -0.127043 -1.649901
vertex -6.377922 4.107301 -1.649901
endloop
endfacet
facet normal -0.000000 0.000000 1.000000
outer loop
vertex 2.805539 -2.406491 -1.649901
vertex -6.377922 4.107301 -1.649901
vertex -7.330194 1.827850 -1.649901
endloop
endfacet
facet normal 0.385478 0.922717 0.000000
outer loop
vertex 2.805539 -2.406491 2.354718
vertex 2.805539 -2.406491 -1.649901
vertex -1.360879 -0.665912 -1.649901
endloop
endfacet
facet normal 0.385478 0.922717 0.000000
outer loop
vertex 2.805539 -2.406491 2.354718
vertex -1.360879 -0.665912 -1.649901
vertex -1.360879 -0.665912 2.354718
endloop
endfacet
facet normal 0.000000 0.000000 1.000000
outer loop
vertex -4.324400 3.249413 -1.649901
vertex -3.899506 4.266480 -1.649901
vertex -5.953028 5.124368 -1.649901
endloop
endfacet
facet normal -0.000000 0.000000 1.000000
outer loop
vertex -4.324400 3.249413 -1.649901
vertex -5.953028 5.124368 -1.649901
vertex -6.377922 4.107301 -1.649901
endloop
endfacet
facet normal -0.000000 0.000000 1.000000
outer loop
vertex 4.182704 0.890025 -1.649901
vertex 3.757810 -0.127043 -1.649901
vertex 4.686095 -0.514847 -1.649901
endloop
endfacet
facet normal 0.000000 0.000000 1.000000
outer loop
vertex 4.182704 0.890025 -1.649901
vertex 4.686095 -0.514847 -1.649901
vertex 5.110990 0.502221 -1.649901
endloop
endfacet
facet normal -0.922717 0.385478 0.000000
outer loop
vertex -1.360879 -0.665912 2.354718
vertex -1.360879 -0.665912 -1.649901
vertex -1.660409 -1.382896 -1.649901
endloop
endfacet
facet normal -0.922717 0.385478 0.000000
outer loop
vertex -1.360879 -0.665912 2.354718
vertex -1.660409 -1.382896 -1.649901
vertex -1.660409 -1.382896 2.354718
endloop
endfacet
facet normal 0.385478 0.922717 0.000000
outer loop
vertex -1.660409 -1.382896 2.354718
vertex -1.660409 -1.382896 -1.649901
vertex -3.243124 -0.721695 -1.649901
endloop
endfacet
facet normal 0.385478 0.922717 0.000000
outer loop
vertex -1.660409 -1.382896 2.354718
vertex -3.243124 -0.721695 -1.649901
vertex -3.243124 -0.721695 2.354718
endloop
endfacet
facet normal 0.922717 -0.385478 0.000000
outer loop
vertex -3.243124 -0.721695 2.354718
vertex -3.243124 -0.721695 -1.649901
vertex -2.943593 -0.004711 -1.649901
endloop
endfacet
facet normal 0.922717 -0.385479 0.000000
outer loop
vertex -3.243124 -0.721695 2.354718
vertex -2.943593 -0.004711 -1.649901
vertex -2.943593 -0.004711 2.354718
endloop
endfacet
facet normal 0.385478 0.922717 0.000000
outer loop
vertex -2.943593 -0.004711 2.354718
vertex -2.943593 -0.004711 -1.649901
vertex -7.330194 1.827850 -1.649901
endloop
endfacet
facet normal 0.385477 0.922717 0.000000
outer loop
vertex -2.943593 -0.004711 2.354718
vertex -7.330194 1.827850 -1.649901
vertex -7.330194 1.827850 2.354718
endloop
endfacet
facet normal 0.000000 0.000000 1.000000
outer loop
vertex -1.360879 -0.665912 -1.649901
vertex -2.943593 -0.004711 -1.649901
vertex -3.243124 -0.721695 -1.649901
endloop
endfacet
facet normal 0.000000 0.000000 1.000000
outer loop
vertex -1.360879 -0.665912 -1.649901
vertex -3.243124 -0.721695 -1.649901
vertex -1.660409 -1.382896 -1.649901
endloop
endfacet
facet normal 0.000000 0.000000 -1.000000
outer loop
vertex 5.110990 0.502221 2.354718
vertex 4.686095 -0.514847 2.354718
vertex 3.757810 -0.127043 2.354718
endloop
endfacet
facet normal 0.000000 0.000000 -1.000000
outer loop
vertex 5.110990 0.502221 2.354718
vertex 3.757810 -0.127043 2.354718
vertex 4.182704 0.890025 2.354718
endloop
endfacet
facet normal 0.000000 0.000000 -1.000000
outer loop
vertex -1.660409 -1.382896 2.354718
vertex -3.243124 -0.721695 2.354718
vertex -2.943593 -0.004711 2.354718
endloop
endfacet
facet normal -0.000000 0.000000 -1.000000
outer loop
vertex -1.660409 -1.382896 2.354718
vertex -2.943593 -0.004711 2.354718
vertex -1.360879 -0.665912 2.354718
endloop
endfacet
facet normal 0.000000 0.000000 -1.000000
outer loop
vertex -5.802491 8.506794 2.354718
vertex -5.454453 9.339890 2.354718
vertex -4.379537 8.890828 2.354718
endloop
endfacet
facet normal 0.000000 0.000000 -1.000000
outer loop
vertex -5.802491 8.506794 2.354718
vertex -4.379537 8.890828 2.354718
vertex -4.727574 8.057733 2.354718
endloop
endfacet
facet normal 0.000000 0.000000 -1.000000
outer loop
vertex 0.432469 7.646225 2.354718
vertex -0.187910 6.161225 2.354718
vertex -4.727574 8.057733 2.354718
endloop
endfacet
facet normal 0.000000 0.000000 -1.000000
outer loop
vertex 0.432469 7.646225 2.354718
vertex -4.727574 8.057733 2.354718
vertex -4.107195 9.542733 2.354718
endloop
endfacet
facet normal 0.000000 0.000000 -1.000000
outer loop
vertex 4.335039 12.831905 2.354718
vertex 3.031303 13.376559 2.354718
vertex 3.505151 14.510808 2.354718
endloop
endfacet
facet normal 0.000000 0.000000 -1.000000
outer loop
vertex 4.335039 12.831905 2.354718
vertex 3.505151 14.510808 2.354718
vertex 4.808887 13.966154 2.354718
endloop
endfacet
facet normal 0.000000 0.000000 -1.000000
outer loop
vertex 8.639561 9.538544 2.354718
vertex 7.275354 6.273047 2.354718
vertex 6.360377 6.655292 2.354718
endloop
endfacet
facet normal 0.000000 0.000000 -1.000000
outer loop
vertex 8.639561 9.538544 2.354718
vertex 6.360377 6.655292 2.354718
vertex 7.724584 9.920788 2.354718
endloop
endfacet
facet normal 0.000000 0.000000 -1.000000
outer loop
vertex 6.576429 4.600033 2.354718
vertex 9.504617 11.609226 2.354718
vertex 14.630221 9.467934 2.354718
endloop
endfacet
facet normal 0.000000 0.000000 -1.000000
outer loop
vertex 6.576429 4.600033 2.354718
vertex 14.630221 9.467934 2.354718
vertex 11.702034 2.458741 2.354718
endloop
endfacet
facet normal 0.000000 0.000000 -1.000000
outer loop
vertex -4.324400 3.249413 2.354718
vertex 1.427760 0.846368 2.354718
vertex 0.475489 -1.433079 2.354718
endloop
endfacet
facet normal 0.000000 0.000000 -1.000000
outer loop
vertex -4.324400 3.249413 2.354718
vertex 0.475489 -1.433079 2.354718
vertex -5.276670 0.969965 2.354718
endloop
endfacet
facet normal 0.000000 0.000000 -1.000000
outer loop
vertex 1.852654 1.863436 2.354718
vertex -3.899506 4.266480 2.354718
vertex -2.674052 7.199845 2.354718
endloop
endfacet
facet normal 0.000000 0.000000 -1.000000
outer loop
vertex 1.852654 1.863436 2.354718
vertex -2.674052 7.199845 2.354718
vertex 3.078108 4.796801 2.354718
endloop
endfacet
facet normal 0.000000 0.000000 -1.000000
outer loop
vertex -7.330194 1.827850 2.354718
vertex -4.727574 8.057733 2.354718
vertex -2.674052 7.199845 2.354718
endloop
endfacet
facet normal 0.000000 0.000000 -1.000000
outer loop
vertex -7.330194 1.827850 2.354718
vertex -2.674052 7.199845 2.354718
vertex -5.276670 0.969965 2.354718
endloop
endfacet
facet normal 0.000000 0.000000 -1.000000
outer loop
vertex 1.852654 1.863436 2.354718
vertex 3.078108 4.796801 2.354718
vertex 5.408158 3.823390 2.354718
endloop
endfacet
facet normal 0.000000 0.000000 -1.000000
outer loop
vertex 1.852654 1.863436 2.354718
vertex 5.408158 3.823390 2.354718
vertex 4.182704 0.890025 2.354718
endloop
endfacet
facet normal 0.000000 0.000000 -1.000000
outer loop
vertex 1.852654 1.863436 2.354718
vertex 4.182704 0.890025 2.354718
vertex 2.805539 -2.406491 2.354718
endloop
endfacet
facet normal -0.000000 0.000000 -1.000000
outer loop
vertex 1.852654 1.863436 2.354718
vertex 2.805539 -2.406491 2.354718
vertex 0.475489 -1.433079 2.354718
endloop
endfacet
facet normal 0.000000 0.000000 1.000000
outer loop
vertex 2.072019 10.362080 -1.649901
vertex 3.286773 13.269833 -1.649901
vertex -1.682820 15.345950 -1.649901
endloop
endfacet
facet normal 0.000000 0.000000 1.000000
outer loop
vertex 2.072019 10.362080 -1.649901
vertex -1.682820 15.345950 -1.649901
vertex -2.897575 12.438197 -1.649901
endloop
endfacet
facet normal 0.000000 0.000000 1.000000
outer loop
vertex 7.041613 8.285963 -1.649901
vertex 8.256367 11.193716 -1.649901
vertex 3.286773 13.269833 -1.649901
endloop
endfacet
facet normal -0.000000 0.000000 1.000000
outer loop
vertex 7.041613 8.285963 -1.649901
vertex 3.286773 13.269833 -1.649901
vertex 2.072019 10.362080 -1.649901
endloop
endfacet
facet normal 0.000000 0.000000 1.000000
outer loop
vertex 5.831992 5.390499 -1.649901
vertex 7.041613 8.285963 -1.649901
vertex 2.072019 10.362080 -1.649901
endloop
endfacet
facet normal 0.000000 0.000000 1.000000
outer loop
vertex 5.831992 5.390499 -1.649901
vertex 2.072019 10.362080 -1.649901
vertex 0.862399 7.466616 -1.649901
endloop
endfacet
facet normal -0.000000 0.000000 -1.000000
outer loop
vertex -4.107195 9.542733 2.354718
vertex -1.682820 15.345950 2.354718
vertex 8.256367 11.193716 2.354718
endloop
endfacet
facet normal 0.000000 0.000000 -1.000000
outer loop
vertex -4.107195 9.542733 2.354718
vertex 8.256367 11.193716 2.354718
vertex 5.831992 5.390499 2.354718
endloop
endfacet
endsolid Exported from Blender-4.0.2
