solid Exported from Blender-4.0.2
facet normal -0.000000 0.000000 1.000000
outer loop
vertex -7.333926 -10.038181 -1.651036
vertex -2.558321 -15.945521 -1.651036
vertex 1.761533 -12.453270 -1.651036
endloop
endfacet
facet normal 0.000000 0.000000 1.000000
outer loop
vertex -7.333926 -10.038181 -1.651036
vertex 1.761533 -12.453270 -1.651036
vertex -3.014072 -6.545930 -1.651036
endloop
endfacet
facet normal 0.777665 0.628679 0.000000
outer loop
vertex -2.558321 -15.945521 -1.651036
vertex -7.333926 -10.038181 -1.651036
vertex -7.333926 -10.038181 2.353583
endloop
endfacet
facet normal 0.777665 0.628679 0.000000
outer loop
vertex -2.558321 -15.945521 -1.651036
vertex -7.333926 -10.038181 2.353583
vertex -2.558321 -15.945521 2.353583
endloop
endfacet
facet normal 0.628679 -0.777665 0.000000
outer loop
vertex -7.333926 -10.038181 -1.651036
vertex -3.014072 -6.545930 -1.651036
vertex -3.014072 -6.545930 2.353583
endloop
endfacet
facet normal 0.628679 -0.777665 0.000000
outer loop
vertex -7.333926 -10.038181 -1.651036
vertex -3.014072 -6.545930 2.353583
vertex -7.333926 -10.038181 2.353583
endloop
endfacet
facet normal -0.628679 0.777665 0.000000
outer loop
vertex -2.558321 -15.945521 -1.651036
vertex -2.558321 -15.945521 2.353583
vertex 1.761533 -12.453270 2.353583
endloop
endfacet
facet normal -0.628679 0.777665 0.000000
outer loop
vertex -2.558321 -15.945521 -1.651036
vertex 1.761533 -12.453270 2.353583
vertex 1.761533 -12.453270 -1.651036
endloop
endfacet
facet normal -0.777665 -0.628679 0.000000
outer loop
vertex -3.014072 -6.545930 2.353583
vertex -3.014072 -6.545930 -1.651036
vertex -1.874190 -7.955945 -1.651036
endloop
endfacet
facet normal -0.777665 -0.628679 0.000000
outer loop
vertex -3.014072 -6.545930 2.353583
vertex -1.874190 -7.955945 -1.651036
vertex -1.874190 -7.955945 2.353583
endloop
endfacet
facet normal -0.777665 -0.628679 0.000000
outer loop
vertex 1.761533 -12.453270 -1.651036
vertex 1.761533 -12.453270 2.353583
vertex 0.350706 -10.708101 2.353583
endloop
endfacet
facet normal -0.777665 -0.628679 0.000000
outer loop
vertex 1.761533 -12.453270 -1.651036
vertex 0.350706 -10.708101 2.353583
vertex 0.350706 -10.708101 -1.651036
endloop
endfacet
facet normal -0.628679 0.777665 0.000000
outer loop
vertex 0.350706 -10.708101 -1.651036
vertex 0.350706 -10.708101 2.353583
vertex 1.121847 -10.084696 2.353583
endloop
endfacet
facet normal -0.628679 0.777665 0.000000
outer loop
vertex 0.350706 -10.708101 -1.651036
vertex 1.121847 -10.084696 2.353583
vertex 1.121847 -10.084696 -1.651036
endloop
endfacet
facet normal 0.628679 -0.777665 0.000000
outer loop
vertex -1.874190 -7.955945 2.353583
vertex -1.874190 -7.955945 -1.651036
vertex -1.103048 -7.332540 -1.651036
endloop
endfacet
facet normal 0.628679 -0.777665 0.000000
outer loop
vertex -1.874190 -7.955945 2.353583
vertex -1.103048 -7.332540 -1.651036
vertex -1.103048 -7.332540 2.353583
endloop
endfacet
facet normal 0.000000 0.000000 1.000000
outer loop
vertex 1.121847 -10.084696 -1.651036
vertex -1.103048 -7.332540 -1.651036
vertex -1.874190 -7.955945 -1.651036
endloop
endfacet
facet normal 0.000000 0.000000 1.000000
outer loop
vertex 1.121847 -10.084696 -1.651036
vertex -1.874190 -7.955945 -1.651036
vertex 0.350706 -10.708101 -1.651036
endloop
endfacet
facet normal 0.777665 0.628679 0.000000
outer loop
vertex 1.121847 -10.084696 -1.651036
vertex 1.121847 -10.084696 2.353583
vertex 1.989137 -11.157518 2.353583
endloop
endfacet
facet normal 0.777665 0.628679 0.000000
outer loop
vertex 1.121847 -10.084696 -1.651036
vertex 1.989137 -11.157518 2.353583
vertex 1.989137 -11.157518 -1.651036
endloop
endfacet
facet normal 0.000000 0.000000 1.000000
outer loop
vertex 2.223573 -2.880618 -1.651036
vertex 4.196352 -5.320911 -1.651036
vertex 8.384721 -1.934956 -1.651036
endloop
endfacet
facet normal 0.000000 0.000000 1.000000
outer loop
vertex 2.223573 -2.880618 -1.651036
vertex 8.384721 -1.934956 -1.651036
vertex 6.411942 0.505337 -1.651036
endloop
endfacet
facet normal -0.628679 0.777665 0.000000
outer loop
vertex 1.989137 -11.157518 -1.651036
vertex 1.989137 -11.157518 2.353583
vertex 5.294029 -8.485783 2.353583
endloop
endfacet
facet normal -0.628679 0.777665 0.000000
outer loop
vertex 1.989137 -11.157518 -1.651036
vertex 5.294029 -8.485783 2.353583
vertex 5.294029 -8.485783 -1.651036
endloop
endfacet
facet normal 0.777665 0.628679 0.000000
outer loop
vertex -1.103048 -7.332540 2.353583
vertex -1.103048 -7.332540 -1.651036
vertex -1.964795 -6.266574 -1.651036
endloop
endfacet
facet normal 0.777665 0.628679 0.000000
outer loop
vertex -1.103048 -7.332540 2.353583
vertex -1.964795 -6.266574 -1.651036
vertex -1.964795 -6.266574 2.353583
endloop
endfacet
facet normal 0.628679 -0.777665 0.000000
outer loop
vertex -1.964795 -6.266574 2.353583
vertex -1.964795 -6.266574 -1.651036
vertex 2.585917 -2.587692 -1.651036
endloop
endfacet
facet normal 0.628679 -0.777665 0.000000
outer loop
vertex -1.964795 -6.266574 2.353583
vertex 2.585917 -2.587692 -1.651036
vertex 2.585917 -2.587692 2.353583
endloop
endfacet
facet normal -0.628679 0.777665 0.000000
outer loop
vertex 1.757822 -7.284750 -1.651037
vertex 1.757822 -7.284750 -0.162109
vertex 3.405473 -5.952758 -0.162109
endloop
endfacet
facet normal -0.628679 0.777665 0.000000
outer loop
vertex 1.757822 -7.284750 -1.651037
vertex 3.405473 -5.952758 -0.162109
vertex 3.405473 -5.952758 -1.651037
endloop
endfacet
facet normal 0.777665 0.628679 0.000000
outer loop
vertex 3.405473 -5.952758 -1.651037
vertex 3.405473 -5.952758 -0.162109
vertex 4.212658 -6.951233 -0.162109
endloop
endfacet
facet normal 0.777665 0.628679 0.000000
outer loop
vertex 3.405473 -5.952758 -1.651037
vertex 4.212658 -6.951233 -0.162109
vertex 4.212658 -6.951233 -1.651037
endloop
endfacet
facet normal 0.628679 -0.777665 0.000000
outer loop
vertex 4.212658 -6.951233 -1.651037
vertex 4.212658 -6.951233 -0.162109
vertex 2.565007 -8.283225 -0.162109
endloop
endfacet
facet normal 0.628679 -0.777665 0.000000
outer loop
vertex 4.212658 -6.951233 -1.651037
vertex 2.565007 -8.283225 -0.162109
vertex 2.565007 -8.283225 -1.651037
endloop
endfacet
facet normal -0.777665 -0.628679 0.000000
outer loop
vertex 2.565007 -8.283225 -1.651037
vertex 2.565007 -8.283225 -0.162109
vertex 1.757822 -7.284750 -0.162109
endloop
endfacet
facet normal -0.777665 -0.628679 0.000000
outer loop
vertex 2.565007 -8.283225 -1.651037
vertex 1.757822 -7.284750 -0.162109
vertex 1.757822 -7.284750 -1.651037
endloop
endfacet
facet normal 0.000000 0.000000 -1.000000
outer loop
vertex 3.405473 -5.952758 -1.651037
vertex 4.212658 -6.951233 -1.651037
vertex 2.565007 -8.283225 -1.651037
endloop
endfacet
facet normal -0.000000 0.000000 -1.000000
outer loop
vertex 3.405473 -5.952758 -1.651037
vertex 2.565007 -8.283225 -1.651037
vertex 1.757822 -7.284750 -1.651037
endloop
endfacet
facet normal -0.000000 0.000000 1.000000
outer loop
vertex 4.212658 -6.951233 -0.162109
vertex 3.405473 -5.952758 -0.162109
vertex 1.757822 -7.284750 -0.162109
endloop
endfacet
facet normal 0.000000 0.000000 1.000000
outer loop
vertex 4.212658 -6.951233 -0.162109
vertex 1.757822 -7.284750 -0.162109
vertex 2.565007 -8.283225 -0.162109
endloop
endfacet
facet normal -0.628679 0.777665 0.000000
outer loop
vertex 4.540121 -5.035488 -1.651037
vertex 4.540121 -5.035488 -0.162109
vertex 6.234415 -3.665789 -0.162109
endloop
endfacet
facet normal -0.628679 0.777665 0.000000
outer loop
vertex 4.540121 -5.035488 -1.651037
vertex 6.234415 -3.665789 -0.162109
vertex 6.234415 -3.665789 -1.651037
endloop
endfacet
facet normal 0.777665 0.628679 0.000000
outer loop
vertex 6.234415 -3.665789 -1.651037
vertex 6.234415 -3.665789 -0.162109
vertex 7.041600 -4.664263 -0.162109
endloop
endfacet
facet normal 0.777665 0.628679 0.000000
outer loop
vertex 6.234415 -3.665789 -1.651037
vertex 7.041600 -4.664263 -0.162109
vertex 7.041600 -4.664263 -1.651037
endloop
endfacet
facet normal 0.628679 -0.777665 0.000000
outer loop
vertex 7.041600 -4.664263 -1.651037
vertex 7.041600 -4.664263 -0.162109
vertex 5.347306 -6.033962 -0.162109
endloop
endfacet
facet normal 0.628679 -0.777665 0.000000
outer loop
vertex 7.041600 -4.664263 -1.651037
vertex 5.347306 -6.033962 -0.162109
vertex 5.347306 -6.033962 -1.651037
endloop
endfacet
facet normal -0.777665 -0.628679 0.000000
outer loop
vertex 5.347306 -6.033962 -1.651037
vertex 5.347306 -6.033962 -0.162109
vertex 4.540121 -5.035488 -0.162109
endloop
endfacet
facet normal -0.777665 -0.628679 0.000000
outer loop
vertex 5.347306 -6.033962 -1.651037
vertex 4.540121 -5.035488 -0.162109
vertex 4.540121 -5.035488 -1.651037
endloop
endfacet
facet normal 0.000000 0.000000 -1.000000
outer loop
vertex 6.234415 -3.665789 -1.651037
vertex 7.041600 -4.664263 -1.651037
vertex 5.347306 -6.033962 -1.651037
endloop
endfacet
facet normal -0.000000 0.000000 -1.000000
outer loop
vertex 6.234415 -3.665789 -1.651037
vertex 5.347306 -6.033962 -1.651037
vertex 4.540121 -5.035488 -1.651037
endloop
endfacet
facet normal -0.000000 0.000000 1.000000
outer loop
vertex 7.041600 -4.664263 -0.162109
vertex 6.234415 -3.665789 -0.162109
vertex 4.540121 -5.035488 -0.162109
endloop
endfacet
facet normal 0.000000 0.000000 1.000000
outer loop
vertex 7.041600 -4.664263 -0.162109
vertex 4.540121 -5.035488 -0.162109
vertex 5.347306 -6.033962 -0.162109
endloop
endfacet
facet normal 0.777665 0.628679 0.000000
outer loop
vertex 5.294029 -8.485783 -1.651036
vertex 5.294029 -8.485783 2.353583
vertex 6.066831 -9.441726 2.353583
endloop
endfacet
facet normal 0.777665 0.628679 0.000000
outer loop
vertex 5.294029 -8.485783 -1.651036
vertex 6.066831 -9.441726 2.353583
vertex 6.066831 -9.441726 -1.651036
endloop
endfacet
facet normal -0.628679 0.777665 0.000000
outer loop
vertex 6.066831 -9.441726 -1.651036
vertex 6.066831 -9.441726 2.353583
vertex 7.165618 -8.553446 2.353583
endloop
endfacet
facet normal -0.628679 0.777665 0.000000
outer loop
vertex 6.066831 -9.441726 -1.651036
vertex 7.165618 -8.553446 2.353583
vertex 7.165618 -8.553446 -1.651036
endloop
endfacet
facet normal -0.777665 -0.628678 0.000000
outer loop
vertex 7.165618 -8.553446 -1.651036
vertex 7.165618 -8.553446 2.353583
vertex 6.392816 -7.597502 2.353583
endloop
endfacet
facet normal -0.777665 -0.628679 0.000000
outer loop
vertex 7.165618 -8.553446 -1.651036
vertex 6.392816 -7.597502 2.353583
vertex 6.392816 -7.597502 -1.651036
endloop
endfacet
facet normal -0.628679 0.777665 0.000000
outer loop
vertex 6.392816 -7.597502 -1.651036
vertex 6.392816 -7.597502 2.353583
vertex 10.365873 -4.385608 2.353583
endloop
endfacet
facet normal -0.628679 0.777665 0.000000
outer loop
vertex 6.392816 -7.597502 -1.651036
vertex 10.365873 -4.385608 2.353583
vertex 10.365873 -4.385608 -1.651036
endloop
endfacet
facet normal 0.000000 0.000000 1.000000
outer loop
vertex 6.066831 -9.441726 -1.651036
vertex 7.165618 -8.553446 -1.651036
vertex 6.392816 -7.597502 -1.651036
endloop
endfacet
facet normal -0.000000 0.000000 1.000000
outer loop
vertex 6.066831 -9.441726 -1.651036
vertex 6.392816 -7.597502 -1.651036
vertex 5.294029 -8.485783 -1.651036
endloop
endfacet
facet normal 0.777665 0.628679 0.000000
outer loop
vertex 2.585917 -2.587692 2.353583
vertex 2.585917 -2.587692 -1.651036
vertex 1.574136 -1.336136 -1.651036
endloop
endfacet
facet normal 0.777665 0.628679 0.000000
outer loop
vertex 2.585917 -2.587692 2.353583
vertex 1.574136 -1.336136 -1.651036
vertex 1.574136 -1.336136 2.353583
endloop
endfacet
facet normal -0.777665 -0.628679 0.000000
outer loop
vertex 6.411942 0.505337 -1.651036
vertex 10.365873 -4.385608 -1.651036
vertex 10.365873 -4.385608 2.353583
endloop
endfacet
facet normal -0.777665 -0.628679 0.000000
outer loop
vertex 6.411942 0.505337 -1.651036
vertex 10.365873 -4.385608 2.353583
vertex 6.411942 0.505337 2.353583
endloop
endfacet
facet normal 0.628679 -0.777665 0.000000
outer loop
vertex 6.306098 2.489272 -1.651036
vertex 6.306098 2.489272 2.353583
vertex 5.400160 1.756894 2.353583
endloop
endfacet
facet normal 0.628679 -0.777665 0.000000
outer loop
vertex 6.306098 2.489272 -1.651036
vertex 5.400160 1.756894 2.353583
vertex 5.400160 1.756894 -1.651036
endloop
endfacet
facet normal -0.777665 -0.628679 0.000000
outer loop
vertex 6.873714 1.787140 -1.651036
vertex 6.873714 1.787140 2.353583
vertex 6.306098 2.489272 2.353583
endloop
endfacet
facet normal -0.777665 -0.628679 0.000000
outer loop
vertex 6.873714 1.787140 -1.651036
vertex 6.306098 2.489272 2.353583
vertex 6.306098 2.489272 -1.651036
endloop
endfacet
facet normal -0.628679 0.777665 0.000000
outer loop
vertex 5.967776 1.054763 -1.651036
vertex 5.967776 1.054763 2.353583
vertex 6.873714 1.787140 2.353583
endloop
endfacet
facet normal -0.628679 0.777665 0.000000
outer loop
vertex 5.967776 1.054763 -1.651036
vertex 6.873714 1.787140 2.353583
vertex 6.873714 1.787140 -1.651036
endloop
endfacet
facet normal -0.777665 -0.628679 0.000000
outer loop
vertex 6.411942 0.505337 -1.651036
vertex 6.411942 0.505337 2.353583
vertex 5.967776 1.054763 2.353583
endloop
endfacet
facet normal -0.777665 -0.628679 0.000000
outer loop
vertex 6.411942 0.505337 -1.651036
vertex 5.967776 1.054763 2.353583
vertex 5.967776 1.054763 -1.651036
endloop
endfacet
facet normal -0.777665 -0.628679 0.000000
outer loop
vertex 5.400160 1.756894 -1.651036
vertex 5.400160 1.756894 2.353583
vertex 1.155526 7.007432 2.353583
endloop
endfacet
facet normal -0.777665 -0.628679 0.000000
outer loop
vertex 5.400160 1.756894 -1.651036
vertex 1.155526 7.007432 2.353583
vertex 1.155526 7.007432 -1.651036
endloop
endfacet
facet normal -0.628679 0.777665 0.000000
outer loop
vertex 1.574136 -1.336136 2.353583
vertex 1.574136 -1.336136 -1.651036
vertex -3.142225 -5.148930 -1.651036
endloop
endfacet
facet normal -0.628679 0.777665 0.000000
outer loop
vertex 1.574136 -1.336136 2.353583
vertex -3.142225 -5.148930 -1.651036
vertex -3.142225 -5.148930 2.353583
endloop
endfacet
facet normal -0.000000 0.000000 1.000000
outer loop
vertex 1.574136 -1.336136 -1.651036
vertex 2.585917 -2.587692 -1.651036
vertex 6.411942 0.505337 -1.651036
endloop
endfacet
facet normal 0.000000 0.000000 1.000000
outer loop
vertex 1.574136 -1.336136 -1.651036
vertex 6.411942 0.505337 -1.651036
vertex 5.400160 1.756894 -1.651036
endloop
endfacet
facet normal 0.000000 0.000000 1.000000
outer loop
vertex 5.400160 1.756894 -1.651036
vertex 5.967776 1.054763 -1.651036
vertex 6.873714 1.787140 -1.651036
endloop
endfacet
facet normal 0.000000 0.000000 1.000000
outer loop
vertex 5.400160 1.756894 -1.651036
vertex 6.873714 1.787140 -1.651036
vertex 6.306098 2.489272 -1.651036
endloop
endfacet
facet normal 0.000000 0.000000 1.000000
outer loop
vertex 1.574136 -1.336136 -1.651036
vertex 5.400160 1.756894 -1.651036
vertex 3.401557 4.229131 -1.651036
endloop
endfacet
facet normal 0.000000 0.000000 1.000000
outer loop
vertex 1.574136 -1.336136 -1.651036
vertex 3.401557 4.229131 -1.651036
vertex -0.424467 1.136101 -1.651036
endloop
endfacet
facet normal 0.000000 0.000000 1.000000
outer loop
vertex 1.574136 -1.336136 -1.651036
vertex -0.424467 1.136101 -1.651036
vertex -5.140828 -2.676693 -1.651036
endloop
endfacet
facet normal 0.000000 0.000000 1.000000
outer loop
vertex 1.574136 -1.336136 -1.651036
vertex -5.140828 -2.676693 -1.651036
vertex -3.142225 -5.148930 -1.651036
endloop
endfacet
facet normal 0.777665 0.628679 0.000000
outer loop
vertex -3.142225 -5.148930 2.353583
vertex -3.142225 -5.148930 -1.651036
vertex -5.140828 -2.676693 -1.651036
endloop
endfacet
facet normal 0.777665 0.628679 0.000000
outer loop
vertex -3.142225 -5.148930 2.353583
vertex -5.140828 -2.676693 -1.651036
vertex -5.140828 -2.676693 2.353583
endloop
endfacet
facet normal 0.628679 -0.777665 0.000000
outer loop
vertex -3.177064 -1.089150 -1.651036
vertex 1.670850 2.829995 -1.651036
vertex 1.670850 2.829995 2.353583
endloop
endfacet
facet normal 0.628679 -0.777665 0.000000
outer loop
vertex -3.177064 -1.089150 -1.651036
vertex 1.670850 2.829995 2.353583
vertex -3.177064 -1.089150 2.353583
endloop
endfacet
facet normal -0.628679 0.777665 0.000000
outer loop
vertex -5.140828 -2.676693 2.353583
vertex -5.140828 -2.676693 -1.651036
vertex -5.923185 -3.309166 -1.651036
endloop
endfacet
facet normal -0.628679 0.777665 0.000000
outer loop
vertex -5.140828 -2.676693 2.353583
vertex -5.923185 -3.309166 -1.651036
vertex -5.923185 -3.309166 2.353583
endloop
endfacet
facet normal 0.777665 0.628679 0.000000
outer loop
vertex -5.923185 -3.309166 2.353583
vertex -5.923185 -3.309166 -1.651036
vertex -6.616148 -2.451982 -1.651036
endloop
endfacet
facet normal 0.777665 0.628679 0.000000
outer loop
vertex -5.923185 -3.309166 2.353583
vertex -6.616148 -2.451982 -1.651036
vertex -6.616148 -2.451982 2.353583
endloop
endfacet
facet normal 0.628678 -0.777665 0.000000
outer loop
vertex -6.616148 -2.451982 2.353583
vertex -6.616148 -2.451982 -1.651036
vertex -5.833790 -1.819510 -1.651036
endloop
endfacet
facet normal 0.628679 -0.777665 0.000000
outer loop
vertex -6.616148 -2.451982 2.353583
vertex -5.833790 -1.819510 -1.651036
vertex -5.833791 -1.819510 2.353583
endloop
endfacet
facet normal 0.777665 0.628679 0.000000
outer loop
vertex -5.833791 -1.819510 2.353583
vertex -5.833790 -1.819510 -1.651036
vertex -7.386858 0.101607 -1.651036
endloop
endfacet
facet normal 0.777665 0.628679 -0.000000
outer loop
vertex -5.833791 -1.819510 2.353583
vertex -7.386858 0.101607 -1.651036
vertex -7.386857 0.101607 2.353583
endloop
endfacet
facet normal -0.777665 -0.628679 0.000000
outer loop
vertex -3.177064 -1.089150 -1.651036
vertex -3.177064 -1.089150 2.353583
vertex -3.870027 -0.231966 2.353583
endloop
endfacet
facet normal -0.777665 -0.628679 0.000000
outer loop
vertex -3.177064 -1.089150 -1.651036
vertex -3.870027 -0.231966 2.353583
vertex -3.870027 -0.231966 -1.651036
endloop
endfacet
facet normal 0.000000 0.000000 1.000000
outer loop
vertex -3.177064 -1.089150 -1.651036
vertex -3.870027 -0.231966 -1.651036
vertex -5.833790 -1.819510 -1.651036
endloop
endfacet
facet normal 0.000000 0.000000 1.000000
outer loop
vertex -3.177064 -1.089150 -1.651036
vertex -5.833790 -1.819510 -1.651036
vertex -5.140828 -2.676693 -1.651036
endloop
endfacet
facet normal -0.628679 0.777665 0.000000
outer loop
vertex -3.870027 -0.231966 -1.651036
vertex -3.870027 -0.231966 2.353583
vertex 0.977887 3.687178 2.353583
endloop
endfacet
facet normal -0.628679 0.777665 0.000000
outer loop
vertex -3.870027 -0.231966 -1.651036
vertex 0.977887 3.687178 2.353583
vertex 0.977887 3.687178 -1.651036
endloop
endfacet
facet normal 0.777665 0.628679 0.000000
outer loop
vertex 0.977887 3.687178 -1.651036
vertex 0.977887 3.687178 2.353583
vertex 1.670850 2.829995 2.353583
endloop
endfacet
facet normal 0.777665 0.628679 0.000000
outer loop
vertex 0.977887 3.687178 -1.651036
vertex 1.670850 2.829995 2.353583
vertex 1.670850 2.829995 -1.651036
endloop
endfacet
facet normal -0.000000 0.000000 1.000000
outer loop
vertex -7.386858 0.101607 -1.651036
vertex -5.833790 -1.819510 -1.651036
vertex 2.708594 5.086314 -1.651036
endloop
endfacet
facet normal 0.000000 0.000000 1.000000
outer loop
vertex -7.386858 0.101607 -1.651036
vertex 2.708594 5.086314 -1.651036
vertex 1.155526 7.007432 -1.651036
endloop
endfacet
facet normal 0.628679 -0.777665 -0.000000
outer loop
vertex -7.386857 0.101607 2.353583
vertex -7.386858 0.101607 -1.651036
vertex -3.875405 2.940331 -1.651036
endloop
endfacet
facet normal 0.628679 -0.777665 0.000000
outer loop
vertex -7.386857 0.101607 2.353583
vertex -3.875405 2.940331 -1.651036
vertex -3.875405 2.940331 2.353583
endloop
endfacet
facet normal 0.000000 0.000000 1.000000
outer loop
vertex 0.977887 3.687178 -1.651036
vertex 1.670850 2.829995 -1.651036
vertex 3.401557 4.229131 -1.651036
endloop
endfacet
facet normal -0.000000 0.000000 1.000000
outer loop
vertex 0.977887 3.687178 -1.651036
vertex 3.401557 4.229131 -1.651036
vertex 2.708594 5.086314 -1.651036
endloop
endfacet
facet normal 0.000000 0.000000 1.000000
outer loop
vertex -5.140828 -2.676693 -1.651036
vertex -5.833790 -1.819510 -1.651036
vertex -6.616148 -2.451982 -1.651036
endloop
endfacet
facet normal 0.000000 0.000000 1.000000
outer loop
vertex -5.140828 -2.676693 -1.651036
vertex -6.616148 -2.451982 -1.651036
vertex -5.923185 -3.309166 -1.651036
endloop
endfacet
facet normal 0.777665 0.628679 0.000000
outer loop
vertex -3.875405 2.940331 2.353583
vertex -3.875405 2.940331 -1.651036
vertex -4.363911 3.544604 -1.651036
endloop
endfacet
facet normal 0.777666 0.628678 0.000000
outer loop
vertex -3.875405 2.940331 2.353583
vertex -4.363911 3.544604 -1.651036
vertex -4.363911 3.544604 2.353583
endloop
endfacet
facet normal 0.628679 -0.777665 0.000000
outer loop
vertex -4.363911 3.544604 2.353583
vertex -4.363911 3.544604 -1.651036
vertex -3.030001 4.622962 -1.651036
endloop
endfacet
facet normal 0.628679 -0.777665 0.000000
outer loop
vertex -4.363911 3.544604 2.353583
vertex -3.030001 4.622962 -1.651036
vertex -3.030001 4.622962 2.353583
endloop
endfacet
facet normal -0.777665 -0.628679 0.000000
outer loop
vertex -3.030001 4.622962 2.353583
vertex -3.030001 4.622962 -1.651036
vertex -2.541495 4.018689 -1.651036
endloop
endfacet
facet normal -0.777665 -0.628679 0.000000
outer loop
vertex -3.030001 4.622962 2.353583
vertex -2.541495 4.018689 -1.651036
vertex -2.541495 4.018689 2.353583
endloop
endfacet
facet normal 0.628679 -0.777665 0.000000
outer loop
vertex -2.541495 4.018689 2.353583
vertex -2.541495 4.018689 -1.651036
vertex 1.155526 7.007432 -1.651036
endloop
endfacet
facet normal 0.628679 -0.777665 0.000000
outer loop
vertex -2.541495 4.018689 2.353583
vertex 1.155526 7.007432 -1.651036
vertex 1.155526 7.007432 2.353583
endloop
endfacet
facet normal 0.000000 0.000000 1.000000
outer loop
vertex -3.875405 2.940331 -1.651036
vertex -2.541495 4.018689 -1.651036
vertex -3.030001 4.622962 -1.651036
endloop
endfacet
facet normal 0.000000 0.000000 1.000000
outer loop
vertex -3.875405 2.940331 -1.651036
vertex -3.030001 4.622962 -1.651036
vertex -4.363911 3.544604 -1.651036
endloop
endfacet
facet normal -0.000000 0.000000 -1.000000
outer loop
vertex -5.923185 -3.309166 2.353583
vertex -6.616148 -2.451982 2.353583
vertex -5.833791 -1.819510 2.353583
endloop
endfacet
facet normal 0.000000 0.000000 -1.000000
outer loop
vertex -5.923185 -3.309166 2.353583
vertex -5.833791 -1.819510 2.353583
vertex -5.140828 -2.676693 2.353583
endloop
endfacet
facet normal 0.000000 0.000000 -1.000000
outer loop
vertex -4.363911 3.544604 2.353583
vertex -3.030001 4.622962 2.353583
vertex -2.541495 4.018689 2.353583
endloop
endfacet
facet normal 0.000000 0.000000 -1.000000
outer loop
vertex -4.363911 3.544604 2.353583
vertex -2.541495 4.018689 2.353583
vertex -3.875405 2.940331 2.353583
endloop
endfacet
facet normal -0.000000 0.000000 -1.000000
outer loop
vertex 6.306098 2.489272 2.353583
vertex 6.873714 1.787140 2.353583
vertex 5.967776 1.054763 2.353583
endloop
endfacet
facet normal 0.000000 0.000000 -1.000000
outer loop
vertex 6.306098 2.489272 2.353583
vertex 5.967776 1.054763 2.353583
vertex 5.400160 1.756894 2.353583
endloop
endfacet
facet normal -0.000000 0.000000 -1.000000
outer loop
vertex 2.585917 -2.587692 2.353583
vertex 1.574136 -1.336136 2.353583
vertex 5.400160 1.756894 2.353583
endloop
endfacet
facet normal 0.000000 0.000000 -1.000000
outer loop
vertex 2.585917 -2.587692 2.353583
vertex 5.400160 1.756894 2.353583
vertex 6.411942 0.505337 2.353583
endloop
endfacet
facet normal 0.000000 0.000000 -1.000000
outer loop
vertex 5.294029 -8.485783 2.353583
vertex 6.392816 -7.597502 2.353583
vertex 7.165618 -8.553446 2.353583
endloop
endfacet
facet normal 0.000000 0.000000 -1.000000
outer loop
vertex 5.294029 -8.485783 2.353583
vertex 7.165618 -8.553446 2.353583
vertex 6.066831 -9.441726 2.353583
endloop
endfacet
facet normal 0.000000 0.000000 -1.000000
outer loop
vertex 0.350706 -10.708101 2.353583
vertex -1.874190 -7.955945 2.353583
vertex -1.103048 -7.332540 2.353583
endloop
endfacet
facet normal -0.000000 0.000000 -1.000000
outer loop
vertex 0.350706 -10.708101 2.353583
vertex -1.103048 -7.332540 2.353583
vertex 1.121847 -10.084696 2.353583
endloop
endfacet
facet normal -0.000000 0.000000 -1.000000
outer loop
vertex -3.014072 -6.545930 2.353583
vertex 1.761533 -12.453270 2.353583
vertex -2.558321 -15.945521 2.353583
endloop
endfacet
facet normal 0.000000 0.000000 -1.000000
outer loop
vertex -3.014072 -6.545930 2.353583
vertex -2.558321 -15.945521 2.353583
vertex -7.333926 -10.038181 2.353583
endloop
endfacet
facet normal -0.000000 0.000000 -1.000000
outer loop
vertex 0.977887 3.687178 2.353583
vertex -3.870027 -0.231966 2.353583
vertex -5.423093 1.689149 2.353583
endloop
endfacet
facet normal 0.000000 0.000000 -1.000000
outer loop
vertex 0.977887 3.687178 2.353583
vertex -5.423093 1.689149 2.353583
vertex -0.575179 5.608294 2.353583
endloop
endfacet
facet normal 0.000000 0.000000 -1.000000
outer loop
vertex -3.177064 -1.089150 2.353583
vertex 1.670850 2.829995 2.353583
vertex 3.669453 0.357758 2.353583
endloop
endfacet
facet normal 0.000000 0.000000 -1.000000
outer loop
vertex -3.177064 -1.089150 2.353583
vertex 3.669453 0.357758 2.353583
vertex -1.178461 -3.561387 2.353583
endloop
endfacet
facet normal -0.000000 0.000000 -1.000000
outer loop
vertex 1.155526 7.007432 2.353583
vertex 5.400160 1.756894 2.353583
vertex 3.669453 0.357758 2.353583
endloop
endfacet
facet normal -0.000000 0.000000 -1.000000
outer loop
vertex 1.155526 7.007432 2.353583
vertex 3.669453 0.357758 2.353583
vertex -0.575179 5.608294 2.353583
endloop
endfacet
facet normal 0.000000 0.000000 -1.000000
outer loop
vertex -3.177064 -1.089150 2.353583
vertex -1.178461 -3.561387 2.353583
vertex -3.142225 -5.148930 2.353583
endloop
endfacet
facet normal -0.000000 0.000000 -1.000000
outer loop
vertex -3.177064 -1.089150 2.353583
vertex -3.142225 -5.148930 2.353583
vertex -5.140828 -2.676693 2.353583
endloop
endfacet
facet normal 0.000000 0.000000 -1.000000
outer loop
vertex -3.177064 -1.089150 2.353583
vertex -5.140828 -2.676693 2.353583
vertex -7.386857 0.101607 2.353583
endloop
endfacet
facet normal 0.000000 0.000000 -1.000000
outer loop
vertex -3.177064 -1.089150 2.353583
vertex -7.386857 0.101607 2.353583
vertex -5.423093 1.689149 2.353583
endloop
endfacet
facet normal 0.000000 0.000000 1.000000
outer loop
vertex 4.196352 -5.320911 -1.651036
vertex 6.177505 -7.771564 -1.651036
vertex 10.365873 -4.385608 -1.651036
endloop
endfacet
facet normal 0.000000 0.000000 1.000000
outer loop
vertex 4.196352 -5.320911 -1.651036
vertex 10.365873 -4.385608 -1.651036
vertex 8.384721 -1.934956 -1.651036
endloop
endfacet
facet normal 0.000000 0.000000 1.000000
outer loop
vertex 0.007984 -8.706867 -1.651036
vertex 1.989137 -11.157518 -1.651036
vertex 6.177505 -7.771564 -1.651036
endloop
endfacet
facet normal 0.000000 0.000000 1.000000
outer loop
vertex 0.007984 -8.706867 -1.651036
vertex 6.177505 -7.771564 -1.651036
vertex 4.196352 -5.320911 -1.651036
endloop
endfacet
facet normal 0.000000 0.000000 1.000000
outer loop
vertex -1.964795 -6.266574 -1.651036
vertex 0.007984 -8.706867 -1.651036
vertex 4.196352 -5.320911 -1.651036
endloop
endfacet
facet normal 0.000000 0.000000 1.000000
outer loop
vertex -1.964795 -6.266574 -1.651036
vertex 4.196352 -5.320911 -1.651036
vertex 2.223573 -2.880618 -1.651036
endloop
endfacet
facet normal 0.000000 0.000000 -1.000000
outer loop
vertex 6.411942 0.505337 2.353583
vertex 10.365873 -4.385608 2.353583
vertex 1.989137 -11.157518 2.353583
endloop
endfacet
facet normal -0.000000 0.000000 -1.000000
outer loop
vertex 6.411942 0.505337 2.353583
vertex 1.989137 -11.157518 2.353583
vertex -1.964795 -6.266574 2.353583
endloop
endfacet
endsolid Exported from Blender-4.0.2
