solid Exported from Blender-4.0.2
facet normal -0.000000 0.000000 1.000000
outer loop
vertex 5.337533 -7.090818 -1.651036
vertex 12.914273 -6.546683 -1.651036
vertex 12.516364 -1.006051 -1.651036
endloop
endfacet
facet normal -0.000000 0.000000 1.000000
outer loop
vertex 5.337533 -7.090818 -1.651036
vertex 12.516364 -1.006051 -1.651036
vertex 4.939625 -1.550186 -1.651036
endloop
endfacet
facet normal -0.071632 0.997431 0.000000
outer loop
vertex 12.914273 -6.546683 -1.651036
vertex 5.337533 -7.090818 -1.651036
vertex 5.337533 -7.090818 2.353583
endloop
endfacet
facet normal -0.071632 0.997431 0.000000
outer loop
vertex 12.914273 -6.546683 -1.651036
vertex 5.337533 -7.090818 2.353583
vertex 12.914273 -6.546683 2.353583
endloop
endfacet
facet normal 0.997431 0.071632 0.000000
outer loop
vertex 5.337533 -7.090818 -1.651036
vertex 4.939625 -1.550186 -1.651036
vertex 4.939625 -1.550186 2.353583
endloop
endfacet
facet normal 0.997431 0.071632 0.000000
outer loop
vertex 5.337533 -7.090818 -1.651036
vertex 4.939625 -1.550186 2.353583
vertex 5.337533 -7.090818 2.353583
endloop
endfacet
facet normal -0.997431 -0.071632 0.000000
outer loop
vertex 12.914273 -6.546683 -1.651036
vertex 12.914273 -6.546683 2.353583
vertex 12.516364 -1.006051 2.353583
endloop
endfacet
facet normal -0.997431 -0.071632 0.000000
outer loop
vertex 12.914273 -6.546683 -1.651036
vertex 12.516364 -1.006051 2.353583
vertex 12.516364 -1.006051 -1.651036
endloop
endfacet
facet normal 0.071632 -0.997431 0.000000
outer loop
vertex 4.939625 -1.550186 2.353583
vertex 4.939625 -1.550186 -1.651036
vertex 6.748106 -1.420307 -1.651036
endloop
endfacet
facet normal 0.071632 -0.997431 0.000000
outer loop
vertex 4.939625 -1.550186 2.353583
vertex 6.748106 -1.420307 -1.651036
vertex 6.748106 -1.420307 2.353583
endloop
endfacet
facet normal 0.071632 -0.997431 0.000000
outer loop
vertex 12.516364 -1.006051 -1.651036
vertex 12.516364 -1.006051 2.353583
vertex 10.278016 -1.166801 2.353583
endloop
endfacet
facet normal 0.071632 -0.997431 0.000000
outer loop
vertex 12.516364 -1.006051 -1.651036
vertex 10.278016 -1.166801 2.353583
vertex 10.278016 -1.166801 -1.651036
endloop
endfacet
facet normal -0.997431 -0.071632 0.000000
outer loop
vertex 10.278016 -1.166801 -1.651036
vertex 10.278016 -1.166801 2.353583
vertex 10.206985 -0.177737 2.353583
endloop
endfacet
facet normal -0.997431 -0.071632 0.000000
outer loop
vertex 10.278016 -1.166801 -1.651036
vertex 10.206985 -0.177737 2.353583
vertex 10.206985 -0.177737 -1.651036
endloop
endfacet
facet normal 0.997431 0.071631 0.000000
outer loop
vertex 6.748106 -1.420307 2.353583
vertex 6.748106 -1.420307 -1.651036
vertex 6.677075 -0.431243 -1.651036
endloop
endfacet
facet normal 0.997431 0.071632 0.000000
outer loop
vertex 6.748106 -1.420307 2.353583
vertex 6.677075 -0.431243 -1.651036
vertex 6.677075 -0.431243 2.353583
endloop
endfacet
facet normal 0.000000 0.000000 1.000000
outer loop
vertex 10.206985 -0.177737 -1.651036
vertex 6.677075 -0.431243 -1.651036
vertex 6.748106 -1.420307 -1.651036
endloop
endfacet
facet normal 0.000000 0.000000 1.000000
outer loop
vertex 10.206985 -0.177737 -1.651036
vertex 6.748106 -1.420307 -1.651036
vertex 10.278016 -1.166801 -1.651036
endloop
endfacet
facet normal -0.071632 0.997431 0.000000
outer loop
vertex 10.206985 -0.177737 -1.651036
vertex 10.206985 -0.177737 2.353583
vertex 11.582983 -0.078918 2.353583
endloop
endfacet
facet normal -0.071632 0.997431 0.000000
outer loop
vertex 10.206985 -0.177737 -1.651036
vertex 11.582983 -0.078918 2.353583
vertex 11.582983 -0.078918 -1.651036
endloop
endfacet
facet normal 0.000000 0.000000 1.000000
outer loop
vertex 4.924073 4.842560 -1.651036
vertex 8.053987 5.067339 -1.651036
vertex 7.668190 10.439330 -1.651036
endloop
endfacet
facet normal -0.000000 0.000000 1.000000
outer loop
vertex 4.924073 4.842560 -1.651036
vertex 7.668190 10.439330 -1.651036
vertex 4.538275 10.214551 -1.651036
endloop
endfacet
facet normal -0.997431 -0.071632 0.000000
outer loop
vertex 11.582983 -0.078918 -1.651036
vertex 11.582983 -0.078918 2.353583
vertex 11.278564 4.159927 2.353583
endloop
endfacet
facet normal -0.997431 -0.071632 0.000000
outer loop
vertex 11.582983 -0.078918 -1.651036
vertex 11.278564 4.159927 2.353583
vertex 11.278564 4.159927 -1.651036
endloop
endfacet
facet normal -0.071632 0.997431 0.000000
outer loop
vertex 6.677075 -0.431243 2.353583
vertex 6.677075 -0.431243 -1.651036
vertex 5.309870 -0.529431 -1.651036
endloop
endfacet
facet normal -0.071632 0.997431 0.000000
outer loop
vertex 6.677075 -0.431243 2.353583
vertex 5.309870 -0.529431 -1.651036
vertex 5.309870 -0.529431 2.353583
endloop
endfacet
facet normal 0.997431 0.071632 0.000000
outer loop
vertex 5.309870 -0.529431 2.353583
vertex 5.309870 -0.529431 -1.651036
vertex 4.890697 5.307302 -1.651036
endloop
endfacet
facet normal 0.997431 0.071632 0.000000
outer loop
vertex 5.309870 -0.529431 2.353583
vertex 4.890697 5.307302 -1.651036
vertex 4.890697 5.307302 2.353583
endloop
endfacet
facet normal -0.997431 -0.071633 0.000000
outer loop
vertex 8.272437 1.943980 -1.651037
vertex 8.272437 1.943980 -0.162109
vertex 8.120668 4.057252 -0.162109
endloop
endfacet
facet normal -0.997431 -0.071632 0.000000
outer loop
vertex 8.272437 1.943980 -1.651037
vertex 8.120668 4.057252 -0.162109
vertex 8.120668 4.057252 -1.651037
endloop
endfacet
facet normal -0.071632 0.997431 0.000000
outer loop
vertex 8.120668 4.057252 -1.651037
vertex 8.120668 4.057252 -0.162109
vertex 9.401308 4.149223 -0.162109
endloop
endfacet
facet normal -0.071632 0.997431 0.000000
outer loop
vertex 8.120668 4.057252 -1.651037
vertex 9.401308 4.149223 -0.162109
vertex 9.401308 4.149223 -1.651037
endloop
endfacet
facet normal 0.997431 0.071632 0.000000
outer loop
vertex 9.401308 4.149223 -1.651037
vertex 9.401308 4.149223 -0.162109
vertex 9.553077 2.035951 -0.162109
endloop
endfacet
facet normal 0.997431 0.071633 0.000000
outer loop
vertex 9.401308 4.149223 -1.651037
vertex 9.553077 2.035951 -0.162109
vertex 9.553077 2.035951 -1.651037
endloop
endfacet
facet normal 0.071632 -0.997431 0.000000
outer loop
vertex 9.553077 2.035951 -1.651037
vertex 9.553077 2.035951 -0.162109
vertex 8.272437 1.943980 -0.162109
endloop
endfacet
facet normal 0.071632 -0.997431 0.000000
outer loop
vertex 9.553077 2.035951 -1.651037
vertex 8.272437 1.943980 -0.162109
vertex 8.272437 1.943980 -1.651037
endloop
endfacet
facet normal 0.000000 0.000000 -1.000000
outer loop
vertex 8.120668 4.057252 -1.651037
vertex 9.401308 4.149223 -1.651037
vertex 9.553077 2.035951 -1.651037
endloop
endfacet
facet normal 0.000000 0.000000 -1.000000
outer loop
vertex 8.120668 4.057252 -1.651037
vertex 9.553077 2.035951 -1.651037
vertex 8.272437 1.943980 -1.651037
endloop
endfacet
facet normal -0.000000 0.000000 1.000000
outer loop
vertex 9.401308 4.149223 -0.162109
vertex 8.120668 4.057252 -0.162109
vertex 8.272437 1.943980 -0.162109
endloop
endfacet
facet normal -0.000000 0.000000 1.000000
outer loop
vertex 9.401308 4.149223 -0.162109
vertex 8.272437 1.943980 -0.162109
vertex 9.553077 2.035951 -0.162109
endloop
endfacet
facet normal -0.997431 -0.071632 0.000000
outer loop
vertex 8.016154 5.512549 -1.651037
vertex 8.016154 5.512549 -0.162109
vertex 7.860090 7.685646 -0.162109
endloop
endfacet
facet normal -0.997431 -0.071632 0.000000
outer loop
vertex 8.016154 5.512549 -1.651037
vertex 7.860090 7.685646 -0.162109
vertex 7.860090 7.685646 -1.651037
endloop
endfacet
facet normal -0.071632 0.997431 0.000000
outer loop
vertex 7.860090 7.685646 -1.651037
vertex 7.860090 7.685646 -0.162109
vertex 9.140730 7.777617 -0.162109
endloop
endfacet
facet normal -0.071632 0.997431 0.000000
outer loop
vertex 7.860090 7.685646 -1.651037
vertex 9.140730 7.777617 -0.162109
vertex 9.140730 7.777617 -1.651037
endloop
endfacet
facet normal 0.997431 0.071631 0.000000
outer loop
vertex 9.140730 7.777617 -1.651037
vertex 9.140730 7.777617 -0.162109
vertex 9.296794 5.604521 -0.162109
endloop
endfacet
facet normal 0.997431 0.071633 0.000000
outer loop
vertex 9.140730 7.777617 -1.651037
vertex 9.296794 5.604521 -0.162109
vertex 9.296794 5.604521 -1.651037
endloop
endfacet
facet normal 0.071632 -0.997431 0.000000
outer loop
vertex 9.296794 5.604521 -1.651037
vertex 9.296794 5.604521 -0.162109
vertex 8.016154 5.512549 -0.162109
endloop
endfacet
facet normal 0.071632 -0.997431 0.000000
outer loop
vertex 9.296794 5.604521 -1.651037
vertex 8.016154 5.512549 -0.162109
vertex 8.016154 5.512549 -1.651037
endloop
endfacet
facet normal -0.000000 0.000000 -1.000000
outer loop
vertex 7.860090 7.685646 -1.651037
vertex 9.140730 7.777617 -1.651037
vertex 9.296794 5.604521 -1.651037
endloop
endfacet
facet normal 0.000000 0.000000 -1.000000
outer loop
vertex 7.860090 7.685646 -1.651037
vertex 9.296794 5.604521 -1.651037
vertex 8.016154 5.512549 -1.651037
endloop
endfacet
facet normal 0.000000 0.000000 1.000000
outer loop
vertex 9.140730 7.777617 -0.162109
vertex 7.860090 7.685646 -0.162109
vertex 8.016154 5.512549 -0.162109
endloop
endfacet
facet normal 0.000000 0.000000 1.000000
outer loop
vertex 9.140730 7.777617 -0.162109
vertex 8.016154 5.512549 -0.162109
vertex 9.296794 5.604521 -0.162109
endloop
endfacet
facet normal -0.071632 0.997431 0.000000
outer loop
vertex 11.278564 4.159927 -1.651036
vertex 11.278564 4.159927 2.353583
vertex 12.504656 4.247981 2.353583
endloop
endfacet
facet normal -0.071632 0.997431 0.000000
outer loop
vertex 11.278564 4.159927 -1.651036
vertex 12.504656 4.247981 2.353583
vertex 12.504656 4.247981 -1.651036
endloop
endfacet
facet normal -0.997431 -0.071633 0.000000
outer loop
vertex 12.504656 4.247981 -1.651036
vertex 12.504656 4.247981 2.353583
vertex 12.403444 5.657283 2.353583
endloop
endfacet
facet normal -0.997431 -0.071632 0.000000
outer loop
vertex 12.504656 4.247981 -1.651036
vertex 12.403444 5.657283 2.353583
vertex 12.403444 5.657283 -1.651036
endloop
endfacet
facet normal 0.071632 -0.997431 0.000000
outer loop
vertex 12.403444 5.657283 -1.651036
vertex 12.403444 5.657283 2.353583
vertex 11.177353 5.569230 2.353583
endloop
endfacet
facet normal 0.071632 -0.997431 0.000000
outer loop
vertex 12.403444 5.657283 -1.651036
vertex 11.177353 5.569230 2.353583
vertex 11.177353 5.569230 -1.651036
endloop
endfacet
facet normal -0.997431 -0.071632 0.000000
outer loop
vertex 11.177353 5.569230 -1.651036
vertex 11.177353 5.569230 2.353583
vertex 10.811388 10.665064 2.353583
endloop
endfacet
facet normal -0.997431 -0.071632 0.000000
outer loop
vertex 11.177353 5.569230 -1.651036
vertex 10.811388 10.665064 2.353583
vertex 10.811388 10.665064 -1.651036
endloop
endfacet
facet normal -0.000000 0.000000 1.000000
outer loop
vertex 12.504656 4.247981 -1.651036
vertex 12.403444 5.657283 -1.651036
vertex 11.177353 5.569230 -1.651036
endloop
endfacet
facet normal 0.000000 0.000000 1.000000
outer loop
vertex 12.504656 4.247981 -1.651036
vertex 11.177353 5.569230 -1.651036
vertex 11.278564 4.159927 -1.651036
endloop
endfacet
facet normal -0.071632 0.997431 0.000000
outer loop
vertex 4.890697 5.307302 2.353583
vertex 4.890697 5.307302 -1.651036
vertex 3.285453 5.192019 -1.651036
endloop
endfacet
facet normal -0.071632 0.997431 0.000000
outer loop
vertex 4.890697 5.307302 2.353583
vertex 3.285453 5.192019 -1.651036
vertex 3.285453 5.192019 2.353583
endloop
endfacet
facet normal 0.071632 -0.997431 0.000000
outer loop
vertex 4.538275 10.214551 -1.651036
vertex 10.811388 10.665064 -1.651036
vertex 10.811388 10.665064 2.353583
endloop
endfacet
facet normal 0.071632 -0.997431 0.000000
outer loop
vertex 4.538275 10.214551 -1.651036
vertex 10.811388 10.665064 2.353583
vertex 4.538275 10.214551 2.353583
endloop
endfacet
facet normal 0.997431 0.071632 0.000000
outer loop
vertex 2.849584 11.261222 -1.651036
vertex 2.849584 11.261222 2.353583
vertex 2.933032 10.099268 2.353583
endloop
endfacet
facet normal 0.997431 0.071632 0.000000
outer loop
vertex 2.849584 11.261222 -1.651036
vertex 2.933032 10.099268 2.353583
vertex 2.933032 10.099268 -1.651036
endloop
endfacet
facet normal 0.071632 -0.997431 0.000000
outer loop
vertex 3.750137 11.325896 -1.651036
vertex 3.750137 11.325896 2.353583
vertex 2.849584 11.261222 2.353583
endloop
endfacet
facet normal 0.071632 -0.997431 0.000000
outer loop
vertex 3.750137 11.325896 -1.651036
vertex 2.849584 11.261222 2.353583
vertex 2.849584 11.261222 -1.651036
endloop
endfacet
facet normal -0.997431 -0.071632 0.000000
outer loop
vertex 3.833584 10.163942 -1.651036
vertex 3.833584 10.163942 2.353583
vertex 3.750137 11.325896 2.353583
endloop
endfacet
facet normal -0.997431 -0.071632 0.000000
outer loop
vertex 3.833584 10.163942 -1.651036
vertex 3.750137 11.325896 2.353583
vertex 3.750137 11.325896 -1.651036
endloop
endfacet
facet normal 0.071632 -0.997431 0.000000
outer loop
vertex 4.538275 10.214551 -1.651036
vertex 4.538275 10.214551 2.353583
vertex 3.833584 10.163942 2.353583
endloop
endfacet
facet normal 0.071632 -0.997431 0.000000
outer loop
vertex 4.538275 10.214551 -1.651036
vertex 3.833584 10.163942 2.353583
vertex 3.833584 10.163942 -1.651036
endloop
endfacet
facet normal 0.071632 -0.997431 0.000000
outer loop
vertex 2.933032 10.099268 -1.651036
vertex 2.933032 10.099268 2.353583
vertex -3.801295 9.615632 2.353583
endloop
endfacet
facet normal 0.071632 -0.997431 0.000000
outer loop
vertex 2.933032 10.099268 -1.651036
vertex -3.801295 9.615632 2.353583
vertex -3.801295 9.615632 -1.651036
endloop
endfacet
facet normal -0.997431 -0.071632 0.000000
outer loop
vertex 3.285453 5.192019 2.353583
vertex 3.285453 5.192019 -1.651036
vertex 3.719885 -0.857173 -1.651036
endloop
endfacet
facet normal -0.997431 -0.071632 0.000000
outer loop
vertex 3.285453 5.192019 2.353583
vertex 3.719885 -0.857173 -1.651036
vertex 3.719885 -0.857173 2.353583
endloop
endfacet
facet normal 0.000000 0.000000 1.000000
outer loop
vertex 3.285453 5.192019 -1.651036
vertex 4.890697 5.307302 -1.651036
vertex 4.538275 10.214551 -1.651036
endloop
endfacet
facet normal -0.000000 0.000000 1.000000
outer loop
vertex 3.285453 5.192019 -1.651036
vertex 4.538275 10.214551 -1.651036
vertex 2.933032 10.099268 -1.651036
endloop
endfacet
facet normal 0.000000 0.000000 1.000000
outer loop
vertex 2.933032 10.099268 -1.651036
vertex 3.833584 10.163942 -1.651036
vertex 3.750137 11.325896 -1.651036
endloop
endfacet
facet normal -0.000000 0.000000 1.000000
outer loop
vertex 2.933032 10.099268 -1.651036
vertex 3.750137 11.325896 -1.651036
vertex 2.849584 11.261222 -1.651036
endloop
endfacet
facet normal 0.000000 0.000000 1.000000
outer loop
vertex 3.285453 5.192019 -1.651036
vertex 2.933032 10.099268 -1.651036
vertex -0.237853 9.871546 -1.651036
endloop
endfacet
facet normal 0.000000 0.000000 1.000000
outer loop
vertex 3.285453 5.192019 -1.651036
vertex -0.237853 9.871546 -1.651036
vertex 0.114569 4.964296 -1.651036
endloop
endfacet
facet normal 0.000000 0.000000 1.000000
outer loop
vertex 3.285453 5.192019 -1.651036
vertex 0.114569 4.964296 -1.651036
vertex 0.549000 -1.084895 -1.651036
endloop
endfacet
facet normal 0.000000 0.000000 1.000000
outer loop
vertex 3.285453 5.192019 -1.651036
vertex 0.549000 -1.084895 -1.651036
vertex 3.719885 -0.857173 -1.651036
endloop
endfacet
facet normal -0.071632 0.997431 0.000000
outer loop
vertex 3.719885 -0.857173 2.353583
vertex 3.719885 -0.857173 -1.651036
vertex 0.549000 -1.084895 -1.651036
endloop
endfacet
facet normal -0.071632 0.997431 0.000000
outer loop
vertex 3.719885 -0.857173 2.353583
vertex 0.549000 -1.084895 -1.651036
vertex 0.549000 -1.084895 2.353583
endloop
endfacet
facet normal 0.997431 0.071632 0.000000
outer loop
vertex 0.368115 1.433823 -1.651036
vertex -0.078434 7.651745 -1.651036
vertex -0.078435 7.651745 2.353583
endloop
endfacet
facet normal 0.997431 0.071632 0.000000
outer loop
vertex 0.368115 1.433823 -1.651036
vertex -0.078435 7.651745 2.353583
vertex 0.368115 1.433823 2.353583
endloop
endfacet
facet normal -0.997431 -0.071632 0.000000
outer loop
vertex 0.549000 -1.084895 2.353583
vertex 0.549000 -1.084895 -1.651036
vertex 0.621065 -2.088345 -1.651036
endloop
endfacet
facet normal -0.997431 -0.071632 0.000000
outer loop
vertex 0.549000 -1.084895 2.353583
vertex 0.621065 -2.088345 -1.651036
vertex 0.621065 -2.088345 2.353583
endloop
endfacet
facet normal -0.071632 0.997431 0.000000
outer loop
vertex 0.621065 -2.088345 2.353583
vertex 0.621065 -2.088345 -1.651036
vertex -0.478356 -2.167302 -1.651036
endloop
endfacet
facet normal -0.071632 0.997431 0.000000
outer loop
vertex 0.621065 -2.088345 2.353583
vertex -0.478356 -2.167302 -1.651036
vertex -0.478356 -2.167302 2.353583
endloop
endfacet
facet normal 0.997431 0.071632 0.000000
outer loop
vertex -0.478356 -2.167302 2.353583
vertex -0.478356 -2.167302 -1.651036
vertex -0.550421 -1.163851 -1.651036
endloop
endfacet
facet normal 0.997431 0.071632 -0.000000
outer loop
vertex -0.478356 -2.167302 2.353583
vertex -0.550421 -1.163851 -1.651036
vertex -0.550421 -1.163852 2.353583
endloop
endfacet
facet normal -0.071632 0.997431 0.000000
outer loop
vertex -0.550421 -1.163852 2.353583
vertex -0.550421 -1.163851 -1.651036
vertex -3.014440 -1.340809 -1.651036
endloop
endfacet
facet normal -0.071632 0.997431 0.000000
outer loop
vertex -0.550421 -1.163852 2.353583
vertex -3.014440 -1.340809 -1.651036
vertex -3.014440 -1.340809 2.353583
endloop
endfacet
facet normal 0.071632 -0.997431 0.000000
outer loop
vertex 0.368115 1.433823 -1.651036
vertex 0.368115 1.433823 2.353583
vertex -0.731306 1.354867 2.353583
endloop
endfacet
facet normal 0.071632 -0.997431 0.000000
outer loop
vertex 0.368115 1.433823 -1.651036
vertex -0.731306 1.354867 2.353583
vertex -0.731306 1.354867 -1.651036
endloop
endfacet
facet normal 0.000000 0.000000 1.000000
outer loop
vertex 0.368115 1.433823 -1.651036
vertex -0.731306 1.354867 -1.651036
vertex -0.550421 -1.163851 -1.651036
endloop
endfacet
facet normal -0.000000 0.000000 1.000000
outer loop
vertex 0.368115 1.433823 -1.651036
vertex -0.550421 -1.163851 -1.651036
vertex 0.549000 -1.084895 -1.651036
endloop
endfacet
facet normal -0.997431 -0.071632 0.000000
outer loop
vertex -0.731306 1.354867 -1.651036
vertex -0.731306 1.354867 2.353583
vertex -1.177855 7.572789 2.353583
endloop
endfacet
facet normal -0.997431 -0.071632 0.000000
outer loop
vertex -0.731306 1.354867 -1.651036
vertex -1.177855 7.572789 2.353583
vertex -1.177855 7.572789 -1.651036
endloop
endfacet
facet normal -0.071632 0.997431 0.000000
outer loop
vertex -1.177855 7.572789 -1.651036
vertex -1.177855 7.572789 2.353583
vertex -0.078435 7.651745 2.353583
endloop
endfacet
facet normal -0.071632 0.997431 0.000000
outer loop
vertex -1.177855 7.572789 -1.651036
vertex -0.078435 7.651745 2.353583
vertex -0.078434 7.651745 -1.651036
endloop
endfacet
facet normal 0.000000 0.000000 1.000000
outer loop
vertex -3.014440 -1.340809 -1.651036
vertex -0.550421 -1.163851 -1.651036
vertex -1.337274 9.792589 -1.651036
endloop
endfacet
facet normal -0.000000 0.000000 1.000000
outer loop
vertex -3.014440 -1.340809 -1.651036
vertex -1.337274 9.792589 -1.651036
vertex -3.801295 9.615632 -1.651036
endloop
endfacet
facet normal 0.997431 0.071632 -0.000000
outer loop
vertex -3.014440 -1.340809 2.353583
vertex -3.014440 -1.340809 -1.651036
vertex -3.337886 3.162971 -1.651036
endloop
endfacet
facet normal 0.997431 0.071632 0.000000
outer loop
vertex -3.014440 -1.340809 2.353583
vertex -3.337886 3.162971 -1.651036
vertex -3.337886 3.162971 2.353583
endloop
endfacet
facet normal 0.000000 0.000000 1.000000
outer loop
vertex -1.177855 7.572789 -1.651036
vertex -0.078434 7.651745 -1.651036
vertex -0.237853 9.871546 -1.651036
endloop
endfacet
facet normal -0.000000 0.000000 1.000000
outer loop
vertex -1.177855 7.572789 -1.651036
vertex -0.237853 9.871546 -1.651036
vertex -1.337274 9.792589 -1.651036
endloop
endfacet
facet normal 0.000000 0.000000 1.000000
outer loop
vertex 0.549000 -1.084895 -1.651036
vertex -0.550421 -1.163851 -1.651036
vertex -0.478356 -2.167302 -1.651036
endloop
endfacet
facet normal 0.000000 0.000000 1.000000
outer loop
vertex 0.549000 -1.084895 -1.651036
vertex -0.478356 -2.167302 -1.651036
vertex 0.621065 -2.088345 -1.651036
endloop
endfacet
facet normal -0.071632 0.997431 0.000000
outer loop
vertex -3.337886 3.162971 2.353583
vertex -3.337886 3.162971 -1.651036
vertex -4.112925 3.107310 -1.651036
endloop
endfacet
facet normal -0.071632 0.997431 0.000000
outer loop
vertex -3.337886 3.162971 2.353583
vertex -4.112925 3.107310 -1.651036
vertex -4.112925 3.107310 2.353583
endloop
endfacet
facet normal 0.997431 0.071632 0.000000
outer loop
vertex -4.112925 3.107310 2.353583
vertex -4.112925 3.107310 -1.651036
vertex -4.235794 4.818180 -1.651036
endloop
endfacet
facet normal 0.997431 0.071633 0.000000
outer loop
vertex -4.112925 3.107310 2.353583
vertex -4.235794 4.818180 -1.651036
vertex -4.235794 4.818180 2.353583
endloop
endfacet
facet normal 0.071632 -0.997431 0.000000
outer loop
vertex -4.235794 4.818180 2.353583
vertex -4.235794 4.818180 -1.651036
vertex -3.460754 4.873841 -1.651036
endloop
endfacet
facet normal 0.071632 -0.997431 0.000000
outer loop
vertex -4.235794 4.818180 2.353583
vertex -3.460754 4.873841 -1.651036
vertex -3.460754 4.873841 2.353583
endloop
endfacet
facet normal 0.997431 0.071632 0.000000
outer loop
vertex -3.460754 4.873841 2.353583
vertex -3.460754 4.873841 -1.651036
vertex -3.801295 9.615632 -1.651036
endloop
endfacet
facet normal 0.997431 0.071632 0.000000
outer loop
vertex -3.460754 4.873841 2.353583
vertex -3.801295 9.615632 -1.651036
vertex -3.801295 9.615632 2.353583
endloop
endfacet
facet normal -0.000000 0.000000 1.000000
outer loop
vertex -3.337886 3.162971 -1.651036
vertex -3.460754 4.873841 -1.651036
vertex -4.235794 4.818180 -1.651036
endloop
endfacet
facet normal 0.000000 0.000000 1.000000
outer loop
vertex -3.337886 3.162971 -1.651036
vertex -4.235794 4.818180 -1.651036
vertex -4.112925 3.107310 -1.651036
endloop
endfacet
facet normal 0.000000 0.000000 -1.000000
outer loop
vertex 0.621065 -2.088345 2.353583
vertex -0.478356 -2.167302 2.353583
vertex -0.550421 -1.163852 2.353583
endloop
endfacet
facet normal -0.000000 0.000000 -1.000000
outer loop
vertex 0.621065 -2.088345 2.353583
vertex -0.550421 -1.163852 2.353583
vertex 0.549000 -1.084895 2.353583
endloop
endfacet
facet normal -0.000000 0.000000 -1.000000
outer loop
vertex -4.112925 3.107310 2.353583
vertex -4.235794 4.818180 2.353583
vertex -3.460754 4.873841 2.353583
endloop
endfacet
facet normal 0.000000 0.000000 -1.000000
outer loop
vertex -4.112925 3.107310 2.353583
vertex -3.460754 4.873841 2.353583
vertex -3.337886 3.162971 2.353583
endloop
endfacet
facet normal 0.000000 0.000000 -1.000000
outer loop
vertex 2.849584 11.261222 2.353583
vertex 3.750137 11.325896 2.353583
vertex 3.833584 10.163942 2.353583
endloop
endfacet
facet normal -0.000000 0.000000 -1.000000
outer loop
vertex 2.849584 11.261222 2.353583
vertex 3.833584 10.163942 2.353583
vertex 2.933032 10.099268 2.353583
endloop
endfacet
facet normal 0.000000 0.000000 -1.000000
outer loop
vertex 4.890697 5.307302 2.353583
vertex 3.285453 5.192019 2.353583
vertex 2.933032 10.099268 2.353583
endloop
endfacet
facet normal -0.000000 0.000000 -1.000000
outer loop
vertex 4.890697 5.307302 2.353583
vertex 2.933032 10.099268 2.353583
vertex 4.538275 10.214551 2.353583
endloop
endfacet
facet normal 0.000000 0.000000 -1.000000
outer loop
vertex 11.278564 4.159927 2.353583
vertex 11.177353 5.569230 2.353583
vertex 12.403444 5.657283 2.353583
endloop
endfacet
facet normal 0.000000 0.000000 -1.000000
outer loop
vertex 11.278564 4.159927 2.353583
vertex 12.403444 5.657283 2.353583
vertex 12.504656 4.247981 2.353583
endloop
endfacet
facet normal 0.000000 0.000000 -1.000000
outer loop
vertex 10.278016 -1.166801 2.353583
vertex 6.748106 -1.420307 2.353583
vertex 6.677075 -0.431243 2.353583
endloop
endfacet
facet normal 0.000000 0.000000 -1.000000
outer loop
vertex 10.278016 -1.166801 2.353583
vertex 6.677075 -0.431243 2.353583
vertex 10.206985 -0.177737 2.353583
endloop
endfacet
facet normal 0.000000 0.000000 -1.000000
outer loop
vertex 4.939625 -1.550186 2.353583
vertex 12.516364 -1.006051 2.353583
vertex 12.914273 -6.546683 2.353583
endloop
endfacet
facet normal 0.000000 0.000000 -1.000000
outer loop
vertex 4.939625 -1.550186 2.353583
vertex 12.914273 -6.546683 2.353583
vertex 5.337533 -7.090818 2.353583
endloop
endfacet
facet normal 0.000000 0.000000 -1.000000
outer loop
vertex -1.177855 7.572789 2.353583
vertex -0.731306 1.354867 2.353583
vertex -3.195325 1.177909 2.353583
endloop
endfacet
facet normal 0.000000 0.000000 -1.000000
outer loop
vertex -1.177855 7.572789 2.353583
vertex -3.195325 1.177909 2.353583
vertex -3.641874 7.395832 2.353583
endloop
endfacet
facet normal -0.000000 0.000000 -1.000000
outer loop
vertex 0.368115 1.433823 2.353583
vertex -0.078435 7.651745 2.353583
vertex 3.092450 7.879467 2.353583
endloop
endfacet
facet normal -0.000000 0.000000 -1.000000
outer loop
vertex 0.368115 1.433823 2.353583
vertex 3.092450 7.879467 2.353583
vertex 3.539000 1.661545 2.353583
endloop
endfacet
facet normal 0.000000 0.000000 -1.000000
outer loop
vertex -3.801295 9.615632 2.353583
vertex 2.933032 10.099268 2.353583
vertex 3.092450 7.879467 2.353583
endloop
endfacet
facet normal -0.000000 0.000000 -1.000000
outer loop
vertex -3.801295 9.615632 2.353583
vertex 3.092450 7.879467 2.353583
vertex -3.641874 7.395832 2.353583
endloop
endfacet
facet normal 0.000000 0.000000 -1.000000
outer loop
vertex 0.368115 1.433823 2.353583
vertex 3.539000 1.661545 2.353583
vertex 3.719885 -0.857173 2.353583
endloop
endfacet
facet normal 0.000000 0.000000 -1.000000
outer loop
vertex 0.368115 1.433823 2.353583
vertex 3.719885 -0.857173 2.353583
vertex 0.549000 -1.084895 2.353583
endloop
endfacet
facet normal -0.000000 0.000000 -1.000000
outer loop
vertex 0.368115 1.433823 2.353583
vertex 0.549000 -1.084895 2.353583
vertex -3.014440 -1.340809 2.353583
endloop
endfacet
facet normal 0.000000 0.000000 -1.000000
outer loop
vertex 0.368115 1.433823 2.353583
vertex -3.014440 -1.340809 2.353583
vertex -3.195325 1.177909 2.353583
endloop
endfacet
facet normal 0.000000 0.000000 1.000000
outer loop
vertex 8.053987 5.067339 -1.651036
vertex 11.197186 5.293073 -1.651036
vertex 10.811388 10.665064 -1.651036
endloop
endfacet
facet normal -0.000000 0.000000 1.000000
outer loop
vertex 8.053987 5.067339 -1.651036
vertex 10.811388 10.665064 -1.651036
vertex 7.668190 10.439330 -1.651036
endloop
endfacet
facet normal 0.000000 0.000000 1.000000
outer loop
vertex 8.439784 -0.304651 -1.651036
vertex 11.582983 -0.078918 -1.651036
vertex 11.197186 5.293073 -1.651036
endloop
endfacet
facet normal -0.000000 0.000000 1.000000
outer loop
vertex 8.439784 -0.304651 -1.651036
vertex 11.197186 5.293073 -1.651036
vertex 8.053987 5.067339 -1.651036
endloop
endfacet
facet normal 0.000000 0.000000 1.000000
outer loop
vertex 5.309870 -0.529431 -1.651036
vertex 8.439784 -0.304651 -1.651036
vertex 8.053987 5.067339 -1.651036
endloop
endfacet
facet normal 0.000000 0.000000 1.000000
outer loop
vertex 5.309870 -0.529431 -1.651036
vertex 8.053987 5.067339 -1.651036
vertex 4.924073 4.842560 -1.651036
endloop
endfacet
facet normal 0.000000 0.000000 -1.000000
outer loop
vertex 4.538275 10.214551 2.353583
vertex 10.811388 10.665064 2.353583
vertex 11.582983 -0.078918 2.353583
endloop
endfacet
facet normal 0.000000 0.000000 -1.000000
outer loop
vertex 4.538275 10.214551 2.353583
vertex 11.582983 -0.078918 2.353583
vertex 5.309870 -0.529431 2.353583
endloop
endfacet
endsolid Exported from Blender-4.0.2
