solid Exported from Blender-4.0.2
facet normal -0.000000 0.000000 1.000000
outer loop
vertex -1.633892 14.089618 -1.739854
vertex -9.201250 13.427691 -1.739854
vertex -8.717204 7.893918 -1.739854
endloop
endfacet
facet normal 0.000000 0.000000 1.000000
outer loop
vertex -1.633892 14.089618 -1.739854
vertex -8.717204 7.893918 -1.739854
vertex -1.149846 8.555844 -1.739854
endloop
endfacet
facet normal 0.087139 -0.996196 0.000000
outer loop
vertex -9.201250 13.427691 -1.739854
vertex -1.633892 14.089618 -1.739854
vertex -1.633892 14.089618 2.264765
endloop
endfacet
facet normal 0.087139 -0.996196 0.000000
outer loop
vertex -9.201250 13.427691 -1.739854
vertex -1.633892 14.089618 2.264765
vertex -9.201250 13.427691 2.264765
endloop
endfacet
facet normal -0.996196 -0.087139 0.000000
outer loop
vertex -1.633892 14.089618 -1.739854
vertex -1.149846 8.555844 -1.739854
vertex -1.149846 8.555844 2.264765
endloop
endfacet
facet normal -0.996196 -0.087139 0.000000
outer loop
vertex -1.633892 14.089618 -1.739854
vertex -1.149846 8.555844 2.264765
vertex -1.633892 14.089618 2.264765
endloop
endfacet
facet normal 0.996196 0.087139 0.000000
outer loop
vertex -9.201250 13.427691 -1.739854
vertex -9.201250 13.427691 2.264765
vertex -8.717204 7.893918 2.264765
endloop
endfacet
facet normal 0.996196 0.087139 0.000000
outer loop
vertex -9.201250 13.427691 -1.739854
vertex -8.717204 7.893918 2.264765
vertex -8.717204 7.893918 -1.739854
endloop
endfacet
facet normal -0.087138 0.996196 0.000000
outer loop
vertex -1.149846 8.555844 2.264765
vertex -1.149846 8.555844 -1.739854
vertex -2.956089 8.397850 -1.739854
endloop
endfacet
facet normal -0.087139 0.996196 0.000000
outer loop
vertex -1.149846 8.555844 2.264765
vertex -2.956089 8.397850 -1.739854
vertex -2.956089 8.397850 2.264765
endloop
endfacet
facet normal -0.087139 0.996196 0.000000
outer loop
vertex -8.717204 7.893918 -1.739854
vertex -8.717204 7.893918 2.264765
vertex -6.481627 8.089467 2.264765
endloop
endfacet
facet normal -0.087139 0.996196 0.000000
outer loop
vertex -8.717204 7.893918 -1.739854
vertex -6.481627 8.089467 2.264765
vertex -6.481627 8.089467 -1.739854
endloop
endfacet
facet normal 0.996196 0.087139 0.000000
outer loop
vertex -6.481627 8.089467 -1.739854
vertex -6.481627 8.089467 2.264765
vertex -6.395220 7.101627 2.264765
endloop
endfacet
facet normal 0.996196 0.087138 0.000000
outer loop
vertex -6.481627 8.089467 -1.739854
vertex -6.395220 7.101627 2.264765
vertex -6.395220 7.101627 -1.739854
endloop
endfacet
facet normal -0.996196 -0.087138 0.000000
outer loop
vertex -2.956089 8.397850 2.264765
vertex -2.956089 8.397850 -1.739854
vertex -2.869681 7.410010 -1.739854
endloop
endfacet
facet normal -0.996196 -0.087139 0.000000
outer loop
vertex -2.956089 8.397850 2.264765
vertex -2.869681 7.410010 -1.739854
vertex -2.869681 7.410010 2.264765
endloop
endfacet
facet normal 0.000000 0.000000 1.000000
outer loop
vertex -6.395220 7.101627 -1.739854
vertex -2.869681 7.410010 -1.739854
vertex -2.956089 8.397850 -1.739854
endloop
endfacet
facet normal -0.000000 0.000000 1.000000
outer loop
vertex -6.395220 7.101627 -1.739854
vertex -2.956089 8.397850 -1.739854
vertex -6.481627 8.089467 -1.739854
endloop
endfacet
facet normal 0.087138 -0.996196 0.000000
outer loop
vertex -6.395220 7.101627 -1.739854
vertex -6.395220 7.101627 2.264765
vertex -7.769516 6.981416 2.264765
endloop
endfacet
facet normal 0.087138 -0.996196 0.000000
outer loop
vertex -6.395220 7.101627 -1.739854
vertex -7.769516 6.981416 2.264765
vertex -7.769516 6.981416 -1.739854
endloop
endfacet
facet normal -0.000000 0.000000 1.000000
outer loop
vertex -1.034855 2.164114 -1.739854
vertex -4.160894 1.890675 -1.739854
vertex -3.691581 -3.474664 -1.739854
endloop
endfacet
facet normal 0.000000 0.000000 1.000000
outer loop
vertex -1.034855 2.164114 -1.739854
vertex -3.691581 -3.474664 -1.739854
vertex -0.565542 -3.201226 -1.739854
endloop
endfacet
facet normal 0.996196 0.087139 0.000000
outer loop
vertex -7.769516 6.981416 -1.739854
vertex -7.769516 6.981416 2.264765
vertex -7.399198 2.747818 2.264765
endloop
endfacet
facet normal 0.996196 0.087139 0.000000
outer loop
vertex -7.769516 6.981416 -1.739854
vertex -7.399198 2.747818 2.264765
vertex -7.399198 2.747818 -1.739854
endloop
endfacet
facet normal 0.087138 -0.996196 0.000000
outer loop
vertex -2.869681 7.410010 2.264765
vertex -2.869681 7.410010 -1.739854
vertex -1.504168 7.529453 -1.739854
endloop
endfacet
facet normal 0.087138 -0.996196 0.000000
outer loop
vertex -2.869681 7.410010 2.264765
vertex -1.504168 7.529453 -1.739854
vertex -1.504168 7.529453 2.264765
endloop
endfacet
facet normal -0.996196 -0.087139 0.000000
outer loop
vertex -1.504168 7.529453 2.264765
vertex -1.504168 7.529453 -1.739854
vertex -0.994254 1.699947 -1.739854
endloop
endfacet
facet normal -0.996196 -0.087139 0.000000
outer loop
vertex -1.504168 7.529453 2.264765
vertex -0.994254 1.699947 -1.739854
vertex -0.994254 1.699947 2.264765
endloop
endfacet
facet normal 0.996196 0.087138 0.000000
outer loop
vertex -4.427901 5.010259 -1.739855
vertex -4.427901 5.010259 -0.250927
vertex -4.243279 2.899602 -0.250927
endloop
endfacet
facet normal 0.996196 0.087139 0.000000
outer loop
vertex -4.427901 5.010259 -1.739855
vertex -4.243279 2.899602 -0.250927
vertex -4.243279 2.899602 -1.739855
endloop
endfacet
facet normal 0.087139 -0.996196 0.000000
outer loop
vertex -4.243279 2.899602 -1.739855
vertex -4.243279 2.899602 -0.250927
vertex -5.522334 2.787722 -0.250927
endloop
endfacet
facet normal 0.087139 -0.996196 0.000000
outer loop
vertex -4.243279 2.899602 -1.739855
vertex -5.522334 2.787722 -0.250927
vertex -5.522334 2.787722 -1.739855
endloop
endfacet
facet normal -0.996196 -0.087139 0.000000
outer loop
vertex -5.522334 2.787722 -1.739855
vertex -5.522334 2.787722 -0.250927
vertex -5.706956 4.898378 -0.250927
endloop
endfacet
facet normal -0.996196 -0.087138 0.000000
outer loop
vertex -5.522334 2.787722 -1.739855
vertex -5.706956 4.898378 -0.250927
vertex -5.706956 4.898378 -1.739855
endloop
endfacet
facet normal -0.087138 0.996196 0.000000
outer loop
vertex -5.706956 4.898378 -1.739855
vertex -5.706956 4.898378 -0.250927
vertex -4.427901 5.010259 -0.250927
endloop
endfacet
facet normal -0.087138 0.996196 0.000000
outer loop
vertex -5.706956 4.898378 -1.739855
vertex -4.427901 5.010259 -0.250927
vertex -4.427901 5.010259 -1.739855
endloop
endfacet
facet normal 0.000000 0.000000 -1.000000
outer loop
vertex -4.243279 2.899602 -1.739855
vertex -5.522334 2.787722 -1.739855
vertex -5.706956 4.898378 -1.739855
endloop
endfacet
facet normal 0.000000 0.000000 -1.000000
outer loop
vertex -4.243279 2.899602 -1.739855
vertex -5.706956 4.898378 -1.739855
vertex -4.427901 5.010259 -1.739855
endloop
endfacet
facet normal 0.000000 0.000000 1.000000
outer loop
vertex -5.522334 2.787722 -0.250927
vertex -4.243279 2.899602 -0.250927
vertex -4.427901 5.010259 -0.250927
endloop
endfacet
facet normal -0.000000 0.000000 1.000000
outer loop
vertex -5.522334 2.787722 -0.250927
vertex -4.427901 5.010259 -0.250927
vertex -5.706956 4.898378 -0.250927
endloop
endfacet
facet normal 0.996196 0.087139 0.000000
outer loop
vertex -4.116141 1.446107 -1.739855
vertex -4.116141 1.446107 -0.250927
vertex -3.926292 -0.724299 -0.250927
endloop
endfacet
facet normal 0.996196 0.087138 0.000000
outer loop
vertex -4.116141 1.446107 -1.739855
vertex -3.926292 -0.724299 -0.250927
vertex -3.926292 -0.724299 -1.739855
endloop
endfacet
facet normal 0.087139 -0.996196 0.000000
outer loop
vertex -3.926292 -0.724299 -1.739855
vertex -3.926292 -0.724299 -0.250927
vertex -5.205347 -0.836180 -0.250927
endloop
endfacet
facet normal 0.087139 -0.996196 0.000000
outer loop
vertex -3.926292 -0.724299 -1.739855
vertex -5.205347 -0.836180 -0.250927
vertex -5.205347 -0.836180 -1.739855
endloop
endfacet
facet normal -0.996196 -0.087138 0.000000
outer loop
vertex -5.205347 -0.836180 -1.739855
vertex -5.205347 -0.836180 -0.250927
vertex -5.395195 1.334227 -0.250927
endloop
endfacet
facet normal -0.996196 -0.087139 0.000000
outer loop
vertex -5.205347 -0.836180 -1.739855
vertex -5.395195 1.334227 -0.250927
vertex -5.395195 1.334227 -1.739855
endloop
endfacet
facet normal -0.087139 0.996196 0.000000
outer loop
vertex -5.395195 1.334227 -1.739855
vertex -5.395195 1.334227 -0.250927
vertex -4.116141 1.446107 -0.250927
endloop
endfacet
facet normal -0.087139 0.996196 0.000000
outer loop
vertex -5.395195 1.334227 -1.739855
vertex -4.116141 1.446107 -0.250927
vertex -4.116141 1.446107 -1.739855
endloop
endfacet
facet normal 0.000000 0.000000 -1.000000
outer loop
vertex -3.926292 -0.724299 -1.739855
vertex -5.205347 -0.836180 -1.739855
vertex -5.395195 1.334227 -1.739855
endloop
endfacet
facet normal 0.000000 0.000000 -1.000000
outer loop
vertex -3.926292 -0.724299 -1.739855
vertex -5.395195 1.334227 -1.739855
vertex -4.116141 1.446107 -1.739855
endloop
endfacet
facet normal 0.000000 0.000000 1.000000
outer loop
vertex -5.205347 -0.836180 -0.250927
vertex -3.926292 -0.724299 -0.250927
vertex -4.116141 1.446107 -0.250927
endloop
endfacet
facet normal 0.000000 0.000000 1.000000
outer loop
vertex -5.205347 -0.836180 -0.250927
vertex -4.116141 1.446107 -0.250927
vertex -5.395195 1.334227 -0.250927
endloop
endfacet
facet normal 0.087138 -0.996196 0.000000
outer loop
vertex -7.399198 2.747818 -1.739854
vertex -7.399198 2.747818 2.264765
vertex -8.623770 2.640703 2.264765
endloop
endfacet
facet normal 0.087139 -0.996196 0.000000
outer loop
vertex -7.399198 2.747818 -1.739854
vertex -8.623770 2.640703 2.264765
vertex -8.623770 2.640703 -1.739854
endloop
endfacet
facet normal 0.996196 0.087137 0.000000
outer loop
vertex -8.623770 2.640703 -1.739854
vertex -8.623770 2.640703 2.264765
vertex -8.500649 1.233146 2.264765
endloop
endfacet
facet normal 0.996196 0.087139 0.000000
outer loop
vertex -8.623770 2.640703 -1.739854
vertex -8.500649 1.233146 2.264765
vertex -8.500649 1.233146 -1.739854
endloop
endfacet
facet normal -0.087139 0.996196 0.000000
outer loop
vertex -8.500649 1.233146 -1.739854
vertex -8.500649 1.233146 2.264765
vertex -7.276076 1.340261 2.264765
endloop
endfacet
facet normal -0.087138 0.996196 0.000000
outer loop
vertex -8.500649 1.233146 -1.739854
vertex -7.276076 1.340261 2.264765
vertex -7.276076 1.340261 -1.739854
endloop
endfacet
facet normal 0.996196 0.087139 0.000000
outer loop
vertex -7.276076 1.340261 -1.739854
vertex -7.276076 1.340261 2.264765
vertex -6.830889 -3.749264 2.264765
endloop
endfacet
facet normal 0.996196 0.087138 0.000000
outer loop
vertex -7.276076 1.340261 -1.739854
vertex -6.830889 -3.749264 2.264765
vertex -6.830889 -3.749264 -1.739854
endloop
endfacet
facet normal -0.000000 0.000000 1.000000
outer loop
vertex -8.623770 2.640703 -1.739854
vertex -8.500649 1.233146 -1.739854
vertex -7.276076 1.340261 -1.739854
endloop
endfacet
facet normal 0.000000 0.000000 1.000000
outer loop
vertex -8.623770 2.640703 -1.739854
vertex -7.276076 1.340261 -1.739854
vertex -7.399198 2.747818 -1.739854
endloop
endfacet
facet normal 0.087139 -0.996196 0.000000
outer loop
vertex -0.994254 1.699947 2.264765
vertex -0.994254 1.699947 -1.739854
vertex 0.609002 1.840186 -1.739854
endloop
endfacet
facet normal 0.087139 -0.996196 0.000000
outer loop
vertex -0.994254 1.699947 2.264765
vertex 0.609002 1.840186 -1.739854
vertex 0.609002 1.840186 2.264765
endloop
endfacet
facet normal -0.087139 0.996196 0.000000
outer loop
vertex -0.565542 -3.201226 -1.739854
vertex -6.830889 -3.749264 -1.739854
vertex -6.830889 -3.749264 2.264765
endloop
endfacet
facet normal -0.087139 0.996196 0.000000
outer loop
vertex -0.565542 -3.201226 -1.739854
vertex -6.830889 -3.749264 2.264765
vertex -0.565542 -3.201226 2.264765
endloop
endfacet
facet normal -0.996196 -0.087139 0.000000
outer loop
vertex 1.139225 -4.221503 -1.739854
vertex 1.139225 -4.221503 2.264765
vertex 1.037714 -3.060987 2.264765
endloop
endfacet
facet normal -0.996196 -0.087139 0.000000
outer loop
vertex 1.139225 -4.221503 -1.739854
vertex 1.037714 -3.060987 2.264765
vertex 1.037714 -3.060987 -1.739854
endloop
endfacet
facet normal -0.087138 0.996196 0.000000
outer loop
vertex 0.239788 -4.300178 -1.739854
vertex 0.239788 -4.300178 2.264765
vertex 1.139225 -4.221503 2.264765
endloop
endfacet
facet normal -0.087138 0.996196 0.000000
outer loop
vertex 0.239788 -4.300178 -1.739854
vertex 1.139225 -4.221503 2.264765
vertex 1.139225 -4.221503 -1.739854
endloop
endfacet
facet normal 0.996196 0.087139 0.000000
outer loop
vertex 0.138277 -3.139662 -1.739854
vertex 0.138277 -3.139662 2.264765
vertex 0.239788 -4.300178 2.264765
endloop
endfacet
facet normal 0.996196 0.087139 0.000000
outer loop
vertex 0.138277 -3.139662 -1.739854
vertex 0.239788 -4.300178 2.264765
vertex 0.239788 -4.300178 -1.739854
endloop
endfacet
facet normal -0.087138 0.996196 0.000000
outer loop
vertex -0.565542 -3.201226 -1.739854
vertex -0.565542 -3.201226 2.264765
vertex 0.138277 -3.139662 2.264765
endloop
endfacet
facet normal -0.087138 0.996196 0.000000
outer loop
vertex -0.565542 -3.201226 -1.739854
vertex 0.138277 -3.139662 2.264765
vertex 0.138277 -3.139662 -1.739854
endloop
endfacet
facet normal -0.087139 0.996196 0.000000
outer loop
vertex 1.037714 -3.060987 -1.739854
vertex 1.037714 -3.060987 2.264765
vertex 7.763703 -2.472656 2.264765
endloop
endfacet
facet normal -0.087139 0.996196 0.000000
outer loop
vertex 1.037714 -3.060987 -1.739854
vertex 7.763703 -2.472656 2.264765
vertex 7.763703 -2.472656 -1.739854
endloop
endfacet
facet normal 0.996196 0.087139 0.000000
outer loop
vertex 0.609002 1.840186 2.264765
vertex 0.609002 1.840186 -1.739854
vertex 0.080526 7.881888 -1.739854
endloop
endfacet
facet normal 0.996196 0.087139 0.000000
outer loop
vertex 0.609002 1.840186 2.264765
vertex 0.080526 7.881888 -1.739854
vertex 0.080526 7.881888 2.264765
endloop
endfacet
facet normal 0.000000 0.000000 1.000000
outer loop
vertex 0.609002 1.840186 -1.739854
vertex -0.994254 1.699947 -1.739854
vertex -0.565542 -3.201226 -1.739854
endloop
endfacet
facet normal -0.000000 0.000000 1.000000
outer loop
vertex 0.609002 1.840186 -1.739854
vertex -0.565542 -3.201226 -1.739854
vertex 1.037714 -3.060987 -1.739854
endloop
endfacet
facet normal 0.000000 0.000000 1.000000
outer loop
vertex 1.037714 -3.060987 -1.739854
vertex 0.138277 -3.139662 -1.739854
vertex 0.239788 -4.300178 -1.739854
endloop
endfacet
facet normal -0.000000 0.000000 1.000000
outer loop
vertex 1.037714 -3.060987 -1.739854
vertex 0.239788 -4.300178 -1.739854
vertex 1.139225 -4.221503 -1.739854
endloop
endfacet
facet normal -0.000000 0.000000 1.000000
outer loop
vertex 0.609002 1.840186 -1.739854
vertex 1.037714 -3.060987 -1.739854
vertex 4.204673 -2.783969 -1.739854
endloop
endfacet
facet normal 0.000000 0.000000 1.000000
outer loop
vertex 0.609002 1.840186 -1.739854
vertex 4.204673 -2.783969 -1.739854
vertex 3.775961 2.117204 -1.739854
endloop
endfacet
facet normal 0.000000 0.000000 1.000000
outer loop
vertex 0.609002 1.840186 -1.739854
vertex 3.775961 2.117204 -1.739854
vertex 3.247485 8.158907 -1.739854
endloop
endfacet
facet normal -0.000000 0.000000 1.000000
outer loop
vertex 0.609002 1.840186 -1.739854
vertex 3.247485 8.158907 -1.739854
vertex 0.080526 7.881888 -1.739854
endloop
endfacet
facet normal 0.087139 -0.996196 0.000000
outer loop
vertex 0.080526 7.881888 2.264765
vertex 0.080526 7.881888 -1.739854
vertex 3.247485 8.158907 -1.739854
endloop
endfacet
facet normal 0.087139 -0.996196 0.000000
outer loop
vertex 0.080526 7.881888 2.264765
vertex 3.247485 8.158907 -1.739854
vertex 3.247485 8.158907 2.264765
endloop
endfacet
facet normal -0.996196 -0.087138 0.000000
outer loop
vertex 3.467528 5.643306 -1.739854
vertex 4.010744 -0.566917 -1.739854
vertex 4.010744 -0.566917 2.264765
endloop
endfacet
facet normal -0.996196 -0.087139 0.000000
outer loop
vertex 3.467528 5.643306 -1.739854
vertex 4.010744 -0.566917 2.264765
vertex 3.467528 5.643306 2.264765
endloop
endfacet
facet normal 0.996196 0.087138 0.000000
outer loop
vertex 3.247485 8.158907 2.264765
vertex 3.247485 8.158907 -1.739854
vertex 3.159821 9.161114 -1.739854
endloop
endfacet
facet normal 0.996196 0.087139 0.000000
outer loop
vertex 3.247485 8.158907 2.264765
vertex 3.159821 9.161114 -1.739854
vertex 3.159821 9.161114 2.264765
endloop
endfacet
facet normal 0.087139 -0.996196 0.000000
outer loop
vertex 3.159821 9.161114 2.264765
vertex 3.159821 9.161114 -1.739854
vertex 4.257881 9.257163 -1.739854
endloop
endfacet
facet normal 0.087139 -0.996196 0.000000
outer loop
vertex 3.159821 9.161114 2.264765
vertex 4.257881 9.257163 -1.739854
vertex 4.257881 9.257163 2.264765
endloop
endfacet
facet normal -0.996196 -0.087138 0.000000
outer loop
vertex 4.257881 9.257163 2.264765
vertex 4.257881 9.257163 -1.739854
vertex 4.345545 8.254954 -1.739854
endloop
endfacet
facet normal -0.996196 -0.087139 0.000000
outer loop
vertex 4.257881 9.257163 2.264765
vertex 4.345545 8.254954 -1.739854
vertex 4.345545 8.254955 2.264765
endloop
endfacet
facet normal 0.087139 -0.996196 0.000000
outer loop
vertex 4.345545 8.254955 2.264765
vertex 4.345545 8.254954 -1.739854
vertex 6.806514 8.470220 -1.739854
endloop
endfacet
facet normal 0.087138 -0.996196 0.000000
outer loop
vertex 4.345545 8.254955 2.264765
vertex 6.806514 8.470220 -1.739854
vertex 6.806514 8.470219 2.264765
endloop
endfacet
facet normal -0.087139 0.996196 0.000000
outer loop
vertex 3.467528 5.643306 -1.739854
vertex 3.467528 5.643306 2.264765
vertex 4.565588 5.739355 2.264765
endloop
endfacet
facet normal -0.087139 0.996196 0.000000
outer loop
vertex 3.467528 5.643306 -1.739854
vertex 4.565588 5.739355 2.264765
vertex 4.565588 5.739355 -1.739854
endloop
endfacet
facet normal 0.000000 0.000000 1.000000
outer loop
vertex 3.467528 5.643306 -1.739854
vertex 4.565588 5.739355 -1.739854
vertex 4.345545 8.254954 -1.739854
endloop
endfacet
facet normal 0.000000 0.000000 1.000000
outer loop
vertex 3.467528 5.643306 -1.739854
vertex 4.345545 8.254954 -1.739854
vertex 3.247485 8.158907 -1.739854
endloop
endfacet
facet normal 0.996196 0.087139 0.000000
outer loop
vertex 4.565588 5.739355 -1.739854
vertex 4.565588 5.739355 2.264765
vertex 5.108804 -0.470869 2.264765
endloop
endfacet
facet normal 0.996196 0.087139 0.000000
outer loop
vertex 4.565588 5.739355 -1.739854
vertex 5.108804 -0.470869 2.264765
vertex 5.108804 -0.470869 -1.739854
endloop
endfacet
facet normal 0.087139 -0.996196 0.000000
outer loop
vertex 5.108804 -0.470869 -1.739854
vertex 5.108804 -0.470869 2.264765
vertex 4.010744 -0.566917 2.264765
endloop
endfacet
facet normal 0.087139 -0.996196 0.000000
outer loop
vertex 5.108804 -0.470869 -1.739854
vertex 4.010744 -0.566917 2.264765
vertex 4.010744 -0.566917 -1.739854
endloop
endfacet
facet normal 0.000000 0.000000 1.000000
outer loop
vertex 6.806514 8.470220 -1.739854
vertex 4.345545 8.254954 -1.739854
vertex 5.302732 -2.687921 -1.739854
endloop
endfacet
facet normal -0.000000 0.000000 1.000000
outer loop
vertex 6.806514 8.470220 -1.739854
vertex 5.302732 -2.687921 -1.739854
vertex 7.763703 -2.472656 -1.739854
endloop
endfacet
facet normal -0.996196 -0.087138 -0.000000
outer loop
vertex 6.806514 8.470219 2.264765
vertex 6.806514 8.470220 -1.739854
vertex 7.199977 3.972015 -1.739854
endloop
endfacet
facet normal -0.996196 -0.087139 0.000000
outer loop
vertex 6.806514 8.470219 2.264765
vertex 7.199977 3.972015 -1.739854
vertex 7.199977 3.972015 2.264765
endloop
endfacet
facet normal 0.000000 0.000000 1.000000
outer loop
vertex 5.108804 -0.470869 -1.739854
vertex 4.010744 -0.566917 -1.739854
vertex 4.204673 -2.783969 -1.739854
endloop
endfacet
facet normal 0.000000 0.000000 1.000000
outer loop
vertex 5.108804 -0.470869 -1.739854
vertex 4.204673 -2.783969 -1.739854
vertex 5.302732 -2.687921 -1.739854
endloop
endfacet
facet normal 0.000000 0.000000 1.000000
outer loop
vertex 3.247485 8.158907 -1.739854
vertex 4.345545 8.254954 -1.739854
vertex 4.257881 9.257163 -1.739854
endloop
endfacet
facet normal 0.000000 0.000000 1.000000
outer loop
vertex 3.247485 8.158907 -1.739854
vertex 4.257881 9.257163 -1.739854
vertex 3.159821 9.161114 -1.739854
endloop
endfacet
facet normal 0.087139 -0.996196 0.000000
outer loop
vertex 7.199977 3.972015 2.264765
vertex 7.199977 3.972015 -1.739854
vertex 7.974058 4.039725 -1.739854
endloop
endfacet
facet normal 0.087139 -0.996196 0.000000
outer loop
vertex 7.199977 3.972015 2.264765
vertex 7.974058 4.039725 -1.739854
vertex 7.974058 4.039725 2.264765
endloop
endfacet
facet normal -0.996196 -0.087139 0.000000
outer loop
vertex 7.974058 4.039725 2.264765
vertex 7.974058 4.039725 -1.739854
vertex 8.123525 2.330974 -1.739854
endloop
endfacet
facet normal -0.996196 -0.087138 0.000000
outer loop
vertex 7.974058 4.039725 2.264765
vertex 8.123525 2.330974 -1.739854
vertex 8.123525 2.330974 2.264765
endloop
endfacet
facet normal -0.087139 0.996196 0.000000
outer loop
vertex 8.123525 2.330974 2.264765
vertex 8.123525 2.330974 -1.739854
vertex 7.349444 2.263264 -1.739854
endloop
endfacet
facet normal -0.087139 0.996196 0.000000
outer loop
vertex 8.123525 2.330974 2.264765
vertex 7.349444 2.263264 -1.739854
vertex 7.349444 2.263264 2.264765
endloop
endfacet
facet normal -0.996196 -0.087139 0.000000
outer loop
vertex 7.349444 2.263264 2.264765
vertex 7.349444 2.263264 -1.739854
vertex 7.763703 -2.472656 -1.739854
endloop
endfacet
facet normal -0.996196 -0.087139 0.000000
outer loop
vertex 7.349444 2.263264 2.264765
vertex 7.763703 -2.472656 -1.739854
vertex 7.763703 -2.472656 2.264765
endloop
endfacet
facet normal 0.000000 0.000000 1.000000
outer loop
vertex 7.199977 3.972015 -1.739854
vertex 7.349444 2.263264 -1.739854
vertex 8.123525 2.330974 -1.739854
endloop
endfacet
facet normal -0.000000 0.000000 1.000000
outer loop
vertex 7.199977 3.972015 -1.739854
vertex 8.123525 2.330974 -1.739854
vertex 7.974058 4.039725 -1.739854
endloop
endfacet
facet normal 0.000000 0.000000 -1.000000
outer loop
vertex 3.159821 9.161114 2.264765
vertex 4.257881 9.257163 2.264765
vertex 4.345545 8.254955 2.264765
endloop
endfacet
facet normal -0.000000 0.000000 -1.000000
outer loop
vertex 3.159821 9.161114 2.264765
vertex 4.345545 8.254955 2.264765
vertex 3.247485 8.158907 2.264765
endloop
endfacet
facet normal -0.000000 0.000000 -1.000000
outer loop
vertex 7.974058 4.039725 2.264765
vertex 8.123525 2.330974 2.264765
vertex 7.349444 2.263264 2.264765
endloop
endfacet
facet normal 0.000000 0.000000 -1.000000
outer loop
vertex 7.974058 4.039725 2.264765
vertex 7.349444 2.263264 2.264765
vertex 7.199977 3.972015 2.264765
endloop
endfacet
facet normal 0.000000 0.000000 -1.000000
outer loop
vertex 1.139225 -4.221503 2.264765
vertex 0.239788 -4.300178 2.264765
vertex 0.138277 -3.139662 2.264765
endloop
endfacet
facet normal -0.000000 0.000000 -1.000000
outer loop
vertex 1.139225 -4.221503 2.264765
vertex 0.138277 -3.139662 2.264765
vertex 1.037714 -3.060987 2.264765
endloop
endfacet
facet normal 0.000000 0.000000 -1.000000
outer loop
vertex -0.994254 1.699947 2.264765
vertex 0.609002 1.840186 2.264765
vertex 1.037714 -3.060987 2.264765
endloop
endfacet
facet normal 0.000000 0.000000 -1.000000
outer loop
vertex -0.994254 1.699947 2.264765
vertex 1.037714 -3.060987 2.264765
vertex -0.565542 -3.201226 2.264765
endloop
endfacet
facet normal -0.000000 0.000000 -1.000000
outer loop
vertex -7.399198 2.747818 2.264765
vertex -7.276076 1.340261 2.264765
vertex -8.500649 1.233146 2.264765
endloop
endfacet
facet normal -0.000000 0.000000 -1.000000
outer loop
vertex -7.399198 2.747818 2.264765
vertex -8.500649 1.233146 2.264765
vertex -8.623770 2.640703 2.264765
endloop
endfacet
facet normal 0.000000 0.000000 -1.000000
outer loop
vertex -6.481627 8.089467 2.264765
vertex -2.956089 8.397850 2.264765
vertex -2.869681 7.410010 2.264765
endloop
endfacet
facet normal 0.000000 0.000000 -1.000000
outer loop
vertex -6.481627 8.089467 2.264765
vertex -2.869681 7.410010 2.264765
vertex -6.395220 7.101627 2.264765
endloop
endfacet
facet normal 0.000000 0.000000 -1.000000
outer loop
vertex -1.149846 8.555844 2.264765
vertex -8.717204 7.893918 2.264765
vertex -9.201250 13.427691 2.264765
endloop
endfacet
facet normal -0.000000 0.000000 -1.000000
outer loop
vertex -1.149846 8.555844 2.264765
vertex -9.201250 13.427691 2.264765
vertex -1.633892 14.089618 2.264765
endloop
endfacet
facet normal 0.000000 0.000000 -1.000000
outer loop
vertex 5.108804 -0.470869 2.264765
vertex 4.565588 5.739355 2.264765
vertex 7.026556 5.954619 2.264765
endloop
endfacet
facet normal 0.000000 0.000000 -1.000000
outer loop
vertex 5.108804 -0.470869 2.264765
vertex 7.026556 5.954619 2.264765
vertex 7.569772 -0.255605 2.264765
endloop
endfacet
facet normal 0.000000 0.000000 -1.000000
outer loop
vertex 3.467528 5.643306 2.264765
vertex 4.010744 -0.566917 2.264765
vertex 0.843785 -0.843935 2.264765
endloop
endfacet
facet normal 0.000000 0.000000 -1.000000
outer loop
vertex 3.467528 5.643306 2.264765
vertex 0.843785 -0.843935 2.264765
vertex 0.300569 5.366288 2.264765
endloop
endfacet
facet normal 0.000000 0.000000 -1.000000
outer loop
vertex 7.763703 -2.472656 2.264765
vertex 1.037714 -3.060987 2.264765
vertex 0.843785 -0.843935 2.264765
endloop
endfacet
facet normal -0.000000 0.000000 -1.000000
outer loop
vertex 7.763703 -2.472656 2.264765
vertex 0.843785 -0.843935 2.264765
vertex 7.569772 -0.255605 2.264765
endloop
endfacet
facet normal -0.000000 0.000000 -1.000000
outer loop
vertex 3.467528 5.643306 2.264765
vertex 0.300569 5.366288 2.264765
vertex 0.080526 7.881888 2.264765
endloop
endfacet
facet normal 0.000000 0.000000 -1.000000
outer loop
vertex 3.467528 5.643306 2.264765
vertex 0.080526 7.881888 2.264765
vertex 3.247485 8.158907 2.264765
endloop
endfacet
facet normal 0.000000 0.000000 -1.000000
outer loop
vertex 3.467528 5.643306 2.264765
vertex 3.247485 8.158907 2.264765
vertex 6.806514 8.470219 2.264765
endloop
endfacet
facet normal -0.000000 0.000000 -1.000000
outer loop
vertex 3.467528 5.643306 2.264765
vertex 6.806514 8.470219 2.264765
vertex 7.026556 5.954619 2.264765
endloop
endfacet
facet normal 0.000000 0.000000 1.000000
outer loop
vertex -4.160894 1.890675 -1.739854
vertex -7.300202 1.616076 -1.739854
vertex -6.830889 -3.749264 -1.739854
endloop
endfacet
facet normal -0.000000 0.000000 1.000000
outer loop
vertex -4.160894 1.890675 -1.739854
vertex -6.830889 -3.749264 -1.739854
vertex -3.691581 -3.474664 -1.739854
endloop
endfacet
facet normal 0.000000 0.000000 1.000000
outer loop
vertex -4.630207 7.256015 -1.739854
vertex -7.769516 6.981416 -1.739854
vertex -7.300202 1.616076 -1.739854
endloop
endfacet
facet normal 0.000000 0.000000 1.000000
outer loop
vertex -4.630207 7.256015 -1.739854
vertex -7.300202 1.616076 -1.739854
vertex -4.160894 1.890675 -1.739854
endloop
endfacet
facet normal -0.000000 0.000000 1.000000
outer loop
vertex -1.504168 7.529453 -1.739854
vertex -4.630207 7.256015 -1.739854
vertex -4.160894 1.890675 -1.739854
endloop
endfacet
facet normal 0.000000 0.000000 1.000000
outer loop
vertex -1.504168 7.529453 -1.739854
vertex -4.160894 1.890675 -1.739854
vertex -1.034855 2.164114 -1.739854
endloop
endfacet
facet normal 0.000000 0.000000 -1.000000
outer loop
vertex -0.565542 -3.201226 2.264765
vertex -6.830889 -3.749264 2.264765
vertex -7.769516 6.981416 2.264765
endloop
endfacet
facet normal -0.000000 0.000000 -1.000000
outer loop
vertex -0.565542 -3.201226 2.264765
vertex -7.769516 6.981416 2.264765
vertex -1.504168 7.529453 2.264765
endloop
endfacet
endsolid Exported from Blender-4.0.2
