solid Exported from Blender-4.0.2
facet normal 0.000000 0.000000 1.000000
outer loop
vertex -14.311361 2.642647 -1.660798
vertex -12.568956 -4.751073 -1.660798
vertex -7.162159 -3.476907 -1.660798
endloop
endfacet
facet normal -0.000000 0.000000 1.000000
outer loop
vertex -14.311361 2.642647 -1.660798
vertex -7.162159 -3.476907 -1.660798
vertex -8.904564 3.916813 -1.660798
endloop
endfacet
facet normal 0.973338 0.229377 0.000000
outer loop
vertex -12.568956 -4.751073 -1.660798
vertex -14.311361 2.642647 -1.660798
vertex -14.311361 2.642647 2.343821
endloop
endfacet
facet normal 0.973338 0.229377 0.000000
outer loop
vertex -12.568956 -4.751073 -1.660798
vertex -14.311361 2.642647 2.343821
vertex -12.568956 -4.751073 2.343821
endloop
endfacet
facet normal 0.229377 -0.973338 0.000000
outer loop
vertex -14.311361 2.642647 -1.660798
vertex -8.904564 3.916813 -1.660798
vertex -8.904564 3.916813 2.343821
endloop
endfacet
facet normal 0.229377 -0.973338 0.000000
outer loop
vertex -14.311361 2.642647 -1.660798
vertex -8.904564 3.916813 2.343821
vertex -14.311361 2.642647 2.343821
endloop
endfacet
facet normal -0.229377 0.973338 0.000000
outer loop
vertex -12.568956 -4.751073 -1.660798
vertex -12.568956 -4.751073 2.343821
vertex -7.162159 -3.476907 2.343821
endloop
endfacet
facet normal -0.229377 0.973338 0.000000
outer loop
vertex -12.568956 -4.751073 -1.660798
vertex -7.162159 -3.476907 2.343821
vertex -7.162159 -3.476907 -1.660798
endloop
endfacet
facet normal -0.973338 -0.229376 0.000000
outer loop
vertex -8.904564 3.916813 2.343821
vertex -8.904564 3.916813 -1.660798
vertex -8.488672 2.152016 -1.660798
endloop
endfacet
facet normal -0.973338 -0.229377 0.000000
outer loop
vertex -8.904564 3.916813 2.343821
vertex -8.488672 2.152016 -1.660798
vertex -8.488672 2.152016 2.343821
endloop
endfacet
facet normal -0.973338 -0.229377 0.000000
outer loop
vertex -7.162159 -3.476907 -1.660798
vertex -7.162159 -3.476907 2.343821
vertex -7.676907 -1.292627 2.343821
endloop
endfacet
facet normal -0.973338 -0.229377 0.000000
outer loop
vertex -7.162159 -3.476907 -1.660798
vertex -7.676907 -1.292627 2.343821
vertex -7.676907 -1.292627 -1.660798
endloop
endfacet
facet normal -0.229377 0.973338 0.000000
outer loop
vertex -7.676907 -1.292627 -1.660798
vertex -7.676907 -1.292627 2.343821
vertex -6.711734 -1.065174 2.343821
endloop
endfacet
facet normal -0.229377 0.973338 0.000000
outer loop
vertex -7.676907 -1.292627 -1.660798
vertex -6.711734 -1.065174 2.343821
vertex -6.711734 -1.065174 -1.660798
endloop
endfacet
facet normal 0.229377 -0.973338 0.000000
outer loop
vertex -8.488672 2.152016 2.343821
vertex -8.488672 2.152016 -1.660798
vertex -7.523499 2.379469 -1.660798
endloop
endfacet
facet normal 0.229377 -0.973338 0.000000
outer loop
vertex -8.488672 2.152016 2.343821
vertex -7.523499 2.379469 -1.660798
vertex -7.523499 2.379469 2.343821
endloop
endfacet
facet normal 0.000000 0.000000 1.000000
outer loop
vertex -6.711734 -1.065174 -1.660798
vertex -7.523499 2.379469 -1.660798
vertex -8.488672 2.152016 -1.660798
endloop
endfacet
facet normal 0.000000 0.000000 1.000000
outer loop
vertex -6.711734 -1.065174 -1.660798
vertex -8.488672 2.152016 -1.660798
vertex -7.676907 -1.292627 -1.660798
endloop
endfacet
facet normal 0.973338 0.229377 0.000000
outer loop
vertex -6.711734 -1.065174 -1.660798
vertex -6.711734 -1.065174 2.343821
vertex -6.395299 -2.407935 2.343821
endloop
endfacet
facet normal 0.973338 0.229377 0.000000
outer loop
vertex -6.711734 -1.065174 -1.660798
vertex -6.395299 -2.407935 2.343821
vertex -6.395299 -2.407935 -1.660798
endloop
endfacet
facet normal 0.000000 0.000000 1.000000
outer loop
vertex -2.595685 4.949032 -1.660798
vertex -1.875906 1.894723 -1.660798
vertex 3.366322 3.130107 -1.660798
endloop
endfacet
facet normal 0.000000 0.000000 1.000000
outer loop
vertex -2.595685 4.949032 -1.660798
vertex 3.366322 3.130107 -1.660798
vertex 2.646543 6.184416 -1.660798
endloop
endfacet
facet normal -0.229377 0.973338 0.000000
outer loop
vertex -6.395299 -2.407935 -1.660798
vertex -6.395299 -2.407935 2.343821
vertex -2.258845 -1.433138 2.343821
endloop
endfacet
facet normal -0.229377 0.973338 0.000000
outer loop
vertex -6.395299 -2.407935 -1.660798
vertex -2.258845 -1.433138 2.343821
vertex -2.258845 -1.433138 -1.660798
endloop
endfacet
facet normal 0.973338 0.229377 0.000000
outer loop
vertex -7.523499 2.379469 2.343821
vertex -7.523499 2.379469 -1.660798
vertex -7.837912 3.713649 -1.660798
endloop
endfacet
facet normal 0.973338 0.229376 0.000000
outer loop
vertex -7.523499 2.379469 2.343821
vertex -7.837912 3.713649 -1.660798
vertex -7.837912 3.713649 2.343821
endloop
endfacet
facet normal 0.229377 -0.973338 0.000000
outer loop
vertex -7.837912 3.713649 2.343821
vertex -7.837912 3.713649 -1.660798
vertex -2.142169 5.055908 -1.660798
endloop
endfacet
facet normal 0.229377 -0.973338 0.000000
outer loop
vertex -7.837912 3.713649 2.343821
vertex -2.142169 5.055908 -1.660798
vertex -2.142169 5.055908 2.343821
endloop
endfacet
facet normal -0.229377 0.973338 0.000000
outer loop
vertex -4.924751 1.182236 -1.660799
vertex -4.924751 1.182236 -0.171871
vertex -2.862525 1.668220 -0.171871
endloop
endfacet
facet normal -0.229377 0.973338 0.000000
outer loop
vertex -4.924751 1.182236 -1.660799
vertex -2.862525 1.668220 -0.171871
vertex -2.862525 1.668220 -1.660799
endloop
endfacet
facet normal 0.973338 0.229377 0.000000
outer loop
vertex -2.862525 1.668220 -1.660799
vertex -2.862525 1.668220 -0.171871
vertex -2.568019 0.418514 -0.171871
endloop
endfacet
facet normal 0.973338 0.229377 0.000000
outer loop
vertex -2.862525 1.668220 -1.660799
vertex -2.568019 0.418514 -0.171871
vertex -2.568019 0.418514 -1.660799
endloop
endfacet
facet normal 0.229377 -0.973338 0.000000
outer loop
vertex -2.568019 0.418514 -1.660799
vertex -2.568019 0.418514 -0.171871
vertex -4.630245 -0.067470 -0.171871
endloop
endfacet
facet normal 0.229377 -0.973338 0.000000
outer loop
vertex -2.568019 0.418514 -1.660799
vertex -4.630245 -0.067470 -0.171871
vertex -4.630245 -0.067470 -1.660799
endloop
endfacet
facet normal -0.973338 -0.229377 0.000000
outer loop
vertex -4.630245 -0.067470 -1.660799
vertex -4.630245 -0.067470 -0.171871
vertex -4.924751 1.182236 -0.171871
endloop
endfacet
facet normal -0.973338 -0.229377 0.000000
outer loop
vertex -4.630245 -0.067470 -1.660799
vertex -4.924751 1.182236 -0.171871
vertex -4.924751 1.182236 -1.660799
endloop
endfacet
facet normal -0.000000 0.000000 -1.000000
outer loop
vertex -2.862525 1.668220 -1.660799
vertex -2.568019 0.418514 -1.660799
vertex -4.630245 -0.067470 -1.660799
endloop
endfacet
facet normal 0.000000 0.000000 -1.000000
outer loop
vertex -2.862525 1.668220 -1.660799
vertex -4.630245 -0.067470 -1.660799
vertex -4.924751 1.182236 -1.660799
endloop
endfacet
facet normal 0.000000 0.000000 1.000000
outer loop
vertex -2.568019 0.418514 -0.171871
vertex -2.862525 1.668220 -0.171871
vertex -4.924751 1.182236 -0.171871
endloop
endfacet
facet normal 0.000000 0.000000 1.000000
outer loop
vertex -2.568019 0.418514 -0.171871
vertex -4.924751 1.182236 -0.171871
vertex -4.630245 -0.067470 -0.171871
endloop
endfacet
facet normal -0.229377 0.973338 0.000000
outer loop
vertex -1.442382 2.002892 -1.660799
vertex -1.442382 2.002892 -0.171871
vertex 0.678223 2.502633 -0.171871
endloop
endfacet
facet normal -0.229377 0.973338 0.000000
outer loop
vertex -1.442382 2.002892 -1.660799
vertex 0.678223 2.502633 -0.171871
vertex 0.678223 2.502633 -1.660799
endloop
endfacet
facet normal 0.973338 0.229377 0.000000
outer loop
vertex 0.678223 2.502633 -1.660799
vertex 0.678223 2.502633 -0.171871
vertex 0.972729 1.252928 -0.171871
endloop
endfacet
facet normal 0.973338 0.229377 0.000000
outer loop
vertex 0.678223 2.502633 -1.660799
vertex 0.972729 1.252928 -0.171871
vertex 0.972729 1.252928 -1.660799
endloop
endfacet
facet normal 0.229377 -0.973338 0.000000
outer loop
vertex 0.972729 1.252928 -1.660799
vertex 0.972729 1.252928 -0.171871
vertex -1.147876 0.753186 -0.171871
endloop
endfacet
facet normal 0.229377 -0.973338 0.000000
outer loop
vertex 0.972729 1.252928 -1.660799
vertex -1.147876 0.753186 -0.171871
vertex -1.147876 0.753186 -1.660799
endloop
endfacet
facet normal -0.973338 -0.229377 0.000000
outer loop
vertex -1.147876 0.753186 -1.660799
vertex -1.147876 0.753186 -0.171871
vertex -1.442382 2.002892 -0.171871
endloop
endfacet
facet normal -0.973338 -0.229377 0.000000
outer loop
vertex -1.147876 0.753186 -1.660799
vertex -1.442382 2.002892 -0.171871
vertex -1.442382 2.002892 -1.660799
endloop
endfacet
facet normal 0.000000 0.000000 -1.000000
outer loop
vertex 0.678223 2.502633 -1.660799
vertex 0.972729 1.252928 -1.660799
vertex -1.147876 0.753186 -1.660799
endloop
endfacet
facet normal 0.000000 0.000000 -1.000000
outer loop
vertex 0.678223 2.502633 -1.660799
vertex -1.147876 0.753186 -1.660799
vertex -1.442382 2.002892 -1.660799
endloop
endfacet
facet normal 0.000000 0.000000 1.000000
outer loop
vertex 0.972729 1.252928 -0.171871
vertex 0.678223 2.502633 -0.171871
vertex -1.442382 2.002892 -0.171871
endloop
endfacet
facet normal 0.000000 0.000000 1.000000
outer loop
vertex 0.972729 1.252928 -0.171871
vertex -1.442382 2.002892 -0.171871
vertex -1.147876 0.753186 -0.171871
endloop
endfacet
facet normal 0.973338 0.229377 0.000000
outer loop
vertex -2.258845 -1.433138 -1.660798
vertex -2.258845 -1.433138 2.343821
vertex -1.976884 -2.629612 2.343821
endloop
endfacet
facet normal 0.973338 0.229377 0.000000
outer loop
vertex -2.258845 -1.433138 -1.660798
vertex -1.976884 -2.629612 2.343821
vertex -1.976884 -2.629612 -1.660798
endloop
endfacet
facet normal -0.229377 0.973338 0.000000
outer loop
vertex -1.976884 -2.629612 -1.660798
vertex -1.976884 -2.629612 2.343821
vertex -0.601624 -2.305518 2.343821
endloop
endfacet
facet normal -0.229377 0.973338 0.000000
outer loop
vertex -1.976884 -2.629612 -1.660798
vertex -0.601624 -2.305518 2.343821
vertex -0.601624 -2.305518 -1.660798
endloop
endfacet
facet normal -0.973338 -0.229377 0.000000
outer loop
vertex -0.601624 -2.305518 -1.660798
vertex -0.601624 -2.305518 2.343821
vertex -0.883586 -1.109044 2.343821
endloop
endfacet
facet normal -0.973338 -0.229377 0.000000
outer loop
vertex -0.601624 -2.305518 -1.660798
vertex -0.883586 -1.109044 2.343821
vertex -0.883586 -1.109044 -1.660798
endloop
endfacet
facet normal -0.229377 0.973338 0.000000
outer loop
vertex -0.883586 -1.109044 -1.660798
vertex -0.883586 -1.109044 2.343821
vertex 4.089156 0.062833 2.343821
endloop
endfacet
facet normal -0.229377 0.973338 0.000000
outer loop
vertex -0.883586 -1.109044 -1.660798
vertex 4.089156 0.062833 2.343821
vertex 4.089156 0.062833 -1.660798
endloop
endfacet
facet normal 0.000000 0.000000 1.000000
outer loop
vertex -1.976884 -2.629612 -1.660798
vertex -0.601624 -2.305518 -1.660798
vertex -0.883586 -1.109044 -1.660798
endloop
endfacet
facet normal 0.000000 0.000000 1.000000
outer loop
vertex -1.976884 -2.629612 -1.660798
vertex -0.883586 -1.109044 -1.660798
vertex -2.258845 -1.433138 -1.660798
endloop
endfacet
facet normal 0.973338 0.229377 0.000000
outer loop
vertex -2.142169 5.055908 2.343821
vertex -2.142169 5.055908 -1.660798
vertex -2.511323 6.622376 -1.660798
endloop
endfacet
facet normal 0.973338 0.229377 0.000000
outer loop
vertex -2.142169 5.055908 2.343821
vertex -2.511323 6.622376 -1.660798
vertex -2.511323 6.622376 2.343821
endloop
endfacet
facet normal -0.973338 -0.229377 0.000000
outer loop
vertex 2.646543 6.184416 -1.660798
vertex 4.089156 0.062833 -1.660798
vertex 4.089156 0.062833 2.343821
endloop
endfacet
facet normal -0.973338 -0.229377 0.000000
outer loop
vertex 2.646543 6.184416 -1.660798
vertex 4.089156 0.062833 2.343821
vertex 2.646543 6.184416 2.343821
endloop
endfacet
facet normal 0.229377 -0.973338 0.000000
outer loop
vertex 3.411276 8.018096 -1.660798
vertex 3.411276 8.018096 2.343821
vertex 2.277389 7.750884 2.343821
endloop
endfacet
facet normal 0.229377 -0.973338 0.000000
outer loop
vertex 3.411276 8.018096 -1.660798
vertex 2.277389 7.750884 2.343821
vertex 2.277389 7.750884 -1.660798
endloop
endfacet
facet normal -0.973338 -0.229377 0.000000
outer loop
vertex 3.618374 7.139297 -1.660798
vertex 3.618374 7.139297 2.343821
vertex 3.411276 8.018096 2.343821
endloop
endfacet
facet normal -0.973338 -0.229377 0.000000
outer loop
vertex 3.618374 7.139297 -1.660798
vertex 3.411276 8.018096 2.343821
vertex 3.411276 8.018096 -1.660798
endloop
endfacet
facet normal -0.229377 0.973338 0.000000
outer loop
vertex 2.484487 6.872085 -1.660798
vertex 2.484487 6.872085 2.343821
vertex 3.618374 7.139297 2.343821
endloop
endfacet
facet normal -0.229376 0.973338 0.000000
outer loop
vertex 2.484487 6.872085 -1.660798
vertex 3.618374 7.139297 2.343821
vertex 3.618374 7.139297 -1.660798
endloop
endfacet
facet normal -0.973338 -0.229377 0.000000
outer loop
vertex 2.646543 6.184416 -1.660798
vertex 2.646543 6.184416 2.343821
vertex 2.484487 6.872085 2.343821
endloop
endfacet
facet normal -0.973338 -0.229376 0.000000
outer loop
vertex 2.646543 6.184416 -1.660798
vertex 2.484487 6.872085 2.343821
vertex 2.484487 6.872085 -1.660798
endloop
endfacet
facet normal -0.973338 -0.229377 0.000000
outer loop
vertex 2.277389 7.750884 -1.660798
vertex 2.277389 7.750884 2.343821
vertex 0.728712 14.322540 2.343821
endloop
endfacet
facet normal -0.973338 -0.229377 0.000000
outer loop
vertex 2.277389 7.750884 -1.660798
vertex 0.728712 14.322540 2.343821
vertex 0.728712 14.322540 -1.660798
endloop
endfacet
facet normal -0.229377 0.973338 0.000000
outer loop
vertex -2.511323 6.622376 2.343821
vertex -2.511323 6.622376 -1.660798
vertex -8.414393 5.231257 -1.660798
endloop
endfacet
facet normal -0.229377 0.973338 0.000000
outer loop
vertex -2.511323 6.622376 2.343821
vertex -8.414393 5.231257 -1.660798
vertex -8.414393 5.231257 2.343821
endloop
endfacet
facet normal 0.000000 0.000000 1.000000
outer loop
vertex -2.511323 6.622376 -1.660798
vertex -2.142169 5.055908 -1.660798
vertex 2.646543 6.184416 -1.660798
endloop
endfacet
facet normal 0.000000 0.000000 1.000000
outer loop
vertex -2.511323 6.622376 -1.660798
vertex 2.646543 6.184416 -1.660798
vertex 2.277389 7.750884 -1.660798
endloop
endfacet
facet normal 0.000000 0.000000 1.000000
outer loop
vertex 2.277389 7.750884 -1.660798
vertex 2.484487 6.872085 -1.660798
vertex 3.618374 7.139297 -1.660798
endloop
endfacet
facet normal -0.000000 0.000000 1.000000
outer loop
vertex 2.277389 7.750884 -1.660798
vertex 3.618374 7.139297 -1.660798
vertex 3.411276 8.018096 -1.660798
endloop
endfacet
facet normal 0.000000 0.000000 1.000000
outer loop
vertex -2.511323 6.622376 -1.660798
vertex 2.277389 7.750884 -1.660798
vertex 1.548188 10.845175 -1.660798
endloop
endfacet
facet normal 0.000000 0.000000 1.000000
outer loop
vertex -2.511323 6.622376 -1.660798
vertex 1.548188 10.845175 -1.660798
vertex -3.240524 9.716667 -1.660798
endloop
endfacet
facet normal 0.000000 0.000000 1.000000
outer loop
vertex -2.511323 6.622376 -1.660798
vertex -3.240524 9.716667 -1.660798
vertex -9.143595 8.325549 -1.660798
endloop
endfacet
facet normal 0.000000 0.000000 1.000000
outer loop
vertex -2.511323 6.622376 -1.660798
vertex -9.143595 8.325549 -1.660798
vertex -8.414393 5.231257 -1.660798
endloop
endfacet
facet normal 0.973338 0.229376 0.000000
outer loop
vertex -8.414393 5.231257 2.343821
vertex -8.414393 5.231257 -1.660798
vertex -9.143595 8.325549 -1.660798
endloop
endfacet
facet normal 0.973337 0.229377 0.000000
outer loop
vertex -8.414393 5.231257 2.343821
vertex -9.143595 8.325549 -1.660798
vertex -9.143595 8.325549 2.343821
endloop
endfacet
facet normal 0.229377 -0.973338 0.000000
outer loop
vertex -6.685717 8.904773 -1.660798
vertex -0.617991 10.334692 -1.660798
vertex -0.617991 10.334693 2.343821
endloop
endfacet
facet normal 0.229377 -0.973338 0.000000
outer loop
vertex -6.685717 8.904773 -1.660798
vertex -0.617991 10.334693 2.343821
vertex -6.685717 8.904773 2.343821
endloop
endfacet
facet normal -0.229378 0.973338 0.000000
outer loop
vertex -9.143595 8.325549 2.343821
vertex -9.143595 8.325549 -1.660798
vertex -10.122806 8.094788 -1.660798
endloop
endfacet
facet normal -0.229378 0.973338 0.000000
outer loop
vertex -9.143595 8.325549 2.343821
vertex -10.122806 8.094788 -1.660798
vertex -10.122806 8.094788 2.343821
endloop
endfacet
facet normal 0.973337 0.229379 0.000000
outer loop
vertex -10.122806 8.094788 2.343821
vertex -10.122806 8.094788 -1.660798
vertex -10.375637 9.167651 -1.660798
endloop
endfacet
facet normal 0.973338 0.229376 0.000000
outer loop
vertex -10.122806 8.094788 2.343821
vertex -10.375637 9.167651 -1.660798
vertex -10.375637 9.167651 2.343821
endloop
endfacet
facet normal 0.229377 -0.973338 0.000000
outer loop
vertex -10.375637 9.167651 2.343821
vertex -10.375637 9.167651 -1.660798
vertex -9.396425 9.398413 -1.660798
endloop
endfacet
facet normal 0.229377 -0.973338 0.000000
outer loop
vertex -10.375637 9.167651 2.343821
vertex -9.396425 9.398413 -1.660798
vertex -9.396425 9.398413 2.343821
endloop
endfacet
facet normal 0.973338 0.229377 0.000000
outer loop
vertex -9.396425 9.398413 2.343821
vertex -9.396425 9.398413 -1.660798
vertex -9.963070 11.802913 -1.660798
endloop
endfacet
facet normal 0.973338 0.229377 0.000000
outer loop
vertex -9.396425 9.398413 2.343821
vertex -9.963070 11.802913 -1.660798
vertex -9.963070 11.802913 2.343821
endloop
endfacet
facet normal -0.973338 -0.229377 0.000000
outer loop
vertex -6.685717 8.904773 -1.660798
vertex -6.685717 8.904773 2.343821
vertex -6.938548 9.977636 2.343821
endloop
endfacet
facet normal -0.973338 -0.229377 0.000000
outer loop
vertex -6.685717 8.904773 -1.660798
vertex -6.938548 9.977636 2.343821
vertex -6.938548 9.977636 -1.660798
endloop
endfacet
facet normal 0.000000 0.000000 1.000000
outer loop
vertex -6.685717 8.904773 -1.660798
vertex -6.938548 9.977636 -1.660798
vertex -9.396425 9.398413 -1.660798
endloop
endfacet
facet normal -0.000000 0.000000 1.000000
outer loop
vertex -6.685717 8.904773 -1.660798
vertex -9.396425 9.398413 -1.660798
vertex -9.143595 8.325549 -1.660798
endloop
endfacet
facet normal -0.229377 0.973338 0.000000
outer loop
vertex -6.938548 9.977636 -1.660798
vertex -6.938548 9.977636 2.343821
vertex -0.870823 11.407557 2.343821
endloop
endfacet
facet normal -0.229377 0.973338 0.000000
outer loop
vertex -6.938548 9.977636 -1.660798
vertex -0.870823 11.407557 2.343821
vertex -0.870823 11.407557 -1.660798
endloop
endfacet
facet normal 0.973338 0.229377 0.000000
outer loop
vertex -0.870823 11.407557 -1.660798
vertex -0.870823 11.407557 2.343821
vertex -0.617991 10.334693 2.343821
endloop
endfacet
facet normal 0.973338 0.229377 -0.000000
outer loop
vertex -0.870823 11.407557 -1.660798
vertex -0.617991 10.334693 2.343821
vertex -0.617991 10.334692 -1.660798
endloop
endfacet
facet normal 0.000000 0.000000 1.000000
outer loop
vertex -9.963070 11.802913 -1.660798
vertex -9.396425 9.398413 -1.660798
vertex 1.295357 11.918038 -1.660798
endloop
endfacet
facet normal 0.000000 0.000000 1.000000
outer loop
vertex -9.963070 11.802913 -1.660798
vertex 1.295357 11.918038 -1.660798
vertex 0.728712 14.322540 -1.660798
endloop
endfacet
facet normal 0.229377 -0.973338 0.000000
outer loop
vertex -9.963070 11.802913 2.343821
vertex -9.963070 11.802913 -1.660798
vertex -5.568081 12.838635 -1.660798
endloop
endfacet
facet normal 0.229377 -0.973338 0.000000
outer loop
vertex -9.963070 11.802913 2.343821
vertex -5.568081 12.838635 -1.660798
vertex -5.568081 12.838635 2.343821
endloop
endfacet
facet normal 0.000000 0.000000 1.000000
outer loop
vertex -0.870823 11.407557 -1.660798
vertex -0.617991 10.334692 -1.660798
vertex 1.548188 10.845175 -1.660798
endloop
endfacet
facet normal 0.000000 0.000000 1.000000
outer loop
vertex -0.870823 11.407557 -1.660798
vertex 1.548188 10.845175 -1.660798
vertex 1.295357 11.918038 -1.660798
endloop
endfacet
facet normal 0.000000 0.000000 1.000000
outer loop
vertex -9.143595 8.325549 -1.660798
vertex -9.396425 9.398413 -1.660798
vertex -10.375637 9.167651 -1.660798
endloop
endfacet
facet normal -0.000000 0.000000 1.000000
outer loop
vertex -9.143595 8.325549 -1.660798
vertex -10.375637 9.167651 -1.660798
vertex -10.122806 8.094788 -1.660798
endloop
endfacet
facet normal 0.973338 0.229377 0.000000
outer loop
vertex -5.568081 12.838635 2.343821
vertex -5.568081 12.838635 -1.660798
vertex -5.746315 13.594954 -1.660798
endloop
endfacet
facet normal 0.973338 0.229377 0.000000
outer loop
vertex -5.568081 12.838635 2.343821
vertex -5.746315 13.594954 -1.660798
vertex -5.746315 13.594954 2.343821
endloop
endfacet
facet normal 0.229377 -0.973338 0.000000
outer loop
vertex -5.746315 13.594954 2.343821
vertex -5.746315 13.594954 -1.660798
vertex -4.076772 13.988399 -1.660798
endloop
endfacet
facet normal 0.229377 -0.973338 0.000000
outer loop
vertex -5.746315 13.594954 2.343821
vertex -4.076772 13.988399 -1.660798
vertex -4.076772 13.988399 2.343821
endloop
endfacet
facet normal -0.973338 -0.229377 0.000000
outer loop
vertex -4.076772 13.988399 2.343821
vertex -4.076772 13.988399 -1.660798
vertex -3.898538 13.232080 -1.660798
endloop
endfacet
facet normal -0.973338 -0.229377 0.000000
outer loop
vertex -4.076772 13.988399 2.343821
vertex -3.898538 13.232080 -1.660798
vertex -3.898538 13.232080 2.343821
endloop
endfacet
facet normal 0.229377 -0.973338 0.000000
outer loop
vertex -3.898538 13.232080 2.343821
vertex -3.898538 13.232080 -1.660798
vertex 0.728712 14.322540 -1.660798
endloop
endfacet
facet normal 0.229377 -0.973338 0.000000
outer loop
vertex -3.898538 13.232080 2.343821
vertex 0.728712 14.322540 -1.660798
vertex 0.728712 14.322540 2.343821
endloop
endfacet
facet normal 0.000000 0.000000 1.000000
outer loop
vertex -5.568081 12.838635 -1.660798
vertex -3.898538 13.232080 -1.660798
vertex -4.076772 13.988399 -1.660798
endloop
endfacet
facet normal -0.000000 0.000000 1.000000
outer loop
vertex -5.568081 12.838635 -1.660798
vertex -4.076772 13.988399 -1.660798
vertex -5.746315 13.594954 -1.660798
endloop
endfacet
facet normal 0.000000 0.000000 -1.000000
outer loop
vertex -10.122806 8.094788 2.343821
vertex -10.375637 9.167651 2.343821
vertex -9.396425 9.398413 2.343821
endloop
endfacet
facet normal 0.000000 0.000000 -1.000000
outer loop
vertex -10.122806 8.094788 2.343821
vertex -9.396425 9.398413 2.343821
vertex -9.143595 8.325549 2.343821
endloop
endfacet
facet normal 0.000000 0.000000 -1.000000
outer loop
vertex -5.746315 13.594954 2.343821
vertex -4.076772 13.988399 2.343821
vertex -3.898538 13.232080 2.343821
endloop
endfacet
facet normal -0.000000 0.000000 -1.000000
outer loop
vertex -5.746315 13.594954 2.343821
vertex -3.898538 13.232080 2.343821
vertex -5.568081 12.838635 2.343821
endloop
endfacet
facet normal 0.000000 0.000000 -1.000000
outer loop
vertex 3.411276 8.018096 2.343821
vertex 3.618374 7.139297 2.343821
vertex 2.484487 6.872085 2.343821
endloop
endfacet
facet normal 0.000000 0.000000 -1.000000
outer loop
vertex 3.411276 8.018096 2.343821
vertex 2.484487 6.872085 2.343821
vertex 2.277389 7.750884 2.343821
endloop
endfacet
facet normal 0.000000 0.000000 -1.000000
outer loop
vertex -2.142169 5.055908 2.343821
vertex -2.511323 6.622376 2.343821
vertex 2.277389 7.750884 2.343821
endloop
endfacet
facet normal -0.000000 0.000000 -1.000000
outer loop
vertex -2.142169 5.055908 2.343821
vertex 2.277389 7.750884 2.343821
vertex 2.646543 6.184416 2.343821
endloop
endfacet
facet normal 0.000000 0.000000 -1.000000
outer loop
vertex -2.258845 -1.433138 2.343821
vertex -0.883586 -1.109044 2.343821
vertex -0.601624 -2.305518 2.343821
endloop
endfacet
facet normal -0.000000 0.000000 -1.000000
outer loop
vertex -2.258845 -1.433138 2.343821
vertex -0.601624 -2.305518 2.343821
vertex -1.976884 -2.629612 2.343821
endloop
endfacet
facet normal 0.000000 0.000000 -1.000000
outer loop
vertex -7.676907 -1.292627 2.343821
vertex -8.488672 2.152016 2.343821
vertex -7.523499 2.379469 2.343821
endloop
endfacet
facet normal 0.000000 0.000000 -1.000000
outer loop
vertex -7.676907 -1.292627 2.343821
vertex -7.523499 2.379469 2.343821
vertex -6.711734 -1.065174 2.343821
endloop
endfacet
facet normal -0.000000 0.000000 -1.000000
outer loop
vertex -8.904564 3.916813 2.343821
vertex -7.162159 -3.476907 2.343821
vertex -12.568956 -4.751073 2.343821
endloop
endfacet
facet normal 0.000000 0.000000 -1.000000
outer loop
vertex -8.904564 3.916813 2.343821
vertex -12.568956 -4.751073 2.343821
vertex -14.311361 2.642647 2.343821
endloop
endfacet
facet normal 0.000000 0.000000 -1.000000
outer loop
vertex -0.870823 11.407557 2.343821
vertex -6.938548 9.977636 2.343821
vertex -7.505192 12.382135 2.343821
endloop
endfacet
facet normal 0.000000 0.000000 -1.000000
outer loop
vertex -0.870823 11.407557 2.343821
vertex -7.505192 12.382135 2.343821
vertex -1.437467 13.812056 2.343821
endloop
endfacet
facet normal -0.000000 0.000000 -1.000000
outer loop
vertex -6.685717 8.904773 2.343821
vertex -0.617991 10.334693 2.343821
vertex 0.111210 7.240402 2.343821
endloop
endfacet
facet normal -0.000000 0.000000 -1.000000
outer loop
vertex -6.685717 8.904773 2.343821
vertex 0.111210 7.240402 2.343821
vertex -5.956516 5.810481 2.343821
endloop
endfacet
facet normal -0.000000 0.000000 -1.000000
outer loop
vertex 0.728712 14.322540 2.343821
vertex 2.277389 7.750884 2.343821
vertex 0.111210 7.240402 2.343821
endloop
endfacet
facet normal 0.000000 0.000000 -1.000000
outer loop
vertex 0.728712 14.322540 2.343821
vertex 0.111210 7.240402 2.343821
vertex -1.437467 13.812056 2.343821
endloop
endfacet
facet normal 0.000000 0.000000 -1.000000
outer loop
vertex -6.685717 8.904773 2.343821
vertex -5.956516 5.810481 2.343821
vertex -8.414393 5.231257 2.343821
endloop
endfacet
facet normal 0.000000 0.000000 -1.000000
outer loop
vertex -6.685717 8.904773 2.343821
vertex -8.414393 5.231257 2.343821
vertex -9.143595 8.325549 2.343821
endloop
endfacet
facet normal 0.000000 0.000000 -1.000000
outer loop
vertex -6.685717 8.904773 2.343821
vertex -9.143595 8.325549 2.343821
vertex -9.963070 11.802913 2.343821
endloop
endfacet
facet normal -0.000000 0.000000 -1.000000
outer loop
vertex -6.685717 8.904773 2.343821
vertex -9.963070 11.802913 2.343821
vertex -7.505192 12.382135 2.343821
endloop
endfacet
facet normal 0.000000 0.000000 1.000000
outer loop
vertex -1.875906 1.894723 -1.660798
vertex -1.153071 -1.172551 -1.660798
vertex 4.089156 0.062833 -1.660798
endloop
endfacet
facet normal 0.000000 0.000000 1.000000
outer loop
vertex -1.875906 1.894723 -1.660798
vertex 4.089156 0.062833 -1.660798
vertex 3.366322 3.130107 -1.660798
endloop
endfacet
facet normal 0.000000 0.000000 1.000000
outer loop
vertex -7.118134 0.659339 -1.660798
vertex -6.395299 -2.407935 -1.660798
vertex -1.153071 -1.172551 -1.660798
endloop
endfacet
facet normal 0.000000 0.000000 1.000000
outer loop
vertex -7.118134 0.659339 -1.660798
vertex -1.153071 -1.172551 -1.660798
vertex -1.875906 1.894723 -1.660798
endloop
endfacet
facet normal -0.000000 0.000000 1.000000
outer loop
vertex -7.837912 3.713649 -1.660798
vertex -7.118134 0.659339 -1.660798
vertex -1.875906 1.894723 -1.660798
endloop
endfacet
facet normal 0.000000 0.000000 1.000000
outer loop
vertex -7.837912 3.713649 -1.660798
vertex -1.875906 1.894723 -1.660798
vertex -2.595685 4.949032 -1.660798
endloop
endfacet
facet normal 0.000000 0.000000 -1.000000
outer loop
vertex 2.646543 6.184416 2.343821
vertex 4.089156 0.062833 2.343821
vertex -6.395299 -2.407935 2.343821
endloop
endfacet
facet normal 0.000000 0.000000 -1.000000
outer loop
vertex 2.646543 6.184416 2.343821
vertex -6.395299 -2.407935 2.343821
vertex -7.837912 3.713649 2.343821
endloop
endfacet
endsolid Exported from Blender-4.0.2
