solid Exported from Blender-4.0.2
facet normal 0.000000 0.000000 1.000000
outer loop
vertex -11.771088 -11.526520 -1.650437
vertex -5.597563 -15.952654 -1.650437
vertex -2.360870 -11.438148 -1.650437
endloop
endfacet
facet normal 0.000000 0.000000 1.000000
outer loop
vertex -11.771088 -11.526520 -1.650437
vertex -2.360870 -11.438148 -1.650437
vertex -8.534395 -7.012015 -1.650437
endloop
endfacet
facet normal 0.582673 0.812706 0.000000
outer loop
vertex -5.597563 -15.952654 -1.650437
vertex -11.771088 -11.526520 -1.650437
vertex -11.771088 -11.526520 2.354182
endloop
endfacet
facet normal 0.582673 0.812707 0.000000
outer loop
vertex -5.597563 -15.952654 -1.650437
vertex -11.771088 -11.526520 2.354182
vertex -5.597563 -15.952654 2.354182
endloop
endfacet
facet normal 0.812706 -0.582673 0.000000
outer loop
vertex -11.771088 -11.526520 -1.650437
vertex -8.534395 -7.012015 -1.650437
vertex -8.534395 -7.012015 2.354182
endloop
endfacet
facet normal 0.812707 -0.582673 0.000000
outer loop
vertex -11.771088 -11.526520 -1.650437
vertex -8.534395 -7.012015 2.354182
vertex -11.771088 -11.526520 2.354182
endloop
endfacet
facet normal -0.812707 0.582673 0.000000
outer loop
vertex -5.597563 -15.952654 -1.650437
vertex -5.597563 -15.952654 2.354182
vertex -2.360870 -11.438148 2.354182
endloop
endfacet
facet normal -0.812707 0.582673 0.000000
outer loop
vertex -5.597563 -15.952654 -1.650437
vertex -2.360870 -11.438148 2.354182
vertex -2.360870 -11.438148 -1.650437
endloop
endfacet
facet normal -0.582673 -0.812707 0.000000
outer loop
vertex -8.534395 -7.012015 2.354182
vertex -8.534395 -7.012015 -1.650437
vertex -7.060845 -8.068482 -1.650437
endloop
endfacet
facet normal -0.582673 -0.812706 0.000000
outer loop
vertex -8.534395 -7.012015 2.354182
vertex -7.060845 -8.068482 -1.650437
vertex -7.060845 -8.068482 2.354182
endloop
endfacet
facet normal -0.582673 -0.812707 0.000000
outer loop
vertex -2.360870 -11.438148 -1.650437
vertex -2.360870 -11.438148 2.354182
vertex -4.184676 -10.130564 2.354182
endloop
endfacet
facet normal -0.582673 -0.812707 0.000000
outer loop
vertex -2.360870 -11.438148 -1.650437
vertex -4.184676 -10.130564 2.354182
vertex -4.184676 -10.130564 -1.650437
endloop
endfacet
facet normal -0.812707 0.582672 0.000000
outer loop
vertex -4.184676 -10.130564 -1.650437
vertex -4.184676 -10.130564 2.354182
vertex -3.606891 -9.324674 2.354182
endloop
endfacet
facet normal -0.812707 0.582672 0.000000
outer loop
vertex -4.184676 -10.130564 -1.650437
vertex -3.606891 -9.324674 2.354182
vertex -3.606891 -9.324674 -1.650437
endloop
endfacet
facet normal 0.812707 -0.582673 0.000000
outer loop
vertex -7.060845 -8.068482 2.354182
vertex -7.060845 -8.068482 -1.650437
vertex -6.483060 -7.262593 -1.650437
endloop
endfacet
facet normal 0.812706 -0.582673 0.000000
outer loop
vertex -7.060845 -8.068482 2.354182
vertex -6.483060 -7.262593 -1.650437
vertex -6.483060 -7.262593 2.354182
endloop
endfacet
facet normal 0.000000 0.000000 1.000000
outer loop
vertex -3.606891 -9.324674 -1.650437
vertex -6.483060 -7.262593 -1.650437
vertex -7.060845 -8.068482 -1.650437
endloop
endfacet
facet normal -0.000000 0.000000 1.000000
outer loop
vertex -3.606891 -9.324674 -1.650437
vertex -7.060845 -8.068482 -1.650437
vertex -4.184676 -10.130564 -1.650437
endloop
endfacet
facet normal 0.582673 0.812707 0.000000
outer loop
vertex -3.606891 -9.324674 -1.650437
vertex -3.606891 -9.324674 2.354182
vertex -2.485727 -10.128496 2.354182
endloop
endfacet
facet normal 0.582673 0.812707 0.000000
outer loop
vertex -3.606891 -9.324674 -1.650437
vertex -2.485727 -10.128496 2.354182
vertex -2.485727 -10.128496 -1.650437
endloop
endfacet
facet normal 0.000000 0.000000 1.000000
outer loop
vertex -4.458882 -2.086811 -1.650437
vertex -1.908629 -3.915225 -1.650437
vertex 1.229548 0.461871 -1.650437
endloop
endfacet
facet normal 0.000000 0.000000 1.000000
outer loop
vertex -4.458882 -2.086811 -1.650437
vertex 1.229548 0.461871 -1.650437
vertex -1.320705 2.290285 -1.650437
endloop
endfacet
facet normal -0.812706 0.582673 0.000000
outer loop
vertex -2.485727 -10.128496 -1.650437
vertex -2.485727 -10.128496 2.354182
vertex -0.009504 -6.674687 2.354182
endloop
endfacet
facet normal -0.812706 0.582673 0.000000
outer loop
vertex -2.485727 -10.128496 -1.650437
vertex -0.009504 -6.674687 2.354182
vertex -0.009504 -6.674687 -1.650437
endloop
endfacet
facet normal 0.582673 0.812706 0.000000
outer loop
vertex -6.483060 -7.262593 2.354182
vertex -6.483060 -7.262593 -1.650437
vertex -7.597058 -6.463907 -1.650437
endloop
endfacet
facet normal 0.582673 0.812706 0.000000
outer loop
vertex -6.483060 -7.262593 2.354182
vertex -7.597058 -6.463907 -1.650437
vertex -7.597058 -6.463907 2.354182
endloop
endfacet
facet normal 0.812707 -0.582673 0.000000
outer loop
vertex -7.597058 -6.463907 2.354182
vertex -7.597058 -6.463907 -1.650437
vertex -4.187392 -1.708140 -1.650437
endloop
endfacet
facet normal 0.812707 -0.582673 0.000000
outer loop
vertex -7.597058 -6.463907 2.354182
vertex -4.187392 -1.708140 -1.650437
vertex -4.187392 -1.708140 2.354182
endloop
endfacet
facet normal -0.812707 0.582673 0.000000
outer loop
vertex -3.737719 -6.456391 -1.650438
vertex -3.737719 -6.456391 -0.161510
vertex -2.503200 -4.734497 -0.161510
endloop
endfacet
facet normal -0.812707 0.582673 0.000000
outer loop
vertex -3.737719 -6.456391 -1.650438
vertex -2.503200 -4.734497 -0.161510
vertex -2.503200 -4.734497 -1.650438
endloop
endfacet
facet normal 0.582673 0.812707 0.000000
outer loop
vertex -2.503200 -4.734497 -1.650438
vertex -2.503200 -4.734497 -0.161510
vertex -1.459735 -5.482614 -0.161510
endloop
endfacet
facet normal 0.582673 0.812706 0.000000
outer loop
vertex -2.503200 -4.734497 -1.650438
vertex -1.459735 -5.482614 -0.161510
vertex -1.459735 -5.482614 -1.650438
endloop
endfacet
facet normal 0.812707 -0.582673 0.000000
outer loop
vertex -1.459735 -5.482614 -1.650438
vertex -1.459735 -5.482614 -0.161510
vertex -2.694253 -7.204508 -0.161510
endloop
endfacet
facet normal 0.812707 -0.582673 0.000000
outer loop
vertex -1.459735 -5.482614 -1.650438
vertex -2.694253 -7.204508 -0.161510
vertex -2.694253 -7.204508 -1.650438
endloop
endfacet
facet normal -0.582673 -0.812706 0.000000
outer loop
vertex -2.694253 -7.204508 -1.650438
vertex -2.694253 -7.204508 -0.161510
vertex -3.737719 -6.456391 -0.161510
endloop
endfacet
facet normal -0.582673 -0.812707 0.000000
outer loop
vertex -2.694253 -7.204508 -1.650438
vertex -3.737719 -6.456391 -0.161510
vertex -3.737719 -6.456391 -1.650438
endloop
endfacet
facet normal 0.000000 0.000000 -1.000000
outer loop
vertex -2.503200 -4.734497 -1.650438
vertex -1.459735 -5.482614 -1.650438
vertex -2.694253 -7.204508 -1.650438
endloop
endfacet
facet normal -0.000000 0.000000 -1.000000
outer loop
vertex -2.503200 -4.734497 -1.650438
vertex -2.694253 -7.204508 -1.650438
vertex -3.737719 -6.456391 -1.650438
endloop
endfacet
facet normal 0.000000 0.000000 1.000000
outer loop
vertex -1.459735 -5.482614 -0.161510
vertex -2.503200 -4.734497 -0.161510
vertex -3.737719 -6.456391 -0.161510
endloop
endfacet
facet normal 0.000000 0.000000 1.000000
outer loop
vertex -1.459735 -5.482614 -0.161510
vertex -3.737719 -6.456391 -0.161510
vertex -2.694253 -7.204508 -0.161510
endloop
endfacet
facet normal -0.812707 0.582673 0.000000
outer loop
vertex -1.653054 -3.548722 -1.650438
vertex -1.653054 -3.548722 -0.161510
vertex -0.383587 -1.778083 -0.161510
endloop
endfacet
facet normal -0.812707 0.582673 0.000000
outer loop
vertex -1.653054 -3.548722 -1.650438
vertex -0.383587 -1.778083 -0.161510
vertex -0.383587 -1.778083 -1.650438
endloop
endfacet
facet normal 0.582673 0.812707 0.000000
outer loop
vertex -0.383587 -1.778083 -1.650438
vertex -0.383587 -1.778083 -0.161510
vertex 0.659878 -2.526200 -0.161510
endloop
endfacet
facet normal 0.582673 0.812706 0.000000
outer loop
vertex -0.383587 -1.778083 -1.650438
vertex 0.659878 -2.526200 -0.161510
vertex 0.659878 -2.526200 -1.650438
endloop
endfacet
facet normal 0.812707 -0.582673 0.000000
outer loop
vertex 0.659878 -2.526200 -1.650438
vertex 0.659878 -2.526200 -0.161510
vertex -0.609588 -4.296839 -0.161510
endloop
endfacet
facet normal 0.812707 -0.582673 0.000000
outer loop
vertex 0.659878 -2.526200 -1.650438
vertex -0.609588 -4.296839 -0.161510
vertex -0.609588 -4.296839 -1.650438
endloop
endfacet
facet normal -0.582673 -0.812706 0.000000
outer loop
vertex -0.609588 -4.296839 -1.650438
vertex -0.609588 -4.296839 -0.161510
vertex -1.653054 -3.548722 -0.161510
endloop
endfacet
facet normal -0.582673 -0.812707 0.000000
outer loop
vertex -0.609588 -4.296839 -1.650438
vertex -1.653054 -3.548722 -0.161510
vertex -1.653054 -3.548722 -1.650438
endloop
endfacet
facet normal -0.000000 0.000000 -1.000000
outer loop
vertex -0.383587 -1.778083 -1.650438
vertex 0.659878 -2.526200 -1.650438
vertex -0.609588 -4.296839 -1.650438
endloop
endfacet
facet normal 0.000000 0.000000 -1.000000
outer loop
vertex -0.383587 -1.778083 -1.650438
vertex -0.609588 -4.296839 -1.650438
vertex -1.653054 -3.548722 -1.650438
endloop
endfacet
facet normal 0.000000 0.000000 1.000000
outer loop
vertex 0.659878 -2.526200 -0.161510
vertex -0.383587 -1.778083 -0.161510
vertex -1.653054 -3.548722 -0.161510
endloop
endfacet
facet normal 0.000000 0.000000 1.000000
outer loop
vertex 0.659878 -2.526200 -0.161510
vertex -1.653054 -3.548722 -0.161510
vertex -0.609588 -4.296839 -0.161510
endloop
endfacet
facet normal 0.582673 0.812707 0.000000
outer loop
vertex -0.009504 -6.674687 -1.650437
vertex -0.009504 -6.674687 2.354182
vertex 0.989514 -7.390937 2.354182
endloop
endfacet
facet normal 0.582673 0.812707 0.000000
outer loop
vertex -0.009504 -6.674687 -1.650437
vertex 0.989514 -7.390937 2.354182
vertex 0.989514 -7.390937 -1.650437
endloop
endfacet
facet normal -0.812707 0.582673 0.000000
outer loop
vertex 0.989514 -7.390937 -1.650437
vertex 0.989514 -7.390937 2.354182
vertex 1.812792 -6.242638 2.354182
endloop
endfacet
facet normal -0.812707 0.582673 0.000000
outer loop
vertex 0.989514 -7.390937 -1.650437
vertex 1.812792 -6.242638 2.354182
vertex 1.812792 -6.242638 -1.650437
endloop
endfacet
facet normal -0.582673 -0.812707 0.000000
outer loop
vertex 1.812792 -6.242638 -1.650437
vertex 1.812792 -6.242638 2.354182
vertex 0.813773 -5.526388 2.354182
endloop
endfacet
facet normal -0.582673 -0.812707 0.000000
outer loop
vertex 1.812792 -6.242638 -1.650437
vertex 0.813773 -5.526388 2.354182
vertex 0.813773 -5.526388 -1.650437
endloop
endfacet
facet normal -0.812707 0.582673 0.000000
outer loop
vertex 0.813773 -5.526388 -1.650437
vertex 0.813773 -5.526388 2.354182
vertex 3.790626 -1.374304 2.354182
endloop
endfacet
facet normal -0.812707 0.582673 0.000000
outer loop
vertex 0.813773 -5.526388 -1.650437
vertex 3.790626 -1.374304 2.354182
vertex 3.790626 -1.374304 -1.650437
endloop
endfacet
facet normal -0.000000 0.000000 1.000000
outer loop
vertex 0.989514 -7.390937 -1.650437
vertex 1.812792 -6.242638 -1.650437
vertex 0.813773 -5.526388 -1.650437
endloop
endfacet
facet normal 0.000000 0.000000 1.000000
outer loop
vertex 0.989514 -7.390937 -1.650437
vertex 0.813773 -5.526388 -1.650437
vertex -0.009504 -6.674687 -1.650437
endloop
endfacet
facet normal 0.582673 0.812706 0.000000
outer loop
vertex -4.187392 -1.708140 2.354182
vertex -4.187392 -1.708140 -1.650437
vertex -5.495344 -0.770399 -1.650437
endloop
endfacet
facet normal 0.582673 0.812706 0.000000
outer loop
vertex -4.187392 -1.708140 2.354182
vertex -5.495344 -0.770399 -1.650437
vertex -5.495344 -0.770399 2.354182
endloop
endfacet
facet normal -0.582673 -0.812707 0.000000
outer loop
vertex -1.320705 2.290285 -1.650437
vertex 3.790626 -1.374304 -1.650437
vertex 3.790626 -1.374304 2.354182
endloop
endfacet
facet normal -0.582673 -0.812707 0.000000
outer loop
vertex -1.320705 2.290285 -1.650437
vertex 3.790626 -1.374304 2.354182
vertex -1.320705 2.290285 2.354182
endloop
endfacet
facet normal 0.812706 -0.582673 0.000000
outer loop
vertex -1.949874 4.174786 -1.650437
vertex -1.949874 4.174786 2.354182
vertex -2.628657 3.228026 2.354182
endloop
endfacet
facet normal 0.812707 -0.582673 0.000000
outer loop
vertex -1.949874 4.174786 -1.650437
vertex -2.628657 3.228026 2.354182
vertex -2.628657 3.228026 -1.650437
endloop
endfacet
facet normal -0.582673 -0.812707 0.000000
outer loop
vertex -1.216105 3.648707 -1.650437
vertex -1.216105 3.648707 2.354182
vertex -1.949874 4.174786 2.354182
endloop
endfacet
facet normal -0.582673 -0.812707 0.000000
outer loop
vertex -1.216105 3.648707 -1.650437
vertex -1.949874 4.174786 2.354182
vertex -1.949874 4.174786 -1.650437
endloop
endfacet
facet normal -0.812707 0.582673 0.000000
outer loop
vertex -1.894888 2.701947 -1.650437
vertex -1.894888 2.701947 2.354182
vertex -1.216105 3.648707 2.354182
endloop
endfacet
facet normal -0.812707 0.582673 0.000000
outer loop
vertex -1.894888 2.701947 -1.650437
vertex -1.216105 3.648707 2.354182
vertex -1.216105 3.648707 -1.650437
endloop
endfacet
facet normal -0.582673 -0.812707 0.000000
outer loop
vertex -1.320705 2.290285 -1.650437
vertex -1.320705 2.290285 2.354182
vertex -1.894888 2.701947 2.354182
endloop
endfacet
facet normal -0.582673 -0.812707 0.000000
outer loop
vertex -1.320705 2.290285 -1.650437
vertex -1.894888 2.701947 2.354182
vertex -1.894888 2.701947 -1.650437
endloop
endfacet
facet normal -0.582673 -0.812707 0.000000
outer loop
vertex -2.628657 3.228026 -1.650437
vertex -2.628657 3.228026 2.354182
vertex -8.115785 7.162045 2.354182
endloop
endfacet
facet normal -0.582673 -0.812706 0.000000
outer loop
vertex -2.628657 3.228026 -1.650437
vertex -8.115785 7.162045 2.354182
vertex -8.115785 7.162045 -1.650437
endloop
endfacet
facet normal -0.812707 0.582673 0.000000
outer loop
vertex -5.495344 -0.770399 2.354182
vertex -5.495344 -0.770399 -1.650437
vertex -9.029123 -5.699279 -1.650437
endloop
endfacet
facet normal -0.812707 0.582673 0.000000
outer loop
vertex -5.495344 -0.770399 2.354182
vertex -9.029123 -5.699279 -1.650437
vertex -9.029123 -5.699279 2.354182
endloop
endfacet
facet normal 0.000000 0.000000 1.000000
outer loop
vertex -5.495344 -0.770399 -1.650437
vertex -4.187392 -1.708140 -1.650437
vertex -1.320705 2.290285 -1.650437
endloop
endfacet
facet normal 0.000000 0.000000 1.000000
outer loop
vertex -5.495344 -0.770399 -1.650437
vertex -1.320705 2.290285 -1.650437
vertex -2.628657 3.228026 -1.650437
endloop
endfacet
facet normal 0.000000 0.000000 1.000000
outer loop
vertex -2.628657 3.228026 -1.650437
vertex -1.894888 2.701947 -1.650437
vertex -1.216105 3.648707 -1.650437
endloop
endfacet
facet normal 0.000000 0.000000 1.000000
outer loop
vertex -2.628657 3.228026 -1.650437
vertex -1.216105 3.648707 -1.650437
vertex -1.949874 4.174786 -1.650437
endloop
endfacet
facet normal 0.000000 0.000000 1.000000
outer loop
vertex -5.495344 -0.770399 -1.650437
vertex -2.628657 3.228026 -1.650437
vertex -5.212293 5.080374 -1.650437
endloop
endfacet
facet normal 0.000000 0.000000 1.000000
outer loop
vertex -5.495344 -0.770399 -1.650437
vertex -5.212293 5.080374 -1.650437
vertex -8.078979 1.081949 -1.650437
endloop
endfacet
facet normal 0.000000 0.000000 1.000000
outer loop
vertex -5.495344 -0.770399 -1.650437
vertex -8.078979 1.081949 -1.650437
vertex -11.612759 -3.846931 -1.650437
endloop
endfacet
facet normal -0.000000 0.000000 1.000000
outer loop
vertex -5.495344 -0.770399 -1.650437
vertex -11.612759 -3.846931 -1.650437
vertex -9.029123 -5.699279 -1.650437
endloop
endfacet
facet normal 0.582673 0.812706 0.000000
outer loop
vertex -9.029123 -5.699279 2.354182
vertex -9.029123 -5.699279 -1.650437
vertex -11.612759 -3.846931 -1.650437
endloop
endfacet
facet normal 0.582673 0.812707 0.000000
outer loop
vertex -9.029123 -5.699279 2.354182
vertex -11.612759 -3.846931 -1.650437
vertex -11.612759 -3.846931 2.354182
endloop
endfacet
facet normal 0.812706 -0.582673 0.000000
outer loop
vertex -10.141390 -1.794680 -1.650437
vertex -6.509042 3.271682 -1.650437
vertex -6.509042 3.271682 2.354182
endloop
endfacet
facet normal 0.812707 -0.582673 0.000000
outer loop
vertex -10.141390 -1.794680 -1.650437
vertex -6.509042 3.271682 2.354182
vertex -10.141390 -1.794680 2.354182
endloop
endfacet
facet normal -0.812706 0.582674 0.000000
outer loop
vertex -11.612759 -3.846931 2.354182
vertex -11.612759 -3.846931 -1.650437
vertex -12.198948 -4.664541 -1.650437
endloop
endfacet
facet normal -0.812707 0.582673 0.000000
outer loop
vertex -11.612759 -3.846931 2.354182
vertex -12.198948 -4.664541 -1.650437
vertex -12.198948 -4.664541 2.354182
endloop
endfacet
facet normal 0.582672 0.812707 0.000000
outer loop
vertex -12.198948 -4.664541 2.354182
vertex -12.198948 -4.664541 -1.650437
vertex -13.094757 -4.022287 -1.650437
endloop
endfacet
facet normal 0.582673 0.812707 0.000000
outer loop
vertex -12.198948 -4.664541 2.354182
vertex -13.094757 -4.022287 -1.650437
vertex -13.094757 -4.022287 2.354182
endloop
endfacet
facet normal 0.812707 -0.582673 0.000000
outer loop
vertex -13.094757 -4.022287 2.354182
vertex -13.094757 -4.022287 -1.650437
vertex -12.508567 -3.204677 -1.650437
endloop
endfacet
facet normal 0.812706 -0.582674 0.000000
outer loop
vertex -13.094757 -4.022287 2.354182
vertex -12.508567 -3.204677 -1.650437
vertex -12.508568 -3.204678 2.354182
endloop
endfacet
facet normal 0.582673 0.812707 0.000000
outer loop
vertex -12.508568 -3.204678 2.354182
vertex -12.508567 -3.204677 -1.650437
vertex -14.516251 -1.765262 -1.650437
endloop
endfacet
facet normal 0.582674 0.812706 -0.000000
outer loop
vertex -12.508568 -3.204678 2.354182
vertex -14.516251 -1.765262 -1.650437
vertex -14.516250 -1.765261 2.354182
endloop
endfacet
facet normal -0.582673 -0.812707 0.000000
outer loop
vertex -10.141390 -1.794680 -1.650437
vertex -10.141390 -1.794680 2.354182
vertex -11.037198 -1.152426 2.354182
endloop
endfacet
facet normal -0.582673 -0.812707 0.000000
outer loop
vertex -10.141390 -1.794680 -1.650437
vertex -11.037198 -1.152426 2.354182
vertex -11.037198 -1.152426 -1.650437
endloop
endfacet
facet normal -0.000000 0.000000 1.000000
outer loop
vertex -10.141390 -1.794680 -1.650437
vertex -11.037198 -1.152426 -1.650437
vertex -12.508567 -3.204677 -1.650437
endloop
endfacet
facet normal 0.000000 0.000000 1.000000
outer loop
vertex -10.141390 -1.794680 -1.650437
vertex -12.508567 -3.204677 -1.650437
vertex -11.612759 -3.846931 -1.650437
endloop
endfacet
facet normal -0.812707 0.582673 0.000000
outer loop
vertex -11.037198 -1.152426 -1.650437
vertex -11.037198 -1.152426 2.354182
vertex -7.404850 3.913935 2.354182
endloop
endfacet
facet normal -0.812707 0.582673 0.000000
outer loop
vertex -11.037198 -1.152426 -1.650437
vertex -7.404850 3.913935 2.354182
vertex -7.404850 3.913935 -1.650437
endloop
endfacet
facet normal 0.582673 0.812707 0.000000
outer loop
vertex -7.404850 3.913935 -1.650437
vertex -7.404850 3.913935 2.354182
vertex -6.509042 3.271682 2.354182
endloop
endfacet
facet normal 0.582673 0.812707 0.000000
outer loop
vertex -7.404850 3.913935 -1.650437
vertex -6.509042 3.271682 2.354182
vertex -6.509042 3.271682 -1.650437
endloop
endfacet
facet normal 0.000000 0.000000 1.000000
outer loop
vertex -14.516251 -1.765262 -1.650437
vertex -12.508567 -3.204677 -1.650437
vertex -6.108101 5.722628 -1.650437
endloop
endfacet
facet normal 0.000000 0.000000 1.000000
outer loop
vertex -14.516251 -1.765262 -1.650437
vertex -6.108101 5.722628 -1.650437
vertex -8.115785 7.162045 -1.650437
endloop
endfacet
facet normal 0.812706 -0.582674 -0.000000
outer loop
vertex -14.516250 -1.765261 2.354182
vertex -14.516251 -1.765262 -1.650437
vertex -11.885260 1.904417 -1.650437
endloop
endfacet
facet normal 0.812707 -0.582673 0.000000
outer loop
vertex -14.516250 -1.765261 2.354182
vertex -11.885260 1.904417 -1.650437
vertex -11.885260 1.904417 2.354182
endloop
endfacet
facet normal 0.000000 0.000000 1.000000
outer loop
vertex -7.404850 3.913935 -1.650437
vertex -6.509042 3.271682 -1.650437
vertex -5.212293 5.080374 -1.650437
endloop
endfacet
facet normal 0.000000 0.000000 1.000000
outer loop
vertex -7.404850 3.913935 -1.650437
vertex -5.212293 5.080374 -1.650437
vertex -6.108101 5.722628 -1.650437
endloop
endfacet
facet normal 0.000000 0.000000 1.000000
outer loop
vertex -11.612759 -3.846931 -1.650437
vertex -12.508567 -3.204677 -1.650437
vertex -13.094757 -4.022287 -1.650437
endloop
endfacet
facet normal 0.000000 0.000000 1.000000
outer loop
vertex -11.612759 -3.846931 -1.650437
vertex -13.094757 -4.022287 -1.650437
vertex -12.198948 -4.664541 -1.650437
endloop
endfacet
facet normal 0.582673 0.812706 0.000000
outer loop
vertex -11.885260 1.904417 2.354182
vertex -11.885260 1.904417 -1.650437
vertex -12.516762 2.357175 -1.650437
endloop
endfacet
facet normal 0.582673 0.812706 0.000000
outer loop
vertex -11.885260 1.904417 2.354182
vertex -12.516762 2.357175 -1.650437
vertex -12.516762 2.357175 2.354182
endloop
endfacet
facet normal 0.812707 -0.582673 0.000000
outer loop
vertex -12.516762 2.357175 2.354182
vertex -12.516762 2.357175 -1.650437
vertex -11.517317 3.751191 -1.650437
endloop
endfacet
facet normal 0.812707 -0.582673 0.000000
outer loop
vertex -12.516762 2.357175 2.354182
vertex -11.517317 3.751191 -1.650437
vertex -11.517317 3.751191 2.354182
endloop
endfacet
facet normal -0.582673 -0.812706 0.000000
outer loop
vertex -11.517317 3.751191 2.354182
vertex -11.517317 3.751191 -1.650437
vertex -10.885815 3.298433 -1.650437
endloop
endfacet
facet normal -0.582672 -0.812707 0.000000
outer loop
vertex -11.517317 3.751191 2.354182
vertex -10.885815 3.298433 -1.650437
vertex -10.885815 3.298433 2.354182
endloop
endfacet
facet normal 0.812707 -0.582673 0.000000
outer loop
vertex -10.885815 3.298433 2.354182
vertex -10.885815 3.298433 -1.650437
vertex -8.115785 7.162045 -1.650437
endloop
endfacet
facet normal 0.812707 -0.582673 0.000000
outer loop
vertex -10.885815 3.298433 2.354182
vertex -8.115785 7.162045 -1.650437
vertex -8.115785 7.162045 2.354182
endloop
endfacet
facet normal 0.000000 0.000000 1.000000
outer loop
vertex -11.885260 1.904417 -1.650437
vertex -10.885815 3.298433 -1.650437
vertex -11.517317 3.751191 -1.650437
endloop
endfacet
facet normal 0.000000 0.000000 1.000000
outer loop
vertex -11.885260 1.904417 -1.650437
vertex -11.517317 3.751191 -1.650437
vertex -12.516762 2.357175 -1.650437
endloop
endfacet
facet normal 0.000000 0.000000 -1.000000
outer loop
vertex -12.198948 -4.664541 2.354182
vertex -13.094757 -4.022287 2.354182
vertex -12.508568 -3.204678 2.354182
endloop
endfacet
facet normal 0.000000 0.000000 -1.000000
outer loop
vertex -12.198948 -4.664541 2.354182
vertex -12.508568 -3.204678 2.354182
vertex -11.612759 -3.846931 2.354182
endloop
endfacet
facet normal 0.000000 0.000000 -1.000000
outer loop
vertex -12.516762 2.357175 2.354182
vertex -11.517317 3.751191 2.354182
vertex -10.885815 3.298433 2.354182
endloop
endfacet
facet normal 0.000000 0.000000 -1.000000
outer loop
vertex -12.516762 2.357175 2.354182
vertex -10.885815 3.298433 2.354182
vertex -11.885260 1.904417 2.354182
endloop
endfacet
facet normal 0.000000 0.000000 -1.000000
outer loop
vertex -1.949874 4.174786 2.354182
vertex -1.216105 3.648707 2.354182
vertex -1.894888 2.701947 2.354182
endloop
endfacet
facet normal 0.000000 0.000000 -1.000000
outer loop
vertex -1.949874 4.174786 2.354182
vertex -1.894888 2.701947 2.354182
vertex -2.628657 3.228026 2.354182
endloop
endfacet
facet normal 0.000000 0.000000 -1.000000
outer loop
vertex -4.187392 -1.708140 2.354182
vertex -5.495344 -0.770399 2.354182
vertex -2.628657 3.228026 2.354182
endloop
endfacet
facet normal 0.000000 0.000000 -1.000000
outer loop
vertex -4.187392 -1.708140 2.354182
vertex -2.628657 3.228026 2.354182
vertex -1.320705 2.290285 2.354182
endloop
endfacet
facet normal -0.000000 0.000000 -1.000000
outer loop
vertex -0.009504 -6.674687 2.354182
vertex 0.813773 -5.526388 2.354182
vertex 1.812792 -6.242638 2.354182
endloop
endfacet
facet normal 0.000000 0.000000 -1.000000
outer loop
vertex -0.009504 -6.674687 2.354182
vertex 1.812792 -6.242638 2.354182
vertex 0.989514 -7.390937 2.354182
endloop
endfacet
facet normal 0.000000 0.000000 -1.000000
outer loop
vertex -4.184676 -10.130564 2.354182
vertex -7.060845 -8.068482 2.354182
vertex -6.483060 -7.262593 2.354182
endloop
endfacet
facet normal 0.000000 0.000000 -1.000000
outer loop
vertex -4.184676 -10.130564 2.354182
vertex -6.483060 -7.262593 2.354182
vertex -3.606891 -9.324674 2.354182
endloop
endfacet
facet normal -0.000000 0.000000 -1.000000
outer loop
vertex -8.534395 -7.012015 2.354182
vertex -2.360870 -11.438148 2.354182
vertex -5.597563 -15.952654 2.354182
endloop
endfacet
facet normal 0.000000 0.000000 -1.000000
outer loop
vertex -8.534395 -7.012015 2.354182
vertex -5.597563 -15.952654 2.354182
vertex -11.771088 -11.526520 2.354182
endloop
endfacet
facet normal 0.000000 0.000000 -1.000000
outer loop
vertex -7.404850 3.913935 2.354182
vertex -11.037198 -1.152426 2.354182
vertex -13.044880 0.286989 2.354182
endloop
endfacet
facet normal 0.000000 0.000000 -1.000000
outer loop
vertex -7.404850 3.913935 2.354182
vertex -13.044880 0.286989 2.354182
vertex -9.412532 5.353351 2.354182
endloop
endfacet
facet normal -0.000000 0.000000 -1.000000
outer loop
vertex -10.141390 -1.794680 2.354182
vertex -6.509042 3.271682 2.354182
vertex -3.925406 1.419334 2.354182
endloop
endfacet
facet normal 0.000000 0.000000 -1.000000
outer loop
vertex -10.141390 -1.794680 2.354182
vertex -3.925406 1.419334 2.354182
vertex -7.557754 -3.647027 2.354182
endloop
endfacet
facet normal 0.000000 0.000000 -1.000000
outer loop
vertex -8.115785 7.162045 2.354182
vertex -2.628657 3.228026 2.354182
vertex -3.925406 1.419334 2.354182
endloop
endfacet
facet normal 0.000000 0.000000 -1.000000
outer loop
vertex -8.115785 7.162045 2.354182
vertex -3.925406 1.419334 2.354182
vertex -9.412532 5.353351 2.354182
endloop
endfacet
facet normal 0.000000 0.000000 -1.000000
outer loop
vertex -10.141390 -1.794680 2.354182
vertex -7.557754 -3.647027 2.354182
vertex -9.029123 -5.699279 2.354182
endloop
endfacet
facet normal -0.000000 0.000000 -1.000000
outer loop
vertex -10.141390 -1.794680 2.354182
vertex -9.029123 -5.699279 2.354182
vertex -11.612759 -3.846931 2.354182
endloop
endfacet
facet normal 0.000000 0.000000 -1.000000
outer loop
vertex -10.141390 -1.794680 2.354182
vertex -11.612759 -3.846931 2.354182
vertex -14.516250 -1.765261 2.354182
endloop
endfacet
facet normal 0.000000 0.000000 -1.000000
outer loop
vertex -10.141390 -1.794680 2.354182
vertex -14.516250 -1.765261 2.354182
vertex -13.044880 0.286989 2.354182
endloop
endfacet
facet normal 0.000000 0.000000 1.000000
outer loop
vertex -1.908629 -3.915225 -1.650437
vertex 0.652449 -5.751400 -1.650437
vertex 3.790626 -1.374304 -1.650437
endloop
endfacet
facet normal -0.000000 0.000000 1.000000
outer loop
vertex -1.908629 -3.915225 -1.650437
vertex 3.790626 -1.374304 -1.650437
vertex 1.229548 0.461871 -1.650437
endloop
endfacet
facet normal 0.000000 0.000000 1.000000
outer loop
vertex -5.046805 -8.292321 -1.650437
vertex -2.485727 -10.128496 -1.650437
vertex 0.652449 -5.751400 -1.650437
endloop
endfacet
facet normal -0.000000 0.000000 1.000000
outer loop
vertex -5.046805 -8.292321 -1.650437
vertex 0.652449 -5.751400 -1.650437
vertex -1.908629 -3.915225 -1.650437
endloop
endfacet
facet normal 0.000000 0.000000 1.000000
outer loop
vertex -7.597058 -6.463907 -1.650437
vertex -5.046805 -8.292321 -1.650437
vertex -1.908629 -3.915225 -1.650437
endloop
endfacet
facet normal -0.000000 0.000000 1.000000
outer loop
vertex -7.597058 -6.463907 -1.650437
vertex -1.908629 -3.915225 -1.650437
vertex -4.458882 -2.086811 -1.650437
endloop
endfacet
facet normal 0.000000 0.000000 -1.000000
outer loop
vertex -1.320705 2.290285 2.354182
vertex 3.790626 -1.374304 2.354182
vertex -2.485727 -10.128496 2.354182
endloop
endfacet
facet normal -0.000000 0.000000 -1.000000
outer loop
vertex -1.320705 2.290285 2.354182
vertex -2.485727 -10.128496 2.354182
vertex -7.597058 -6.463907 2.354182
endloop
endfacet
endsolid Exported from Blender-4.0.2
