solid Exported from Blender-4.0.2
facet normal -0.000000 0.000000 1.000000
outer loop
vertex -6.037309 4.367749 -1.706251
vertex -8.047956 -2.957575 -1.706251
vertex -2.691177 -4.427898 -1.706251
endloop
endfacet
facet normal 0.000000 0.000000 1.000000
outer loop
vertex -6.037309 4.367749 -1.706251
vertex -2.691177 -4.427898 -1.706251
vertex -0.680529 2.897425 -1.706251
endloop
endfacet
facet normal 0.964334 -0.264689 0.000000
outer loop
vertex -8.047956 -2.957575 -1.706251
vertex -6.037309 4.367749 -1.706251
vertex -6.037309 4.367749 2.298368
endloop
endfacet
facet normal 0.964334 -0.264689 0.000000
outer loop
vertex -8.047956 -2.957575 -1.706251
vertex -6.037309 4.367749 2.298368
vertex -8.047956 -2.957575 2.298368
endloop
endfacet
facet normal -0.264689 -0.964334 0.000000
outer loop
vertex -6.037309 4.367749 -1.706251
vertex -0.680529 2.897425 -1.706251
vertex -0.680529 2.897425 2.298368
endloop
endfacet
facet normal -0.264689 -0.964334 0.000000
outer loop
vertex -6.037309 4.367749 -1.706251
vertex -0.680529 2.897425 2.298368
vertex -6.037309 4.367749 2.298368
endloop
endfacet
facet normal 0.264689 0.964334 0.000000
outer loop
vertex -8.047956 -2.957575 -1.706251
vertex -8.047956 -2.957575 2.298368
vertex -2.691177 -4.427898 2.298368
endloop
endfacet
facet normal 0.264689 0.964334 0.000000
outer loop
vertex -8.047956 -2.957575 -1.706251
vertex -2.691177 -4.427898 2.298368
vertex -2.691177 -4.427898 -1.706251
endloop
endfacet
facet normal -0.964334 0.264689 0.000000
outer loop
vertex -0.680529 2.897425 2.298368
vertex -0.680529 2.897425 -1.706251
vertex -1.160448 1.148953 -1.706251
endloop
endfacet
facet normal -0.964334 0.264689 0.000000
outer loop
vertex -0.680529 2.897425 2.298368
vertex -1.160448 1.148953 -1.706251
vertex -1.160448 1.148953 2.298368
endloop
endfacet
facet normal -0.964334 0.264690 0.000000
outer loop
vertex -2.691177 -4.427898 -1.706251
vertex -2.691177 -4.427898 2.298368
vertex -2.097184 -2.263825 2.298368
endloop
endfacet
facet normal -0.964334 0.264689 0.000000
outer loop
vertex -2.691177 -4.427898 -1.706251
vertex -2.097184 -2.263825 2.298368
vertex -2.097184 -2.263825 -1.706251
endloop
endfacet
facet normal 0.264689 0.964334 0.000000
outer loop
vertex -2.097184 -2.263825 -1.706251
vertex -2.097184 -2.263825 2.298368
vertex -1.140939 -2.526294 2.298368
endloop
endfacet
facet normal 0.264689 0.964334 0.000000
outer loop
vertex -2.097184 -2.263825 -1.706251
vertex -1.140939 -2.526294 2.298368
vertex -1.140939 -2.526294 -1.706251
endloop
endfacet
facet normal -0.264689 -0.964334 0.000000
outer loop
vertex -1.160448 1.148953 2.298368
vertex -1.160448 1.148953 -1.706251
vertex -0.204203 0.886484 -1.706251
endloop
endfacet
facet normal -0.264689 -0.964334 0.000000
outer loop
vertex -1.160448 1.148953 2.298368
vertex -0.204203 0.886484 -1.706251
vertex -0.204203 0.886484 2.298368
endloop
endfacet
facet normal 0.000000 0.000000 1.000000
outer loop
vertex -1.140939 -2.526294 -1.706251
vertex -0.204203 0.886484 -1.706251
vertex -1.160448 1.148953 -1.706251
endloop
endfacet
facet normal -0.000000 0.000000 1.000000
outer loop
vertex -1.140939 -2.526294 -1.706251
vertex -1.160448 1.148953 -1.706251
vertex -2.097184 -2.263825 -1.706251
endloop
endfacet
facet normal 0.964334 -0.264690 0.000000
outer loop
vertex -1.140939 -2.526294 -1.706251
vertex -1.140939 -2.526294 2.298368
vertex -1.506090 -3.856634 2.298368
endloop
endfacet
facet normal 0.964334 -0.264689 0.000000
outer loop
vertex -1.140939 -2.526294 -1.706251
vertex -1.506090 -3.856634 2.298368
vertex -1.506090 -3.856634 -1.706251
endloop
endfacet
facet normal 0.000000 0.000000 1.000000
outer loop
vertex 5.352347 0.782751 -1.706251
vertex 4.521758 -2.243304 -1.706251
vertex 9.715492 -3.668875 -1.706251
endloop
endfacet
facet normal 0.000000 0.000000 1.000000
outer loop
vertex 5.352347 0.782751 -1.706251
vertex 9.715492 -3.668875 -1.706251
vertex 10.546081 -0.642820 -1.706251
endloop
endfacet
facet normal 0.264689 0.964334 0.000000
outer loop
vertex -1.506090 -3.856634 -1.706251
vertex -1.506090 -3.856634 2.298368
vertex 2.592099 -4.981501 2.298368
endloop
endfacet
facet normal 0.264689 0.964334 0.000000
outer loop
vertex -1.506090 -3.856634 -1.706251
vertex 2.592099 -4.981501 2.298368
vertex 2.592099 -4.981501 -1.706251
endloop
endfacet
facet normal 0.964334 -0.264689 0.000000
outer loop
vertex -0.204203 0.886484 2.298368
vertex -0.204203 0.886484 -1.706251
vertex 0.158613 2.208322 -1.706251
endloop
endfacet
facet normal 0.964334 -0.264689 0.000000
outer loop
vertex -0.204203 0.886484 2.298368
vertex 0.158613 2.208322 -1.706251
vertex 0.158613 2.208322 2.298368
endloop
endfacet
facet normal -0.264689 -0.964334 0.000000
outer loop
vertex 0.158613 2.208322 2.298368
vertex 0.158613 2.208322 -1.706251
vertex 5.801667 0.659422 -1.706251
endloop
endfacet
facet normal -0.264689 -0.964334 0.000000
outer loop
vertex 0.158613 2.208322 2.298368
vertex 5.801667 0.659422 -1.706251
vertex 5.801667 0.659422 2.298368
endloop
endfacet
facet normal 0.264689 0.964334 0.000000
outer loop
vertex 1.503992 -1.408931 -1.706252
vertex 1.503992 -1.408931 -0.217324
vertex 3.547140 -1.969732 -0.217324
endloop
endfacet
facet normal 0.264689 0.964334 0.000000
outer loop
vertex 1.503992 -1.408931 -1.706252
vertex 3.547140 -1.969732 -0.217324
vertex 3.547140 -1.969732 -1.706252
endloop
endfacet
facet normal 0.964334 -0.264689 0.000000
outer loop
vertex 3.547140 -1.969732 -1.706252
vertex 3.547140 -1.969732 -0.217324
vertex 3.207295 -3.207877 -0.217324
endloop
endfacet
facet normal 0.964334 -0.264689 0.000000
outer loop
vertex 3.547140 -1.969732 -1.706252
vertex 3.207295 -3.207877 -0.217324
vertex 3.207295 -3.207877 -1.706252
endloop
endfacet
facet normal -0.264689 -0.964334 0.000000
outer loop
vertex 3.207295 -3.207877 -1.706252
vertex 3.207295 -3.207877 -0.217324
vertex 1.164147 -2.647076 -0.217324
endloop
endfacet
facet normal -0.264689 -0.964334 0.000000
outer loop
vertex 3.207295 -3.207877 -1.706252
vertex 1.164147 -2.647076 -0.217324
vertex 1.164147 -2.647076 -1.706252
endloop
endfacet
facet normal -0.964334 0.264689 0.000000
outer loop
vertex 1.164147 -2.647076 -1.706252
vertex 1.164147 -2.647076 -0.217324
vertex 1.503992 -1.408931 -0.217324
endloop
endfacet
facet normal -0.964334 0.264689 0.000000
outer loop
vertex 1.164147 -2.647076 -1.706252
vertex 1.503992 -1.408931 -0.217324
vertex 1.503992 -1.408931 -1.706252
endloop
endfacet
facet normal 0.000000 0.000000 -1.000000
outer loop
vertex 3.547140 -1.969732 -1.706252
vertex 3.207295 -3.207877 -1.706252
vertex 1.164147 -2.647076 -1.706252
endloop
endfacet
facet normal 0.000000 0.000000 -1.000000
outer loop
vertex 3.547140 -1.969732 -1.706252
vertex 1.164147 -2.647076 -1.706252
vertex 1.503992 -1.408931 -1.706252
endloop
endfacet
facet normal 0.000000 0.000000 1.000000
outer loop
vertex 3.207295 -3.207877 -0.217324
vertex 3.547140 -1.969732 -0.217324
vertex 1.503992 -1.408931 -0.217324
endloop
endfacet
facet normal 0.000000 0.000000 1.000000
outer loop
vertex 3.207295 -3.207877 -0.217324
vertex 1.503992 -1.408931 -0.217324
vertex 1.164147 -2.647076 -0.217324
endloop
endfacet
facet normal 0.264689 0.964334 0.000000
outer loop
vertex 4.954146 -2.355926 -1.706252
vertex 4.954146 -2.355926 -0.217324
vertex 7.055134 -2.932603 -0.217324
endloop
endfacet
facet normal 0.264689 0.964334 0.000000
outer loop
vertex 4.954146 -2.355926 -1.706252
vertex 7.055134 -2.932603 -0.217324
vertex 7.055134 -2.932603 -1.706252
endloop
endfacet
facet normal 0.964334 -0.264689 0.000000
outer loop
vertex 7.055134 -2.932603 -1.706252
vertex 7.055134 -2.932603 -0.217324
vertex 6.715290 -4.170748 -0.217324
endloop
endfacet
facet normal 0.964334 -0.264689 0.000000
outer loop
vertex 7.055134 -2.932603 -1.706252
vertex 6.715290 -4.170748 -0.217324
vertex 6.715290 -4.170748 -1.706252
endloop
endfacet
facet normal -0.264689 -0.964334 0.000000
outer loop
vertex 6.715290 -4.170748 -1.706252
vertex 6.715290 -4.170748 -0.217324
vertex 4.614302 -3.594071 -0.217324
endloop
endfacet
facet normal -0.264689 -0.964334 0.000000
outer loop
vertex 6.715290 -4.170748 -1.706252
vertex 4.614302 -3.594071 -0.217324
vertex 4.614302 -3.594071 -1.706252
endloop
endfacet
facet normal -0.964334 0.264689 0.000000
outer loop
vertex 4.614302 -3.594071 -1.706252
vertex 4.614302 -3.594071 -0.217324
vertex 4.954146 -2.355926 -0.217324
endloop
endfacet
facet normal -0.964334 0.264689 0.000000
outer loop
vertex 4.614302 -3.594071 -1.706252
vertex 4.954146 -2.355926 -0.217324
vertex 4.954146 -2.355926 -1.706252
endloop
endfacet
facet normal -0.000000 0.000000 -1.000000
outer loop
vertex 7.055134 -2.932603 -1.706252
vertex 6.715290 -4.170748 -1.706252
vertex 4.614302 -3.594071 -1.706252
endloop
endfacet
facet normal 0.000000 0.000000 -1.000000
outer loop
vertex 7.055134 -2.932603 -1.706252
vertex 4.614302 -3.594071 -1.706252
vertex 4.954146 -2.355926 -1.706252
endloop
endfacet
facet normal -0.000000 0.000000 1.000000
outer loop
vertex 6.715290 -4.170748 -0.217324
vertex 7.055134 -2.932603 -0.217324
vertex 4.954146 -2.355926 -0.217324
endloop
endfacet
facet normal 0.000000 0.000000 1.000000
outer loop
vertex 6.715290 -4.170748 -0.217324
vertex 4.954146 -2.355926 -0.217324
vertex 4.614302 -3.594071 -0.217324
endloop
endfacet
facet normal 0.964334 -0.264689 0.000000
outer loop
vertex 2.592099 -4.981501 -1.706251
vertex 2.592099 -4.981501 2.298368
vertex 2.266730 -6.166906 2.298368
endloop
endfacet
facet normal 0.964334 -0.264689 0.000000
outer loop
vertex 2.592099 -4.981501 -1.706251
vertex 2.266730 -6.166906 2.298368
vertex 2.266730 -6.166906 -1.706251
endloop
endfacet
facet normal 0.264690 0.964334 0.000000
outer loop
vertex 2.266730 -6.166906 -1.706251
vertex 2.266730 -6.166906 2.298368
vertex 3.629268 -6.540895 2.298368
endloop
endfacet
facet normal 0.264690 0.964334 0.000000
outer loop
vertex 2.266730 -6.166906 -1.706251
vertex 3.629268 -6.540895 2.298368
vertex 3.629268 -6.540895 -1.706251
endloop
endfacet
facet normal -0.964334 0.264689 0.000000
outer loop
vertex 3.629268 -6.540895 -1.706251
vertex 3.629268 -6.540895 2.298368
vertex 3.954637 -5.355488 2.298368
endloop
endfacet
facet normal -0.964334 0.264690 0.000000
outer loop
vertex 3.629268 -6.540895 -1.706251
vertex 3.954637 -5.355488 2.298368
vertex 3.954637 -5.355488 -1.706251
endloop
endfacet
facet normal 0.264689 0.964334 0.000000
outer loop
vertex 3.954637 -5.355488 -1.706251
vertex 3.954637 -5.355488 2.298368
vertex 8.881377 -6.707775 2.298368
endloop
endfacet
facet normal 0.264689 0.964334 0.000000
outer loop
vertex 3.954637 -5.355488 -1.706251
vertex 8.881377 -6.707775 2.298368
vertex 8.881377 -6.707775 -1.706251
endloop
endfacet
facet normal 0.000000 0.000000 1.000000
outer loop
vertex 2.266730 -6.166906 -1.706251
vertex 3.629268 -6.540895 -1.706251
vertex 3.954637 -5.355488 -1.706251
endloop
endfacet
facet normal 0.000000 0.000000 1.000000
outer loop
vertex 2.266730 -6.166906 -1.706251
vertex 3.954637 -5.355488 -1.706251
vertex 2.592099 -4.981501 -1.706251
endloop
endfacet
facet normal 0.964334 -0.264690 0.000000
outer loop
vertex 5.801667 0.659422 2.298368
vertex 5.801667 0.659422 -1.706251
vertex 6.227653 2.211399 -1.706251
endloop
endfacet
facet normal 0.964334 -0.264690 0.000000
outer loop
vertex 5.801667 0.659422 2.298368
vertex 6.227653 2.211399 -1.706251
vertex 6.227653 2.211399 2.298368
endloop
endfacet
facet normal -0.964334 0.264690 0.000000
outer loop
vertex 10.546081 -0.642820 -1.706251
vertex 8.881377 -6.707775 -1.706251
vertex 8.881377 -6.707775 2.298368
endloop
endfacet
facet normal -0.964334 0.264690 0.000000
outer loop
vertex 10.546081 -0.642820 -1.706251
vertex 8.881377 -6.707775 2.298368
vertex 10.546081 -0.642820 2.298368
endloop
endfacet
facet normal -0.264689 -0.964334 0.000000
outer loop
vertex 12.095463 0.600808 -1.706251
vertex 12.095463 0.600808 2.298368
vertex 10.972066 0.909157 2.298368
endloop
endfacet
facet normal -0.264690 -0.964334 0.000000
outer loop
vertex 12.095463 0.600808 -1.706251
vertex 10.972066 0.909157 2.298368
vertex 10.972066 0.909157 -1.706251
endloop
endfacet
facet normal -0.964334 0.264689 0.000000
outer loop
vertex 11.856483 -0.269861 -1.706251
vertex 11.856483 -0.269861 2.298368
vertex 12.095463 0.600808 2.298368
endloop
endfacet
facet normal -0.964334 0.264689 0.000000
outer loop
vertex 11.856483 -0.269861 -1.706251
vertex 12.095463 0.600808 2.298368
vertex 12.095463 0.600808 -1.706251
endloop
endfacet
facet normal 0.264689 0.964334 0.000000
outer loop
vertex 10.733086 0.038488 -1.706251
vertex 10.733086 0.038488 2.298368
vertex 11.856483 -0.269861 2.298368
endloop
endfacet
facet normal 0.264690 0.964334 0.000000
outer loop
vertex 10.733086 0.038488 -1.706251
vertex 11.856483 -0.269861 2.298368
vertex 11.856483 -0.269861 -1.706251
endloop
endfacet
facet normal -0.964333 0.264691 0.000000
outer loop
vertex 10.546081 -0.642820 -1.706251
vertex 10.546081 -0.642820 2.298368
vertex 10.733086 0.038488 2.298368
endloop
endfacet
facet normal -0.964334 0.264688 0.000000
outer loop
vertex 10.546081 -0.642820 -1.706251
vertex 10.733086 0.038488 2.298368
vertex 10.733086 0.038488 -1.706251
endloop
endfacet
facet normal -0.964334 0.264689 0.000000
outer loop
vertex 10.972066 0.909157 -1.706251
vertex 10.972066 0.909157 2.298368
vertex 12.759161 7.420021 2.298368
endloop
endfacet
facet normal -0.964334 0.264689 0.000000
outer loop
vertex 10.972066 0.909157 -1.706251
vertex 12.759161 7.420021 2.298368
vertex 12.759161 7.420021 -1.706251
endloop
endfacet
facet normal 0.264689 0.964334 0.000000
outer loop
vertex 6.227653 2.211399 2.298368
vertex 6.227653 2.211399 -1.706251
vertex 0.379189 3.816679 -1.706251
endloop
endfacet
facet normal 0.264689 0.964334 0.000000
outer loop
vertex 6.227653 2.211399 2.298368
vertex 0.379189 3.816679 -1.706251
vertex 0.379189 3.816679 2.298368
endloop
endfacet
facet normal 0.000000 0.000000 1.000000
outer loop
vertex 6.227653 2.211399 -1.706251
vertex 5.801667 0.659422 -1.706251
vertex 10.546081 -0.642820 -1.706251
endloop
endfacet
facet normal -0.000000 0.000000 1.000000
outer loop
vertex 6.227653 2.211399 -1.706251
vertex 10.546081 -0.642820 -1.706251
vertex 10.972066 0.909157 -1.706251
endloop
endfacet
facet normal -0.000000 0.000000 1.000000
outer loop
vertex 10.972066 0.909157 -1.706251
vertex 10.733086 0.038488 -1.706251
vertex 11.856483 -0.269861 -1.706251
endloop
endfacet
facet normal 0.000000 0.000000 1.000000
outer loop
vertex 10.972066 0.909157 -1.706251
vertex 11.856483 -0.269861 -1.706251
vertex 12.095463 0.600808 -1.706251
endloop
endfacet
facet normal 0.000000 0.000000 1.000000
outer loop
vertex 6.227653 2.211399 -1.706251
vertex 10.972066 0.909157 -1.706251
vertex 11.813527 3.974823 -1.706251
endloop
endfacet
facet normal 0.000000 0.000000 1.000000
outer loop
vertex 6.227653 2.211399 -1.706251
vertex 11.813527 3.974823 -1.706251
vertex 7.069114 5.277065 -1.706251
endloop
endfacet
facet normal 0.000000 0.000000 1.000000
outer loop
vertex 6.227653 2.211399 -1.706251
vertex 7.069114 5.277065 -1.706251
vertex 1.220650 6.882346 -1.706251
endloop
endfacet
facet normal -0.000000 0.000000 1.000000
outer loop
vertex 6.227653 2.211399 -1.706251
vertex 1.220650 6.882346 -1.706251
vertex 0.379189 3.816679 -1.706251
endloop
endfacet
facet normal 0.964334 -0.264689 0.000000
outer loop
vertex 0.379189 3.816679 2.298368
vertex 0.379189 3.816679 -1.706251
vertex 1.220650 6.882346 -1.706251
endloop
endfacet
facet normal 0.964334 -0.264689 0.000000
outer loop
vertex 0.379189 3.816679 2.298368
vertex 1.220650 6.882346 -1.706251
vertex 1.220650 6.882346 2.298368
endloop
endfacet
facet normal -0.264689 -0.964334 0.000000
outer loop
vertex 3.655791 6.213951 -1.706251
vertex 9.667385 4.563894 -1.706251
vertex 9.667385 4.563894 2.298368
endloop
endfacet
facet normal -0.264689 -0.964334 0.000000
outer loop
vertex 3.655791 6.213951 -1.706251
vertex 9.667385 4.563894 2.298368
vertex 3.655791 6.213951 2.298368
endloop
endfacet
facet normal 0.264690 0.964334 0.000000
outer loop
vertex 1.220650 6.882346 2.298368
vertex 1.220650 6.882346 -1.706251
vertex 0.250497 7.148633 -1.706251
endloop
endfacet
facet normal 0.264690 0.964334 0.000000
outer loop
vertex 1.220650 6.882346 2.298368
vertex 0.250497 7.148633 -1.706251
vertex 0.250497 7.148633 2.298368
endloop
endfacet
facet normal 0.964334 -0.264690 0.000000
outer loop
vertex 0.250497 7.148633 2.298368
vertex 0.250497 7.148633 -1.706251
vertex 0.542251 8.211572 -1.706251
endloop
endfacet
facet normal 0.964334 -0.264690 0.000000
outer loop
vertex 0.250497 7.148633 2.298368
vertex 0.542251 8.211572 -1.706251
vertex 0.542251 8.211572 2.298368
endloop
endfacet
facet normal -0.264689 -0.964334 0.000000
outer loop
vertex 0.542251 8.211572 2.298368
vertex 0.542251 8.211572 -1.706251
vertex 1.512405 7.945285 -1.706251
endloop
endfacet
facet normal -0.264690 -0.964334 -0.000000
outer loop
vertex 0.542251 8.211572 2.298368
vertex 1.512405 7.945285 -1.706251
vertex 1.512404 7.945285 2.298368
endloop
endfacet
facet normal 0.964334 -0.264689 0.000000
outer loop
vertex 1.512404 7.945285 2.298368
vertex 1.512405 7.945285 -1.706251
vertex 2.166284 10.327541 -1.706251
endloop
endfacet
facet normal 0.964334 -0.264689 -0.000000
outer loop
vertex 1.512404 7.945285 2.298368
vertex 2.166284 10.327541 -1.706251
vertex 2.166284 10.327541 2.298368
endloop
endfacet
facet normal -0.964334 0.264689 0.000000
outer loop
vertex 3.655791 6.213951 -1.706251
vertex 3.655791 6.213951 2.298368
vertex 3.947545 7.276890 2.298368
endloop
endfacet
facet normal -0.964334 0.264690 0.000000
outer loop
vertex 3.655791 6.213951 -1.706251
vertex 3.947545 7.276890 2.298368
vertex 3.947545 7.276890 -1.706251
endloop
endfacet
facet normal 0.000000 0.000000 1.000000
outer loop
vertex 3.655791 6.213951 -1.706251
vertex 3.947545 7.276890 -1.706251
vertex 1.512405 7.945285 -1.706251
endloop
endfacet
facet normal -0.000000 0.000000 1.000000
outer loop
vertex 3.655791 6.213951 -1.706251
vertex 1.512405 7.945285 -1.706251
vertex 1.220650 6.882346 -1.706251
endloop
endfacet
facet normal 0.264689 0.964334 0.000000
outer loop
vertex 3.947545 7.276890 -1.706251
vertex 3.947545 7.276890 2.298368
vertex 9.959140 5.626833 2.298368
endloop
endfacet
facet normal 0.264689 0.964334 0.000000
outer loop
vertex 3.947545 7.276890 -1.706251
vertex 9.959140 5.626833 2.298368
vertex 9.959140 5.626833 -1.706251
endloop
endfacet
facet normal 0.964334 -0.264688 0.000000
outer loop
vertex 9.959140 5.626833 -1.706251
vertex 9.959140 5.626833 2.298368
vertex 9.667385 4.563894 2.298368
endloop
endfacet
facet normal 0.964333 -0.264691 0.000000
outer loop
vertex 9.959140 5.626833 -1.706251
vertex 9.667385 4.563894 2.298368
vertex 9.667385 4.563894 -1.706251
endloop
endfacet
facet normal -0.000000 0.000000 1.000000
outer loop
vertex 2.166284 10.327541 -1.706251
vertex 1.512405 7.945285 -1.706251
vertex 12.105282 5.037762 -1.706251
endloop
endfacet
facet normal 0.000000 0.000000 1.000000
outer loop
vertex 2.166284 10.327541 -1.706251
vertex 12.105282 5.037762 -1.706251
vertex 12.759161 7.420021 -1.706251
endloop
endfacet
facet normal -0.264689 -0.964334 0.000000
outer loop
vertex 2.166284 10.327541 2.298368
vertex 2.166284 10.327541 -1.706251
vertex 6.520616 9.132369 -1.706251
endloop
endfacet
facet normal -0.264689 -0.964334 0.000000
outer loop
vertex 2.166284 10.327541 2.298368
vertex 6.520616 9.132369 -1.706251
vertex 6.520616 9.132369 2.298368
endloop
endfacet
facet normal 0.000000 0.000000 1.000000
outer loop
vertex 9.959140 5.626833 -1.706251
vertex 9.667385 4.563894 -1.706251
vertex 11.813527 3.974823 -1.706251
endloop
endfacet
facet normal -0.000000 0.000000 1.000000
outer loop
vertex 9.959140 5.626833 -1.706251
vertex 11.813527 3.974823 -1.706251
vertex 12.105282 5.037762 -1.706251
endloop
endfacet
facet normal -0.000000 0.000000 1.000000
outer loop
vertex 1.220650 6.882346 -1.706251
vertex 1.512405 7.945285 -1.706251
vertex 0.542251 8.211572 -1.706251
endloop
endfacet
facet normal 0.000000 0.000000 1.000000
outer loop
vertex 1.220650 6.882346 -1.706251
vertex 0.542251 8.211572 -1.706251
vertex 0.250497 7.148633 -1.706251
endloop
endfacet
facet normal 0.964334 -0.264690 0.000000
outer loop
vertex 6.520616 9.132369 2.298368
vertex 6.520616 9.132369 -1.706251
vertex 6.726289 9.881690 -1.706251
endloop
endfacet
facet normal 0.964334 -0.264690 0.000000
outer loop
vertex 6.520616 9.132369 2.298368
vertex 6.726289 9.881690 -1.706251
vertex 6.726289 9.881690 2.298368
endloop
endfacet
facet normal -0.264689 -0.964334 0.000000
outer loop
vertex 6.726289 9.881690 2.298368
vertex 6.726289 9.881690 -1.706251
vertex 8.380388 9.427674 -1.706251
endloop
endfacet
facet normal -0.264689 -0.964334 0.000000
outer loop
vertex 6.726289 9.881690 2.298368
vertex 8.380388 9.427674 -1.706251
vertex 8.380388 9.427674 2.298368
endloop
endfacet
facet normal -0.964333 0.264691 0.000000
outer loop
vertex 8.380388 9.427674 2.298368
vertex 8.380388 9.427674 -1.706251
vertex 8.174715 8.678353 -1.706251
endloop
endfacet
facet normal -0.964334 0.264689 0.000000
outer loop
vertex 8.380388 9.427674 2.298368
vertex 8.174715 8.678353 -1.706251
vertex 8.174715 8.678353 2.298368
endloop
endfacet
facet normal -0.264689 -0.964334 0.000000
outer loop
vertex 8.174715 8.678353 2.298368
vertex 8.174715 8.678353 -1.706251
vertex 12.759161 7.420021 -1.706251
endloop
endfacet
facet normal -0.264689 -0.964334 0.000000
outer loop
vertex 8.174715 8.678353 2.298368
vertex 12.759161 7.420021 -1.706251
vertex 12.759161 7.420021 2.298368
endloop
endfacet
facet normal 0.000000 0.000000 1.000000
outer loop
vertex 6.520616 9.132369 -1.706251
vertex 8.174715 8.678353 -1.706251
vertex 8.380388 9.427674 -1.706251
endloop
endfacet
facet normal 0.000000 0.000000 1.000000
outer loop
vertex 6.520616 9.132369 -1.706251
vertex 8.380388 9.427674 -1.706251
vertex 6.726289 9.881690 -1.706251
endloop
endfacet
facet normal 0.000000 0.000000 -1.000000
outer loop
vertex 0.250497 7.148633 2.298368
vertex 0.542251 8.211572 2.298368
vertex 1.512404 7.945285 2.298368
endloop
endfacet
facet normal 0.000000 0.000000 -1.000000
outer loop
vertex 0.250497 7.148633 2.298368
vertex 1.512404 7.945285 2.298368
vertex 1.220650 6.882346 2.298368
endloop
endfacet
facet normal -0.000000 0.000000 -1.000000
outer loop
vertex 6.726289 9.881690 2.298368
vertex 8.380388 9.427674 2.298368
vertex 8.174715 8.678353 2.298368
endloop
endfacet
facet normal 0.000000 0.000000 -1.000000
outer loop
vertex 6.726289 9.881690 2.298368
vertex 8.174715 8.678353 2.298368
vertex 6.520616 9.132369 2.298368
endloop
endfacet
facet normal -0.000000 0.000000 -1.000000
outer loop
vertex 12.095463 0.600808 2.298368
vertex 11.856483 -0.269861 2.298368
vertex 10.733086 0.038488 2.298368
endloop
endfacet
facet normal 0.000000 0.000000 -1.000000
outer loop
vertex 12.095463 0.600808 2.298368
vertex 10.733086 0.038488 2.298368
vertex 10.972066 0.909157 2.298368
endloop
endfacet
facet normal 0.000000 0.000000 -1.000000
outer loop
vertex 5.801667 0.659422 2.298368
vertex 6.227653 2.211399 2.298368
vertex 10.972066 0.909157 2.298368
endloop
endfacet
facet normal -0.000000 0.000000 -1.000000
outer loop
vertex 5.801667 0.659422 2.298368
vertex 10.972066 0.909157 2.298368
vertex 10.546081 -0.642820 2.298368
endloop
endfacet
facet normal 0.000000 0.000000 -1.000000
outer loop
vertex 2.592099 -4.981501 2.298368
vertex 3.954637 -5.355488 2.298368
vertex 3.629268 -6.540895 2.298368
endloop
endfacet
facet normal 0.000000 0.000000 -1.000000
outer loop
vertex 2.592099 -4.981501 2.298368
vertex 3.629268 -6.540895 2.298368
vertex 2.266730 -6.166906 2.298368
endloop
endfacet
facet normal -0.000000 0.000000 -1.000000
outer loop
vertex -2.097184 -2.263825 2.298368
vertex -1.160448 1.148953 2.298368
vertex -0.204203 0.886484 2.298368
endloop
endfacet
facet normal 0.000000 0.000000 -1.000000
outer loop
vertex -2.097184 -2.263825 2.298368
vertex -0.204203 0.886484 2.298368
vertex -1.140939 -2.526294 2.298368
endloop
endfacet
facet normal 0.000000 0.000000 -1.000000
outer loop
vertex -0.680529 2.897425 2.298368
vertex -2.691177 -4.427898 2.298368
vertex -8.047956 -2.957575 2.298368
endloop
endfacet
facet normal 0.000000 0.000000 -1.000000
outer loop
vertex -0.680529 2.897425 2.298368
vertex -8.047956 -2.957575 2.298368
vertex -6.037309 4.367749 2.298368
endloop
endfacet
facet normal 0.000000 0.000000 -1.000000
outer loop
vertex 9.959140 5.626833 2.298368
vertex 3.947545 7.276890 2.298368
vertex 4.601424 9.659145 2.298368
endloop
endfacet
facet normal 0.000000 0.000000 -1.000000
outer loop
vertex 9.959140 5.626833 2.298368
vertex 4.601424 9.659145 2.298368
vertex 10.613019 8.009089 2.298368
endloop
endfacet
facet normal 0.000000 0.000000 -1.000000
outer loop
vertex 3.655791 6.213951 2.298368
vertex 9.667385 4.563894 2.298368
vertex 8.825924 1.498228 2.298368
endloop
endfacet
facet normal -0.000000 0.000000 -1.000000
outer loop
vertex 3.655791 6.213951 2.298368
vertex 8.825924 1.498228 2.298368
vertex 2.814329 3.148284 2.298368
endloop
endfacet
facet normal 0.000000 0.000000 -1.000000
outer loop
vertex 12.759161 7.420021 2.298368
vertex 10.972066 0.909157 2.298368
vertex 8.825924 1.498228 2.298368
endloop
endfacet
facet normal -0.000000 0.000000 -1.000000
outer loop
vertex 12.759161 7.420021 2.298368
vertex 8.825924 1.498228 2.298368
vertex 10.613019 8.009089 2.298368
endloop
endfacet
facet normal -0.000000 0.000000 -1.000000
outer loop
vertex 3.655791 6.213951 2.298368
vertex 2.814329 3.148284 2.298368
vertex 0.379189 3.816679 2.298368
endloop
endfacet
facet normal 0.000000 0.000000 -1.000000
outer loop
vertex 3.655791 6.213951 2.298368
vertex 0.379189 3.816679 2.298368
vertex 1.220650 6.882346 2.298368
endloop
endfacet
facet normal 0.000000 0.000000 -1.000000
outer loop
vertex 3.655791 6.213951 2.298368
vertex 1.220650 6.882346 2.298368
vertex 2.166284 10.327541 2.298368
endloop
endfacet
facet normal -0.000000 0.000000 -1.000000
outer loop
vertex 3.655791 6.213951 2.298368
vertex 2.166284 10.327541 2.298368
vertex 4.601424 9.659145 2.298368
endloop
endfacet
facet normal 0.000000 0.000000 1.000000
outer loop
vertex 4.521758 -2.243304 -1.706251
vertex 3.687644 -5.282205 -1.706251
vertex 8.881377 -6.707775 -1.706251
endloop
endfacet
facet normal -0.000000 0.000000 1.000000
outer loop
vertex 4.521758 -2.243304 -1.706251
vertex 8.881377 -6.707775 -1.706251
vertex 9.715492 -3.668875 -1.706251
endloop
endfacet
facet normal -0.000000 0.000000 1.000000
outer loop
vertex -0.671975 -0.817734 -1.706251
vertex -1.506090 -3.856634 -1.706251
vertex 3.687644 -5.282205 -1.706251
endloop
endfacet
facet normal 0.000000 0.000000 1.000000
outer loop
vertex -0.671975 -0.817734 -1.706251
vertex 3.687644 -5.282205 -1.706251
vertex 4.521758 -2.243304 -1.706251
endloop
endfacet
facet normal 0.000000 0.000000 1.000000
outer loop
vertex 0.158613 2.208322 -1.706251
vertex -0.671975 -0.817734 -1.706251
vertex 4.521758 -2.243304 -1.706251
endloop
endfacet
facet normal 0.000000 0.000000 1.000000
outer loop
vertex 0.158613 2.208322 -1.706251
vertex 4.521758 -2.243304 -1.706251
vertex 5.352347 0.782751 -1.706251
endloop
endfacet
facet normal -0.000000 0.000000 -1.000000
outer loop
vertex 10.546081 -0.642820 2.298368
vertex 8.881377 -6.707775 2.298368
vertex -1.506090 -3.856634 2.298368
endloop
endfacet
facet normal 0.000000 0.000000 -1.000000
outer loop
vertex 10.546081 -0.642820 2.298368
vertex -1.506090 -3.856634 2.298368
vertex 0.158613 2.208322 2.298368
endloop
endfacet
endsolid Exported from Blender-4.0.2
