solid Exported from Blender-4.0.2
facet normal 0.000000 0.000000 1.000000
outer loop
vertex 2.642305 -17.056711 -1.651327
vertex 10.091949 -18.541935 -1.651327
vertex 11.178046 -13.094242 -1.651327
endloop
endfacet
facet normal 0.000000 0.000000 1.000000
outer loop
vertex 2.642305 -17.056711 -1.651327
vertex 11.178046 -13.094242 -1.651327
vertex 3.728403 -11.609018 -1.651327
endloop
endfacet
facet normal 0.195521 0.980700 0.000000
outer loop
vertex 10.091949 -18.541935 -1.651327
vertex 2.642305 -17.056711 -1.651327
vertex 2.642305 -17.056711 2.353292
endloop
endfacet
facet normal 0.195521 0.980700 0.000000
outer loop
vertex 10.091949 -18.541935 -1.651327
vertex 2.642305 -17.056711 2.353292
vertex 10.091949 -18.541935 2.353292
endloop
endfacet
facet normal 0.980700 -0.195521 0.000000
outer loop
vertex 2.642305 -17.056711 -1.651327
vertex 3.728403 -11.609018 -1.651327
vertex 3.728403 -11.609018 2.353292
endloop
endfacet
facet normal 0.980700 -0.195521 0.000000
outer loop
vertex 2.642305 -17.056711 -1.651327
vertex 3.728403 -11.609018 2.353292
vertex 2.642305 -17.056711 2.353292
endloop
endfacet
facet normal -0.980700 0.195521 0.000000
outer loop
vertex 10.091949 -18.541935 -1.651327
vertex 10.091949 -18.541935 2.353292
vertex 11.178046 -13.094242 2.353292
endloop
endfacet
facet normal -0.980700 0.195520 0.000000
outer loop
vertex 10.091949 -18.541935 -1.651327
vertex 11.178046 -13.094242 2.353292
vertex 11.178046 -13.094242 -1.651327
endloop
endfacet
facet normal -0.195521 -0.980700 0.000000
outer loop
vertex 3.728403 -11.609018 2.353292
vertex 3.728403 -11.609018 -1.651327
vertex 5.506548 -11.963525 -1.651327
endloop
endfacet
facet normal -0.195521 -0.980700 0.000000
outer loop
vertex 3.728403 -11.609018 2.353292
vertex 5.506548 -11.963525 -1.651327
vertex 5.506548 -11.963525 2.353292
endloop
endfacet
facet normal -0.195521 -0.980700 0.000000
outer loop
vertex 11.178046 -13.094242 -1.651327
vertex 11.178046 -13.094242 2.353292
vertex 8.977244 -12.655472 2.353292
endloop
endfacet
facet normal -0.195520 -0.980700 0.000000
outer loop
vertex 11.178046 -13.094242 -1.651327
vertex 8.977244 -12.655472 2.353292
vertex 8.977244 -12.655472 -1.651327
endloop
endfacet
facet normal -0.980699 0.195521 0.000000
outer loop
vertex 8.977244 -12.655472 -1.651327
vertex 8.977244 -12.655472 2.353292
vertex 9.171125 -11.682999 2.353292
endloop
endfacet
facet normal -0.980699 0.195521 0.000000
outer loop
vertex 8.977244 -12.655472 -1.651327
vertex 9.171125 -11.682999 2.353292
vertex 9.171125 -11.682999 -1.651327
endloop
endfacet
facet normal 0.980700 -0.195520 0.000000
outer loop
vertex 5.506548 -11.963525 2.353292
vertex 5.506548 -11.963525 -1.651327
vertex 5.700428 -10.991052 -1.651327
endloop
endfacet
facet normal 0.980699 -0.195521 0.000000
outer loop
vertex 5.506548 -11.963525 2.353292
vertex 5.700428 -10.991052 -1.651327
vertex 5.700428 -10.991052 2.353292
endloop
endfacet
facet normal 0.000000 0.000000 1.000000
outer loop
vertex 9.171125 -11.682999 -1.651327
vertex 5.700428 -10.991052 -1.651327
vertex 5.506548 -11.963525 -1.651327
endloop
endfacet
facet normal 0.000000 0.000000 1.000000
outer loop
vertex 9.171125 -11.682999 -1.651327
vertex 5.506548 -11.963525 -1.651327
vertex 8.977244 -12.655472 -1.651327
endloop
endfacet
facet normal 0.195521 0.980699 0.000000
outer loop
vertex 9.171125 -11.682999 -1.651327
vertex 9.171125 -11.682999 2.353292
vertex 10.524042 -11.952728 2.353292
endloop
endfacet
facet normal 0.195521 0.980699 0.000000
outer loop
vertex 9.171125 -11.682999 -1.651327
vertex 10.524042 -11.952728 2.353292
vertex 10.524042 -11.952728 -1.651327
endloop
endfacet
facet normal 0.000000 0.000000 1.000000
outer loop
vertex 5.409197 -5.441169 -1.651327
vertex 8.486609 -6.054708 -1.651327
vertex 9.539648 -0.772830 -1.651327
endloop
endfacet
facet normal 0.000000 0.000000 1.000000
outer loop
vertex 5.409197 -5.441169 -1.651327
vertex 9.539648 -0.772830 -1.651327
vertex 6.462237 -0.159291 -1.651327
endloop
endfacet
facet normal -0.980700 0.195521 0.000000
outer loop
vertex 10.524042 -11.952728 -1.651327
vertex 10.524042 -11.952728 2.353292
vertex 11.354959 -7.784987 2.353292
endloop
endfacet
facet normal -0.980700 0.195520 0.000000
outer loop
vertex 10.524042 -11.952728 -1.651327
vertex 11.354959 -7.784987 2.353292
vertex 11.354959 -7.784987 -1.651327
endloop
endfacet
facet normal 0.195521 0.980700 0.000000
outer loop
vertex 5.700428 -10.991052 2.353292
vertex 5.700428 -10.991052 -1.651327
vertex 4.356157 -10.723046 -1.651327
endloop
endfacet
facet normal 0.195521 0.980700 0.000000
outer loop
vertex 5.700428 -10.991052 2.353292
vertex 4.356157 -10.723046 -1.651327
vertex 4.356157 -10.723046 2.353292
endloop
endfacet
facet normal 0.980700 -0.195520 0.000000
outer loop
vertex 4.356157 -10.723046 2.353292
vertex 4.356157 -10.723046 -1.651327
vertex 5.500298 -4.984223 -1.651327
endloop
endfacet
facet normal 0.980700 -0.195521 0.000000
outer loop
vertex 4.356157 -10.723046 2.353292
vertex 5.500298 -4.984223 -1.651327
vertex 5.500298 -4.984223 2.353292
endloop
endfacet
facet normal -0.980699 0.195521 0.000000
outer loop
vertex 7.868706 -9.124120 -1.651328
vertex 7.868706 -9.124120 -0.162400
vertex 8.282958 -7.046297 -0.162400
endloop
endfacet
facet normal -0.980700 0.195520 0.000000
outer loop
vertex 7.868706 -9.124120 -1.651328
vertex 8.282958 -7.046297 -0.162400
vertex 8.282958 -7.046297 -1.651328
endloop
endfacet
facet normal 0.195520 0.980700 0.000000
outer loop
vertex 8.282958 -7.046297 -1.651328
vertex 8.282958 -7.046297 -0.162400
vertex 9.542115 -7.297333 -0.162400
endloop
endfacet
facet normal 0.195521 0.980700 0.000000
outer loop
vertex 8.282958 -7.046297 -1.651328
vertex 9.542115 -7.297333 -0.162400
vertex 9.542115 -7.297333 -1.651328
endloop
endfacet
facet normal 0.980700 -0.195520 0.000000
outer loop
vertex 9.542115 -7.297333 -1.651328
vertex 9.542115 -7.297333 -0.162400
vertex 9.127863 -9.375156 -0.162400
endloop
endfacet
facet normal 0.980700 -0.195521 0.000000
outer loop
vertex 9.542115 -7.297333 -1.651328
vertex 9.127863 -9.375156 -0.162400
vertex 9.127863 -9.375156 -1.651328
endloop
endfacet
facet normal -0.195521 -0.980700 0.000000
outer loop
vertex 9.127863 -9.375156 -1.651328
vertex 9.127863 -9.375156 -0.162400
vertex 7.868706 -9.124120 -0.162400
endloop
endfacet
facet normal -0.195521 -0.980700 0.000000
outer loop
vertex 9.127863 -9.375156 -1.651328
vertex 7.868706 -9.124120 -0.162400
vertex 7.868706 -9.124120 -1.651328
endloop
endfacet
facet normal 0.000000 0.000000 -1.000000
outer loop
vertex 8.282958 -7.046297 -1.651328
vertex 9.542115 -7.297333 -1.651328
vertex 9.127863 -9.375156 -1.651328
endloop
endfacet
facet normal 0.000000 0.000000 -1.000000
outer loop
vertex 8.282958 -7.046297 -1.651328
vertex 9.127863 -9.375156 -1.651328
vertex 7.868706 -9.124120 -1.651328
endloop
endfacet
facet normal 0.000000 0.000000 1.000000
outer loop
vertex 9.542115 -7.297333 -0.162400
vertex 8.282958 -7.046297 -0.162400
vertex 7.868706 -9.124120 -0.162400
endloop
endfacet
facet normal 0.000000 0.000000 1.000000
outer loop
vertex 9.542115 -7.297333 -0.162400
vertex 7.868706 -9.124120 -0.162400
vertex 9.127863 -9.375156 -0.162400
endloop
endfacet
facet normal -0.980700 0.195521 0.000000
outer loop
vertex 8.568232 -5.615412 -1.651328
vertex 8.568232 -5.615412 -0.162400
vertex 8.994211 -3.478767 -0.162400
endloop
endfacet
facet normal -0.980700 0.195521 0.000000
outer loop
vertex 8.568232 -5.615412 -1.651328
vertex 8.994211 -3.478767 -0.162400
vertex 8.994211 -3.478767 -1.651328
endloop
endfacet
facet normal 0.195521 0.980700 0.000000
outer loop
vertex 8.994211 -3.478767 -1.651328
vertex 8.994211 -3.478767 -0.162400
vertex 10.253368 -3.729804 -0.162400
endloop
endfacet
facet normal 0.195521 0.980700 0.000000
outer loop
vertex 8.994211 -3.478767 -1.651328
vertex 10.253368 -3.729804 -0.162400
vertex 10.253368 -3.729804 -1.651328
endloop
endfacet
facet normal 0.980700 -0.195521 0.000000
outer loop
vertex 10.253368 -3.729804 -1.651328
vertex 10.253368 -3.729804 -0.162400
vertex 9.827389 -5.866448 -0.162400
endloop
endfacet
facet normal 0.980700 -0.195521 0.000000
outer loop
vertex 10.253368 -3.729804 -1.651328
vertex 9.827389 -5.866448 -0.162400
vertex 9.827389 -5.866448 -1.651328
endloop
endfacet
facet normal -0.195521 -0.980700 0.000000
outer loop
vertex 9.827389 -5.866448 -1.651328
vertex 9.827389 -5.866448 -0.162400
vertex 8.568232 -5.615412 -0.162400
endloop
endfacet
facet normal -0.195521 -0.980700 0.000000
outer loop
vertex 9.827389 -5.866448 -1.651328
vertex 8.568232 -5.615412 -0.162400
vertex 8.568232 -5.615412 -1.651328
endloop
endfacet
facet normal 0.000000 0.000000 -1.000000
outer loop
vertex 8.994211 -3.478767 -1.651328
vertex 10.253368 -3.729804 -1.651328
vertex 9.827389 -5.866448 -1.651328
endloop
endfacet
facet normal 0.000000 0.000000 -1.000000
outer loop
vertex 8.994211 -3.478767 -1.651328
vertex 9.827389 -5.866448 -1.651328
vertex 8.568232 -5.615412 -1.651328
endloop
endfacet
facet normal 0.000000 0.000000 1.000000
outer loop
vertex 10.253368 -3.729804 -0.162400
vertex 8.994211 -3.478767 -0.162400
vertex 8.568232 -5.615412 -0.162400
endloop
endfacet
facet normal 0.000000 0.000000 1.000000
outer loop
vertex 10.253368 -3.729804 -0.162400
vertex 8.568232 -5.615412 -0.162400
vertex 9.827389 -5.866448 -0.162400
endloop
endfacet
facet normal 0.195521 0.980699 0.000000
outer loop
vertex 11.354959 -7.784987 -1.651327
vertex 11.354959 -7.784987 2.353292
vertex 12.560481 -8.025331 2.353292
endloop
endfacet
facet normal 0.195521 0.980699 0.000000
outer loop
vertex 11.354959 -7.784987 -1.651327
vertex 12.560481 -8.025331 2.353292
vertex 12.560481 -8.025331 -1.651327
endloop
endfacet
facet normal -0.980699 0.195521 0.000000
outer loop
vertex 12.560481 -8.025331 -1.651327
vertex 12.560481 -8.025331 2.353292
vertex 12.836739 -6.639669 2.353292
endloop
endfacet
facet normal -0.980699 0.195521 0.000000
outer loop
vertex 12.560481 -8.025331 -1.651327
vertex 12.836739 -6.639669 2.353292
vertex 12.836739 -6.639669 -1.651327
endloop
endfacet
facet normal -0.195520 -0.980700 0.000000
outer loop
vertex 12.836739 -6.639669 -1.651327
vertex 12.836739 -6.639669 2.353292
vertex 11.631216 -6.399326 2.353292
endloop
endfacet
facet normal -0.195520 -0.980700 0.000000
outer loop
vertex 12.836739 -6.639669 -1.651327
vertex 11.631216 -6.399326 2.353292
vertex 11.631216 -6.399326 -1.651327
endloop
endfacet
facet normal -0.980700 0.195520 0.000000
outer loop
vertex 11.631216 -6.399326 -1.651327
vertex 11.631216 -6.399326 2.353292
vertex 12.630122 -1.388973 2.353292
endloop
endfacet
facet normal -0.980700 0.195520 0.000000
outer loop
vertex 11.631216 -6.399326 -1.651327
vertex 12.630122 -1.388973 2.353292
vertex 12.630122 -1.388973 -1.651327
endloop
endfacet
facet normal 0.000000 0.000000 1.000000
outer loop
vertex 12.560481 -8.025331 -1.651327
vertex 12.836739 -6.639669 -1.651327
vertex 11.631216 -6.399326 -1.651327
endloop
endfacet
facet normal -0.000000 0.000000 1.000000
outer loop
vertex 12.560481 -8.025331 -1.651327
vertex 11.631216 -6.399326 -1.651327
vertex 11.354959 -7.784987 -1.651327
endloop
endfacet
facet normal 0.195521 0.980700 0.000000
outer loop
vertex 5.500298 -4.984223 2.353292
vertex 5.500298 -4.984223 -1.651327
vertex 3.921982 -4.669557 -1.651327
endloop
endfacet
facet normal 0.195520 0.980700 0.000000
outer loop
vertex 5.500298 -4.984223 2.353292
vertex 3.921982 -4.669557 -1.651327
vertex 3.921982 -4.669557 2.353292
endloop
endfacet
facet normal -0.195521 -0.980700 0.000000
outer loop
vertex 6.462237 -0.159291 -1.651327
vertex 12.630122 -1.388973 -1.651327
vertex 12.630122 -1.388973 2.353292
endloop
endfacet
facet normal -0.195521 -0.980700 0.000000
outer loop
vertex 6.462237 -0.159291 -1.651327
vertex 12.630122 -1.388973 2.353292
vertex 6.462237 -0.159291 2.353292
endloop
endfacet
facet normal 0.980700 -0.195521 0.000000
outer loop
vertex 5.111692 1.297838 -1.651327
vertex 5.111692 1.297838 2.353292
vertex 4.883922 0.155375 2.353292
endloop
endfacet
facet normal 0.980700 -0.195520 0.000000
outer loop
vertex 5.111692 1.297838 -1.651327
vertex 4.883922 0.155375 2.353292
vertex 4.883922 0.155375 -1.651327
endloop
endfacet
facet normal -0.195520 -0.980700 0.000000
outer loop
vertex 5.997138 1.121308 -1.651327
vertex 5.997138 1.121308 2.353292
vertex 5.111692 1.297838 2.353292
endloop
endfacet
facet normal -0.195521 -0.980700 0.000000
outer loop
vertex 5.997138 1.121308 -1.651327
vertex 5.111692 1.297838 2.353292
vertex 5.111692 1.297838 -1.651327
endloop
endfacet
facet normal -0.980700 0.195521 0.000000
outer loop
vertex 5.769367 -0.021155 -1.651327
vertex 5.769367 -0.021155 2.353292
vertex 5.997138 1.121308 2.353292
endloop
endfacet
facet normal -0.980700 0.195521 0.000000
outer loop
vertex 5.769367 -0.021155 -1.651327
vertex 5.997138 1.121308 2.353292
vertex 5.997138 1.121308 -1.651327
endloop
endfacet
facet normal -0.195521 -0.980700 0.000000
outer loop
vertex 6.462237 -0.159291 -1.651327
vertex 6.462237 -0.159291 2.353292
vertex 5.769367 -0.021155 2.353292
endloop
endfacet
facet normal -0.195521 -0.980700 0.000000
outer loop
vertex 6.462237 -0.159291 -1.651327
vertex 5.769367 -0.021155 2.353292
vertex 5.769367 -0.021155 -1.651327
endloop
endfacet
facet normal -0.195521 -0.980700 0.000000
outer loop
vertex 4.883922 0.155375 -1.651327
vertex 4.883922 0.155375 2.353292
vertex -1.737440 1.475466 2.353292
endloop
endfacet
facet normal -0.195521 -0.980700 0.000000
outer loop
vertex 4.883922 0.155375 -1.651327
vertex -1.737440 1.475466 2.353292
vertex -1.737440 1.475466 -1.651327
endloop
endfacet
facet normal -0.980700 0.195521 0.000000
outer loop
vertex 3.921982 -4.669557 2.353292
vertex 3.921982 -4.669557 -1.651327
vertex 2.736194 -10.617275 -1.651327
endloop
endfacet
facet normal -0.980700 0.195521 0.000000
outer loop
vertex 3.921982 -4.669557 2.353292
vertex 2.736194 -10.617275 -1.651327
vertex 2.736194 -10.617275 2.353292
endloop
endfacet
facet normal 0.000000 0.000000 1.000000
outer loop
vertex 3.921982 -4.669557 -1.651327
vertex 5.500298 -4.984223 -1.651327
vertex 6.462237 -0.159291 -1.651327
endloop
endfacet
facet normal 0.000000 0.000000 1.000000
outer loop
vertex 3.921982 -4.669557 -1.651327
vertex 6.462237 -0.159291 -1.651327
vertex 4.883922 0.155375 -1.651327
endloop
endfacet
facet normal -0.000000 0.000000 1.000000
outer loop
vertex 4.883922 0.155375 -1.651327
vertex 5.769367 -0.021155 -1.651327
vertex 5.997138 1.121308 -1.651327
endloop
endfacet
facet normal 0.000000 0.000000 1.000000
outer loop
vertex 4.883922 0.155375 -1.651327
vertex 5.997138 1.121308 -1.651327
vertex 5.111692 1.297838 -1.651327
endloop
endfacet
facet normal -0.000000 0.000000 1.000000
outer loop
vertex 3.921982 -4.669557 -1.651327
vertex 4.883922 0.155375 -1.651327
vertex 1.766227 0.776945 -1.651327
endloop
endfacet
facet normal 0.000000 0.000000 1.000000
outer loop
vertex 3.921982 -4.669557 -1.651327
vertex 1.766227 0.776945 -1.651327
vertex 0.804288 -4.047987 -1.651327
endloop
endfacet
facet normal 0.000000 0.000000 1.000000
outer loop
vertex 3.921982 -4.669557 -1.651327
vertex 0.804288 -4.047987 -1.651327
vertex -0.381500 -9.995706 -1.651327
endloop
endfacet
facet normal -0.000000 0.000000 1.000000
outer loop
vertex 3.921982 -4.669557 -1.651327
vertex -0.381500 -9.995706 -1.651327
vertex 2.736194 -10.617275 -1.651327
endloop
endfacet
facet normal 0.195520 0.980700 0.000000
outer loop
vertex 2.736194 -10.617275 2.353292
vertex 2.736194 -10.617275 -1.651327
vertex -0.381500 -9.995706 -1.651327
endloop
endfacet
facet normal 0.195520 0.980700 0.000000
outer loop
vertex 2.736194 -10.617275 2.353292
vertex -0.381500 -9.995706 -1.651327
vertex -0.381500 -9.995706 2.353292
endloop
endfacet
facet normal 0.980700 -0.195521 0.000000
outer loop
vertex 0.112230 -7.519238 -1.651327
vertex 1.331093 -1.405619 -1.651327
vertex 1.331092 -1.405619 2.353292
endloop
endfacet
facet normal 0.980700 -0.195521 0.000000
outer loop
vertex 0.112230 -7.519238 -1.651327
vertex 1.331092 -1.405619 2.353292
vertex 0.112230 -7.519238 2.353292
endloop
endfacet
facet normal -0.980700 0.195521 0.000000
outer loop
vertex -0.381500 -9.995706 2.353292
vertex -0.381500 -9.995706 -1.651327
vertex -0.578200 -10.982323 -1.651327
endloop
endfacet
facet normal -0.980700 0.195521 0.000000
outer loop
vertex -0.381500 -9.995706 2.353292
vertex -0.578200 -10.982323 -1.651327
vertex -0.578200 -10.982323 2.353292
endloop
endfacet
facet normal 0.195521 0.980700 0.000000
outer loop
vertex -0.578200 -10.982323 2.353292
vertex -0.578200 -10.982323 -1.651327
vertex -1.659179 -10.766809 -1.651327
endloop
endfacet
facet normal 0.195521 0.980700 0.000000
outer loop
vertex -0.578200 -10.982323 2.353292
vertex -1.659179 -10.766809 -1.651327
vertex -1.659179 -10.766809 2.353292
endloop
endfacet
facet normal 0.980700 -0.195520 0.000000
outer loop
vertex -1.659179 -10.766809 2.353292
vertex -1.659179 -10.766809 -1.651327
vertex -1.462479 -9.780191 -1.651327
endloop
endfacet
facet normal 0.980700 -0.195520 0.000000
outer loop
vertex -1.659179 -10.766809 2.353292
vertex -1.462479 -9.780191 -1.651327
vertex -1.462479 -9.780192 2.353292
endloop
endfacet
facet normal 0.195520 0.980700 0.000000
outer loop
vertex -1.462479 -9.780192 2.353292
vertex -1.462479 -9.780191 -1.651327
vertex -3.885165 -9.297185 -1.651327
endloop
endfacet
facet normal 0.195521 0.980700 0.000000
outer loop
vertex -1.462479 -9.780192 2.353292
vertex -3.885165 -9.297185 -1.651327
vertex -3.885165 -9.297184 2.353292
endloop
endfacet
facet normal -0.195521 -0.980700 0.000000
outer loop
vertex 0.112230 -7.519238 -1.651327
vertex 0.112230 -7.519238 2.353292
vertex -0.968749 -7.303724 2.353292
endloop
endfacet
facet normal -0.195521 -0.980700 0.000000
outer loop
vertex 0.112230 -7.519238 -1.651327
vertex -0.968749 -7.303724 2.353292
vertex -0.968749 -7.303724 -1.651327
endloop
endfacet
facet normal 0.000000 0.000000 1.000000
outer loop
vertex 0.112230 -7.519238 -1.651327
vertex -0.968749 -7.303724 -1.651327
vertex -1.462479 -9.780191 -1.651327
endloop
endfacet
facet normal 0.000000 0.000000 1.000000
outer loop
vertex 0.112230 -7.519238 -1.651327
vertex -1.462479 -9.780191 -1.651327
vertex -0.381500 -9.995706 -1.651327
endloop
endfacet
facet normal -0.980700 0.195521 0.000000
outer loop
vertex -0.968749 -7.303724 -1.651327
vertex -0.968749 -7.303724 2.353292
vertex 0.250114 -1.190106 2.353292
endloop
endfacet
facet normal -0.980700 0.195521 0.000000
outer loop
vertex -0.968749 -7.303724 -1.651327
vertex 0.250114 -1.190106 2.353292
vertex 0.250114 -1.190106 -1.651327
endloop
endfacet
facet normal 0.195521 0.980700 0.000000
outer loop
vertex 0.250114 -1.190106 -1.651327
vertex 0.250114 -1.190106 2.353292
vertex 1.331092 -1.405619 2.353292
endloop
endfacet
facet normal 0.195521 0.980700 -0.000000
outer loop
vertex 0.250114 -1.190106 -1.651327
vertex 1.331092 -1.405619 2.353292
vertex 1.331093 -1.405619 -1.651327
endloop
endfacet
facet normal 0.000000 0.000000 1.000000
outer loop
vertex -3.885165 -9.297185 -1.651327
vertex -1.462479 -9.780191 -1.651327
vertex 0.685248 0.992458 -1.651327
endloop
endfacet
facet normal 0.000000 0.000000 1.000000
outer loop
vertex -3.885165 -9.297185 -1.651327
vertex 0.685248 0.992458 -1.651327
vertex -1.737440 1.475466 -1.651327
endloop
endfacet
facet normal 0.980700 -0.195521 -0.000000
outer loop
vertex -3.885165 -9.297184 2.353292
vertex -3.885165 -9.297185 -1.651327
vertex -3.002316 -4.868955 -1.651327
endloop
endfacet
facet normal 0.980700 -0.195521 0.000000
outer loop
vertex -3.885165 -9.297184 2.353292
vertex -3.002316 -4.868955 -1.651327
vertex -3.002316 -4.868955 2.353292
endloop
endfacet
facet normal 0.000000 0.000000 1.000000
outer loop
vertex 0.250114 -1.190106 -1.651327
vertex 1.331093 -1.405619 -1.651327
vertex 1.766227 0.776945 -1.651327
endloop
endfacet
facet normal -0.000000 0.000000 1.000000
outer loop
vertex 0.250114 -1.190106 -1.651327
vertex 1.766227 0.776945 -1.651327
vertex 0.685248 0.992458 -1.651327
endloop
endfacet
facet normal 0.000000 0.000000 1.000000
outer loop
vertex -0.381500 -9.995706 -1.651327
vertex -1.462479 -9.780191 -1.651327
vertex -1.659179 -10.766809 -1.651327
endloop
endfacet
facet normal -0.000000 0.000000 1.000000
outer loop
vertex -0.381500 -9.995706 -1.651327
vertex -1.659179 -10.766809 -1.651327
vertex -0.578200 -10.982323 -1.651327
endloop
endfacet
facet normal 0.195521 0.980700 0.000000
outer loop
vertex -3.002316 -4.868955 2.353292
vertex -3.002316 -4.868955 -1.651327
vertex -3.764354 -4.717028 -1.651327
endloop
endfacet
facet normal 0.195521 0.980700 0.000000
outer loop
vertex -3.002316 -4.868955 2.353292
vertex -3.764354 -4.717028 -1.651327
vertex -3.764354 -4.717028 2.353292
endloop
endfacet
facet normal 0.980699 -0.195521 0.000000
outer loop
vertex -3.764354 -4.717028 2.353292
vertex -3.764354 -4.717028 -1.651327
vertex -3.428982 -3.034857 -1.651327
endloop
endfacet
facet normal 0.980700 -0.195521 0.000000
outer loop
vertex -3.764354 -4.717028 2.353292
vertex -3.428982 -3.034857 -1.651327
vertex -3.428982 -3.034857 2.353292
endloop
endfacet
facet normal -0.195521 -0.980700 0.000000
outer loop
vertex -3.428982 -3.034857 2.353292
vertex -3.428982 -3.034857 -1.651327
vertex -2.666944 -3.186784 -1.651327
endloop
endfacet
facet normal -0.195521 -0.980700 0.000000
outer loop
vertex -3.428982 -3.034857 2.353292
vertex -2.666944 -3.186784 -1.651327
vertex -2.666944 -3.186784 2.353292
endloop
endfacet
facet normal 0.980700 -0.195520 0.000000
outer loop
vertex -2.666944 -3.186784 2.353292
vertex -2.666944 -3.186784 -1.651327
vertex -1.737440 1.475466 -1.651327
endloop
endfacet
facet normal 0.980700 -0.195520 0.000000
outer loop
vertex -2.666944 -3.186784 2.353292
vertex -1.737440 1.475466 -1.651327
vertex -1.737440 1.475466 2.353292
endloop
endfacet
facet normal 0.000000 0.000000 1.000000
outer loop
vertex -3.002316 -4.868955 -1.651327
vertex -2.666944 -3.186784 -1.651327
vertex -3.428982 -3.034857 -1.651327
endloop
endfacet
facet normal -0.000000 0.000000 1.000000
outer loop
vertex -3.002316 -4.868955 -1.651327
vertex -3.428982 -3.034857 -1.651327
vertex -3.764354 -4.717028 -1.651327
endloop
endfacet
facet normal 0.000000 0.000000 -1.000000
outer loop
vertex -0.578200 -10.982323 2.353292
vertex -1.659179 -10.766809 2.353292
vertex -1.462479 -9.780192 2.353292
endloop
endfacet
facet normal 0.000000 0.000000 -1.000000
outer loop
vertex -0.578200 -10.982323 2.353292
vertex -1.462479 -9.780192 2.353292
vertex -0.381500 -9.995706 2.353292
endloop
endfacet
facet normal -0.000000 0.000000 -1.000000
outer loop
vertex -3.764354 -4.717028 2.353292
vertex -3.428982 -3.034857 2.353292
vertex -2.666944 -3.186784 2.353292
endloop
endfacet
facet normal 0.000000 0.000000 -1.000000
outer loop
vertex -3.764354 -4.717028 2.353292
vertex -2.666944 -3.186784 2.353292
vertex -3.002316 -4.868955 2.353292
endloop
endfacet
facet normal 0.000000 0.000000 -1.000000
outer loop
vertex 5.111692 1.297838 2.353292
vertex 5.997138 1.121308 2.353292
vertex 5.769367 -0.021155 2.353292
endloop
endfacet
facet normal 0.000000 0.000000 -1.000000
outer loop
vertex 5.111692 1.297838 2.353292
vertex 5.769367 -0.021155 2.353292
vertex 4.883922 0.155375 2.353292
endloop
endfacet
facet normal 0.000000 0.000000 -1.000000
outer loop
vertex 5.500298 -4.984223 2.353292
vertex 3.921982 -4.669557 2.353292
vertex 4.883922 0.155375 2.353292
endloop
endfacet
facet normal 0.000000 0.000000 -1.000000
outer loop
vertex 5.500298 -4.984223 2.353292
vertex 4.883922 0.155375 2.353292
vertex 6.462237 -0.159291 2.353292
endloop
endfacet
facet normal 0.000000 0.000000 -1.000000
outer loop
vertex 11.354959 -7.784987 2.353292
vertex 11.631216 -6.399326 2.353292
vertex 12.836739 -6.639669 2.353292
endloop
endfacet
facet normal 0.000000 0.000000 -1.000000
outer loop
vertex 11.354959 -7.784987 2.353292
vertex 12.836739 -6.639669 2.353292
vertex 12.560481 -8.025331 2.353292
endloop
endfacet
facet normal 0.000000 0.000000 -1.000000
outer loop
vertex 8.977244 -12.655472 2.353292
vertex 5.506548 -11.963525 2.353292
vertex 5.700428 -10.991052 2.353292
endloop
endfacet
facet normal -0.000000 0.000000 -1.000000
outer loop
vertex 8.977244 -12.655472 2.353292
vertex 5.700428 -10.991052 2.353292
vertex 9.171125 -11.682999 2.353292
endloop
endfacet
facet normal 0.000000 0.000000 -1.000000
outer loop
vertex 3.728403 -11.609018 2.353292
vertex 11.178046 -13.094242 2.353292
vertex 10.091949 -18.541935 2.353292
endloop
endfacet
facet normal 0.000000 0.000000 -1.000000
outer loop
vertex 3.728403 -11.609018 2.353292
vertex 10.091949 -18.541935 2.353292
vertex 2.642305 -17.056711 2.353292
endloop
endfacet
facet normal -0.000000 0.000000 -1.000000
outer loop
vertex 0.250114 -1.190106 2.353292
vertex -0.968749 -7.303724 2.353292
vertex -3.391434 -6.820717 2.353292
endloop
endfacet
facet normal 0.000000 0.000000 -1.000000
outer loop
vertex 0.250114 -1.190106 2.353292
vertex -3.391434 -6.820717 2.353292
vertex -2.172572 -0.707098 2.353292
endloop
endfacet
facet normal 0.000000 0.000000 -1.000000
outer loop
vertex 0.112230 -7.519238 2.353292
vertex 1.331092 -1.405619 2.353292
vertex 4.448787 -2.027189 2.353292
endloop
endfacet
facet normal 0.000000 0.000000 -1.000000
outer loop
vertex 0.112230 -7.519238 2.353292
vertex 4.448787 -2.027189 2.353292
vertex 3.229924 -8.140807 2.353292
endloop
endfacet
facet normal 0.000000 0.000000 -1.000000
outer loop
vertex -1.737440 1.475466 2.353292
vertex 4.883922 0.155375 2.353292
vertex 4.448787 -2.027189 2.353292
endloop
endfacet
facet normal -0.000000 0.000000 -1.000000
outer loop
vertex -1.737440 1.475466 2.353292
vertex 4.448787 -2.027189 2.353292
vertex -2.172572 -0.707098 2.353292
endloop
endfacet
facet normal 0.000000 0.000000 -1.000000
outer loop
vertex 0.112230 -7.519238 2.353292
vertex 3.229924 -8.140807 2.353292
vertex 2.736194 -10.617275 2.353292
endloop
endfacet
facet normal 0.000000 0.000000 -1.000000
outer loop
vertex 0.112230 -7.519238 2.353292
vertex 2.736194 -10.617275 2.353292
vertex -0.381500 -9.995706 2.353292
endloop
endfacet
facet normal 0.000000 0.000000 -1.000000
outer loop
vertex 0.112230 -7.519238 2.353292
vertex -0.381500 -9.995706 2.353292
vertex -3.885165 -9.297184 2.353292
endloop
endfacet
facet normal 0.000000 0.000000 -1.000000
outer loop
vertex 0.112230 -7.519238 2.353292
vertex -3.885165 -9.297184 2.353292
vertex -3.391434 -6.820717 2.353292
endloop
endfacet
facet normal 0.000000 0.000000 1.000000
outer loop
vertex 8.486609 -6.054708 -1.651327
vertex 11.577083 -6.670851 -1.651327
vertex 12.630122 -1.388973 -1.651327
endloop
endfacet
facet normal -0.000000 0.000000 1.000000
outer loop
vertex 8.486609 -6.054708 -1.651327
vertex 12.630122 -1.388973 -1.651327
vertex 9.539648 -0.772830 -1.651327
endloop
endfacet
facet normal 0.000000 0.000000 1.000000
outer loop
vertex 7.433568 -11.336585 -1.651327
vertex 10.524042 -11.952728 -1.651327
vertex 11.577083 -6.670851 -1.651327
endloop
endfacet
facet normal -0.000000 0.000000 1.000000
outer loop
vertex 7.433568 -11.336585 -1.651327
vertex 11.577083 -6.670851 -1.651327
vertex 8.486609 -6.054708 -1.651327
endloop
endfacet
facet normal 0.000000 0.000000 1.000000
outer loop
vertex 4.356157 -10.723046 -1.651327
vertex 7.433568 -11.336585 -1.651327
vertex 8.486609 -6.054708 -1.651327
endloop
endfacet
facet normal -0.000000 0.000000 1.000000
outer loop
vertex 4.356157 -10.723046 -1.651327
vertex 8.486609 -6.054708 -1.651327
vertex 5.409197 -5.441169 -1.651327
endloop
endfacet
facet normal -0.000000 0.000000 -1.000000
outer loop
vertex 6.462237 -0.159291 2.353292
vertex 12.630122 -1.388973 2.353292
vertex 10.524042 -11.952728 2.353292
endloop
endfacet
facet normal 0.000000 0.000000 -1.000000
outer loop
vertex 6.462237 -0.159291 2.353292
vertex 10.524042 -11.952728 2.353292
vertex 4.356157 -10.723046 2.353292
endloop
endfacet
endsolid Exported from Blender-4.0.2
