solid Exported from Blender-4.0.2
facet normal 0.000000 0.000000 1.000000
outer loop
vertex -3.688126 -8.576680 -1.651036
vertex 2.471848 -13.021654 -1.651036
vertex 5.722319 -8.517057 -1.651036
endloop
endfacet
facet normal 0.000000 0.000000 1.000000
outer loop
vertex -3.688126 -8.576680 -1.651036
vertex 5.722319 -8.517057 -1.651036
vertex -0.437655 -4.072083 -1.651036
endloop
endfacet
facet normal 0.585153 0.810923 0.000000
outer loop
vertex 2.471848 -13.021654 -1.651036
vertex -3.688126 -8.576680 -1.651036
vertex -3.688126 -8.576680 2.353583
endloop
endfacet
facet normal 0.585153 0.810923 0.000000
outer loop
vertex 2.471848 -13.021654 -1.651036
vertex -3.688126 -8.576680 2.353583
vertex 2.471848 -13.021654 2.353583
endloop
endfacet
facet normal 0.810923 -0.585154 0.000000
outer loop
vertex -3.688126 -8.576680 -1.651036
vertex -0.437655 -4.072083 -1.651036
vertex -0.437655 -4.072083 2.353583
endloop
endfacet
facet normal 0.810923 -0.585153 0.000000
outer loop
vertex -3.688126 -8.576680 -1.651036
vertex -0.437655 -4.072083 2.353583
vertex -3.688126 -8.576680 2.353583
endloop
endfacet
facet normal -0.810923 0.585153 0.000000
outer loop
vertex 2.471848 -13.021654 -1.651036
vertex 2.471848 -13.021654 2.353583
vertex 5.722319 -8.517057 2.353583
endloop
endfacet
facet normal -0.810923 0.585154 0.000000
outer loop
vertex 2.471848 -13.021654 -1.651036
vertex 5.722319 -8.517057 2.353583
vertex 5.722319 -8.517057 -1.651036
endloop
endfacet
facet normal -0.585154 -0.810922 0.000000
outer loop
vertex -0.437655 -4.072083 2.353583
vertex -0.437655 -4.072083 -1.651036
vertex 1.032661 -5.133049 -1.651036
endloop
endfacet
facet normal -0.585154 -0.810922 0.000000
outer loop
vertex -0.437655 -4.072083 2.353583
vertex 1.032661 -5.133049 -1.651036
vertex 1.032661 -5.133049 2.353583
endloop
endfacet
facet normal -0.585153 -0.810923 0.000000
outer loop
vertex 5.722319 -8.517057 -1.651036
vertex 5.722319 -8.517057 2.353583
vertex 3.902517 -7.203907 2.353583
endloop
endfacet
facet normal -0.585154 -0.810923 0.000000
outer loop
vertex 5.722319 -8.517057 -1.651036
vertex 3.902517 -7.203907 2.353583
vertex 3.902517 -7.203907 -1.651036
endloop
endfacet
facet normal -0.810923 0.585154 0.000000
outer loop
vertex 3.902517 -7.203907 -1.651036
vertex 3.902517 -7.203907 2.353583
vertex 4.482761 -6.399787 2.353583
endloop
endfacet
facet normal -0.810923 0.585153 0.000000
outer loop
vertex 3.902517 -7.203907 -1.651036
vertex 4.482761 -6.399787 2.353583
vertex 4.482761 -6.399787 -1.651036
endloop
endfacet
facet normal 0.810923 -0.585153 0.000000
outer loop
vertex 1.032661 -5.133049 2.353583
vertex 1.032661 -5.133049 -1.651036
vertex 1.612906 -4.328928 -1.651036
endloop
endfacet
facet normal 0.810923 -0.585153 0.000000
outer loop
vertex 1.032661 -5.133049 2.353583
vertex 1.612906 -4.328928 -1.651036
vertex 1.612906 -4.328928 2.353583
endloop
endfacet
facet normal 0.000000 0.000000 1.000000
outer loop
vertex 4.482761 -6.399787 -1.651036
vertex 1.612906 -4.328928 -1.651036
vertex 1.032661 -5.133049 -1.651036
endloop
endfacet
facet normal -0.000000 0.000000 1.000000
outer loop
vertex 4.482761 -6.399787 -1.651036
vertex 1.032661 -5.133049 -1.651036
vertex 3.902517 -7.203907 -1.651036
endloop
endfacet
facet normal 0.585153 0.810923 0.000000
outer loop
vertex 4.482761 -6.399787 -1.651036
vertex 4.482761 -6.399787 2.353583
vertex 5.601464 -7.207031 2.353583
endloop
endfacet
facet normal 0.585154 0.810923 0.000000
outer loop
vertex 4.482761 -6.399787 -1.651036
vertex 5.601464 -7.207031 2.353583
vertex 5.601464 -7.207031 -1.651036
endloop
endfacet
facet normal 0.000000 0.000000 1.000000
outer loop
vertex 3.652888 0.840645 -1.651036
vertex 6.197542 -0.995552 -1.651036
vertex 9.349077 3.371936 -1.651036
endloop
endfacet
facet normal 0.000000 0.000000 1.000000
outer loop
vertex 3.652888 0.840645 -1.651036
vertex 9.349077 3.371936 -1.651036
vertex 6.804422 5.208133 -1.651036
endloop
endfacet
facet normal -0.810923 0.585154 0.000000
outer loop
vertex 5.601464 -7.207031 -1.651036
vertex 5.601464 -7.207031 2.353583
vertex 8.088227 -3.760803 2.353583
endloop
endfacet
facet normal -0.810923 0.585153 0.000000
outer loop
vertex 5.601464 -7.207031 -1.651036
vertex 8.088227 -3.760803 2.353583
vertex 8.088227 -3.760803 -1.651036
endloop
endfacet
facet normal 0.585153 0.810923 0.000000
outer loop
vertex 1.612906 -4.328928 2.353583
vertex 1.612906 -4.328928 -1.651036
vertex 0.501353 -3.526843 -1.651036
endloop
endfacet
facet normal 0.585154 0.810923 0.000000
outer loop
vertex 1.612906 -4.328928 2.353583
vertex 0.501353 -3.526843 -1.651036
vertex 0.501353 -3.526843 2.353583
endloop
endfacet
facet normal 0.810923 -0.585154 0.000000
outer loop
vertex 0.501353 -3.526843 2.353583
vertex 0.501353 -3.526843 -1.651036
vertex 3.925533 1.218485 -1.651036
endloop
endfacet
facet normal 0.810923 -0.585153 0.000000
outer loop
vertex 0.501353 -3.526843 2.353583
vertex 3.925533 1.218485 -1.651036
vertex 3.925533 1.218485 2.353583
endloop
endfacet
facet normal -0.810923 0.585154 0.000000
outer loop
vertex 4.360697 -3.531118 -1.651037
vertex 4.360697 -3.531118 -0.162109
vertex 5.600471 -1.813004 -0.162109
endloop
endfacet
facet normal -0.810923 0.585153 0.000000
outer loop
vertex 4.360697 -3.531118 -1.651037
vertex 5.600471 -1.813004 -0.162109
vertex 5.600471 -1.813004 -1.651037
endloop
endfacet
facet normal 0.585154 0.810922 0.000000
outer loop
vertex 5.600471 -1.813004 -1.651037
vertex 5.600471 -1.813004 -0.162109
vertex 6.641645 -2.564305 -0.162109
endloop
endfacet
facet normal 0.585154 0.810922 0.000000
outer loop
vertex 5.600471 -1.813004 -1.651037
vertex 6.641645 -2.564305 -0.162109
vertex 6.641645 -2.564305 -1.651037
endloop
endfacet
facet normal 0.810923 -0.585153 0.000000
outer loop
vertex 6.641645 -2.564305 -1.651037
vertex 6.641645 -2.564305 -0.162109
vertex 5.401872 -4.282419 -0.162109
endloop
endfacet
facet normal 0.810922 -0.585154 0.000000
outer loop
vertex 6.641645 -2.564305 -1.651037
vertex 5.401872 -4.282419 -0.162109
vertex 5.401872 -4.282419 -1.651037
endloop
endfacet
facet normal -0.585154 -0.810922 0.000000
outer loop
vertex 5.401872 -4.282419 -1.651037
vertex 5.401872 -4.282419 -0.162109
vertex 4.360697 -3.531118 -0.162109
endloop
endfacet
facet normal -0.585153 -0.810923 0.000000
outer loop
vertex 5.401872 -4.282419 -1.651037
vertex 4.360697 -3.531118 -0.162109
vertex 4.360697 -3.531118 -1.651037
endloop
endfacet
facet normal 0.000000 0.000000 -1.000000
outer loop
vertex 5.600471 -1.813004 -1.651037
vertex 6.641645 -2.564305 -1.651037
vertex 5.401872 -4.282419 -1.651037
endloop
endfacet
facet normal -0.000000 0.000000 -1.000000
outer loop
vertex 5.600471 -1.813004 -1.651037
vertex 5.401872 -4.282419 -1.651037
vertex 4.360697 -3.531118 -1.651037
endloop
endfacet
facet normal 0.000000 0.000000 1.000000
outer loop
vertex 6.641645 -2.564305 -0.162109
vertex 5.600471 -1.813004 -0.162109
vertex 4.360697 -3.531118 -0.162109
endloop
endfacet
facet normal 0.000000 0.000000 1.000000
outer loop
vertex 6.641645 -2.564305 -0.162109
vertex 4.360697 -3.531118 -0.162109
vertex 5.401872 -4.282419 -0.162109
endloop
endfacet
facet normal -0.810923 0.585153 0.000000
outer loop
vertex 6.454236 -0.629831 -1.651037
vertex 6.454236 -0.629831 -0.162109
vertex 7.729106 1.136921 -0.162109
endloop
endfacet
facet normal -0.810923 0.585153 0.000000
outer loop
vertex 6.454236 -0.629831 -1.651037
vertex 7.729106 1.136921 -0.162109
vertex 7.729106 1.136921 -1.651037
endloop
endfacet
facet normal 0.585154 0.810922 0.000000
outer loop
vertex 7.729106 1.136921 -1.651037
vertex 7.729106 1.136921 -0.162109
vertex 8.770281 0.385619 -0.162109
endloop
endfacet
facet normal 0.585153 0.810923 0.000000
outer loop
vertex 7.729106 1.136921 -1.651037
vertex 8.770281 0.385619 -0.162109
vertex 8.770281 0.385619 -1.651037
endloop
endfacet
facet normal 0.810923 -0.585153 0.000000
outer loop
vertex 8.770281 0.385619 -1.651037
vertex 8.770281 0.385619 -0.162109
vertex 7.495411 -1.381133 -0.162109
endloop
endfacet
facet normal 0.810923 -0.585153 0.000000
outer loop
vertex 8.770281 0.385619 -1.651037
vertex 7.495411 -1.381133 -0.162109
vertex 7.495411 -1.381133 -1.651037
endloop
endfacet
facet normal -0.585154 -0.810922 0.000000
outer loop
vertex 7.495411 -1.381133 -1.651037
vertex 7.495411 -1.381133 -0.162109
vertex 6.454236 -0.629831 -0.162109
endloop
endfacet
facet normal -0.585154 -0.810922 0.000000
outer loop
vertex 7.495411 -1.381133 -1.651037
vertex 6.454236 -0.629831 -0.162109
vertex 6.454236 -0.629831 -1.651037
endloop
endfacet
facet normal 0.000000 0.000000 -1.000000
outer loop
vertex 7.729106 1.136921 -1.651037
vertex 8.770281 0.385619 -1.651037
vertex 7.495411 -1.381133 -1.651037
endloop
endfacet
facet normal -0.000000 0.000000 -1.000000
outer loop
vertex 7.729106 1.136921 -1.651037
vertex 7.495411 -1.381133 -1.651037
vertex 6.454236 -0.629831 -1.651037
endloop
endfacet
facet normal 0.000000 0.000000 1.000000
outer loop
vertex 8.770281 0.385619 -0.162109
vertex 7.729106 1.136921 -0.162109
vertex 6.454236 -0.629831 -0.162109
endloop
endfacet
facet normal 0.000000 0.000000 1.000000
outer loop
vertex 8.770281 0.385619 -0.162109
vertex 6.454236 -0.629831 -0.162109
vertex 7.495411 -1.381133 -0.162109
endloop
endfacet
facet normal 0.585154 0.810922 0.000000
outer loop
vertex 8.088227 -3.760803 -1.651036
vertex 8.088227 -3.760803 2.353583
vertex 9.085052 -4.480102 2.353583
endloop
endfacet
facet normal 0.585153 0.810923 0.000000
outer loop
vertex 8.088227 -3.760803 -1.651036
vertex 9.085052 -4.480102 2.353583
vertex 9.085052 -4.480102 -1.651036
endloop
endfacet
facet normal -0.810923 0.585153 0.000000
outer loop
vertex 9.085052 -4.480102 -1.651036
vertex 9.085052 -4.480102 2.353583
vertex 9.911834 -3.334324 2.353583
endloop
endfacet
facet normal -0.810923 0.585153 0.000000
outer loop
vertex 9.085052 -4.480102 -1.651036
vertex 9.911834 -3.334324 2.353583
vertex 9.911834 -3.334324 -1.651036
endloop
endfacet
facet normal -0.585153 -0.810923 0.000000
outer loop
vertex 9.911834 -3.334324 -1.651036
vertex 9.911834 -3.334324 2.353583
vertex 8.915009 -2.615025 2.353583
endloop
endfacet
facet normal -0.585153 -0.810923 0.000000
outer loop
vertex 9.911834 -3.334324 -1.651036
vertex 8.915009 -2.615025 2.353583
vertex 8.915009 -2.615025 -1.651036
endloop
endfacet
facet normal -0.810923 0.585154 0.000000
outer loop
vertex 8.915009 -2.615025 -1.651036
vertex 8.915009 -2.615025 2.353583
vertex 11.904533 1.527945 2.353583
endloop
endfacet
facet normal -0.810923 0.585154 0.000000
outer loop
vertex 8.915009 -2.615025 -1.651036
vertex 11.904533 1.527945 2.353583
vertex 11.904533 1.527945 -1.651036
endloop
endfacet
facet normal 0.000000 0.000000 1.000000
outer loop
vertex 9.085052 -4.480102 -1.651036
vertex 9.911834 -3.334324 -1.651036
vertex 8.915009 -2.615025 -1.651036
endloop
endfacet
facet normal -0.000000 0.000000 1.000000
outer loop
vertex 9.085052 -4.480102 -1.651036
vertex 8.915009 -2.615025 -1.651036
vertex 8.088227 -3.760803 -1.651036
endloop
endfacet
facet normal 0.585154 0.810923 0.000000
outer loop
vertex 3.925533 1.218485 2.353583
vertex 3.925533 1.218485 -1.651036
vertex 2.620452 2.160218 -1.651036
endloop
endfacet
facet normal 0.585153 0.810923 0.000000
outer loop
vertex 3.925533 1.218485 2.353583
vertex 2.620452 2.160218 -1.651036
vertex 2.620452 2.160218 2.353583
endloop
endfacet
facet normal -0.585153 -0.810923 0.000000
outer loop
vertex 6.804422 5.208133 -1.651036
vertex 11.904533 1.527945 -1.651036
vertex 11.904533 1.527945 2.353583
endloop
endfacet
facet normal -0.585154 -0.810923 0.000000
outer loop
vertex 6.804422 5.208133 -1.651036
vertex 11.904533 1.527945 2.353583
vertex 6.804422 5.208133 2.353583
endloop
endfacet
facet normal 0.810922 -0.585154 0.000000
outer loop
vertex 6.181014 7.094547 -1.651036
vertex 6.181014 7.094547 2.353583
vertex 5.499341 6.149866 2.353583
endloop
endfacet
facet normal 0.810923 -0.585153 0.000000
outer loop
vertex 6.181014 7.094547 -1.651036
vertex 5.499341 6.149866 2.353583
vertex 5.499341 6.149866 -1.651036
endloop
endfacet
facet normal -0.585153 -0.810923 0.000000
outer loop
vertex 6.913173 6.566229 -1.651036
vertex 6.913173 6.566229 2.353583
vertex 6.181014 7.094547 2.353583
endloop
endfacet
facet normal -0.585154 -0.810922 0.000000
outer loop
vertex 6.913173 6.566229 -1.651036
vertex 6.181014 7.094547 2.353583
vertex 6.181014 7.094547 -1.651036
endloop
endfacet
facet normal -0.810923 0.585153 0.000000
outer loop
vertex 6.231501 5.621547 -1.651036
vertex 6.231501 5.621547 2.353583
vertex 6.913173 6.566229 2.353583
endloop
endfacet
facet normal -0.810923 0.585153 0.000000
outer loop
vertex 6.231501 5.621547 -1.651036
vertex 6.913173 6.566229 2.353583
vertex 6.913173 6.566229 -1.651036
endloop
endfacet
facet normal -0.585153 -0.810923 0.000000
outer loop
vertex 6.804422 5.208133 -1.651036
vertex 6.804422 5.208133 2.353583
vertex 6.231501 5.621547 2.353583
endloop
endfacet
facet normal -0.585153 -0.810923 0.000000
outer loop
vertex 6.804422 5.208133 -1.651036
vertex 6.231501 5.621547 2.353583
vertex 6.231501 5.621547 -1.651036
endloop
endfacet
facet normal -0.585154 -0.810923 0.000000
outer loop
vertex 5.499341 6.149866 -1.651036
vertex 5.499341 6.149866 2.353583
vertex 0.024259 10.100630 2.353583
endloop
endfacet
facet normal -0.585153 -0.810923 0.000000
outer loop
vertex 5.499341 6.149866 -1.651036
vertex 0.024259 10.100630 2.353583
vertex 0.024259 10.100630 -1.651036
endloop
endfacet
facet normal -0.810923 0.585153 0.000000
outer loop
vertex 2.620452 2.160218 2.353583
vertex 2.620452 2.160218 -1.651036
vertex -0.928369 -2.757842 -1.651036
endloop
endfacet
facet normal -0.810923 0.585153 0.000000
outer loop
vertex 2.620452 2.160218 2.353583
vertex -0.928369 -2.757842 -1.651036
vertex -0.928369 -2.757842 2.353583
endloop
endfacet
facet normal -0.000000 0.000000 1.000000
outer loop
vertex 2.620452 2.160218 -1.651036
vertex 3.925533 1.218485 -1.651036
vertex 6.804422 5.208133 -1.651036
endloop
endfacet
facet normal 0.000000 0.000000 1.000000
outer loop
vertex 2.620452 2.160218 -1.651036
vertex 6.804422 5.208133 -1.651036
vertex 5.499341 6.149866 -1.651036
endloop
endfacet
facet normal 0.000000 0.000000 1.000000
outer loop
vertex 5.499341 6.149866 -1.651036
vertex 6.231501 5.621547 -1.651036
vertex 6.913173 6.566229 -1.651036
endloop
endfacet
facet normal 0.000000 0.000000 1.000000
outer loop
vertex 5.499341 6.149866 -1.651036
vertex 6.913173 6.566229 -1.651036
vertex 6.181014 7.094547 -1.651036
endloop
endfacet
facet normal 0.000000 0.000000 1.000000
outer loop
vertex 2.620452 2.160218 -1.651036
vertex 5.499341 6.149866 -1.651036
vertex 2.921377 8.010098 -1.651036
endloop
endfacet
facet normal -0.000000 0.000000 1.000000
outer loop
vertex 2.620452 2.160218 -1.651036
vertex 2.921377 8.010098 -1.651036
vertex 0.042488 4.020451 -1.651036
endloop
endfacet
facet normal 0.000000 0.000000 1.000000
outer loop
vertex 2.620452 2.160218 -1.651036
vertex 0.042488 4.020451 -1.651036
vertex -3.506334 -0.897609 -1.651036
endloop
endfacet
facet normal -0.000000 0.000000 1.000000
outer loop
vertex 2.620452 2.160218 -1.651036
vertex -3.506334 -0.897609 -1.651036
vertex -0.928369 -2.757842 -1.651036
endloop
endfacet
facet normal 0.585153 0.810923 0.000000
outer loop
vertex -0.928369 -2.757842 2.353583
vertex -0.928369 -2.757842 -1.651036
vertex -3.506334 -0.897609 -1.651036
endloop
endfacet
facet normal 0.585153 0.810923 0.000000
outer loop
vertex -0.928369 -2.757842 2.353583
vertex -3.506334 -0.897609 -1.651036
vertex -3.506334 -0.897609 2.353583
endloop
endfacet
facet normal 0.810922 -0.585154 0.000000
outer loop
vertex -2.028701 1.150137 -1.651036
vertex 1.619109 6.205376 -1.651036
vertex 1.619108 6.205376 2.353583
endloop
endfacet
facet normal 0.810923 -0.585153 0.000000
outer loop
vertex -2.028701 1.150137 -1.651036
vertex 1.619108 6.205376 2.353583
vertex -2.028701 1.150137 2.353583
endloop
endfacet
facet normal -0.810923 0.585154 0.000000
outer loop
vertex -3.506334 -0.897609 2.353583
vertex -3.506334 -0.897609 -1.651036
vertex -4.095018 -1.713425 -1.651036
endloop
endfacet
facet normal -0.810923 0.585153 0.000000
outer loop
vertex -3.506334 -0.897609 2.353583
vertex -4.095018 -1.713425 -1.651036
vertex -4.095018 -1.713425 2.353583
endloop
endfacet
facet normal 0.585153 0.810923 0.000000
outer loop
vertex -4.095018 -1.713425 2.353583
vertex -4.095018 -1.713425 -1.651036
vertex -4.988860 -1.068439 -1.651036
endloop
endfacet
facet normal 0.585153 0.810923 0.000000
outer loop
vertex -4.095018 -1.713425 2.353583
vertex -4.988860 -1.068439 -1.651036
vertex -4.988860 -1.068439 2.353583
endloop
endfacet
facet normal 0.810922 -0.585154 0.000000
outer loop
vertex -4.988860 -1.068439 2.353583
vertex -4.988860 -1.068439 -1.651036
vertex -4.400175 -0.252622 -1.651036
endloop
endfacet
facet normal 0.810922 -0.585154 0.000000
outer loop
vertex -4.988860 -1.068439 2.353583
vertex -4.400175 -0.252622 -1.651036
vertex -4.400176 -0.252622 2.353583
endloop
endfacet
facet normal 0.585153 0.810923 0.000000
outer loop
vertex -4.400176 -0.252622 2.353583
vertex -4.400175 -0.252622 -1.651036
vertex -6.403450 1.192920 -1.651036
endloop
endfacet
facet normal 0.585153 0.810923 -0.000000
outer loop
vertex -4.400176 -0.252622 2.353583
vertex -6.403450 1.192920 -1.651036
vertex -6.403450 1.192921 2.353583
endloop
endfacet
facet normal -0.585153 -0.810923 0.000000
outer loop
vertex -2.028701 1.150137 -1.651036
vertex -2.028701 1.150137 2.353583
vertex -2.922543 1.795124 2.353583
endloop
endfacet
facet normal -0.585154 -0.810922 0.000000
outer loop
vertex -2.028701 1.150137 -1.651036
vertex -2.922543 1.795124 2.353583
vertex -2.922543 1.795124 -1.651036
endloop
endfacet
facet normal 0.000000 0.000000 1.000000
outer loop
vertex -2.028701 1.150137 -1.651036
vertex -2.922543 1.795124 -1.651036
vertex -4.400175 -0.252622 -1.651036
endloop
endfacet
facet normal 0.000000 0.000000 1.000000
outer loop
vertex -2.028701 1.150137 -1.651036
vertex -4.400175 -0.252622 -1.651036
vertex -3.506334 -0.897609 -1.651036
endloop
endfacet
facet normal -0.810923 0.585153 0.000000
outer loop
vertex -2.922543 1.795124 -1.651036
vertex -2.922543 1.795124 2.353583
vertex 0.725267 6.850363 2.353583
endloop
endfacet
facet normal -0.810923 0.585154 0.000000
outer loop
vertex -2.922543 1.795124 -1.651036
vertex 0.725267 6.850363 2.353583
vertex 0.725267 6.850363 -1.651036
endloop
endfacet
facet normal 0.585153 0.810923 0.000000
outer loop
vertex 0.725267 6.850363 -1.651036
vertex 0.725267 6.850363 2.353583
vertex 1.619108 6.205376 2.353583
endloop
endfacet
facet normal 0.585153 0.810923 0.000000
outer loop
vertex 0.725267 6.850363 -1.651036
vertex 1.619108 6.205376 2.353583
vertex 1.619109 6.205376 -1.651036
endloop
endfacet
facet normal 0.000000 0.000000 1.000000
outer loop
vertex -6.403450 1.192920 -1.651036
vertex -4.400175 -0.252622 -1.651036
vertex 2.027536 8.655086 -1.651036
endloop
endfacet
facet normal -0.000000 0.000000 1.000000
outer loop
vertex -6.403450 1.192920 -1.651036
vertex 2.027536 8.655086 -1.651036
vertex 0.024259 10.100630 -1.651036
endloop
endfacet
facet normal 0.810923 -0.585154 0.000000
outer loop
vertex -6.403450 1.192921 2.353583
vertex -6.403450 1.192920 -1.651036
vertex -3.761261 4.854543 -1.651036
endloop
endfacet
facet normal 0.810923 -0.585153 0.000000
outer loop
vertex -6.403450 1.192921 2.353583
vertex -3.761261 4.854543 -1.651036
vertex -3.761261 4.854543 2.353583
endloop
endfacet
facet normal 0.000000 0.000000 1.000000
outer loop
vertex 0.725267 6.850363 -1.651036
vertex 1.619109 6.205376 -1.651036
vertex 2.921377 8.010098 -1.651036
endloop
endfacet
facet normal 0.000000 0.000000 1.000000
outer loop
vertex 0.725267 6.850363 -1.651036
vertex 2.921377 8.010098 -1.651036
vertex 2.027536 8.655086 -1.651036
endloop
endfacet
facet normal 0.000000 0.000000 1.000000
outer loop
vertex -3.506334 -0.897609 -1.651036
vertex -4.400175 -0.252622 -1.651036
vertex -4.988860 -1.068439 -1.651036
endloop
endfacet
facet normal 0.000000 0.000000 1.000000
outer loop
vertex -3.506334 -0.897609 -1.651036
vertex -4.988860 -1.068439 -1.651036
vertex -4.095018 -1.713425 -1.651036
endloop
endfacet
facet normal 0.585154 0.810922 0.000000
outer loop
vertex -3.761261 4.854543 2.353583
vertex -3.761261 4.854543 -1.651036
vertex -4.391376 5.309228 -1.651036
endloop
endfacet
facet normal 0.585154 0.810922 0.000000
outer loop
vertex -3.761261 4.854543 2.353583
vertex -4.391376 5.309228 -1.651036
vertex -4.391376 5.309228 2.353583
endloop
endfacet
facet normal 0.810922 -0.585154 0.000000
outer loop
vertex -4.391376 5.309228 2.353583
vertex -4.391376 5.309228 -1.651036
vertex -3.387676 6.700185 -1.651036
endloop
endfacet
facet normal 0.810923 -0.585154 0.000000
outer loop
vertex -4.391376 5.309228 2.353583
vertex -3.387676 6.700185 -1.651036
vertex -3.387676 6.700185 2.353583
endloop
endfacet
facet normal -0.585154 -0.810922 0.000000
outer loop
vertex -3.387676 6.700185 2.353583
vertex -3.387676 6.700185 -1.651036
vertex -2.757561 6.245500 -1.651036
endloop
endfacet
facet normal -0.585154 -0.810922 0.000000
outer loop
vertex -3.387676 6.700185 2.353583
vertex -2.757561 6.245500 -1.651036
vertex -2.757561 6.245500 2.353583
endloop
endfacet
facet normal 0.810923 -0.585153 0.000000
outer loop
vertex -2.757561 6.245500 2.353583
vertex -2.757561 6.245500 -1.651036
vertex 0.024259 10.100630 -1.651036
endloop
endfacet
facet normal 0.810923 -0.585153 0.000000
outer loop
vertex -2.757561 6.245500 2.353583
vertex 0.024259 10.100630 -1.651036
vertex 0.024259 10.100630 2.353583
endloop
endfacet
facet normal -0.000000 0.000000 1.000000
outer loop
vertex -3.761261 4.854543 -1.651036
vertex -2.757561 6.245500 -1.651036
vertex -3.387676 6.700185 -1.651036
endloop
endfacet
facet normal 0.000000 0.000000 1.000000
outer loop
vertex -3.761261 4.854543 -1.651036
vertex -3.387676 6.700185 -1.651036
vertex -4.391376 5.309228 -1.651036
endloop
endfacet
facet normal 0.000000 0.000000 -1.000000
outer loop
vertex -4.095018 -1.713425 2.353583
vertex -4.988860 -1.068439 2.353583
vertex -4.400176 -0.252622 2.353583
endloop
endfacet
facet normal 0.000000 0.000000 -1.000000
outer loop
vertex -4.095018 -1.713425 2.353583
vertex -4.400176 -0.252622 2.353583
vertex -3.506334 -0.897609 2.353583
endloop
endfacet
facet normal 0.000000 0.000000 -1.000000
outer loop
vertex -4.391376 5.309228 2.353583
vertex -3.387676 6.700185 2.353583
vertex -2.757561 6.245500 2.353583
endloop
endfacet
facet normal 0.000000 0.000000 -1.000000
outer loop
vertex -4.391376 5.309228 2.353583
vertex -2.757561 6.245500 2.353583
vertex -3.761261 4.854543 2.353583
endloop
endfacet
facet normal 0.000000 0.000000 -1.000000
outer loop
vertex 6.181014 7.094547 2.353583
vertex 6.913173 6.566229 2.353583
vertex 6.231501 5.621547 2.353583
endloop
endfacet
facet normal 0.000000 0.000000 -1.000000
outer loop
vertex 6.181014 7.094547 2.353583
vertex 6.231501 5.621547 2.353583
vertex 5.499341 6.149866 2.353583
endloop
endfacet
facet normal 0.000000 0.000000 -1.000000
outer loop
vertex 3.925533 1.218485 2.353583
vertex 2.620452 2.160218 2.353583
vertex 5.499341 6.149866 2.353583
endloop
endfacet
facet normal 0.000000 0.000000 -1.000000
outer loop
vertex 3.925533 1.218485 2.353583
vertex 5.499341 6.149866 2.353583
vertex 6.804422 5.208133 2.353583
endloop
endfacet
facet normal 0.000000 0.000000 -1.000000
outer loop
vertex 8.088227 -3.760803 2.353583
vertex 8.915009 -2.615025 2.353583
vertex 9.911834 -3.334324 2.353583
endloop
endfacet
facet normal 0.000000 0.000000 -1.000000
outer loop
vertex 8.088227 -3.760803 2.353583
vertex 9.911834 -3.334324 2.353583
vertex 9.085052 -4.480102 2.353583
endloop
endfacet
facet normal 0.000000 0.000000 -1.000000
outer loop
vertex 3.902517 -7.203907 2.353583
vertex 1.032661 -5.133049 2.353583
vertex 1.612906 -4.328928 2.353583
endloop
endfacet
facet normal 0.000000 0.000000 -1.000000
outer loop
vertex 3.902517 -7.203907 2.353583
vertex 1.612906 -4.328928 2.353583
vertex 4.482761 -6.399787 2.353583
endloop
endfacet
facet normal 0.000000 0.000000 -1.000000
outer loop
vertex -0.437655 -4.072083 2.353583
vertex 5.722319 -8.517057 2.353583
vertex 2.471848 -13.021654 2.353583
endloop
endfacet
facet normal 0.000000 0.000000 -1.000000
outer loop
vertex -0.437655 -4.072083 2.353583
vertex 2.471848 -13.021654 2.353583
vertex -3.688126 -8.576680 2.353583
endloop
endfacet
facet normal -0.000000 0.000000 -1.000000
outer loop
vertex 0.725267 6.850363 2.353583
vertex -2.922543 1.795124 2.353583
vertex -4.925817 3.240666 2.353583
endloop
endfacet
facet normal 0.000000 0.000000 -1.000000
outer loop
vertex 0.725267 6.850363 2.353583
vertex -4.925817 3.240666 2.353583
vertex -1.278008 8.295905 2.353583
endloop
endfacet
facet normal -0.000000 0.000000 -1.000000
outer loop
vertex -2.028701 1.150137 2.353583
vertex 1.619108 6.205376 2.353583
vertex 4.197073 4.345143 2.353583
endloop
endfacet
facet normal 0.000000 0.000000 -1.000000
outer loop
vertex -2.028701 1.150137 2.353583
vertex 4.197073 4.345143 2.353583
vertex 0.549263 -0.710096 2.353583
endloop
endfacet
facet normal 0.000000 0.000000 -1.000000
outer loop
vertex 0.024259 10.100630 2.353583
vertex 5.499341 6.149866 2.353583
vertex 4.197073 4.345143 2.353583
endloop
endfacet
facet normal 0.000000 0.000000 -1.000000
outer loop
vertex 0.024259 10.100630 2.353583
vertex 4.197073 4.345143 2.353583
vertex -1.278008 8.295905 2.353583
endloop
endfacet
facet normal -0.000000 0.000000 -1.000000
outer loop
vertex -2.028701 1.150137 2.353583
vertex 0.549263 -0.710096 2.353583
vertex -0.928369 -2.757842 2.353583
endloop
endfacet
facet normal 0.000000 0.000000 -1.000000
outer loop
vertex -2.028701 1.150137 2.353583
vertex -0.928369 -2.757842 2.353583
vertex -3.506334 -0.897609 2.353583
endloop
endfacet
facet normal -0.000000 0.000000 -1.000000
outer loop
vertex -2.028701 1.150137 2.353583
vertex -3.506334 -0.897609 2.353583
vertex -6.403450 1.192921 2.353583
endloop
endfacet
facet normal 0.000000 0.000000 -1.000000
outer loop
vertex -2.028701 1.150137 2.353583
vertex -6.403450 1.192921 2.353583
vertex -4.925817 3.240666 2.353583
endloop
endfacet
facet normal 0.000000 0.000000 1.000000
outer loop
vertex 6.197542 -0.995552 -1.651036
vertex 8.752998 -2.839543 -1.651036
vertex 11.904533 1.527945 -1.651036
endloop
endfacet
facet normal -0.000000 0.000000 1.000000
outer loop
vertex 6.197542 -0.995552 -1.651036
vertex 11.904533 1.527945 -1.651036
vertex 9.349077 3.371936 -1.651036
endloop
endfacet
facet normal 0.000000 0.000000 1.000000
outer loop
vertex 3.046008 -5.363040 -1.651036
vertex 5.601464 -7.207031 -1.651036
vertex 8.752998 -2.839543 -1.651036
endloop
endfacet
facet normal -0.000000 0.000000 1.000000
outer loop
vertex 3.046008 -5.363040 -1.651036
vertex 8.752998 -2.839543 -1.651036
vertex 6.197542 -0.995552 -1.651036
endloop
endfacet
facet normal 0.000000 0.000000 1.000000
outer loop
vertex 0.501353 -3.526843 -1.651036
vertex 3.046008 -5.363040 -1.651036
vertex 6.197542 -0.995552 -1.651036
endloop
endfacet
facet normal -0.000000 0.000000 1.000000
outer loop
vertex 0.501353 -3.526843 -1.651036
vertex 6.197542 -0.995552 -1.651036
vertex 3.652888 0.840645 -1.651036
endloop
endfacet
facet normal -0.000000 0.000000 -1.000000
outer loop
vertex 6.804422 5.208133 2.353583
vertex 11.904533 1.527945 2.353583
vertex 5.601464 -7.207031 2.353583
endloop
endfacet
facet normal 0.000000 0.000000 -1.000000
outer loop
vertex 6.804422 5.208133 2.353583
vertex 5.601464 -7.207031 2.353583
vertex 0.501353 -3.526843 2.353583
endloop
endfacet
endsolid Exported from Blender-4.0.2
