solid Exported from Blender-4.0.2
facet normal 0.000000 0.000000 1.000000
outer loop
vertex -8.756948 4.352825 -1.656372
vertex -7.208200 -3.083870 -1.656372
vertex -1.769976 -1.951318 -1.656372
endloop
endfacet
facet normal 0.000000 0.000000 1.000000
outer loop
vertex -8.756948 4.352825 -1.656372
vertex -1.769976 -1.951318 -1.656372
vertex -3.318725 5.485377 -1.656372
endloop
endfacet
facet normal 0.978995 0.203883 0.000000
outer loop
vertex -7.208200 -3.083870 -1.656372
vertex -8.756948 4.352825 -1.656372
vertex -8.756948 4.352825 2.348247
endloop
endfacet
facet normal 0.978995 0.203883 0.000000
outer loop
vertex -7.208200 -3.083870 -1.656372
vertex -8.756948 4.352825 2.348247
vertex -7.208200 -3.083870 2.348247
endloop
endfacet
facet normal 0.203883 -0.978995 0.000000
outer loop
vertex -8.756948 4.352825 -1.656372
vertex -3.318725 5.485377 -1.656372
vertex -3.318725 5.485377 2.348247
endloop
endfacet
facet normal 0.203883 -0.978995 0.000000
outer loop
vertex -8.756948 4.352825 -1.656372
vertex -3.318725 5.485377 2.348247
vertex -8.756948 4.352825 2.348247
endloop
endfacet
facet normal -0.203883 0.978995 0.000000
outer loop
vertex -7.208200 -3.083870 -1.656372
vertex -7.208200 -3.083870 2.348247
vertex -1.769976 -1.951318 2.348247
endloop
endfacet
facet normal -0.203883 0.978995 0.000000
outer loop
vertex -7.208200 -3.083870 -1.656372
vertex -1.769976 -1.951318 2.348247
vertex -1.769976 -1.951318 -1.656372
endloop
endfacet
facet normal -0.978995 -0.203883 0.000000
outer loop
vertex -3.318725 5.485377 2.348247
vertex -3.318725 5.485377 -1.656372
vertex -2.949056 3.710323 -1.656372
endloop
endfacet
facet normal -0.978995 -0.203883 0.000000
outer loop
vertex -3.318725 5.485377 2.348247
vertex -2.949056 3.710323 -1.656372
vertex -2.949056 3.710323 2.348247
endloop
endfacet
facet normal -0.978995 -0.203883 0.000000
outer loop
vertex -1.769976 -1.951318 -1.656372
vertex -1.769976 -1.951318 2.348247
vertex -2.227513 0.245658 2.348247
endloop
endfacet
facet normal -0.978995 -0.203883 0.000000
outer loop
vertex -1.769976 -1.951318 -1.656372
vertex -2.227513 0.245658 2.348247
vertex -2.227513 0.245658 -1.656372
endloop
endfacet
facet normal -0.203883 0.978995 0.000000
outer loop
vertex -2.227513 0.245658 -1.656372
vertex -2.227513 0.245658 2.348247
vertex -1.256730 0.447831 2.348247
endloop
endfacet
facet normal -0.203883 0.978995 0.000000
outer loop
vertex -2.227513 0.245658 -1.656372
vertex -1.256730 0.447831 2.348247
vertex -1.256730 0.447831 -1.656372
endloop
endfacet
facet normal 0.203883 -0.978995 0.000000
outer loop
vertex -2.949056 3.710323 2.348247
vertex -2.949056 3.710323 -1.656372
vertex -1.978273 3.912496 -1.656372
endloop
endfacet
facet normal 0.203883 -0.978995 0.000000
outer loop
vertex -2.949056 3.710323 2.348247
vertex -1.978273 3.912496 -1.656372
vertex -1.978273 3.912496 2.348247
endloop
endfacet
facet normal 0.000000 0.000000 1.000000
outer loop
vertex -1.256730 0.447831 -1.656372
vertex -1.978273 3.912496 -1.656372
vertex -2.949056 3.710323 -1.656372
endloop
endfacet
facet normal -0.000000 0.000000 1.000000
outer loop
vertex -1.256730 0.447831 -1.656372
vertex -2.949056 3.710323 -1.656372
vertex -2.227513 0.245658 -1.656372
endloop
endfacet
facet normal 0.978995 0.203883 0.000000
outer loop
vertex -1.256730 0.447831 -1.656372
vertex -1.256730 0.447831 2.348247
vertex -0.975464 -0.902735 2.348247
endloop
endfacet
facet normal 0.978995 0.203883 0.000000
outer loop
vertex -1.256730 0.447831 -1.656372
vertex -0.975464 -0.902735 2.348247
vertex -0.975464 -0.902735 -1.656372
endloop
endfacet
facet normal 0.000000 0.000000 1.000000
outer loop
vertex 3.014956 6.352510 -1.656372
vertex 3.654737 3.280448 -1.656372
vertex 8.927435 4.378528 -1.656372
endloop
endfacet
facet normal 0.000000 0.000000 1.000000
outer loop
vertex 3.014956 6.352510 -1.656372
vertex 8.927435 4.378528 -1.656372
vertex 8.287654 7.450591 -1.656372
endloop
endfacet
facet normal -0.203883 0.978995 0.000000
outer loop
vertex -0.975464 -0.902735 -1.656372
vertex -0.975464 -0.902735 2.348247
vertex 3.185033 -0.036279 2.348247
endloop
endfacet
facet normal -0.203883 0.978995 0.000000
outer loop
vertex -0.975464 -0.902735 -1.656372
vertex 3.185033 -0.036279 2.348247
vertex 3.185033 -0.036279 -1.656372
endloop
endfacet
facet normal 0.978995 0.203884 0.000000
outer loop
vertex -1.978273 3.912496 2.348247
vertex -1.978273 3.912496 -1.656372
vertex -2.257742 5.254430 -1.656372
endloop
endfacet
facet normal 0.978995 0.203883 0.000000
outer loop
vertex -1.978273 3.912496 2.348247
vertex -2.257742 5.254430 -1.656372
vertex -2.257742 5.254430 2.348247
endloop
endfacet
facet normal 0.203883 -0.978995 0.000000
outer loop
vertex -2.257742 5.254430 2.348247
vertex -2.257742 5.254430 -1.656372
vertex 3.471108 6.447507 -1.656372
endloop
endfacet
facet normal 0.203883 -0.978995 0.000000
outer loop
vertex -2.257742 5.254430 2.348247
vertex 3.471108 6.447507 -1.656372
vertex 3.471108 6.447507 2.348247
endloop
endfacet
facet normal -0.203883 0.978995 0.000000
outer loop
vertex 0.588327 2.647814 -1.656373
vertex 0.588327 2.647814 -0.167445
vertex 2.662539 3.079785 -0.167445
endloop
endfacet
facet normal -0.203883 0.978995 0.000000
outer loop
vertex 0.588327 2.647814 -1.656373
vertex 2.662539 3.079785 -0.167445
vertex 2.662539 3.079785 -1.656373
endloop
endfacet
facet normal 0.978995 0.203884 0.000000
outer loop
vertex 2.662539 3.079785 -1.656373
vertex 2.662539 3.079785 -0.167445
vertex 2.924313 1.822815 -0.167445
endloop
endfacet
facet normal 0.978995 0.203883 0.000000
outer loop
vertex 2.662539 3.079785 -1.656373
vertex 2.924313 1.822815 -0.167445
vertex 2.924313 1.822815 -1.656373
endloop
endfacet
facet normal 0.203883 -0.978995 0.000000
outer loop
vertex 2.924313 1.822815 -1.656373
vertex 2.924313 1.822815 -0.167445
vertex 0.850101 1.390844 -0.167445
endloop
endfacet
facet normal 0.203883 -0.978995 0.000000
outer loop
vertex 2.924313 1.822815 -1.656373
vertex 0.850101 1.390844 -0.167445
vertex 0.850101 1.390844 -1.656373
endloop
endfacet
facet normal -0.978995 -0.203883 0.000000
outer loop
vertex 0.850101 1.390844 -1.656373
vertex 0.850101 1.390844 -0.167445
vertex 0.588327 2.647814 -0.167445
endloop
endfacet
facet normal -0.978995 -0.203883 0.000000
outer loop
vertex 0.850101 1.390844 -1.656373
vertex 0.588327 2.647814 -0.167445
vertex 0.588327 2.647814 -1.656373
endloop
endfacet
facet normal 0.000000 0.000000 -1.000000
outer loop
vertex 2.662539 3.079785 -1.656373
vertex 2.924313 1.822815 -1.656373
vertex 0.850101 1.390844 -1.656373
endloop
endfacet
facet normal 0.000000 0.000000 -1.000000
outer loop
vertex 2.662539 3.079785 -1.656373
vertex 0.850101 1.390844 -1.656373
vertex 0.588327 2.647814 -1.656373
endloop
endfacet
facet normal 0.000000 0.000000 1.000000
outer loop
vertex 2.924313 1.822815 -0.167445
vertex 2.662539 3.079785 -0.167445
vertex 0.588327 2.647814 -0.167445
endloop
endfacet
facet normal 0.000000 0.000000 1.000000
outer loop
vertex 2.924313 1.822815 -0.167445
vertex 0.588327 2.647814 -0.167445
vertex 0.850101 1.390844 -0.167445
endloop
endfacet
facet normal -0.203883 0.978995 0.000000
outer loop
vertex 4.090938 3.377260 -1.656373
vertex 4.090938 3.377260 -0.167445
vertex 6.223868 3.821459 -0.167445
endloop
endfacet
facet normal -0.203883 0.978995 0.000000
outer loop
vertex 4.090938 3.377260 -1.656373
vertex 6.223868 3.821459 -0.167445
vertex 6.223868 3.821459 -1.656373
endloop
endfacet
facet normal 0.978995 0.203884 0.000000
outer loop
vertex 6.223868 3.821459 -1.656373
vertex 6.223868 3.821459 -0.167445
vertex 6.485642 2.564489 -0.167445
endloop
endfacet
facet normal 0.978995 0.203883 0.000000
outer loop
vertex 6.223868 3.821459 -1.656373
vertex 6.485642 2.564489 -0.167445
vertex 6.485642 2.564489 -1.656373
endloop
endfacet
facet normal 0.203883 -0.978995 0.000000
outer loop
vertex 6.485642 2.564489 -1.656373
vertex 6.485642 2.564489 -0.167445
vertex 4.352711 2.120290 -0.167445
endloop
endfacet
facet normal 0.203883 -0.978995 0.000000
outer loop
vertex 6.485642 2.564489 -1.656373
vertex 4.352711 2.120290 -0.167445
vertex 4.352711 2.120290 -1.656373
endloop
endfacet
facet normal -0.978995 -0.203883 0.000000
outer loop
vertex 4.352711 2.120290 -1.656373
vertex 4.352711 2.120290 -0.167445
vertex 4.090938 3.377260 -0.167445
endloop
endfacet
facet normal -0.978995 -0.203884 0.000000
outer loop
vertex 4.352711 2.120290 -1.656373
vertex 4.090938 3.377260 -0.167445
vertex 4.090938 3.377260 -1.656373
endloop
endfacet
facet normal -0.000000 0.000000 -1.000000
outer loop
vertex 6.223868 3.821459 -1.656373
vertex 6.485642 2.564489 -1.656373
vertex 4.352711 2.120290 -1.656373
endloop
endfacet
facet normal 0.000000 0.000000 -1.000000
outer loop
vertex 6.223868 3.821459 -1.656373
vertex 4.352711 2.120290 -1.656373
vertex 4.090938 3.377260 -1.656373
endloop
endfacet
facet normal 0.000000 0.000000 1.000000
outer loop
vertex 6.485642 2.564489 -0.167445
vertex 6.223868 3.821459 -0.167445
vertex 4.090938 3.377260 -0.167445
endloop
endfacet
facet normal 0.000000 0.000000 1.000000
outer loop
vertex 6.485642 2.564489 -0.167445
vertex 4.090938 3.377260 -0.167445
vertex 4.352711 2.120290 -0.167445
endloop
endfacet
facet normal 0.978995 0.203883 0.000000
outer loop
vertex 3.185033 -0.036279 -1.656372
vertex 3.185033 -0.036279 2.348247
vertex 3.435656 -1.239708 2.348247
endloop
endfacet
facet normal 0.978995 0.203883 0.000000
outer loop
vertex 3.185033 -0.036279 -1.656372
vertex 3.435656 -1.239708 2.348247
vertex 3.435656 -1.239708 -1.656372
endloop
endfacet
facet normal -0.203883 0.978995 0.000000
outer loop
vertex 3.435656 -1.239708 -1.656372
vertex 3.435656 -1.239708 2.348247
vertex 4.818909 -0.951634 2.348247
endloop
endfacet
facet normal -0.203883 0.978995 0.000000
outer loop
vertex 3.435656 -1.239708 -1.656372
vertex 4.818909 -0.951634 2.348247
vertex 4.818909 -0.951634 -1.656372
endloop
endfacet
facet normal -0.978995 -0.203883 0.000000
outer loop
vertex 4.818909 -0.951634 -1.656372
vertex 4.818909 -0.951634 2.348247
vertex 4.568285 0.251794 2.348247
endloop
endfacet
facet normal -0.978995 -0.203883 0.000000
outer loop
vertex 4.818909 -0.951634 -1.656372
vertex 4.568285 0.251794 2.348247
vertex 4.568285 0.251794 -1.656372
endloop
endfacet
facet normal -0.203883 0.978995 0.000000
outer loop
vertex 4.568285 0.251794 -1.656372
vertex 4.568285 0.251794 2.348247
vertex 9.569931 1.293426 2.348247
endloop
endfacet
facet normal -0.203883 0.978995 0.000000
outer loop
vertex 4.568285 0.251794 -1.656372
vertex 9.569931 1.293426 2.348247
vertex 9.569931 1.293426 -1.656372
endloop
endfacet
facet normal -0.000000 0.000000 1.000000
outer loop
vertex 3.435656 -1.239708 -1.656372
vertex 4.818909 -0.951634 -1.656372
vertex 4.568285 0.251794 -1.656372
endloop
endfacet
facet normal 0.000000 0.000000 1.000000
outer loop
vertex 3.435656 -1.239708 -1.656372
vertex 4.568285 0.251794 -1.656372
vertex 3.185033 -0.036279 -1.656372
endloop
endfacet
facet normal 0.978995 0.203883 0.000000
outer loop
vertex 3.471108 6.447507 2.348247
vertex 3.471108 6.447507 -1.656372
vertex 3.142983 8.023081 -1.656372
endloop
endfacet
facet normal 0.978995 0.203883 0.000000
outer loop
vertex 3.471108 6.447507 2.348247
vertex 3.142983 8.023081 -1.656372
vertex 3.142983 8.023081 2.348247
endloop
endfacet
facet normal -0.978995 -0.203883 0.000000
outer loop
vertex 8.287654 7.450591 -1.656372
vertex 9.569931 1.293426 -1.656372
vertex 9.569931 1.293426 2.348247
endloop
endfacet
facet normal -0.978995 -0.203884 0.000000
outer loop
vertex 8.287654 7.450591 -1.656372
vertex 9.569931 1.293426 2.348247
vertex 8.287654 7.450591 2.348247
endloop
endfacet
facet normal 0.203884 -0.978995 0.000000
outer loop
vertex 9.100006 9.263677 -1.656372
vertex 9.100006 9.263677 2.348247
vertex 7.959529 9.026163 2.348247
endloop
endfacet
facet normal 0.203884 -0.978995 0.000000
outer loop
vertex 9.100006 9.263677 -1.656372
vertex 7.959529 9.026163 2.348247
vertex 7.959529 9.026163 -1.656372
endloop
endfacet
facet normal -0.978995 -0.203884 0.000000
outer loop
vertex 9.284086 8.379770 -1.656372
vertex 9.284086 8.379770 2.348247
vertex 9.100006 9.263677 2.348247
endloop
endfacet
facet normal -0.978995 -0.203882 0.000000
outer loop
vertex 9.284086 8.379770 -1.656372
vertex 9.100006 9.263677 2.348247
vertex 9.100006 9.263677 -1.656372
endloop
endfacet
facet normal -0.203884 0.978995 0.000000
outer loop
vertex 8.143609 8.142257 -1.656372
vertex 8.143609 8.142257 2.348247
vertex 9.284086 8.379770 2.348247
endloop
endfacet
facet normal -0.203884 0.978995 0.000000
outer loop
vertex 8.143609 8.142257 -1.656372
vertex 9.284086 8.379770 2.348247
vertex 9.284086 8.379770 -1.656372
endloop
endfacet
facet normal -0.978995 -0.203883 0.000000
outer loop
vertex 8.287654 7.450591 -1.656372
vertex 8.287654 7.450591 2.348247
vertex 8.143609 8.142257 2.348247
endloop
endfacet
facet normal -0.978995 -0.203883 0.000000
outer loop
vertex 8.287654 7.450591 -1.656372
vertex 8.143609 8.142257 2.348247
vertex 8.143609 8.142257 -1.656372
endloop
endfacet
facet normal -0.978995 -0.203883 0.000000
outer loop
vertex 7.959529 9.026163 -1.656372
vertex 7.959529 9.026163 2.348247
vertex 6.582975 15.636018 2.348247
endloop
endfacet
facet normal -0.978995 -0.203883 0.000000
outer loop
vertex 7.959529 9.026163 -1.656372
vertex 6.582975 15.636018 2.348247
vertex 6.582975 15.636018 -1.656372
endloop
endfacet
facet normal -0.203883 0.978995 0.000000
outer loop
vertex 3.142983 8.023081 2.348247
vertex 3.142983 8.023081 -1.656372
vertex -2.794400 6.786575 -1.656372
endloop
endfacet
facet normal -0.203883 0.978995 0.000000
outer loop
vertex 3.142983 8.023081 2.348247
vertex -2.794400 6.786575 -1.656372
vertex -2.794400 6.786575 2.348247
endloop
endfacet
facet normal -0.000000 0.000000 1.000000
outer loop
vertex 3.142983 8.023081 -1.656372
vertex 3.471108 6.447507 -1.656372
vertex 8.287654 7.450591 -1.656372
endloop
endfacet
facet normal 0.000000 0.000000 1.000000
outer loop
vertex 3.142983 8.023081 -1.656372
vertex 8.287654 7.450591 -1.656372
vertex 7.959529 9.026163 -1.656372
endloop
endfacet
facet normal -0.000000 0.000000 1.000000
outer loop
vertex 7.959529 9.026163 -1.656372
vertex 8.143609 8.142257 -1.656372
vertex 9.284086 8.379770 -1.656372
endloop
endfacet
facet normal 0.000000 0.000000 1.000000
outer loop
vertex 7.959529 9.026163 -1.656372
vertex 9.284086 8.379770 -1.656372
vertex 9.100006 9.263677 -1.656372
endloop
endfacet
facet normal 0.000000 0.000000 1.000000
outer loop
vertex 3.142983 8.023081 -1.656372
vertex 7.959529 9.026163 -1.656372
vertex 7.311373 12.138439 -1.656372
endloop
endfacet
facet normal -0.000000 0.000000 1.000000
outer loop
vertex 3.142983 8.023081 -1.656372
vertex 7.311373 12.138439 -1.656372
vertex 2.494827 11.135357 -1.656372
endloop
endfacet
facet normal 0.000000 0.000000 1.000000
outer loop
vertex 3.142983 8.023081 -1.656372
vertex 2.494827 11.135357 -1.656372
vertex -3.442555 9.898850 -1.656372
endloop
endfacet
facet normal 0.000000 0.000000 1.000000
outer loop
vertex 3.142983 8.023081 -1.656372
vertex -3.442555 9.898850 -1.656372
vertex -2.794400 6.786575 -1.656372
endloop
endfacet
facet normal 0.978995 0.203883 0.000000
outer loop
vertex -2.794400 6.786575 2.348247
vertex -2.794400 6.786575 -1.656372
vertex -3.442555 9.898850 -1.656372
endloop
endfacet
facet normal 0.978995 0.203883 0.000000
outer loop
vertex -2.794400 6.786575 2.348247
vertex -3.442555 9.898850 -1.656372
vertex -3.442555 9.898850 2.348247
endloop
endfacet
facet normal 0.203883 -0.978995 0.000000
outer loop
vertex -0.970392 10.413698 -1.656372
vertex 5.132603 11.684693 -1.656372
vertex 5.132603 11.684693 2.348247
endloop
endfacet
facet normal 0.203883 -0.978995 0.000000
outer loop
vertex -0.970392 10.413698 -1.656372
vertex 5.132603 11.684693 2.348247
vertex -0.970392 10.413698 2.348247
endloop
endfacet
facet normal -0.203883 0.978995 0.000000
outer loop
vertex -3.442555 9.898850 2.348247
vertex -3.442555 9.898850 -1.656372
vertex -4.427458 9.693737 -1.656372
endloop
endfacet
facet normal -0.203883 0.978995 0.000000
outer loop
vertex -3.442555 9.898850 2.348247
vertex -4.427458 9.693737 -1.656372
vertex -4.427458 9.693737 2.348247
endloop
endfacet
facet normal 0.978995 0.203883 0.000000
outer loop
vertex -4.427458 9.693737 2.348247
vertex -4.427458 9.693737 -1.656372
vertex -4.652189 10.772838 -1.656372
endloop
endfacet
facet normal 0.978995 0.203884 0.000000
outer loop
vertex -4.427458 9.693737 2.348247
vertex -4.652189 10.772838 -1.656372
vertex -4.652189 10.772838 2.348247
endloop
endfacet
facet normal 0.203883 -0.978995 0.000000
outer loop
vertex -4.652189 10.772838 2.348247
vertex -4.652189 10.772838 -1.656372
vertex -3.667286 10.977951 -1.656372
endloop
endfacet
facet normal 0.203883 -0.978995 -0.000000
outer loop
vertex -4.652189 10.772838 2.348247
vertex -3.667286 10.977951 -1.656372
vertex -3.667286 10.977951 2.348247
endloop
endfacet
facet normal 0.978995 0.203883 0.000000
outer loop
vertex -3.667286 10.977951 2.348247
vertex -3.667286 10.977951 -1.656372
vertex -4.170953 13.396427 -1.656372
endloop
endfacet
facet normal 0.978995 0.203883 -0.000000
outer loop
vertex -3.667286 10.977951 2.348247
vertex -4.170953 13.396427 -1.656372
vertex -4.170952 13.396427 2.348247
endloop
endfacet
facet normal -0.978995 -0.203883 0.000000
outer loop
vertex -0.970392 10.413698 -1.656372
vertex -0.970392 10.413698 2.348247
vertex -1.195122 11.492799 2.348247
endloop
endfacet
facet normal -0.978995 -0.203883 0.000000
outer loop
vertex -0.970392 10.413698 -1.656372
vertex -1.195122 11.492799 2.348247
vertex -1.195122 11.492799 -1.656372
endloop
endfacet
facet normal 0.000000 0.000000 1.000000
outer loop
vertex -0.970392 10.413698 -1.656372
vertex -1.195122 11.492799 -1.656372
vertex -3.667286 10.977951 -1.656372
endloop
endfacet
facet normal 0.000000 0.000000 1.000000
outer loop
vertex -0.970392 10.413698 -1.656372
vertex -3.667286 10.977951 -1.656372
vertex -3.442555 9.898850 -1.656372
endloop
endfacet
facet normal -0.203883 0.978995 0.000000
outer loop
vertex -1.195122 11.492799 -1.656372
vertex -1.195122 11.492799 2.348247
vertex 4.907871 12.763794 2.348247
endloop
endfacet
facet normal -0.203883 0.978995 0.000000
outer loop
vertex -1.195122 11.492799 -1.656372
vertex 4.907871 12.763794 2.348247
vertex 4.907871 12.763794 -1.656372
endloop
endfacet
facet normal 0.978995 0.203884 0.000000
outer loop
vertex 4.907871 12.763794 -1.656372
vertex 4.907871 12.763794 2.348247
vertex 5.132603 11.684693 2.348247
endloop
endfacet
facet normal 0.978995 0.203884 0.000000
outer loop
vertex 4.907871 12.763794 -1.656372
vertex 5.132603 11.684693 2.348247
vertex 5.132603 11.684693 -1.656372
endloop
endfacet
facet normal 0.000000 0.000000 1.000000
outer loop
vertex -4.170953 13.396427 -1.656372
vertex -3.667286 10.977951 -1.656372
vertex 7.086642 13.217540 -1.656372
endloop
endfacet
facet normal 0.000000 0.000000 1.000000
outer loop
vertex -4.170953 13.396427 -1.656372
vertex 7.086642 13.217540 -1.656372
vertex 6.582975 15.636018 -1.656372
endloop
endfacet
facet normal 0.203883 -0.978995 -0.000001
outer loop
vertex -4.170952 13.396427 2.348247
vertex -4.170953 13.396427 -1.656372
vertex 0.249582 14.317038 -1.656372
endloop
endfacet
facet normal 0.203883 -0.978995 0.000000
outer loop
vertex -4.170952 13.396427 2.348247
vertex 0.249582 14.317038 -1.656372
vertex 0.249582 14.317038 2.348247
endloop
endfacet
facet normal -0.000000 0.000000 1.000000
outer loop
vertex 4.907871 12.763794 -1.656372
vertex 5.132603 11.684693 -1.656372
vertex 7.311373 12.138439 -1.656372
endloop
endfacet
facet normal 0.000000 0.000000 1.000000
outer loop
vertex 4.907871 12.763794 -1.656372
vertex 7.311373 12.138439 -1.656372
vertex 7.086642 13.217540 -1.656372
endloop
endfacet
facet normal 0.000000 0.000000 1.000000
outer loop
vertex -3.442555 9.898850 -1.656372
vertex -3.667286 10.977951 -1.656372
vertex -4.652189 10.772838 -1.656372
endloop
endfacet
facet normal 0.000000 0.000000 1.000000
outer loop
vertex -3.442555 9.898850 -1.656372
vertex -4.652189 10.772838 -1.656372
vertex -4.427458 9.693737 -1.656372
endloop
endfacet
facet normal 0.978995 0.203884 0.000000
outer loop
vertex 0.249582 14.317038 2.348247
vertex 0.249582 14.317038 -1.656372
vertex 0.091157 15.077750 -1.656372
endloop
endfacet
facet normal 0.978995 0.203884 0.000000
outer loop
vertex 0.249582 14.317038 2.348247
vertex 0.091157 15.077750 -1.656372
vertex 0.091157 15.077750 2.348247
endloop
endfacet
facet normal 0.203884 -0.978995 0.000000
outer loop
vertex 0.091157 15.077750 2.348247
vertex 0.091157 15.077750 -1.656372
vertex 1.770405 15.427467 -1.656372
endloop
endfacet
facet normal 0.203884 -0.978995 0.000000
outer loop
vertex 0.091157 15.077750 2.348247
vertex 1.770405 15.427467 -1.656372
vertex 1.770405 15.427467 2.348247
endloop
endfacet
facet normal -0.978995 -0.203884 0.000000
outer loop
vertex 1.770405 15.427467 2.348247
vertex 1.770405 15.427467 -1.656372
vertex 1.928830 14.666755 -1.656372
endloop
endfacet
facet normal -0.978995 -0.203884 0.000000
outer loop
vertex 1.770405 15.427467 2.348247
vertex 1.928830 14.666755 -1.656372
vertex 1.928830 14.666755 2.348247
endloop
endfacet
facet normal 0.203884 -0.978995 0.000000
outer loop
vertex 1.928830 14.666755 2.348247
vertex 1.928830 14.666755 -1.656372
vertex 6.582975 15.636018 -1.656372
endloop
endfacet
facet normal 0.203884 -0.978995 0.000000
outer loop
vertex 1.928830 14.666755 2.348247
vertex 6.582975 15.636018 -1.656372
vertex 6.582975 15.636018 2.348247
endloop
endfacet
facet normal 0.000000 0.000000 1.000000
outer loop
vertex 0.249582 14.317038 -1.656372
vertex 1.928830 14.666755 -1.656372
vertex 1.770405 15.427467 -1.656372
endloop
endfacet
facet normal -0.000000 0.000000 1.000000
outer loop
vertex 0.249582 14.317038 -1.656372
vertex 1.770405 15.427467 -1.656372
vertex 0.091157 15.077750 -1.656372
endloop
endfacet
facet normal 0.000000 0.000000 -1.000000
outer loop
vertex -4.427458 9.693737 2.348247
vertex -4.652189 10.772838 2.348247
vertex -3.667286 10.977951 2.348247
endloop
endfacet
facet normal -0.000000 0.000000 -1.000000
outer loop
vertex -4.427458 9.693737 2.348247
vertex -3.667286 10.977951 2.348247
vertex -3.442555 9.898850 2.348247
endloop
endfacet
facet normal 0.000000 0.000000 -1.000000
outer loop
vertex 0.091157 15.077750 2.348247
vertex 1.770405 15.427467 2.348247
vertex 1.928830 14.666755 2.348247
endloop
endfacet
facet normal -0.000000 0.000000 -1.000000
outer loop
vertex 0.091157 15.077750 2.348247
vertex 1.928830 14.666755 2.348247
vertex 0.249582 14.317038 2.348247
endloop
endfacet
facet normal 0.000000 0.000000 -1.000000
outer loop
vertex 9.100006 9.263677 2.348247
vertex 9.284086 8.379770 2.348247
vertex 8.143609 8.142257 2.348247
endloop
endfacet
facet normal -0.000000 0.000000 -1.000000
outer loop
vertex 9.100006 9.263677 2.348247
vertex 8.143609 8.142257 2.348247
vertex 7.959529 9.026163 2.348247
endloop
endfacet
facet normal -0.000000 0.000000 -1.000000
outer loop
vertex 3.471108 6.447507 2.348247
vertex 3.142983 8.023081 2.348247
vertex 7.959529 9.026163 2.348247
endloop
endfacet
facet normal 0.000000 0.000000 -1.000000
outer loop
vertex 3.471108 6.447507 2.348247
vertex 7.959529 9.026163 2.348247
vertex 8.287654 7.450591 2.348247
endloop
endfacet
facet normal 0.000000 0.000000 -1.000000
outer loop
vertex 3.185033 -0.036279 2.348247
vertex 4.568285 0.251794 2.348247
vertex 4.818909 -0.951634 2.348247
endloop
endfacet
facet normal -0.000000 0.000000 -1.000000
outer loop
vertex 3.185033 -0.036279 2.348247
vertex 4.818909 -0.951634 2.348247
vertex 3.435656 -1.239708 2.348247
endloop
endfacet
facet normal -0.000000 0.000000 -1.000000
outer loop
vertex -2.227513 0.245658 2.348247
vertex -2.949056 3.710323 2.348247
vertex -1.978273 3.912496 2.348247
endloop
endfacet
facet normal 0.000001 0.000000 -1.000000
outer loop
vertex -2.227513 0.245658 2.348247
vertex -1.978273 3.912496 2.348247
vertex -1.256730 0.447831 2.348247
endloop
endfacet
facet normal -0.000000 0.000000 -1.000000
outer loop
vertex -3.318725 5.485377 2.348247
vertex -1.769976 -1.951318 2.348247
vertex -7.208200 -3.083870 2.348247
endloop
endfacet
facet normal 0.000000 0.000000 -1.000000
outer loop
vertex -3.318725 5.485377 2.348247
vertex -7.208200 -3.083870 2.348247
vertex -8.756948 4.352825 2.348247
endloop
endfacet
facet normal 0.000000 0.000000 -1.000000
outer loop
vertex 4.907871 12.763794 2.348247
vertex -1.195122 11.492799 2.348247
vertex -1.698788 13.911273 2.348247
endloop
endfacet
facet normal 0.000000 0.000000 -1.000000
outer loop
vertex 4.907871 12.763794 2.348247
vertex -1.698788 13.911273 2.348247
vertex 4.404205 15.182268 2.348247
endloop
endfacet
facet normal 0.000000 0.000000 -1.000000
outer loop
vertex -0.970392 10.413698 2.348247
vertex 5.132603 11.684693 2.348247
vertex 5.780758 8.572417 2.348247
endloop
endfacet
facet normal 0.000000 0.000000 -1.000000
outer loop
vertex -0.970392 10.413698 2.348247
vertex 5.780758 8.572417 2.348247
vertex -0.322236 7.301422 2.348247
endloop
endfacet
facet normal -0.000000 0.000000 -1.000000
outer loop
vertex 6.582975 15.636018 2.348247
vertex 7.959529 9.026163 2.348247
vertex 5.780758 8.572417 2.348247
endloop
endfacet
facet normal 0.000000 0.000000 -1.000000
outer loop
vertex 6.582975 15.636018 2.348247
vertex 5.780758 8.572417 2.348247
vertex 4.404205 15.182268 2.348247
endloop
endfacet
facet normal 0.000000 0.000000 -1.000000
outer loop
vertex -0.970392 10.413698 2.348247
vertex -0.322236 7.301422 2.348247
vertex -2.794400 6.786575 2.348247
endloop
endfacet
facet normal -0.000000 0.000000 -1.000000
outer loop
vertex -0.970392 10.413698 2.348247
vertex -2.794400 6.786575 2.348247
vertex -3.442555 9.898850 2.348247
endloop
endfacet
facet normal 0.000000 0.000000 -1.000000
outer loop
vertex -0.970392 10.413698 2.348247
vertex -3.442555 9.898850 2.348247
vertex -4.170952 13.396427 2.348247
endloop
endfacet
facet normal -0.000000 0.000000 -1.000000
outer loop
vertex -0.970392 10.413698 2.348247
vertex -4.170952 13.396427 2.348247
vertex -1.698788 13.911273 2.348247
endloop
endfacet
facet normal -0.000000 0.000000 1.000000
outer loop
vertex 3.654737 3.280448 -1.656372
vertex 4.297233 0.195345 -1.656372
vertex 9.569931 1.293426 -1.656372
endloop
endfacet
facet normal 0.000000 0.000000 1.000000
outer loop
vertex 3.654737 3.280448 -1.656372
vertex 9.569931 1.293426 -1.656372
vertex 8.927435 4.378528 -1.656372
endloop
endfacet
facet normal -0.000000 0.000000 1.000000
outer loop
vertex -1.617961 2.182368 -1.656372
vertex -0.975464 -0.902735 -1.656372
vertex 4.297233 0.195345 -1.656372
endloop
endfacet
facet normal 0.000000 0.000000 1.000000
outer loop
vertex -1.617961 2.182368 -1.656372
vertex 4.297233 0.195345 -1.656372
vertex 3.654737 3.280448 -1.656372
endloop
endfacet
facet normal 0.000000 0.000000 1.000000
outer loop
vertex -2.257742 5.254430 -1.656372
vertex -1.617961 2.182368 -1.656372
vertex 3.654737 3.280448 -1.656372
endloop
endfacet
facet normal 0.000000 0.000000 1.000000
outer loop
vertex -2.257742 5.254430 -1.656372
vertex 3.654737 3.280448 -1.656372
vertex 3.014956 6.352510 -1.656372
endloop
endfacet
facet normal -0.000000 0.000000 -1.000000
outer loop
vertex 8.287654 7.450591 2.348247
vertex 9.569931 1.293426 2.348247
vertex -0.975464 -0.902735 2.348247
endloop
endfacet
facet normal 0.000000 0.000000 -1.000000
outer loop
vertex 8.287654 7.450591 2.348247
vertex -0.975464 -0.902735 2.348247
vertex -2.257742 5.254430 2.348247
endloop
endfacet
endsolid Exported from Blender-4.0.2
