solid Exported from Blender-4.0.2
facet normal 0.000000 0.000000 1.000000
outer loop
vertex -4.081989 -2.757306 -1.650000
vertex 3.132822 -5.134188 -1.650000
vertex 4.870961 0.141779 -1.650000
endloop
endfacet
facet normal 0.000000 0.000000 1.000000
outer loop
vertex -4.081989 -2.757306 -1.650000
vertex 4.870961 0.141779 -1.650000
vertex -2.343850 2.518660 -1.650000
endloop
endfacet
facet normal 0.312902 0.949785 0.000000
outer loop
vertex 3.132822 -5.134188 -1.650000
vertex -4.081989 -2.757306 -1.650000
vertex -4.081989 -2.757306 2.354619
endloop
endfacet
facet normal 0.312902 0.949785 0.000000
outer loop
vertex 3.132822 -5.134188 -1.650000
vertex -4.081989 -2.757306 2.354619
vertex 3.132822 -5.134188 2.354619
endloop
endfacet
facet normal 0.949785 -0.312902 0.000000
outer loop
vertex -4.081989 -2.757306 -1.650000
vertex -2.343850 2.518660 -1.650000
vertex -2.343850 2.518660 2.354619
endloop
endfacet
facet normal 0.949785 -0.312902 0.000000
outer loop
vertex -4.081989 -2.757306 -1.650000
vertex -2.343850 2.518660 2.354619
vertex -4.081989 -2.757306 2.354619
endloop
endfacet
facet normal -0.949785 0.312902 0.000000
outer loop
vertex 3.132822 -5.134188 -1.650000
vertex 3.132822 -5.134188 2.354619
vertex 4.870961 0.141779 2.354619
endloop
endfacet
facet normal -0.949785 0.312902 0.000000
outer loop
vertex 3.132822 -5.134188 -1.650000
vertex 4.870961 0.141779 2.354619
vertex 4.870961 0.141779 -1.650000
endloop
endfacet
facet normal -0.312902 -0.949785 0.000000
outer loop
vertex -2.343850 2.518660 2.354619
vertex -2.343850 2.518660 -1.650000
vertex -0.621757 1.951325 -1.650000
endloop
endfacet
facet normal -0.312902 -0.949785 0.000000
outer loop
vertex -2.343850 2.518660 2.354619
vertex -0.621757 1.951325 -1.650000
vertex -0.621757 1.951325 2.354619
endloop
endfacet
facet normal -0.312902 -0.949786 0.000000
outer loop
vertex 4.870961 0.141779 -1.650000
vertex 4.870961 0.141779 2.354619
vertex 2.739535 0.843966 2.354619
endloop
endfacet
facet normal -0.312902 -0.949786 0.000000
outer loop
vertex 4.870961 0.141779 -1.650000
vertex 2.739535 0.843966 2.354619
vertex 2.739535 0.843966 -1.650000
endloop
endfacet
facet normal -0.949786 0.312902 0.000000
outer loop
vertex 2.739535 0.843966 -1.650000
vertex 2.739535 0.843966 2.354619
vertex 3.049812 1.785784 2.354619
endloop
endfacet
facet normal -0.949785 0.312902 0.000000
outer loop
vertex 2.739535 0.843966 -1.650000
vertex 3.049812 1.785784 2.354619
vertex 3.049812 1.785784 -1.650000
endloop
endfacet
facet normal 0.949785 -0.312902 0.000000
outer loop
vertex -0.621757 1.951325 2.354619
vertex -0.621757 1.951325 -1.650000
vertex -0.311480 2.893143 -1.650000
endloop
endfacet
facet normal 0.949785 -0.312902 0.000000
outer loop
vertex -0.621757 1.951325 2.354619
vertex -0.311480 2.893143 -1.650000
vertex -0.311480 2.893143 2.354619
endloop
endfacet
facet normal 0.000000 0.000000 1.000000
outer loop
vertex 3.049812 1.785784 -1.650000
vertex -0.311480 2.893143 -1.650000
vertex -0.621757 1.951325 -1.650000
endloop
endfacet
facet normal 0.000000 0.000000 1.000000
outer loop
vertex 3.049812 1.785784 -1.650000
vertex -0.621757 1.951325 -1.650000
vertex 2.739535 0.843966 -1.650000
endloop
endfacet
facet normal 0.312902 0.949785 0.000000
outer loop
vertex 3.049812 1.785784 -1.650000
vertex 3.049812 1.785784 2.354619
vertex 4.360082 1.354122 2.354619
endloop
endfacet
facet normal 0.312902 0.949785 0.000000
outer loop
vertex 3.049812 1.785784 -1.650000
vertex 4.360082 1.354122 2.354619
vertex 4.360082 1.354122 -1.650000
endloop
endfacet
facet normal 0.000000 0.000000 1.000000
outer loop
vertex 0.071859 8.437426 -1.650000
vertex 3.052262 7.455548 -1.650000
vertex 4.737496 12.570927 -1.650000
endloop
endfacet
facet normal 0.000000 0.000000 1.000000
outer loop
vertex 0.071859 8.437426 -1.650000
vertex 4.737496 12.570927 -1.650000
vertex 1.757093 13.552805 -1.650000
endloop
endfacet
facet normal -0.949785 0.312902 0.000000
outer loop
vertex 4.360082 1.354122 -1.650000
vertex 4.360082 1.354122 2.354619
vertex 5.689840 5.390485 2.354619
endloop
endfacet
facet normal -0.949785 0.312902 0.000000
outer loop
vertex 4.360082 1.354122 -1.650000
vertex 5.689840 5.390485 2.354619
vertex 5.689840 5.390485 -1.650000
endloop
endfacet
facet normal 0.312902 0.949785 0.000000
outer loop
vertex -0.311480 2.893143 2.354619
vertex -0.311480 2.893143 -1.650000
vertex -1.613376 3.322046 -1.650000
endloop
endfacet
facet normal 0.312902 0.949785 0.000000
outer loop
vertex -0.311480 2.893143 2.354619
vertex -1.613376 3.322046 -1.650000
vertex -1.613376 3.322046 2.354619
endloop
endfacet
facet normal 0.949786 -0.312902 0.000000
outer loop
vertex -1.613376 3.322046 2.354619
vertex -1.613376 3.322046 -1.650000
vertex 0.217652 8.879967 -1.650000
endloop
endfacet
facet normal 0.949786 -0.312902 0.000000
outer loop
vertex -1.613376 3.322046 2.354619
vertex 0.217652 8.879967 -1.650000
vertex 0.217652 8.879967 2.354619
endloop
endfacet
facet normal -0.949785 0.312902 0.000000
outer loop
vertex 2.067021 4.483613 -1.650001
vertex 2.067021 4.483613 -0.161073
vertex 2.729971 6.495938 -0.161073
endloop
endfacet
facet normal -0.949785 0.312902 0.000000
outer loop
vertex 2.067021 4.483613 -1.650001
vertex 2.729971 6.495938 -0.161073
vertex 2.729971 6.495938 -1.650001
endloop
endfacet
facet normal 0.312902 0.949785 0.000000
outer loop
vertex 2.729971 6.495938 -1.650001
vertex 2.729971 6.495938 -0.161073
vertex 3.949437 6.094192 -0.161073
endloop
endfacet
facet normal 0.312902 0.949786 0.000000
outer loop
vertex 2.729971 6.495938 -1.650001
vertex 3.949437 6.094192 -0.161073
vertex 3.949437 6.094192 -1.650001
endloop
endfacet
facet normal 0.949785 -0.312902 0.000000
outer loop
vertex 3.949437 6.094192 -1.650001
vertex 3.949437 6.094192 -0.161073
vertex 3.286487 4.081867 -0.161073
endloop
endfacet
facet normal 0.949785 -0.312902 0.000000
outer loop
vertex 3.949437 6.094192 -1.650001
vertex 3.286487 4.081867 -0.161073
vertex 3.286487 4.081867 -1.650001
endloop
endfacet
facet normal -0.312902 -0.949786 0.000000
outer loop
vertex 3.286487 4.081867 -1.650001
vertex 3.286487 4.081867 -0.161073
vertex 2.067021 4.483613 -0.161073
endloop
endfacet
facet normal -0.312902 -0.949786 0.000000
outer loop
vertex 3.286487 4.081867 -1.650001
vertex 2.067021 4.483613 -0.161073
vertex 2.067021 4.483613 -1.650001
endloop
endfacet
facet normal 0.000000 0.000000 -1.000000
outer loop
vertex 2.729971 6.495938 -1.650001
vertex 3.949437 6.094192 -1.650001
vertex 3.286487 4.081867 -1.650001
endloop
endfacet
facet normal -0.000000 0.000000 -1.000000
outer loop
vertex 2.729971 6.495938 -1.650001
vertex 3.286487 4.081867 -1.650001
vertex 2.067021 4.483613 -1.650001
endloop
endfacet
facet normal -0.000000 0.000000 1.000000
outer loop
vertex 3.949437 6.094192 -0.161073
vertex 2.729971 6.495938 -0.161073
vertex 2.067021 4.483613 -0.161073
endloop
endfacet
facet normal 0.000000 0.000000 1.000000
outer loop
vertex 3.949437 6.094192 -0.161073
vertex 2.067021 4.483613 -0.161073
vertex 3.286487 4.081867 -0.161073
endloop
endfacet
facet normal -0.949785 0.312902 0.000000
outer loop
vertex 3.186508 7.881718 -1.650001
vertex 3.186508 7.881718 -0.161073
vertex 3.868226 9.951010 -0.161073
endloop
endfacet
facet normal -0.949786 0.312902 0.000000
outer loop
vertex 3.186508 7.881718 -1.650001
vertex 3.868226 9.951010 -0.161073
vertex 3.868226 9.951010 -1.650001
endloop
endfacet
facet normal 0.312902 0.949786 0.000000
outer loop
vertex 3.868226 9.951010 -1.650001
vertex 3.868226 9.951010 -0.161073
vertex 5.087692 9.549263 -0.161073
endloop
endfacet
facet normal 0.312902 0.949786 0.000000
outer loop
vertex 3.868226 9.951010 -1.650001
vertex 5.087692 9.549263 -0.161073
vertex 5.087692 9.549263 -1.650001
endloop
endfacet
facet normal 0.949785 -0.312902 0.000000
outer loop
vertex 5.087692 9.549263 -1.650001
vertex 5.087692 9.549263 -0.161073
vertex 4.405974 7.479971 -0.161073
endloop
endfacet
facet normal 0.949785 -0.312902 0.000000
outer loop
vertex 5.087692 9.549263 -1.650001
vertex 4.405974 7.479971 -0.161073
vertex 4.405974 7.479971 -1.650001
endloop
endfacet
facet normal -0.312902 -0.949786 0.000000
outer loop
vertex 4.405974 7.479971 -1.650001
vertex 4.405974 7.479971 -0.161073
vertex 3.186508 7.881718 -0.161073
endloop
endfacet
facet normal -0.312902 -0.949786 0.000000
outer loop
vertex 4.405974 7.479971 -1.650001
vertex 3.186508 7.881718 -0.161073
vertex 3.186508 7.881718 -1.650001
endloop
endfacet
facet normal 0.000000 0.000000 -1.000000
outer loop
vertex 3.868226 9.951010 -1.650001
vertex 5.087692 9.549263 -1.650001
vertex 4.405974 7.479971 -1.650001
endloop
endfacet
facet normal -0.000000 0.000000 -1.000000
outer loop
vertex 3.868226 9.951010 -1.650001
vertex 4.405974 7.479971 -1.650001
vertex 3.186508 7.881718 -1.650001
endloop
endfacet
facet normal 0.000000 0.000000 1.000000
outer loop
vertex 5.087692 9.549263 -0.161073
vertex 3.868226 9.951010 -0.161073
vertex 3.186508 7.881718 -0.161073
endloop
endfacet
facet normal 0.000000 0.000000 1.000000
outer loop
vertex 5.087692 9.549263 -0.161073
vertex 3.186508 7.881718 -0.161073
vertex 4.405974 7.479971 -0.161073
endloop
endfacet
facet normal 0.312902 0.949786 0.000000
outer loop
vertex 5.689840 5.390485 -1.650000
vertex 5.689840 5.390485 2.354619
vertex 6.857362 5.005851 2.354619
endloop
endfacet
facet normal 0.312902 0.949785 0.000000
outer loop
vertex 5.689840 5.390485 -1.650000
vertex 6.857362 5.005851 2.354619
vertex 6.857362 5.005851 -1.650000
endloop
endfacet
facet normal -0.949785 0.312902 0.000000
outer loop
vertex 6.857362 5.005851 -1.650000
vertex 6.857362 5.005851 2.354619
vertex 7.299471 6.347833 2.354619
endloop
endfacet
facet normal -0.949786 0.312901 0.000000
outer loop
vertex 6.857362 5.005851 -1.650000
vertex 7.299471 6.347833 2.354619
vertex 7.299471 6.347833 -1.650000
endloop
endfacet
facet normal -0.312902 -0.949785 0.000000
outer loop
vertex 7.299471 6.347833 -1.650000
vertex 7.299471 6.347833 2.354619
vertex 6.131948 6.732467 2.354619
endloop
endfacet
facet normal -0.312902 -0.949785 0.000000
outer loop
vertex 7.299471 6.347833 -1.650000
vertex 6.131948 6.732467 2.354619
vertex 6.131948 6.732467 -1.650000
endloop
endfacet
facet normal -0.949785 0.312902 0.000000
outer loop
vertex 6.131948 6.732467 -1.650000
vertex 6.131948 6.732467 2.354619
vertex 7.730551 11.584881 2.354619
endloop
endfacet
facet normal -0.949786 0.312902 0.000000
outer loop
vertex 6.131948 6.732467 -1.650000
vertex 7.730551 11.584881 2.354619
vertex 7.730551 11.584881 -1.650000
endloop
endfacet
facet normal 0.000000 0.000000 1.000000
outer loop
vertex 6.857362 5.005851 -1.650000
vertex 7.299471 6.347833 -1.650000
vertex 6.131948 6.732467 -1.650000
endloop
endfacet
facet normal 0.000000 0.000000 1.000000
outer loop
vertex 6.857362 5.005851 -1.650000
vertex 6.131948 6.732467 -1.650000
vertex 5.689840 5.390485 -1.650000
endloop
endfacet
facet normal 0.312902 0.949785 0.000000
outer loop
vertex 0.217652 8.879967 2.354619
vertex 0.217652 8.879967 -1.650000
vertex -1.310912 9.383545 -1.650000
endloop
endfacet
facet normal 0.312902 0.949785 0.000000
outer loop
vertex 0.217652 8.879967 2.354619
vertex -1.310912 9.383545 -1.650000
vertex -1.310912 9.383545 2.354619
endloop
endfacet
facet normal -0.312902 -0.949786 0.000000
outer loop
vertex 1.757093 13.552805 -1.650000
vertex 7.730551 11.584881 -1.650000
vertex 7.730551 11.584881 2.354619
endloop
endfacet
facet normal -0.312902 -0.949786 0.000000
outer loop
vertex 1.757093 13.552805 -1.650000
vertex 7.730551 11.584881 2.354619
vertex 1.757093 13.552805 2.354619
endloop
endfacet
facet normal 0.949786 -0.312901 0.000000
outer loop
vertex 0.593044 15.162832 -1.650000
vertex 0.593044 15.162832 2.354619
vertex 0.228530 14.056381 2.354619
endloop
endfacet
facet normal 0.949786 -0.312901 0.000000
outer loop
vertex 0.593044 15.162832 -1.650000
vertex 0.228530 14.056381 2.354619
vertex 0.228530 14.056381 -1.650000
endloop
endfacet
facet normal -0.312902 -0.949785 0.000000
outer loop
vertex 1.450578 14.880322 -1.650000
vertex 1.450578 14.880322 2.354619
vertex 0.593044 15.162832 2.354619
endloop
endfacet
facet normal -0.312902 -0.949785 0.000000
outer loop
vertex 1.450578 14.880322 -1.650000
vertex 0.593044 15.162832 2.354619
vertex 0.593044 15.162832 -1.650000
endloop
endfacet
facet normal -0.949786 0.312902 0.000000
outer loop
vertex 1.086064 13.773871 -1.650000
vertex 1.086064 13.773871 2.354619
vertex 1.450578 14.880322 2.354619
endloop
endfacet
facet normal -0.949786 0.312902 0.000000
outer loop
vertex 1.086064 13.773871 -1.650000
vertex 1.450578 14.880322 2.354619
vertex 1.450578 14.880322 -1.650000
endloop
endfacet
facet normal -0.312901 -0.949786 0.000000
outer loop
vertex 1.757093 13.552805 -1.650000
vertex 1.757093 13.552805 2.354619
vertex 1.086064 13.773871 2.354619
endloop
endfacet
facet normal -0.312901 -0.949786 0.000000
outer loop
vertex 1.757093 13.552805 -1.650000
vertex 1.086064 13.773871 2.354619
vertex 1.086064 13.773871 -1.650000
endloop
endfacet
facet normal -0.312902 -0.949786 0.000000
outer loop
vertex 0.228530 14.056381 -1.650000
vertex 0.228530 14.056381 2.354619
vertex -6.184110 16.168991 2.354619
endloop
endfacet
facet normal -0.312902 -0.949786 0.000000
outer loop
vertex 0.228530 14.056381 -1.650000
vertex -6.184110 16.168991 2.354619
vertex -6.184110 16.168991 -1.650000
endloop
endfacet
facet normal -0.949785 0.312902 0.000000
outer loop
vertex -1.310912 9.383545 2.354619
vertex -1.310912 9.383545 -1.650000
vertex -3.208590 3.623313 -1.650000
endloop
endfacet
facet normal -0.949786 0.312902 0.000000
outer loop
vertex -1.310912 9.383545 2.354619
vertex -3.208590 3.623313 -1.650000
vertex -3.208590 3.623313 2.354619
endloop
endfacet
facet normal 0.000000 0.000000 1.000000
outer loop
vertex -1.310912 9.383545 -1.650000
vertex 0.217652 8.879967 -1.650000
vertex 1.757093 13.552805 -1.650000
endloop
endfacet
facet normal 0.000000 0.000000 1.000000
outer loop
vertex -1.310912 9.383545 -1.650000
vertex 1.757093 13.552805 -1.650000
vertex 0.228530 14.056381 -1.650000
endloop
endfacet
facet normal 0.000000 0.000000 1.000000
outer loop
vertex 0.228530 14.056381 -1.650000
vertex 1.086064 13.773871 -1.650000
vertex 1.450578 14.880322 -1.650000
endloop
endfacet
facet normal 0.000000 0.000000 1.000000
outer loop
vertex 0.228530 14.056381 -1.650000
vertex 1.450578 14.880322 -1.650000
vertex 0.593044 15.162832 -1.650000
endloop
endfacet
facet normal 0.000000 0.000000 1.000000
outer loop
vertex -1.310912 9.383545 -1.650000
vertex 0.228530 14.056381 -1.650000
vertex -2.790887 15.051113 -1.650000
endloop
endfacet
facet normal -0.000000 0.000000 1.000000
outer loop
vertex -1.310912 9.383545 -1.650000
vertex -2.790887 15.051113 -1.650000
vertex -4.330328 10.378275 -1.650000
endloop
endfacet
facet normal 0.000000 0.000000 1.000000
outer loop
vertex -1.310912 9.383545 -1.650000
vertex -4.330328 10.378275 -1.650000
vertex -6.228006 4.618044 -1.650000
endloop
endfacet
facet normal 0.000000 0.000000 1.000000
outer loop
vertex -1.310912 9.383545 -1.650000
vertex -6.228006 4.618044 -1.650000
vertex -3.208590 3.623313 -1.650000
endloop
endfacet
facet normal 0.312902 0.949785 0.000000
outer loop
vertex -3.208590 3.623313 2.354619
vertex -3.208590 3.623313 -1.650000
vertex -6.228006 4.618044 -1.650000
endloop
endfacet
facet normal 0.312902 0.949785 0.000000
outer loop
vertex -3.208590 3.623313 2.354619
vertex -6.228006 4.618044 -1.650000
vertex -6.228006 4.618044 2.354619
endloop
endfacet
facet normal 0.949785 -0.312902 0.000000
outer loop
vertex -5.437865 7.016447 -1.650000
vertex -3.487255 12.937348 -1.650000
vertex -3.487255 12.937349 2.354619
endloop
endfacet
facet normal 0.949786 -0.312902 0.000000
outer loop
vertex -5.437865 7.016447 -1.650000
vertex -3.487255 12.937349 2.354619
vertex -5.437865 7.016447 2.354619
endloop
endfacet
facet normal -0.949785 0.312902 0.000000
outer loop
vertex -6.228006 4.618044 2.354619
vertex -6.228006 4.618044 -1.650000
vertex -6.542797 3.662527 -1.650000
endloop
endfacet
facet normal -0.949786 0.312901 0.000000
outer loop
vertex -6.228006 4.618044 2.354619
vertex -6.542797 3.662527 -1.650000
vertex -6.542797 3.662527 2.354619
endloop
endfacet
facet normal 0.312902 0.949786 0.000000
outer loop
vertex -6.542797 3.662527 2.354619
vertex -6.542797 3.662527 -1.650000
vertex -7.589700 4.007423 -1.650000
endloop
endfacet
facet normal 0.312902 0.949785 0.000000
outer loop
vertex -6.542797 3.662527 2.354619
vertex -7.589700 4.007423 -1.650000
vertex -7.589700 4.007423 2.354619
endloop
endfacet
facet normal 0.949786 -0.312901 0.000000
outer loop
vertex -7.589700 4.007423 2.354619
vertex -7.589700 4.007423 -1.650000
vertex -7.274910 4.962940 -1.650000
endloop
endfacet
facet normal 0.949785 -0.312902 0.000000
outer loop
vertex -7.589700 4.007423 2.354619
vertex -7.274910 4.962940 -1.650000
vertex -7.274910 4.962940 2.354619
endloop
endfacet
facet normal 0.312902 0.949786 0.000000
outer loop
vertex -7.274910 4.962940 2.354619
vertex -7.274910 4.962940 -1.650000
vertex -9.621227 5.735922 -1.650000
endloop
endfacet
facet normal 0.312902 0.949785 0.000000
outer loop
vertex -7.274910 4.962940 2.354619
vertex -9.621227 5.735922 -1.650000
vertex -9.621227 5.735922 2.354619
endloop
endfacet
facet normal -0.312901 -0.949786 0.000000
outer loop
vertex -5.437865 7.016447 -1.650000
vertex -5.437865 7.016447 2.354619
vertex -6.484769 7.361343 2.354619
endloop
endfacet
facet normal -0.312902 -0.949786 0.000000
outer loop
vertex -5.437865 7.016447 -1.650000
vertex -6.484769 7.361343 2.354619
vertex -6.484769 7.361343 -1.650000
endloop
endfacet
facet normal 0.000000 0.000000 1.000000
outer loop
vertex -5.437865 7.016447 -1.650000
vertex -6.484769 7.361343 -1.650000
vertex -7.274910 4.962940 -1.650000
endloop
endfacet
facet normal 0.000000 0.000000 1.000000
outer loop
vertex -5.437865 7.016447 -1.650000
vertex -7.274910 4.962940 -1.650000
vertex -6.228006 4.618044 -1.650000
endloop
endfacet
facet normal -0.949786 0.312902 0.000000
outer loop
vertex -6.484769 7.361343 -1.650000
vertex -6.484769 7.361343 2.354619
vertex -4.534159 13.282246 2.354619
endloop
endfacet
facet normal -0.949785 0.312902 0.000000
outer loop
vertex -6.484769 7.361343 -1.650000
vertex -4.534159 13.282246 2.354619
vertex -4.534159 13.282246 -1.650000
endloop
endfacet
facet normal 0.312901 0.949786 0.000000
outer loop
vertex -4.534159 13.282246 -1.650000
vertex -4.534159 13.282246 2.354619
vertex -3.487255 12.937349 2.354619
endloop
endfacet
facet normal 0.312902 0.949785 -0.000001
outer loop
vertex -4.534159 13.282246 -1.650000
vertex -3.487255 12.937349 2.354619
vertex -3.487255 12.937348 -1.650000
endloop
endfacet
facet normal 0.000000 0.000000 1.000000
outer loop
vertex -9.621227 5.735922 -1.650000
vertex -7.274910 4.962940 -1.650000
vertex -3.837790 15.396009 -1.650000
endloop
endfacet
facet normal 0.000000 0.000000 1.000000
outer loop
vertex -9.621227 5.735922 -1.650000
vertex -3.837790 15.396009 -1.650000
vertex -6.184110 16.168991 -1.650000
endloop
endfacet
facet normal 0.949786 -0.312902 0.000000
outer loop
vertex -9.621227 5.735922 2.354619
vertex -9.621227 5.735922 -1.650000
vertex -8.208357 10.024564 -1.650000
endloop
endfacet
facet normal 0.949785 -0.312902 0.000000
outer loop
vertex -9.621227 5.735922 2.354619
vertex -8.208357 10.024564 -1.650000
vertex -8.208357 10.024564 2.354619
endloop
endfacet
facet normal 0.000000 0.000000 1.000000
outer loop
vertex -4.534159 13.282246 -1.650000
vertex -3.487255 12.937348 -1.650000
vertex -2.790887 15.051113 -1.650000
endloop
endfacet
facet normal 0.000000 0.000000 1.000000
outer loop
vertex -4.534159 13.282246 -1.650000
vertex -2.790887 15.051113 -1.650000
vertex -3.837790 15.396009 -1.650000
endloop
endfacet
facet normal 0.000000 0.000000 1.000000
outer loop
vertex -6.228006 4.618044 -1.650000
vertex -7.274910 4.962940 -1.650000
vertex -7.589700 4.007423 -1.650000
endloop
endfacet
facet normal 0.000000 0.000000 1.000000
outer loop
vertex -6.228006 4.618044 -1.650000
vertex -7.589700 4.007423 -1.650000
vertex -6.542797 3.662527 -1.650000
endloop
endfacet
facet normal 0.312902 0.949785 0.000000
outer loop
vertex -8.208357 10.024564 2.354619
vertex -8.208357 10.024564 -1.650000
vertex -8.946374 10.267700 -1.650000
endloop
endfacet
facet normal 0.312903 0.949785 0.000000
outer loop
vertex -8.208357 10.024564 2.354619
vertex -8.946374 10.267700 -1.650000
vertex -8.946374 10.267700 2.354619
endloop
endfacet
facet normal 0.949786 -0.312902 0.000000
outer loop
vertex -8.946374 10.267700 2.354619
vertex -8.946374 10.267700 -1.650000
vertex -8.409661 11.896845 -1.650000
endloop
endfacet
facet normal 0.949786 -0.312902 0.000000
outer loop
vertex -8.946374 10.267700 2.354619
vertex -8.409661 11.896845 -1.650000
vertex -8.409661 11.896845 2.354619
endloop
endfacet
facet normal -0.312903 -0.949785 0.000000
outer loop
vertex -8.409661 11.896845 2.354619
vertex -8.409661 11.896845 -1.650000
vertex -7.671644 11.653708 -1.650000
endloop
endfacet
facet normal -0.312902 -0.949785 0.000000
outer loop
vertex -8.409661 11.896845 2.354619
vertex -7.671644 11.653708 -1.650000
vertex -7.671644 11.653708 2.354619
endloop
endfacet
facet normal 0.949786 -0.312901 0.000000
outer loop
vertex -7.671644 11.653708 2.354619
vertex -7.671644 11.653708 -1.650000
vertex -6.184110 16.168991 -1.650000
endloop
endfacet
facet normal 0.949785 -0.312902 0.000000
outer loop
vertex -7.671644 11.653708 2.354619
vertex -6.184110 16.168991 -1.650000
vertex -6.184110 16.168991 2.354619
endloop
endfacet
facet normal 0.000000 0.000000 1.000000
outer loop
vertex -8.208357 10.024564 -1.650000
vertex -7.671644 11.653708 -1.650000
vertex -8.409661 11.896845 -1.650000
endloop
endfacet
facet normal 0.000000 0.000000 1.000000
outer loop
vertex -8.208357 10.024564 -1.650000
vertex -8.409661 11.896845 -1.650000
vertex -8.946374 10.267700 -1.650000
endloop
endfacet
facet normal -0.000000 0.000000 -1.000000
outer loop
vertex -6.542797 3.662527 2.354619
vertex -7.589700 4.007423 2.354619
vertex -7.274910 4.962940 2.354619
endloop
endfacet
facet normal 0.000000 0.000000 -1.000000
outer loop
vertex -6.542797 3.662527 2.354619
vertex -7.274910 4.962940 2.354619
vertex -6.228006 4.618044 2.354619
endloop
endfacet
facet normal 0.000000 0.000000 -1.000000
outer loop
vertex -8.946374 10.267700 2.354619
vertex -8.409661 11.896845 2.354619
vertex -7.671644 11.653708 2.354619
endloop
endfacet
facet normal 0.000000 0.000000 -1.000000
outer loop
vertex -8.946374 10.267700 2.354619
vertex -7.671644 11.653708 2.354619
vertex -8.208357 10.024564 2.354619
endloop
endfacet
facet normal 0.000000 0.000000 -1.000000
outer loop
vertex 0.593044 15.162832 2.354619
vertex 1.450578 14.880322 2.354619
vertex 1.086064 13.773871 2.354619
endloop
endfacet
facet normal 0.000000 0.000000 -1.000000
outer loop
vertex 0.593044 15.162832 2.354619
vertex 1.086064 13.773871 2.354619
vertex 0.228530 14.056381 2.354619
endloop
endfacet
facet normal 0.000000 0.000000 -1.000000
outer loop
vertex 0.217652 8.879967 2.354619
vertex -1.310912 9.383545 2.354619
vertex 0.228530 14.056381 2.354619
endloop
endfacet
facet normal 0.000000 0.000000 -1.000000
outer loop
vertex 0.217652 8.879967 2.354619
vertex 0.228530 14.056381 2.354619
vertex 1.757093 13.552805 2.354619
endloop
endfacet
facet normal -0.000000 0.000000 -1.000000
outer loop
vertex 5.689840 5.390485 2.354619
vertex 6.131948 6.732467 2.354619
vertex 7.299471 6.347833 2.354619
endloop
endfacet
facet normal 0.000000 0.000000 -1.000000
outer loop
vertex 5.689840 5.390485 2.354619
vertex 7.299471 6.347833 2.354619
vertex 6.857362 5.005851 2.354619
endloop
endfacet
facet normal 0.000000 0.000000 -1.000000
outer loop
vertex 2.739535 0.843966 2.354619
vertex -0.621757 1.951325 2.354619
vertex -0.311480 2.893143 2.354619
endloop
endfacet
facet normal 0.000000 0.000000 -1.000000
outer loop
vertex 2.739535 0.843966 2.354619
vertex -0.311480 2.893143 2.354619
vertex 3.049812 1.785784 2.354619
endloop
endfacet
facet normal 0.000000 0.000000 -1.000000
outer loop
vertex -2.343850 2.518660 2.354619
vertex 4.870961 0.141779 2.354619
vertex 3.132822 -5.134188 2.354619
endloop
endfacet
facet normal -0.000000 0.000000 -1.000000
outer loop
vertex -2.343850 2.518660 2.354619
vertex 3.132822 -5.134188 2.354619
vertex -4.081989 -2.757306 2.354619
endloop
endfacet
facet normal -0.000000 0.000000 -1.000000
outer loop
vertex -4.534159 13.282246 2.354619
vertex -6.484769 7.361343 2.354619
vertex -8.831085 8.134325 2.354619
endloop
endfacet
facet normal 0.000000 0.000000 -1.000000
outer loop
vertex -4.534159 13.282246 2.354619
vertex -8.831085 8.134325 2.354619
vertex -6.880475 14.055227 2.354619
endloop
endfacet
facet normal 0.000000 0.000000 -1.000000
outer loop
vertex -5.437865 7.016447 2.354619
vertex -3.487255 12.937349 2.354619
vertex -0.467839 11.942617 2.354619
endloop
endfacet
facet normal 0.000000 0.000000 -1.000000
outer loop
vertex -5.437865 7.016447 2.354619
vertex -0.467839 11.942617 2.354619
vertex -2.418448 6.021716 2.354619
endloop
endfacet
facet normal 0.000000 0.000000 -1.000000
outer loop
vertex -6.184110 16.168991 2.354619
vertex 0.228530 14.056381 2.354619
vertex -0.467839 11.942617 2.354619
endloop
endfacet
facet normal 0.000000 0.000000 -1.000000
outer loop
vertex -6.184110 16.168991 2.354619
vertex -0.467839 11.942617 2.354619
vertex -6.880475 14.055227 2.354619
endloop
endfacet
facet normal 0.000000 0.000000 -1.000000
outer loop
vertex -5.437865 7.016447 2.354619
vertex -2.418448 6.021716 2.354619
vertex -3.208590 3.623313 2.354619
endloop
endfacet
facet normal 0.000000 0.000000 -1.000000
outer loop
vertex -5.437865 7.016447 2.354619
vertex -3.208590 3.623313 2.354619
vertex -6.228006 4.618044 2.354619
endloop
endfacet
facet normal -0.000000 0.000000 -1.000000
outer loop
vertex -5.437865 7.016447 2.354619
vertex -6.228006 4.618044 2.354619
vertex -9.621227 5.735922 2.354619
endloop
endfacet
facet normal 0.000000 0.000000 -1.000000
outer loop
vertex -5.437865 7.016447 2.354619
vertex -9.621227 5.735922 2.354619
vertex -8.831085 8.134325 2.354619
endloop
endfacet
facet normal 0.000000 0.000000 1.000000
outer loop
vertex 3.052262 7.455548 -1.650000
vertex 6.045316 6.469501 -1.650000
vertex 7.730551 11.584881 -1.650000
endloop
endfacet
facet normal -0.000000 0.000000 1.000000
outer loop
vertex 3.052262 7.455548 -1.650000
vertex 7.730551 11.584881 -1.650000
vertex 4.737496 12.570927 -1.650000
endloop
endfacet
facet normal -0.000000 0.000000 1.000000
outer loop
vertex 1.367028 2.340168 -1.650000
vertex 4.360082 1.354122 -1.650000
vertex 6.045316 6.469501 -1.650000
endloop
endfacet
facet normal 0.000000 0.000000 1.000000
outer loop
vertex 1.367028 2.340168 -1.650000
vertex 6.045316 6.469501 -1.650000
vertex 3.052262 7.455548 -1.650000
endloop
endfacet
facet normal -0.000000 0.000000 1.000000
outer loop
vertex -1.613376 3.322046 -1.650000
vertex 1.367028 2.340168 -1.650000
vertex 3.052262 7.455548 -1.650000
endloop
endfacet
facet normal 0.000000 0.000000 1.000000
outer loop
vertex -1.613376 3.322046 -1.650000
vertex 3.052262 7.455548 -1.650000
vertex 0.071859 8.437426 -1.650000
endloop
endfacet
facet normal -0.000000 0.000000 -1.000000
outer loop
vertex 1.757093 13.552805 2.354619
vertex 7.730551 11.584881 2.354619
vertex 4.360082 1.354122 2.354619
endloop
endfacet
facet normal 0.000000 0.000000 -1.000000
outer loop
vertex 1.757093 13.552805 2.354619
vertex 4.360082 1.354122 2.354619
vertex -1.613376 3.322046 2.354619
endloop
endfacet
endsolid Exported from Blender-4.0.2
