solid Exported from Blender-4.0.2
facet normal -0.000000 0.000000 1.000000
outer loop
vertex -10.318501 2.199628 -1.845978
vertex -10.575257 -5.392284 -1.845978
vertex -5.023530 -5.580043 -1.845978
endloop
endfacet
facet normal 0.000000 0.000000 1.000000
outer loop
vertex -10.318501 2.199628 -1.845978
vertex -5.023530 -5.580043 -1.845978
vertex -4.766772 2.011870 -1.845978
endloop
endfacet
facet normal 0.999429 -0.033800 0.000000
outer loop
vertex -10.575257 -5.392284 -1.845978
vertex -10.318501 2.199628 -1.845978
vertex -10.318501 2.199628 2.158641
endloop
endfacet
facet normal 0.999429 -0.033800 0.000000
outer loop
vertex -10.575257 -5.392284 -1.845978
vertex -10.318501 2.199628 2.158641
vertex -10.575257 -5.392284 2.158641
endloop
endfacet
facet normal -0.033800 -0.999429 0.000000
outer loop
vertex -10.318501 2.199628 -1.845978
vertex -4.766772 2.011870 -1.845978
vertex -4.766772 2.011870 2.158641
endloop
endfacet
facet normal -0.033800 -0.999429 0.000000
outer loop
vertex -10.318501 2.199628 -1.845978
vertex -4.766772 2.011870 2.158641
vertex -10.318501 2.199628 2.158641
endloop
endfacet
facet normal 0.033801 0.999429 0.000000
outer loop
vertex -10.575257 -5.392284 -1.845978
vertex -10.575257 -5.392284 2.158641
vertex -5.023530 -5.580043 2.158641
endloop
endfacet
facet normal 0.033800 0.999429 0.000000
outer loop
vertex -10.575257 -5.392284 -1.845978
vertex -5.023530 -5.580043 2.158641
vertex -5.023530 -5.580043 -1.845978
endloop
endfacet
facet normal -0.999429 0.033800 0.000000
outer loop
vertex -4.766772 2.011870 2.158641
vertex -4.766772 2.011870 -1.845978
vertex -4.828057 0.199766 -1.845978
endloop
endfacet
facet normal -0.999429 0.033800 0.000000
outer loop
vertex -4.766772 2.011870 2.158641
vertex -4.828057 0.199766 -1.845978
vertex -4.828057 0.199766 2.158641
endloop
endfacet
facet normal -0.999429 0.033801 0.000000
outer loop
vertex -5.023530 -5.580043 -1.845978
vertex -5.023530 -5.580043 2.158641
vertex -4.947677 -3.337212 2.158641
endloop
endfacet
facet normal -0.999429 0.033801 0.000000
outer loop
vertex -5.023530 -5.580043 -1.845978
vertex -4.947677 -3.337212 2.158641
vertex -4.947677 -3.337212 -1.845978
endloop
endfacet
facet normal 0.033800 0.999429 0.000000
outer loop
vertex -4.947677 -3.337212 -1.845978
vertex -4.947677 -3.337212 2.158641
vertex -3.956632 -3.370729 2.158641
endloop
endfacet
facet normal 0.033800 0.999429 0.000000
outer loop
vertex -4.947677 -3.337212 -1.845978
vertex -3.956632 -3.370729 2.158641
vertex -3.956632 -3.370729 -1.845978
endloop
endfacet
facet normal -0.033801 -0.999429 0.000000
outer loop
vertex -4.828057 0.199766 2.158641
vertex -4.828057 0.199766 -1.845978
vertex -3.837012 0.166249 -1.845978
endloop
endfacet
facet normal -0.033801 -0.999429 0.000000
outer loop
vertex -4.828057 0.199766 2.158641
vertex -3.837012 0.166249 -1.845978
vertex -3.837012 0.166249 2.158641
endloop
endfacet
facet normal 0.000000 0.000000 1.000000
outer loop
vertex -3.956632 -3.370729 -1.845978
vertex -3.837012 0.166249 -1.845978
vertex -4.828057 0.199766 -1.845978
endloop
endfacet
facet normal 0.000000 0.000000 1.000000
outer loop
vertex -3.956632 -3.370729 -1.845978
vertex -4.828057 0.199766 -1.845978
vertex -4.947677 -3.337212 -1.845978
endloop
endfacet
facet normal 0.999429 -0.033801 0.000000
outer loop
vertex -3.956632 -3.370729 -1.845978
vertex -3.956632 -3.370729 2.158641
vertex -4.003262 -4.749484 2.158641
endloop
endfacet
facet normal 0.999429 -0.033801 0.000000
outer loop
vertex -3.956632 -3.370729 -1.845978
vertex -4.003262 -4.749484 2.158641
vertex -4.003262 -4.749484 -1.845978
endloop
endfacet
facet normal 0.000000 0.000000 1.000000
outer loop
vertex 1.592067 1.354149 -1.845978
vertex 1.486002 -1.782033 -1.845978
vertex 6.868751 -1.964077 -1.845978
endloop
endfacet
facet normal 0.000000 0.000000 1.000000
outer loop
vertex 1.592067 1.354149 -1.845978
vertex 6.868751 -1.964077 -1.845978
vertex 6.974816 1.172105 -1.845978
endloop
endfacet
facet normal 0.033801 0.999429 0.000000
outer loop
vertex -4.003262 -4.749484 -1.845978
vertex -4.003262 -4.749484 2.158641
vertex 0.244072 -4.893128 2.158641
endloop
endfacet
facet normal 0.033801 0.999429 0.000000
outer loop
vertex -4.003262 -4.749484 -1.845978
vertex 0.244072 -4.893128 2.158641
vertex 0.244072 -4.893128 -1.845978
endloop
endfacet
facet normal 0.999429 -0.033801 0.000000
outer loop
vertex -3.837012 0.166249 2.158641
vertex -3.837012 0.166249 -1.845978
vertex -3.790681 1.536193 -1.845978
endloop
endfacet
facet normal 0.999429 -0.033801 0.000000
outer loop
vertex -3.837012 0.166249 2.158641
vertex -3.790681 1.536193 -1.845978
vertex -3.790681 1.536193 2.158641
endloop
endfacet
facet normal -0.033801 -0.999429 0.000000
outer loop
vertex -3.790681 1.536193 2.158641
vertex -3.790681 1.536193 -1.845978
vertex 2.057740 1.338400 -1.845978
endloop
endfacet
facet normal -0.033801 -0.999429 0.000000
outer loop
vertex -3.790681 1.536193 2.158641
vertex 2.057740 1.338400 -1.845978
vertex 2.057740 1.338400 2.158641
endloop
endfacet
facet normal 0.033801 0.999429 0.000000
outer loop
vertex -1.642995 -1.670363 -1.845979
vertex -1.642995 -1.670363 -0.357051
vertex 0.474510 -1.741977 -0.357051
endloop
endfacet
facet normal 0.033801 0.999429 0.000000
outer loop
vertex -1.642995 -1.670363 -1.845979
vertex 0.474510 -1.741977 -0.357051
vertex 0.474510 -1.741977 -1.845979
endloop
endfacet
facet normal 0.999429 -0.033801 0.000000
outer loop
vertex 0.474510 -1.741977 -1.845979
vertex 0.474510 -1.741977 -0.357051
vertex 0.431112 -3.025182 -0.357051
endloop
endfacet
facet normal 0.999429 -0.033801 0.000000
outer loop
vertex 0.474510 -1.741977 -1.845979
vertex 0.431112 -3.025182 -0.357051
vertex 0.431112 -3.025182 -1.845979
endloop
endfacet
facet normal -0.033801 -0.999429 0.000000
outer loop
vertex 0.431112 -3.025182 -1.845979
vertex 0.431112 -3.025182 -0.357051
vertex -1.686393 -2.953568 -0.357051
endloop
endfacet
facet normal -0.033801 -0.999429 0.000000
outer loop
vertex 0.431112 -3.025182 -1.845979
vertex -1.686393 -2.953568 -0.357051
vertex -1.686393 -2.953568 -1.845979
endloop
endfacet
facet normal -0.999429 0.033801 0.000000
outer loop
vertex -1.686393 -2.953568 -1.845979
vertex -1.686393 -2.953568 -0.357051
vertex -1.642995 -1.670363 -0.357051
endloop
endfacet
facet normal -0.999429 0.033801 0.000000
outer loop
vertex -1.686393 -2.953568 -1.845979
vertex -1.642995 -1.670363 -0.357051
vertex -1.642995 -1.670363 -1.845979
endloop
endfacet
facet normal -0.000000 0.000000 -1.000000
outer loop
vertex 0.474510 -1.741977 -1.845979
vertex 0.431112 -3.025182 -1.845979
vertex -1.686393 -2.953568 -1.845979
endloop
endfacet
facet normal 0.000000 0.000000 -1.000000
outer loop
vertex 0.474510 -1.741977 -1.845979
vertex -1.686393 -2.953568 -1.845979
vertex -1.642995 -1.670363 -1.845979
endloop
endfacet
facet normal -0.000000 0.000000 1.000000
outer loop
vertex 0.431112 -3.025182 -0.357051
vertex 0.474510 -1.741977 -0.357051
vertex -1.642995 -1.670363 -0.357051
endloop
endfacet
facet normal 0.000000 0.000000 1.000000
outer loop
vertex 0.431112 -3.025182 -0.357051
vertex -1.642995 -1.670363 -0.357051
vertex -1.686393 -2.953568 -0.357051
endloop
endfacet
facet normal 0.033801 0.999429 0.000000
outer loop
vertex 1.932721 -1.791294 -1.845979
vertex 1.932721 -1.791294 -0.357051
vertex 4.110170 -1.864935 -0.357051
endloop
endfacet
facet normal 0.033800 0.999429 0.000000
outer loop
vertex 1.932721 -1.791294 -1.845979
vertex 4.110170 -1.864935 -0.357051
vertex 4.110170 -1.864935 -1.845979
endloop
endfacet
facet normal 0.999429 -0.033801 0.000000
outer loop
vertex 4.110170 -1.864935 -1.845979
vertex 4.110170 -1.864935 -0.357051
vertex 4.066772 -3.148139 -0.357051
endloop
endfacet
facet normal 0.999429 -0.033801 0.000000
outer loop
vertex 4.110170 -1.864935 -1.845979
vertex 4.066772 -3.148139 -0.357051
vertex 4.066772 -3.148139 -1.845979
endloop
endfacet
facet normal -0.033801 -0.999429 0.000000
outer loop
vertex 4.066772 -3.148139 -1.845979
vertex 4.066772 -3.148139 -0.357051
vertex 1.889323 -3.074498 -0.357051
endloop
endfacet
facet normal -0.033801 -0.999429 0.000000
outer loop
vertex 4.066772 -3.148139 -1.845979
vertex 1.889323 -3.074498 -0.357051
vertex 1.889323 -3.074498 -1.845979
endloop
endfacet
facet normal -0.999429 0.033801 0.000000
outer loop
vertex 1.889323 -3.074498 -1.845979
vertex 1.889323 -3.074498 -0.357051
vertex 1.932721 -1.791294 -0.357051
endloop
endfacet
facet normal -0.999429 0.033801 0.000000
outer loop
vertex 1.889323 -3.074498 -1.845979
vertex 1.932721 -1.791294 -0.357051
vertex 1.932721 -1.791294 -1.845979
endloop
endfacet
facet normal 0.000000 0.000000 -1.000000
outer loop
vertex 4.110170 -1.864935 -1.845979
vertex 4.066772 -3.148139 -1.845979
vertex 1.889323 -3.074498 -1.845979
endloop
endfacet
facet normal 0.000000 0.000000 -1.000000
outer loop
vertex 4.110170 -1.864935 -1.845979
vertex 1.889323 -3.074498 -1.845979
vertex 1.932721 -1.791294 -1.845979
endloop
endfacet
facet normal -0.000000 0.000000 1.000000
outer loop
vertex 4.066772 -3.148139 -0.357051
vertex 4.110170 -1.864935 -0.357051
vertex 1.932721 -1.791294 -0.357051
endloop
endfacet
facet normal 0.000000 0.000000 1.000000
outer loop
vertex 4.066772 -3.148139 -0.357051
vertex 1.932721 -1.791294 -0.357051
vertex 1.889323 -3.074498 -0.357051
endloop
endfacet
facet normal 0.999429 -0.033801 0.000000
outer loop
vertex 0.244072 -4.893128 -1.845978
vertex 0.244072 -4.893128 2.158641
vertex 0.202523 -6.121674 2.158641
endloop
endfacet
facet normal 0.999429 -0.033801 0.000000
outer loop
vertex 0.244072 -4.893128 -1.845978
vertex 0.202523 -6.121674 2.158641
vertex 0.202523 -6.121674 -1.845978
endloop
endfacet
facet normal 0.033800 0.999429 0.000000
outer loop
vertex 0.202523 -6.121674 -1.845978
vertex 0.202523 -6.121674 2.158641
vertex 1.614647 -6.169432 2.158641
endloop
endfacet
facet normal 0.033800 0.999429 0.000000
outer loop
vertex 0.202523 -6.121674 -1.845978
vertex 1.614647 -6.169432 2.158641
vertex 1.614647 -6.169432 -1.845978
endloop
endfacet
facet normal -0.999429 0.033800 0.000000
outer loop
vertex 1.614647 -6.169432 -1.845978
vertex 1.614647 -6.169432 2.158641
vertex 1.656196 -4.940885 2.158641
endloop
endfacet
facet normal -0.999429 0.033801 0.000000
outer loop
vertex 1.614647 -6.169432 -1.845978
vertex 1.656196 -4.940885 2.158641
vertex 1.656196 -4.940885 -1.845978
endloop
endfacet
facet normal 0.033801 0.999429 0.000000
outer loop
vertex 1.656196 -4.940885 -1.845978
vertex 1.656196 -4.940885 2.158641
vertex 6.762235 -5.113571 2.158641
endloop
endfacet
facet normal 0.033801 0.999429 0.000000
outer loop
vertex 1.656196 -4.940885 -1.845978
vertex 6.762235 -5.113571 2.158641
vertex 6.762235 -5.113571 -1.845978
endloop
endfacet
facet normal -0.000000 0.000000 1.000000
outer loop
vertex 0.202523 -6.121674 -1.845978
vertex 1.614647 -6.169432 -1.845978
vertex 1.656196 -4.940885 -1.845978
endloop
endfacet
facet normal 0.000000 0.000000 1.000000
outer loop
vertex 0.202523 -6.121674 -1.845978
vertex 1.656196 -4.940885 -1.845978
vertex 0.244072 -4.893128 -1.845978
endloop
endfacet
facet normal 0.999429 -0.033800 0.000000
outer loop
vertex 2.057740 1.338400 2.158641
vertex 2.057740 1.338400 -1.845978
vertex 2.112137 2.946858 -1.845978
endloop
endfacet
facet normal 0.999429 -0.033800 0.000000
outer loop
vertex 2.057740 1.338400 2.158641
vertex 2.112137 2.946858 -1.845978
vertex 2.112137 2.946858 2.158641
endloop
endfacet
facet normal -0.999429 0.033801 0.000000
outer loop
vertex 6.974816 1.172105 -1.845978
vertex 6.762235 -5.113571 -1.845978
vertex 6.762235 -5.113571 2.158641
endloop
endfacet
facet normal -0.999429 0.033800 0.000000
outer loop
vertex 6.974816 1.172105 -1.845978
vertex 6.762235 -5.113571 2.158641
vertex 6.974816 1.172105 2.158641
endloop
endfacet
facet normal -0.033801 -0.999429 0.000000
outer loop
vertex 8.193494 2.741187 -1.845978
vertex 8.193494 2.741187 2.158641
vertex 7.029214 2.780563 2.158641
endloop
endfacet
facet normal -0.033801 -0.999429 0.000000
outer loop
vertex 8.193494 2.741187 -1.845978
vertex 7.029214 2.780563 2.158641
vertex 7.029214 2.780563 -1.845978
endloop
endfacet
facet normal -0.999429 0.033802 0.000000
outer loop
vertex 8.162976 1.838832 -1.845978
vertex 8.162976 1.838832 2.158641
vertex 8.193494 2.741187 2.158641
endloop
endfacet
facet normal -0.999429 0.033800 0.000000
outer loop
vertex 8.162976 1.838832 -1.845978
vertex 8.193494 2.741187 2.158641
vertex 8.193494 2.741187 -1.845978
endloop
endfacet
facet normal 0.033801 0.999429 0.000000
outer loop
vertex 6.998696 1.878208 -1.845978
vertex 6.998696 1.878208 2.158641
vertex 8.162976 1.838832 2.158641
endloop
endfacet
facet normal 0.033801 0.999429 0.000000
outer loop
vertex 6.998696 1.878208 -1.845978
vertex 8.162976 1.838832 2.158641
vertex 8.162976 1.838832 -1.845978
endloop
endfacet
facet normal -0.999429 0.033802 0.000000
outer loop
vertex 6.974816 1.172105 -1.845978
vertex 6.974816 1.172105 2.158641
vertex 6.998696 1.878208 2.158641
endloop
endfacet
facet normal -0.999429 0.033800 0.000000
outer loop
vertex 6.974816 1.172105 -1.845978
vertex 6.998696 1.878208 2.158641
vertex 6.998696 1.878208 -1.845978
endloop
endfacet
facet normal -0.999429 0.033801 0.000000
outer loop
vertex 7.029214 2.780563 -1.845978
vertex 7.029214 2.780563 2.158641
vertex 7.257424 9.528377 2.158641
endloop
endfacet
facet normal -0.999429 0.033801 0.000000
outer loop
vertex 7.029214 2.780563 -1.845978
vertex 7.257424 9.528377 2.158641
vertex 7.257424 9.528377 -1.845978
endloop
endfacet
facet normal 0.033801 0.999429 0.000000
outer loop
vertex 2.112137 2.946858 2.158641
vertex 2.112137 2.946858 -1.845978
vertex -3.949168 3.151850 -1.845978
endloop
endfacet
facet normal 0.033801 0.999429 0.000000
outer loop
vertex 2.112137 2.946858 2.158641
vertex -3.949168 3.151850 -1.845978
vertex -3.949168 3.151850 2.158641
endloop
endfacet
facet normal 0.000000 0.000000 1.000000
outer loop
vertex 2.112137 2.946858 -1.845978
vertex 2.057740 1.338400 -1.845978
vertex 6.974816 1.172105 -1.845978
endloop
endfacet
facet normal 0.000000 0.000000 1.000000
outer loop
vertex 2.112137 2.946858 -1.845978
vertex 6.974816 1.172105 -1.845978
vertex 7.029214 2.780563 -1.845978
endloop
endfacet
facet normal -0.000000 0.000000 1.000000
outer loop
vertex 7.029214 2.780563 -1.845978
vertex 6.998696 1.878208 -1.845978
vertex 8.162976 1.838832 -1.845978
endloop
endfacet
facet normal 0.000000 0.000000 1.000000
outer loop
vertex 7.029214 2.780563 -1.845978
vertex 8.162976 1.838832 -1.845978
vertex 8.193494 2.741187 -1.845978
endloop
endfacet
facet normal -0.000000 0.000000 1.000000
outer loop
vertex 2.112137 2.946858 -1.845978
vertex 7.029214 2.780563 -1.845978
vertex 7.136667 5.957798 -1.845978
endloop
endfacet
facet normal 0.000000 0.000000 1.000000
outer loop
vertex 2.112137 2.946858 -1.845978
vertex 7.136667 5.957798 -1.845978
vertex 2.219591 6.124093 -1.845978
endloop
endfacet
facet normal -0.000000 0.000000 1.000000
outer loop
vertex 2.112137 2.946858 -1.845978
vertex 2.219591 6.124093 -1.845978
vertex -3.841714 6.329085 -1.845978
endloop
endfacet
facet normal 0.000000 0.000000 1.000000
outer loop
vertex 2.112137 2.946858 -1.845978
vertex -3.841714 6.329085 -1.845978
vertex -3.949168 3.151850 -1.845978
endloop
endfacet
facet normal 0.999429 -0.033801 0.000000
outer loop
vertex -3.949168 3.151850 2.158641
vertex -3.949168 3.151850 -1.845978
vertex -3.841714 6.329085 -1.845978
endloop
endfacet
facet normal 0.999429 -0.033801 0.000000
outer loop
vertex -3.949168 3.151850 2.158641
vertex -3.841714 6.329085 -1.845978
vertex -3.841714 6.329085 2.158641
endloop
endfacet
facet normal -0.033801 -0.999429 0.000000
outer loop
vertex -1.317952 6.243731 -1.845978
vertex 4.912422 6.033021 -1.845978
vertex 4.912422 6.033021 2.158641
endloop
endfacet
facet normal -0.033800 -0.999429 0.000000
outer loop
vertex -1.317952 6.243731 -1.845978
vertex 4.912422 6.033021 2.158641
vertex -1.317952 6.243731 2.158641
endloop
endfacet
facet normal 0.033800 0.999429 0.000000
outer loop
vertex -3.841714 6.329085 2.158641
vertex -3.841714 6.329085 -1.845978
vertex -4.847175 6.363089 -1.845978
endloop
endfacet
facet normal 0.033800 0.999429 0.000000
outer loop
vertex -3.841714 6.329085 2.158641
vertex -4.847175 6.363089 -1.845978
vertex -4.847175 6.363089 2.158641
endloop
endfacet
facet normal 0.999429 -0.033800 0.000000
outer loop
vertex -4.847175 6.363089 2.158641
vertex -4.847175 6.363089 -1.845978
vertex -4.809918 7.464712 -1.845978
endloop
endfacet
facet normal 0.999429 -0.033802 0.000000
outer loop
vertex -4.847175 6.363089 2.158641
vertex -4.809918 7.464712 -1.845978
vertex -4.809918 7.464712 2.158641
endloop
endfacet
facet normal -0.033800 -0.999429 0.000000
outer loop
vertex -4.809918 7.464712 2.158641
vertex -4.809918 7.464712 -1.845978
vertex -3.804458 7.430707 -1.845978
endloop
endfacet
facet normal -0.033800 -0.999429 0.000000
outer loop
vertex -4.809918 7.464712 2.158641
vertex -3.804458 7.430707 -1.845978
vertex -3.804458 7.430707 2.158641
endloop
endfacet
facet normal 0.999429 -0.033801 0.000000
outer loop
vertex -3.804458 7.430707 2.158641
vertex -3.804458 7.430707 -1.845978
vertex -3.720958 9.899662 -1.845978
endloop
endfacet
facet normal 0.999429 -0.033801 0.000000
outer loop
vertex -3.804458 7.430707 2.158641
vertex -3.720958 9.899662 -1.845978
vertex -3.720958 9.899662 2.158641
endloop
endfacet
facet normal -0.999429 0.033800 0.000000
outer loop
vertex -1.317952 6.243731 -1.845978
vertex -1.317952 6.243731 2.158641
vertex -1.280696 7.345354 2.158641
endloop
endfacet
facet normal -0.999429 0.033801 0.000000
outer loop
vertex -1.317952 6.243731 -1.845978
vertex -1.280696 7.345354 2.158641
vertex -1.280696 7.345354 -1.845978
endloop
endfacet
facet normal -0.000000 0.000000 1.000000
outer loop
vertex -1.317952 6.243731 -1.845978
vertex -1.280696 7.345354 -1.845978
vertex -3.804458 7.430707 -1.845978
endloop
endfacet
facet normal 0.000000 0.000000 1.000000
outer loop
vertex -1.317952 6.243731 -1.845978
vertex -3.804458 7.430707 -1.845978
vertex -3.841714 6.329085 -1.845978
endloop
endfacet
facet normal 0.033800 0.999429 0.000000
outer loop
vertex -1.280696 7.345354 -1.845978
vertex -1.280696 7.345354 2.158641
vertex 4.949678 7.134644 2.158641
endloop
endfacet
facet normal 0.033800 0.999429 0.000000
outer loop
vertex -1.280696 7.345354 -1.845978
vertex 4.949678 7.134644 2.158641
vertex 4.949678 7.134644 -1.845978
endloop
endfacet
facet normal 0.999429 -0.033800 0.000000
outer loop
vertex 4.949678 7.134644 -1.845978
vertex 4.949678 7.134644 2.158641
vertex 4.912422 6.033021 2.158641
endloop
endfacet
facet normal 0.999429 -0.033801 0.000000
outer loop
vertex 4.949678 7.134644 -1.845978
vertex 4.912422 6.033021 2.158641
vertex 4.912422 6.033021 -1.845978
endloop
endfacet
facet normal 0.000000 0.000000 1.000000
outer loop
vertex -3.720958 9.899662 -1.845978
vertex -3.804458 7.430707 -1.845978
vertex 7.173924 7.059420 -1.845978
endloop
endfacet
facet normal 0.000000 0.000000 1.000000
outer loop
vertex -3.720958 9.899662 -1.845978
vertex 7.173924 7.059420 -1.845978
vertex 7.257424 9.528377 -1.845978
endloop
endfacet
facet normal -0.033801 -0.999429 0.000000
outer loop
vertex -3.720958 9.899662 2.158641
vertex -3.720958 9.899662 -1.845978
vertex 0.791841 9.747040 -1.845978
endloop
endfacet
facet normal -0.033801 -0.999429 0.000000
outer loop
vertex -3.720958 9.899662 2.158641
vertex 0.791841 9.747040 -1.845978
vertex 0.791841 9.747040 2.158641
endloop
endfacet
facet normal 0.000000 0.000000 1.000000
outer loop
vertex 4.949678 7.134644 -1.845978
vertex 4.912422 6.033021 -1.845978
vertex 7.136667 5.957798 -1.845978
endloop
endfacet
facet normal -0.000000 0.000000 1.000000
outer loop
vertex 4.949678 7.134644 -1.845978
vertex 7.136667 5.957798 -1.845978
vertex 7.173924 7.059420 -1.845978
endloop
endfacet
facet normal -0.000000 0.000000 1.000000
outer loop
vertex -3.841714 6.329085 -1.845978
vertex -3.804458 7.430707 -1.845978
vertex -4.809918 7.464712 -1.845978
endloop
endfacet
facet normal 0.000000 0.000000 1.000000
outer loop
vertex -3.841714 6.329085 -1.845978
vertex -4.809918 7.464712 -1.845978
vertex -4.847175 6.363089 -1.845978
endloop
endfacet
facet normal 0.999429 -0.033801 0.000000
outer loop
vertex 0.791841 9.747040 2.158641
vertex 0.791841 9.747040 -1.845978
vertex 0.818105 10.523631 -1.845978
endloop
endfacet
facet normal 0.999429 -0.033800 0.000000
outer loop
vertex 0.791841 9.747040 2.158641
vertex 0.818105 10.523631 -1.845978
vertex 0.818105 10.523631 2.158641
endloop
endfacet
facet normal -0.033801 -0.999429 0.000000
outer loop
vertex 0.818105 10.523631 2.158641
vertex 0.818105 10.523631 -1.845978
vertex 2.532401 10.465653 -1.845978
endloop
endfacet
facet normal -0.033801 -0.999429 0.000000
outer loop
vertex 0.818105 10.523631 2.158641
vertex 2.532401 10.465653 -1.845978
vertex 2.532401 10.465653 2.158641
endloop
endfacet
facet normal -0.999429 0.033801 0.000000
outer loop
vertex 2.532401 10.465653 2.158641
vertex 2.532401 10.465653 -1.845978
vertex 2.506137 9.689062 -1.845978
endloop
endfacet
facet normal -0.999429 0.033801 0.000000
outer loop
vertex 2.532401 10.465653 2.158641
vertex 2.506137 9.689062 -1.845978
vertex 2.506137 9.689062 2.158641
endloop
endfacet
facet normal -0.033800 -0.999429 0.000000
outer loop
vertex 2.506137 9.689062 2.158641
vertex 2.506137 9.689062 -1.845978
vertex 7.257424 9.528377 -1.845978
endloop
endfacet
facet normal -0.033800 -0.999429 0.000000
outer loop
vertex 2.506137 9.689062 2.158641
vertex 7.257424 9.528377 -1.845978
vertex 7.257424 9.528377 2.158641
endloop
endfacet
facet normal 0.000000 0.000000 1.000000
outer loop
vertex 0.791841 9.747040 -1.845978
vertex 2.506137 9.689062 -1.845978
vertex 2.532401 10.465653 -1.845978
endloop
endfacet
facet normal 0.000000 0.000000 1.000000
outer loop
vertex 0.791841 9.747040 -1.845978
vertex 2.532401 10.465653 -1.845978
vertex 0.818105 10.523631 -1.845978
endloop
endfacet
facet normal 0.000000 0.000000 -1.000000
outer loop
vertex -4.847175 6.363089 2.158641
vertex -4.809918 7.464712 2.158641
vertex -3.804458 7.430707 2.158641
endloop
endfacet
facet normal 0.000000 0.000000 -1.000000
outer loop
vertex -4.847175 6.363089 2.158641
vertex -3.804458 7.430707 2.158641
vertex -3.841714 6.329085 2.158641
endloop
endfacet
facet normal 0.000000 0.000000 -1.000000
outer loop
vertex 0.818105 10.523631 2.158641
vertex 2.532401 10.465653 2.158641
vertex 2.506137 9.689062 2.158641
endloop
endfacet
facet normal -0.000000 0.000000 -1.000000
outer loop
vertex 0.818105 10.523631 2.158641
vertex 2.506137 9.689062 2.158641
vertex 0.791841 9.747040 2.158641
endloop
endfacet
facet normal -0.000000 0.000000 -1.000000
outer loop
vertex 8.193494 2.741187 2.158641
vertex 8.162976 1.838832 2.158641
vertex 6.998696 1.878208 2.158641
endloop
endfacet
facet normal 0.000000 0.000000 -1.000000
outer loop
vertex 8.193494 2.741187 2.158641
vertex 6.998696 1.878208 2.158641
vertex 7.029214 2.780563 2.158641
endloop
endfacet
facet normal -0.000000 0.000000 -1.000000
outer loop
vertex 2.057740 1.338400 2.158641
vertex 2.112137 2.946858 2.158641
vertex 7.029214 2.780563 2.158641
endloop
endfacet
facet normal 0.000000 0.000000 -1.000000
outer loop
vertex 2.057740 1.338400 2.158641
vertex 7.029214 2.780563 2.158641
vertex 6.974816 1.172105 2.158641
endloop
endfacet
facet normal 0.000000 0.000000 -1.000000
outer loop
vertex 0.244072 -4.893128 2.158641
vertex 1.656196 -4.940885 2.158641
vertex 1.614647 -6.169432 2.158641
endloop
endfacet
facet normal -0.000000 0.000000 -1.000000
outer loop
vertex 0.244072 -4.893128 2.158641
vertex 1.614647 -6.169432 2.158641
vertex 0.202523 -6.121674 2.158641
endloop
endfacet
facet normal 0.000000 0.000000 -1.000000
outer loop
vertex -4.947677 -3.337212 2.158641
vertex -4.828057 0.199766 2.158641
vertex -3.837012 0.166249 2.158641
endloop
endfacet
facet normal 0.000000 0.000000 -1.000000
outer loop
vertex -4.947677 -3.337212 2.158641
vertex -3.837012 0.166249 2.158641
vertex -3.956632 -3.370729 2.158641
endloop
endfacet
facet normal -0.000000 0.000000 -1.000000
outer loop
vertex -4.766772 2.011870 2.158641
vertex -5.023530 -5.580043 2.158641
vertex -10.575257 -5.392284 2.158641
endloop
endfacet
facet normal 0.000000 0.000000 -1.000000
outer loop
vertex -4.766772 2.011870 2.158641
vertex -10.575257 -5.392284 2.158641
vertex -10.318501 2.199628 2.158641
endloop
endfacet
facet normal 0.000000 0.000000 -1.000000
outer loop
vertex 4.949678 7.134644 2.158641
vertex -1.280696 7.345354 2.158641
vertex -1.197196 9.814308 2.158641
endloop
endfacet
facet normal -0.000000 0.000000 -1.000000
outer loop
vertex 4.949678 7.134644 2.158641
vertex -1.197196 9.814308 2.158641
vertex 5.033178 9.603598 2.158641
endloop
endfacet
facet normal 0.000000 0.000000 -1.000000
outer loop
vertex -1.317952 6.243731 2.158641
vertex 4.912422 6.033021 2.158641
vertex 4.804968 2.855787 2.158641
endloop
endfacet
facet normal 0.000000 0.000000 -1.000000
outer loop
vertex -1.317952 6.243731 2.158641
vertex 4.804968 2.855787 2.158641
vertex -1.425406 3.066497 2.158641
endloop
endfacet
facet normal -0.000000 0.000000 -1.000000
outer loop
vertex 7.257424 9.528377 2.158641
vertex 7.029214 2.780563 2.158641
vertex 4.804968 2.855787 2.158641
endloop
endfacet
facet normal 0.000000 0.000000 -1.000000
outer loop
vertex 7.257424 9.528377 2.158641
vertex 4.804968 2.855787 2.158641
vertex 5.033178 9.603598 2.158641
endloop
endfacet
facet normal -0.000000 0.000000 -1.000000
outer loop
vertex -1.317952 6.243731 2.158641
vertex -1.425406 3.066497 2.158641
vertex -3.949168 3.151850 2.158641
endloop
endfacet
facet normal 0.000000 0.000000 -1.000000
outer loop
vertex -1.317952 6.243731 2.158641
vertex -3.949168 3.151850 2.158641
vertex -3.841714 6.329085 2.158641
endloop
endfacet
facet normal 0.000000 0.000000 -1.000000
outer loop
vertex -1.317952 6.243731 2.158641
vertex -3.841714 6.329085 2.158641
vertex -3.720958 9.899662 2.158641
endloop
endfacet
facet normal -0.000000 0.000000 -1.000000
outer loop
vertex -1.317952 6.243731 2.158641
vertex -3.720958 9.899662 2.158641
vertex -1.197196 9.814308 2.158641
endloop
endfacet
facet normal -0.000000 0.000000 1.000000
outer loop
vertex 1.486002 -1.782033 -1.845978
vertex 1.379487 -4.931527 -1.845978
vertex 6.762235 -5.113571 -1.845978
endloop
endfacet
facet normal 0.000000 0.000000 1.000000
outer loop
vertex 1.486002 -1.782033 -1.845978
vertex 6.762235 -5.113571 -1.845978
vertex 6.868751 -1.964077 -1.845978
endloop
endfacet
facet normal -0.000000 0.000000 1.000000
outer loop
vertex -3.896746 -1.599990 -1.845978
vertex -4.003262 -4.749484 -1.845978
vertex 1.379487 -4.931527 -1.845978
endloop
endfacet
facet normal 0.000000 0.000000 1.000000
outer loop
vertex -3.896746 -1.599990 -1.845978
vertex 1.379487 -4.931527 -1.845978
vertex 1.486002 -1.782033 -1.845978
endloop
endfacet
facet normal -0.000000 0.000000 1.000000
outer loop
vertex -3.790681 1.536193 -1.845978
vertex -3.896746 -1.599990 -1.845978
vertex 1.486002 -1.782033 -1.845978
endloop
endfacet
facet normal 0.000000 0.000000 1.000000
outer loop
vertex -3.790681 1.536193 -1.845978
vertex 1.486002 -1.782033 -1.845978
vertex 1.592067 1.354149 -1.845978
endloop
endfacet
facet normal 0.000000 0.000000 -1.000000
outer loop
vertex 6.974816 1.172105 2.158641
vertex 6.762235 -5.113571 2.158641
vertex -4.003262 -4.749484 2.158641
endloop
endfacet
facet normal 0.000000 0.000000 -1.000000
outer loop
vertex 6.974816 1.172105 2.158641
vertex -4.003262 -4.749484 2.158641
vertex -3.790681 1.536193 2.158641
endloop
endfacet
endsolid Exported from Blender-4.0.2
